<svg xmlns="http://www.w3.org/2000/svg" xmlns:xlink="http://www.w3.org/1999/xlink" width="907" zoomAndPan="magnify" viewBox="0 0 680.25 113.249998" height="151" preserveAspectRatio="xMidYMid meet" version="1.0"><defs><g/><clipPath id="d431c4d149"><path d="M 0.25 0 L 599.878906 0 L 599.878906 109.671875 L 0.25 109.671875 Z M 0.25 0 " clip-rule="nonzero"/></clipPath><clipPath id="92ed271f81"><rect x="0" width="600" y="0" height="110"/></clipPath><clipPath id="fab3591123"><rect x="0" width="600" y="0" height="110"/></clipPath></defs><g transform="matrix(1, 0, 0, 1, 40, 0.000000000000002895)"><g clip-path="url(#fab3591123)"><g clip-path="url(#d431c4d149)"><g transform="matrix(1, 0, 0, 1, 0, 0.000000000000002895)"><g clip-path="url(#92ed271f81)"><g fill="#545454" fill-opacity="1"><g transform="translate(1.255786, 55.0321)"><g><path d="M 4.6875 -0.28125 C 5.175781 -0.945312 5.585938 -1.78125 5.921875 -2.78125 C 6.253906 -3.789062 6.421875 -4.820312 6.421875 -5.875 L 6.421875 -33.25 C 6.421875 -34.289062 6.253906 -35.316406 5.921875 -36.328125 C 5.585938 -37.335938 5.175781 -38.175781 4.6875 -38.84375 L 4.6875 -39.125 L 29.90625 -39.125 L 31.078125 -29.90625 L 30.515625 -29.90625 C 29.734375 -31.6875 28.910156 -33.144531 28.046875 -34.28125 C 27.191406 -35.425781 26.078125 -36.320312 24.703125 -36.96875 C 23.328125 -37.625 21.613281 -37.953125 19.5625 -37.953125 L 11.734375 -37.953125 L 11.734375 -20.40625 L 19.171875 -20.40625 C 22.484375 -20.40625 24.53125 -22.023438 25.3125 -25.265625 L 25.875 -25.265625 L 25.875 -14.359375 L 25.3125 -14.359375 C 24.5 -17.597656 22.453125 -19.21875 19.171875 -19.21875 L 11.734375 -19.21875 L 11.734375 -1.171875 L 20.90625 -1.171875 C 22.957031 -1.171875 24.671875 -1.492188 26.046875 -2.140625 C 27.421875 -2.796875 28.535156 -3.691406 29.390625 -4.828125 C 30.253906 -5.972656 31.078125 -7.4375 31.859375 -9.21875 L 32.421875 -9.21875 L 31.25 0 L 4.6875 0 Z M 4.6875 -0.28125 "/></g></g></g><g fill="#545454" fill-opacity="1"><g transform="translate(35.966041, 55.0321)"><g><path d="M 3.859375 10.90625 C 4.828125 9.5625 5.3125 7.828125 5.3125 5.703125 L 5.3125 -20.625 C 5.3125 -21.851562 5.171875 -22.867188 4.890625 -23.671875 C 4.609375 -24.472656 4.171875 -25.171875 3.578125 -25.765625 L 3.578125 -26.046875 L 10 -28.5625 L 10.28125 -28.5625 L 10.28125 -23.03125 L 10.5625 -23.03125 C 11.3125 -24.664062 12.445312 -25.992188 13.96875 -27.015625 C 15.5 -28.046875 17.234375 -28.5625 19.171875 -28.5625 C 21.585938 -28.5625 23.660156 -27.960938 25.390625 -26.765625 C 27.128906 -25.578125 28.453125 -23.945312 29.359375 -21.875 C 30.273438 -19.8125 30.734375 -17.472656 30.734375 -14.859375 C 30.734375 -11.921875 30.128906 -9.269531 28.921875 -6.90625 C 27.710938 -4.539062 26.082031 -2.695312 24.03125 -1.375 C 21.976562 -0.0507812 19.757812 0.609375 17.375 0.609375 C 14.550781 0.609375 12.1875 -0.1875 10.28125 -1.78125 L 10.28125 5.703125 C 10.28125 7.828125 10.765625 9.5625 11.734375 10.90625 L 11.734375 11.171875 L 3.859375 11.171875 Z M 17.4375 -0.671875 C 19.96875 -0.671875 21.96875 -1.820312 23.4375 -4.125 C 24.914062 -6.4375 25.65625 -9.53125 25.65625 -13.40625 C 25.65625 -15.832031 25.300781 -17.957031 24.59375 -19.78125 C 23.882812 -21.613281 22.894531 -23.015625 21.625 -23.984375 C 20.363281 -24.953125 18.929688 -25.4375 17.328125 -25.4375 C 15.347656 -25.4375 13.707031 -24.8125 12.40625 -23.5625 C 11.101562 -22.3125 10.394531 -20.695312 10.28125 -18.71875 L 10.28125 -8.265625 C 10.351562 -7.078125 10.671875 -5.894531 11.234375 -4.71875 C 11.796875 -3.550781 12.609375 -2.582031 13.671875 -1.8125 C 14.734375 -1.050781 15.988281 -0.671875 17.4375 -0.671875 Z M 17.4375 -0.671875 "/></g></g></g><g fill="#545454" fill-opacity="1"><g transform="translate(69.334827, 55.0321)"><g><path d="M 4.1875 -0.28125 C 5.15625 -1.625 5.640625 -3.359375 5.640625 -5.484375 L 5.640625 -20.625 C 5.640625 -21.851562 5.488281 -22.875 5.1875 -23.6875 C 4.894531 -24.507812 4.453125 -25.203125 3.859375 -25.765625 L 3.859375 -26.046875 L 10.34375 -28.5625 L 10.625 -28.5625 L 10.625 -5.484375 C 10.625 -3.359375 11.109375 -1.625 12.078125 -0.28125 L 12.078125 0 L 4.1875 0 Z M 8.109375 -32.25 C 7.210938 -32.25 6.445312 -32.570312 5.8125 -33.21875 C 5.175781 -33.875 4.859375 -34.648438 4.859375 -35.546875 C 4.859375 -36.441406 5.179688 -37.203125 5.828125 -37.828125 C 6.484375 -38.460938 7.242188 -38.78125 8.109375 -38.78125 C 9.035156 -38.78125 9.816406 -38.460938 10.453125 -37.828125 C 11.085938 -37.203125 11.40625 -36.441406 11.40625 -35.546875 C 11.40625 -34.617188 11.085938 -33.835938 10.453125 -33.203125 C 9.816406 -32.566406 9.035156 -32.25 8.109375 -32.25 Z M 8.109375 -32.25 "/></g></g></g><g fill="#545454" fill-opacity="1"><g transform="translate(85.320543, 55.0321)"><g><path d="M 15.375 0.609375 C 12.988281 0.609375 10.828125 0.0625 8.890625 -1.03125 C 6.953125 -2.132812 5.421875 -3.738281 4.296875 -5.84375 C 3.179688 -7.945312 2.625 -10.453125 2.625 -13.359375 C 2.625 -16.117188 3.273438 -18.660156 4.578125 -20.984375 C 5.890625 -23.316406 7.648438 -25.160156 9.859375 -26.515625 C 12.078125 -27.878906 14.492188 -28.5625 17.109375 -28.5625 C 18.441406 -28.5625 19.828125 -28.363281 21.265625 -27.96875 C 22.703125 -27.582031 23.941406 -27.050781 24.984375 -26.375 L 24.984375 -19 L 24.421875 -19 C 23.859375 -21.351562 22.738281 -23.265625 21.0625 -24.734375 C 19.394531 -26.203125 17.476562 -26.9375 15.3125 -26.9375 C 13.894531 -26.9375 12.535156 -26.582031 11.234375 -25.875 C 9.929688 -25.164062 8.859375 -24.035156 8.015625 -22.484375 C 7.179688 -20.941406 6.765625 -19 6.765625 -16.65625 C 6.765625 -14.125 7.238281 -11.847656 8.1875 -9.828125 C 9.132812 -7.816406 10.445312 -6.234375 12.125 -5.078125 C 13.800781 -3.929688 15.644531 -3.359375 17.65625 -3.359375 C 19.445312 -3.359375 21.097656 -3.820312 22.609375 -4.75 C 24.117188 -5.675781 25.226562 -7.054688 25.9375 -8.890625 L 26.484375 -8.890625 C 25.960938 -6.015625 24.664062 -3.710938 22.59375 -1.984375 C 20.53125 -0.253906 18.125 0.609375 15.375 0.609375 Z M 15.375 0.609375 "/></g></g></g><g fill="#ffffff" fill-opacity="1"><g transform="translate(113.393472, 55.0321)"><g/></g></g><g fill="#ff9e2c" fill-opacity="1"><g transform="translate(127.367016, 55.0321)"><g><path d="M 2.015625 -0.28125 C 2.648438 -0.945312 3.21875 -1.78125 3.71875 -2.78125 C 4.21875 -3.789062 4.582031 -4.820312 4.8125 -5.875 L 10.109375 -33.25 C 10.222656 -33.925781 10.28125 -34.5625 10.28125 -35.15625 C 10.28125 -36.570312 10.019531 -37.800781 9.5 -38.84375 L 9.5625 -39.125 L 18.21875 -39.125 L 18.171875 -38.84375 C 17.535156 -38.175781 16.960938 -37.335938 16.453125 -36.328125 C 15.953125 -35.316406 15.59375 -34.289062 15.375 -33.25 L 9.171875 -1.171875 L 16.3125 -1.171875 C 19.488281 -1.171875 22.046875 -1.8125 23.984375 -3.09375 C 25.921875 -4.382812 27.816406 -6.460938 29.671875 -9.328125 L 30.1875 -9.328125 L 27 0 L 1.953125 0 Z M 2.015625 -0.28125 "/></g></g></g><g fill="#ff9e2c" fill-opacity="1"><g transform="translate(158.500048, 55.0321)"><g><path d="M 10.109375 0.609375 C 7.503906 0.609375 5.519531 -0.335938 4.15625 -2.234375 C 2.800781 -4.140625 2.125 -6.597656 2.125 -9.609375 C 2.125 -12.628906 2.765625 -15.609375 4.046875 -18.546875 C 5.335938 -21.492188 7.15625 -23.898438 9.5 -25.765625 C 11.84375 -27.628906 14.523438 -28.5625 17.546875 -28.5625 C 20.234375 -28.5625 22.414062 -27.648438 24.09375 -25.828125 L 28.734375 -28.5625 L 29 -28.5625 L 24.53125 -5.359375 C 24.34375 -4.429688 24.25 -3.742188 24.25 -3.296875 C 24.25 -2.367188 24.625 -1.90625 25.375 -1.90625 C 26.601562 -1.90625 27.925781 -3.914062 29.34375 -7.9375 L 30.296875 -7.9375 C 29.359375 -4.65625 28.378906 -2.410156 27.359375 -1.203125 C 26.335938 0.00390625 25.171875 0.609375 23.859375 0.609375 C 22.671875 0.609375 21.703125 0.210938 20.953125 -0.578125 C 20.210938 -1.378906 19.84375 -2.617188 19.84375 -4.296875 C 19.84375 -5.085938 19.914062 -5.875 20.0625 -6.65625 L 20.453125 -8.828125 L 20.171875 -8.828125 C 19.128906 -5.890625 17.769531 -3.582031 16.09375 -1.90625 C 14.414062 -0.226562 12.421875 0.609375 10.109375 0.609375 Z M 12.015625 -2.734375 C 14.210938 -2.734375 16.160156 -4.257812 17.859375 -7.3125 C 19.554688 -10.375 21.113281 -14.53125 22.53125 -19.78125 C 22.5625 -20.039062 22.578125 -20.414062 22.578125 -20.90625 C 22.578125 -22.914062 22.101562 -24.488281 21.15625 -25.625 C 20.207031 -26.757812 19.097656 -27.328125 17.828125 -27.328125 C 15.890625 -27.328125 14.117188 -26.40625 12.515625 -24.5625 C 10.910156 -22.71875 9.660156 -20.4375 8.765625 -17.71875 C 7.878906 -15 7.4375 -12.390625 7.4375 -9.890625 C 7.4375 -7.734375 7.816406 -6 8.578125 -4.6875 C 9.335938 -3.382812 10.484375 -2.734375 12.015625 -2.734375 Z M 12.015625 -2.734375 "/></g></g></g><g fill="#ff9e2c" fill-opacity="1"><g transform="translate(190.303804, 55.0321)"><g><path d="M 23.859375 0.609375 C 22.742188 0.609375 21.832031 0.226562 21.125 -0.53125 C 20.414062 -1.289062 20.0625 -2.4375 20.0625 -3.96875 C 20.0625 -4.9375 20.191406 -5.941406 20.453125 -6.984375 L 23.46875 -19.671875 C 23.625 -20.265625 23.703125 -20.898438 23.703125 -21.578125 C 23.703125 -22.691406 23.421875 -23.546875 22.859375 -24.140625 C 22.296875 -24.734375 21.550781 -25.03125 20.625 -25.03125 C 18.6875 -25.03125 16.773438 -23.863281 14.890625 -21.53125 C 13.015625 -19.207031 11.273438 -15.457031 9.671875 -10.28125 L 7.65625 0 L 2.84375 0 L 6.546875 -19.109375 C 6.835938 -20.710938 6.984375 -21.867188 6.984375 -22.578125 C 6.984375 -23.328125 6.867188 -23.90625 6.640625 -24.3125 C 6.421875 -24.71875 6.035156 -25.144531 5.484375 -25.59375 L 5.53125 -25.875 L 12.90625 -28.5625 L 13.1875 -28.5625 L 11.171875 -18.109375 L 11.453125 -18.109375 C 12.753906 -21.421875 14.335938 -23.988281 16.203125 -25.8125 C 18.066406 -27.644531 20.117188 -28.5625 22.359375 -28.5625 C 24.179688 -28.5625 25.660156 -28.039062 26.796875 -27 C 27.929688 -25.957031 28.5 -24.296875 28.5 -22.015625 C 28.5 -20.710938 28.3125 -19.316406 27.9375 -17.828125 L 24.765625 -4.578125 C 24.648438 -4.097656 24.59375 -3.671875 24.59375 -3.296875 C 24.59375 -2.367188 24.945312 -1.90625 25.65625 -1.90625 C 26.363281 -1.90625 27.03125 -2.40625 27.65625 -3.40625 C 28.289062 -4.414062 28.984375 -5.925781 29.734375 -7.9375 L 30.6875 -7.9375 C 30.007812 -5.625 29.316406 -3.851562 28.609375 -2.625 C 27.898438 -1.394531 27.171875 -0.546875 26.421875 -0.078125 C 25.679688 0.378906 24.828125 0.609375 23.859375 0.609375 Z M 23.859375 0.609375 "/></g></g></g><g fill="#ff9e2c" fill-opacity="1"><g transform="translate(223.449009, 55.0321)"><g><path d="M 10.109375 0.609375 C 7.503906 0.609375 5.519531 -0.335938 4.15625 -2.234375 C 2.800781 -4.140625 2.125 -6.597656 2.125 -9.609375 C 2.125 -12.628906 2.765625 -15.609375 4.046875 -18.546875 C 5.335938 -21.492188 7.144531 -23.898438 9.46875 -25.765625 C 11.800781 -27.628906 14.457031 -28.5625 17.4375 -28.5625 C 19.863281 -28.5625 21.875 -27.738281 23.46875 -26.09375 L 24.59375 -32.1875 C 24.851562 -33.757812 24.984375 -34.820312 24.984375 -35.375 C 24.984375 -36.238281 24.859375 -36.890625 24.609375 -37.328125 C 24.367188 -37.773438 23.972656 -38.222656 23.421875 -38.671875 L 23.46875 -38.953125 L 30.859375 -41.640625 L 31.125 -41.640625 L 24.59375 -5.359375 C 24.445312 -4.648438 24.375 -4 24.375 -3.40625 C 24.375 -2.882812 24.457031 -2.503906 24.625 -2.265625 C 24.789062 -2.023438 25.078125 -1.90625 25.484375 -1.90625 C 26.710938 -1.90625 28.035156 -3.914062 29.453125 -7.9375 L 30.40625 -7.9375 C 29.46875 -4.65625 28.476562 -2.410156 27.4375 -1.203125 C 26.394531 0.00390625 25.242188 0.609375 23.984375 0.609375 C 22.785156 0.609375 21.800781 0.210938 21.03125 -0.578125 C 20.269531 -1.378906 19.890625 -2.617188 19.890625 -4.296875 C 19.890625 -5.085938 19.96875 -5.875 20.125 -6.65625 L 20.515625 -8.828125 L 20.234375 -8.828125 C 19.222656 -5.890625 17.859375 -3.582031 16.140625 -1.90625 C 14.429688 -0.226562 12.421875 0.609375 10.109375 0.609375 Z M 12.015625 -2.734375 C 16.035156 -2.734375 19.578125 -8.414062 22.640625 -19.78125 C 22.671875 -20.039062 22.6875 -20.394531 22.6875 -20.84375 C 22.6875 -22.894531 22.203125 -24.488281 21.234375 -25.625 C 20.265625 -26.757812 19.128906 -27.328125 17.828125 -27.328125 C 15.890625 -27.328125 14.117188 -26.40625 12.515625 -24.5625 C 10.910156 -22.71875 9.660156 -20.4375 8.765625 -17.71875 C 7.878906 -15 7.4375 -12.390625 7.4375 -9.890625 C 7.4375 -7.734375 7.816406 -6 8.578125 -4.6875 C 9.335938 -3.382812 10.484375 -2.734375 12.015625 -2.734375 Z M 12.015625 -2.734375 "/></g></g></g><g fill="#ff9e2c" fill-opacity="1"><g transform="translate(255.588138, 55.0321)"><g><path d="M 11.171875 0.609375 C 9.273438 0.609375 7.488281 0.300781 5.8125 -0.3125 C 4.132812 -0.925781 2.660156 -1.8125 1.390625 -2.96875 L 2.84375 -10.5625 L 3.40625 -10.5625 C 3.40625 -8.738281 3.769531 -7.082031 4.5 -5.59375 C 5.226562 -4.101562 6.195312 -2.925781 7.40625 -2.0625 C 8.613281 -1.207031 9.945312 -0.78125 11.40625 -0.78125 C 12.894531 -0.78125 14.09375 -1.207031 15 -2.0625 C 15.914062 -2.925781 16.375 -4.007812 16.375 -5.3125 C 16.375 -6.3125 16.019531 -7.296875 15.3125 -8.265625 C 14.601562 -9.234375 13.351562 -10.503906 11.5625 -12.078125 C 9.1875 -14.117188 7.503906 -15.773438 6.515625 -17.046875 C 5.523438 -18.316406 5.03125 -19.734375 5.03125 -21.296875 C 5.03125 -23.492188 5.875 -25.253906 7.5625 -26.578125 C 9.257812 -27.898438 11.34375 -28.5625 13.8125 -28.5625 C 15.445312 -28.5625 16.976562 -28.304688 18.40625 -27.796875 C 19.84375 -27.296875 21.03125 -26.675781 21.96875 -25.9375 L 20.671875 -19.390625 L 20.125 -19.390625 C 20.050781 -21.847656 19.394531 -23.765625 18.15625 -25.140625 C 16.925781 -26.523438 15.363281 -27.21875 13.46875 -27.21875 C 12.050781 -27.21875 10.894531 -26.84375 10 -26.09375 C 9.101562 -25.351562 8.65625 -24.347656 8.65625 -23.078125 C 8.65625 -22.441406 8.796875 -21.878906 9.078125 -21.390625 C 9.359375 -20.910156 9.867188 -20.316406 10.609375 -19.609375 C 11.359375 -18.910156 12.59375 -17.851562 14.3125 -16.4375 C 16.351562 -14.757812 17.835938 -13.285156 18.765625 -12.015625 C 19.703125 -10.742188 20.171875 -9.21875 20.171875 -7.4375 C 20.171875 -4.90625 19.359375 -2.929688 17.734375 -1.515625 C 16.117188 -0.0976562 13.929688 0.609375 11.171875 0.609375 Z M 11.171875 0.609375 "/></g></g></g><g fill="#ff9e2c" fill-opacity="1"><g transform="translate(279.343141, 55.0321)"><g><path d="M 13.25 0.609375 C 11.15625 0.609375 9.316406 0.125 7.734375 -0.84375 C 6.148438 -1.8125 4.910156 -3.175781 4.015625 -4.9375 C 3.128906 -6.707031 2.6875 -8.75 2.6875 -11.0625 C 2.6875 -14.269531 3.335938 -17.203125 4.640625 -19.859375 C 5.941406 -22.523438 7.71875 -24.640625 9.96875 -26.203125 C 12.226562 -27.773438 14.695312 -28.5625 17.375 -28.5625 C 20.539062 -28.5625 23.1875 -27.796875 25.3125 -26.265625 L 23.984375 -18.953125 L 23.421875 -18.953125 C 23.265625 -21.554688 22.609375 -23.554688 21.453125 -24.953125 C 20.304688 -26.347656 18.707031 -27.046875 16.65625 -27.046875 C 15.09375 -27.046875 13.628906 -26.457031 12.265625 -25.28125 C 10.910156 -24.113281 9.8125 -22.457031 8.96875 -20.3125 C 8.132812 -18.175781 7.71875 -15.707031 7.71875 -12.90625 C 7.71875 -9.707031 8.332031 -7.210938 9.5625 -5.421875 C 10.789062 -3.628906 12.613281 -2.734375 15.03125 -2.734375 C 16.519531 -2.734375 17.941406 -3.132812 19.296875 -3.9375 C 20.660156 -4.738281 21.847656 -5.976562 22.859375 -7.65625 L 23.46875 -7.65625 C 22.875 -5.457031 21.671875 -3.53125 19.859375 -1.875 C 18.054688 -0.21875 15.851562 0.609375 13.25 0.609375 Z M 13.25 0.609375 "/></g></g></g><g fill="#ff9e2c" fill-opacity="1"><g transform="translate(305.333898, 55.0321)"><g><path d="M 10.109375 0.609375 C 7.503906 0.609375 5.519531 -0.335938 4.15625 -2.234375 C 2.800781 -4.140625 2.125 -6.597656 2.125 -9.609375 C 2.125 -12.628906 2.765625 -15.609375 4.046875 -18.546875 C 5.335938 -21.492188 7.15625 -23.898438 9.5 -25.765625 C 11.84375 -27.628906 14.523438 -28.5625 17.546875 -28.5625 C 20.234375 -28.5625 22.414062 -27.648438 24.09375 -25.828125 L 28.734375 -28.5625 L 29 -28.5625 L 24.53125 -5.359375 C 24.34375 -4.429688 24.25 -3.742188 24.25 -3.296875 C 24.25 -2.367188 24.625 -1.90625 25.375 -1.90625 C 26.601562 -1.90625 27.925781 -3.914062 29.34375 -7.9375 L 30.296875 -7.9375 C 29.359375 -4.65625 28.378906 -2.410156 27.359375 -1.203125 C 26.335938 0.00390625 25.171875 0.609375 23.859375 0.609375 C 22.671875 0.609375 21.703125 0.210938 20.953125 -0.578125 C 20.210938 -1.378906 19.84375 -2.617188 19.84375 -4.296875 C 19.84375 -5.085938 19.914062 -5.875 20.0625 -6.65625 L 20.453125 -8.828125 L 20.171875 -8.828125 C 19.128906 -5.890625 17.769531 -3.582031 16.09375 -1.90625 C 14.414062 -0.226562 12.421875 0.609375 10.109375 0.609375 Z M 12.015625 -2.734375 C 14.210938 -2.734375 16.160156 -4.257812 17.859375 -7.3125 C 19.554688 -10.375 21.113281 -14.53125 22.53125 -19.78125 C 22.5625 -20.039062 22.578125 -20.414062 22.578125 -20.90625 C 22.578125 -22.914062 22.101562 -24.488281 21.15625 -25.625 C 20.207031 -26.757812 19.097656 -27.328125 17.828125 -27.328125 C 15.890625 -27.328125 14.117188 -26.40625 12.515625 -24.5625 C 10.910156 -22.71875 9.660156 -20.4375 8.765625 -17.71875 C 7.878906 -15 7.4375 -12.390625 7.4375 -9.890625 C 7.4375 -7.734375 7.816406 -6 8.578125 -4.6875 C 9.335938 -3.382812 10.484375 -2.734375 12.015625 -2.734375 Z M 12.015625 -2.734375 "/></g></g></g><g fill="#ff9e2c" fill-opacity="1"><g transform="translate(337.137654, 55.0321)"><g><path d="M -0.890625 10.90625 C 0.367188 9.519531 1.1875 7.785156 1.5625 5.703125 L 5.921875 -19.109375 C 6.179688 -20.453125 6.3125 -21.570312 6.3125 -22.46875 C 6.3125 -23.25 6.191406 -23.851562 5.953125 -24.28125 C 5.710938 -24.707031 5.332031 -25.144531 4.8125 -25.59375 L 4.859375 -25.875 L 12.1875 -28.5625 L 12.46875 -28.5625 L 10.625 -18.328125 L 10.90625 -18.328125 C 12.09375 -21.566406 13.625 -24.082031 15.5 -25.875 C 17.382812 -27.664062 19.390625 -28.5625 21.515625 -28.5625 C 23.859375 -28.5625 25.710938 -27.65625 27.078125 -25.84375 C 28.441406 -24.039062 29.125 -21.703125 29.125 -18.828125 C 29.125 -15.703125 28.460938 -12.640625 27.140625 -9.640625 C 25.816406 -6.640625 23.960938 -4.179688 21.578125 -2.265625 C 19.191406 -0.347656 16.507812 0.609375 13.53125 0.609375 C 11.21875 0.609375 9.257812 -0.113281 7.65625 -1.5625 L 6.375 5.703125 C 6.21875 6.410156 6.140625 7.15625 6.140625 7.9375 C 6.140625 9.125 6.363281 10.113281 6.8125 10.90625 L 6.765625 11.171875 L -0.890625 11.171875 Z M 13.359375 -0.609375 C 15.222656 -0.609375 16.953125 -1.578125 18.546875 -3.515625 C 20.148438 -5.453125 21.425781 -7.851562 22.375 -10.71875 C 23.332031 -13.59375 23.8125 -16.316406 23.8125 -18.890625 C 23.8125 -20.941406 23.445312 -22.503906 22.71875 -23.578125 C 21.988281 -24.660156 21.007812 -25.203125 19.78125 -25.203125 C 17.550781 -25.203125 15.4375 -23.535156 13.4375 -20.203125 C 11.445312 -16.867188 9.835938 -12.6875 8.609375 -7.65625 C 8.566406 -7.4375 8.546875 -7.101562 8.546875 -6.65625 C 8.546875 -4.75 8.992188 -3.265625 9.890625 -2.203125 C 10.785156 -1.140625 11.941406 -0.609375 13.359375 -0.609375 Z M 13.359375 -0.609375 "/></g></g></g><g fill="#ff9e2c" fill-opacity="1"><g transform="translate(368.270686, 55.0321)"><g><path d="M 15.03125 -2.734375 C 16.519531 -2.734375 17.941406 -3.132812 19.296875 -3.9375 C 20.660156 -4.738281 21.847656 -5.976562 22.859375 -7.65625 L 23.46875 -7.65625 C 22.875 -5.457031 21.671875 -3.53125 19.859375 -1.875 C 18.054688 -0.21875 15.851562 0.609375 13.25 0.609375 C 11.15625 0.609375 9.316406 0.125 7.734375 -0.84375 C 6.148438 -1.8125 4.910156 -3.175781 4.015625 -4.9375 C 3.128906 -6.707031 2.6875 -8.75 2.6875 -11.0625 C 2.6875 -14.269531 3.335938 -17.203125 4.640625 -19.859375 C 5.941406 -22.523438 7.738281 -24.640625 10.03125 -26.203125 C 12.320312 -27.773438 14.847656 -28.5625 17.609375 -28.5625 C 20.140625 -28.5625 22.03125 -28.039062 23.28125 -27 C 24.53125 -25.957031 25.15625 -24.671875 25.15625 -23.140625 C 25.15625 -19.453125 22.207031 -16.9375 16.3125 -15.59375 C 14.113281 -15.070312 11.265625 -14.789062 7.765625 -14.75 C 7.734375 -14.34375 7.71875 -13.75 7.71875 -12.96875 C 7.71875 -9.757812 8.332031 -7.25 9.5625 -5.4375 C 10.789062 -3.632812 12.613281 -2.734375 15.03125 -2.734375 Z M 16.59375 -27.046875 C 14.320312 -27.046875 12.410156 -25.992188 10.859375 -23.890625 C 9.316406 -21.785156 8.34375 -19.171875 7.9375 -16.046875 C 11.03125 -16.078125 13.507812 -16.429688 15.375 -17.109375 C 16.894531 -17.628906 18.066406 -18.460938 18.890625 -19.609375 C 19.710938 -20.765625 20.125 -22.015625 20.125 -23.359375 C 20.125 -24.515625 19.832031 -25.414062 19.25 -26.0625 C 18.675781 -26.71875 17.789062 -27.046875 16.59375 -27.046875 Z M 16.59375 -27.046875 "/></g></g></g><g fill="#ff9e2c" fill-opacity="1"><g transform="translate(394.596816, 55.0321)"><g/></g></g><g fill="#ff9e2c" fill-opacity="1"><g transform="translate(408.570338, 55.0321)"><g><path d="M 2.015625 -0.28125 C 2.648438 -0.945312 3.21875 -1.78125 3.71875 -2.78125 C 4.21875 -3.789062 4.582031 -4.820312 4.8125 -5.875 L 10.109375 -33.25 C 10.222656 -33.925781 10.28125 -34.5625 10.28125 -35.15625 C 10.28125 -36.570312 10.019531 -37.800781 9.5 -38.84375 L 9.5625 -39.125 L 22.40625 -39.125 C 25.539062 -39.125 28.335938 -38.5625 30.796875 -37.4375 C 33.253906 -36.320312 35.191406 -34.628906 36.609375 -32.359375 C 38.023438 -30.085938 38.734375 -27.3125 38.734375 -24.03125 C 38.734375 -18.8125 37.632812 -14.382812 35.4375 -10.75 C 33.238281 -7.125 30.40625 -4.425781 26.9375 -2.65625 C 23.46875 -0.882812 19.875 0 16.15625 0 L 1.953125 0 Z M 14.921875 -1.234375 C 17.972656 -1.234375 20.878906 -2.144531 23.640625 -3.96875 C 26.398438 -5.789062 28.632812 -8.5 30.34375 -12.09375 C 32.0625 -15.695312 32.921875 -20.007812 32.921875 -25.03125 C 32.921875 -29.320312 31.90625 -32.535156 29.875 -34.671875 C 27.84375 -36.816406 25.113281 -37.890625 21.6875 -37.890625 C 20.007812 -37.890625 18.144531 -37.613281 16.09375 -37.0625 L 9.328125 -2.0625 C 10.898438 -1.507812 12.765625 -1.234375 14.921875 -1.234375 Z M 14.921875 -1.234375 "/></g></g></g><g fill="#ff9e2c" fill-opacity="1"><g transform="translate(448.534639, 55.0321)"><g><path d="M 15.03125 -2.734375 C 16.519531 -2.734375 17.941406 -3.132812 19.296875 -3.9375 C 20.660156 -4.738281 21.847656 -5.976562 22.859375 -7.65625 L 23.46875 -7.65625 C 22.875 -5.457031 21.671875 -3.53125 19.859375 -1.875 C 18.054688 -0.21875 15.851562 0.609375 13.25 0.609375 C 11.15625 0.609375 9.316406 0.125 7.734375 -0.84375 C 6.148438 -1.8125 4.910156 -3.175781 4.015625 -4.9375 C 3.128906 -6.707031 2.6875 -8.75 2.6875 -11.0625 C 2.6875 -14.269531 3.335938 -17.203125 4.640625 -19.859375 C 5.941406 -22.523438 7.738281 -24.640625 10.03125 -26.203125 C 12.320312 -27.773438 14.847656 -28.5625 17.609375 -28.5625 C 20.140625 -28.5625 22.03125 -28.039062 23.28125 -27 C 24.53125 -25.957031 25.15625 -24.671875 25.15625 -23.140625 C 25.15625 -19.453125 22.207031 -16.9375 16.3125 -15.59375 C 14.113281 -15.070312 11.265625 -14.789062 7.765625 -14.75 C 7.734375 -14.34375 7.71875 -13.75 7.71875 -12.96875 C 7.71875 -9.757812 8.332031 -7.25 9.5625 -5.4375 C 10.789062 -3.632812 12.613281 -2.734375 15.03125 -2.734375 Z M 16.59375 -27.046875 C 14.320312 -27.046875 12.410156 -25.992188 10.859375 -23.890625 C 9.316406 -21.785156 8.34375 -19.171875 7.9375 -16.046875 C 11.03125 -16.078125 13.507812 -16.429688 15.375 -17.109375 C 16.894531 -17.628906 18.066406 -18.460938 18.890625 -19.609375 C 19.710938 -20.765625 20.125 -22.015625 20.125 -23.359375 C 20.125 -24.515625 19.832031 -25.414062 19.25 -26.0625 C 18.675781 -26.71875 17.789062 -27.046875 16.59375 -27.046875 Z M 16.59375 -27.046875 "/></g></g></g><g fill="#ff9e2c" fill-opacity="1"><g transform="translate(474.860768, 55.0321)"><g><path d="M 11.171875 0.609375 C 9.273438 0.609375 7.488281 0.300781 5.8125 -0.3125 C 4.132812 -0.925781 2.660156 -1.8125 1.390625 -2.96875 L 2.84375 -10.5625 L 3.40625 -10.5625 C 3.40625 -8.738281 3.769531 -7.082031 4.5 -5.59375 C 5.226562 -4.101562 6.195312 -2.925781 7.40625 -2.0625 C 8.613281 -1.207031 9.945312 -0.78125 11.40625 -0.78125 C 12.894531 -0.78125 14.09375 -1.207031 15 -2.0625 C 15.914062 -2.925781 16.375 -4.007812 16.375 -5.3125 C 16.375 -6.3125 16.019531 -7.296875 15.3125 -8.265625 C 14.601562 -9.234375 13.351562 -10.503906 11.5625 -12.078125 C 9.1875 -14.117188 7.503906 -15.773438 6.515625 -17.046875 C 5.523438 -18.316406 5.03125 -19.734375 5.03125 -21.296875 C 5.03125 -23.492188 5.875 -25.253906 7.5625 -26.578125 C 9.257812 -27.898438 11.34375 -28.5625 13.8125 -28.5625 C 15.445312 -28.5625 16.976562 -28.304688 18.40625 -27.796875 C 19.84375 -27.296875 21.03125 -26.675781 21.96875 -25.9375 L 20.671875 -19.390625 L 20.125 -19.390625 C 20.050781 -21.847656 19.394531 -23.765625 18.15625 -25.140625 C 16.925781 -26.523438 15.363281 -27.21875 13.46875 -27.21875 C 12.050781 -27.21875 10.894531 -26.84375 10 -26.09375 C 9.101562 -25.351562 8.65625 -24.347656 8.65625 -23.078125 C 8.65625 -22.441406 8.796875 -21.878906 9.078125 -21.390625 C 9.359375 -20.910156 9.867188 -20.316406 10.609375 -19.609375 C 11.359375 -18.910156 12.59375 -17.851562 14.3125 -16.4375 C 16.351562 -14.757812 17.835938 -13.285156 18.765625 -12.015625 C 19.703125 -10.742188 20.171875 -9.21875 20.171875 -7.4375 C 20.171875 -4.90625 19.359375 -2.929688 17.734375 -1.515625 C 16.117188 -0.0976562 13.929688 0.609375 11.171875 0.609375 Z M 11.171875 0.609375 "/></g></g></g><g fill="#ff9e2c" fill-opacity="1"><g transform="translate(498.615771, 55.0321)"><g><path d="M 7.546875 0.609375 C 6.316406 0.609375 5.328125 0.226562 4.578125 -0.53125 C 3.835938 -1.289062 3.46875 -2.53125 3.46875 -4.25 C 3.46875 -4.882812 3.5625 -5.757812 3.75 -6.875 L 6.09375 -19.109375 C 6.351562 -20.453125 6.484375 -21.570312 6.484375 -22.46875 C 6.484375 -23.25 6.367188 -23.851562 6.140625 -24.28125 C 5.921875 -24.707031 5.550781 -25.144531 5.03125 -25.59375 L 5.09375 -25.875 L 12.46875 -28.5625 L 12.75 -28.5625 L 8.265625 -5.359375 C 8.117188 -4.617188 8.046875 -3.953125 8.046875 -3.359375 C 8.046875 -2.390625 8.398438 -1.90625 9.109375 -1.90625 C 9.773438 -1.90625 10.4375 -2.414062 11.09375 -3.4375 C 11.75 -4.457031 12.429688 -5.957031 13.140625 -7.9375 L 14.078125 -7.9375 C 13.109375 -4.625 12.101562 -2.367188 11.0625 -1.171875 C 10.019531 0.015625 8.847656 0.609375 7.546875 0.609375 Z M 11.359375 -32.3125 C 10.492188 -32.3125 9.78125 -32.597656 9.21875 -33.171875 C 8.664062 -33.742188 8.390625 -34.441406 8.390625 -35.265625 C 8.390625 -36.234375 8.742188 -37.0625 9.453125 -37.75 C 10.160156 -38.4375 11.019531 -38.78125 12.03125 -38.78125 C 12.84375 -38.78125 13.519531 -38.492188 14.0625 -37.921875 C 14.601562 -37.347656 14.875 -36.628906 14.875 -35.765625 C 14.875 -34.796875 14.53125 -33.976562 13.84375 -33.3125 C 13.15625 -32.644531 12.328125 -32.3125 11.359375 -32.3125 Z M 11.359375 -32.3125 "/></g></g></g><g fill="#ff9e2c" fill-opacity="1"><g transform="translate(514.992723, 55.0321)"><g><path d="M 28.734375 -28.84375 L 28.109375 -25.3125 C 26.847656 -25.539062 25.769531 -25.65625 24.875 -25.65625 C 23.9375 -25.65625 23.003906 -25.523438 22.078125 -25.265625 C 23.078125 -23.878906 23.578125 -22.238281 23.578125 -20.34375 C 23.578125 -18.476562 23.113281 -16.734375 22.1875 -15.109375 C 21.257812 -13.492188 19.992188 -12.210938 18.390625 -11.265625 C 16.785156 -10.316406 15.050781 -9.84375 13.1875 -9.84375 C 11.101562 -9.84375 9.375 -10.285156 8 -11.171875 C 7.03125 -10.359375 6.546875 -9.484375 6.546875 -8.546875 C 6.546875 -7.804688 6.960938 -7.15625 7.796875 -6.59375 C 8.628906 -6.03125 10.351562 -5.472656 12.96875 -4.921875 C 15.875 -4.285156 18.097656 -3.601562 19.640625 -2.875 C 21.191406 -2.144531 22.234375 -1.359375 22.765625 -0.515625 C 23.304688 0.316406 23.578125 1.269531 23.578125 2.34375 C 23.578125 3.832031 22.960938 5.300781 21.734375 6.75 C 20.503906 8.207031 18.78125 9.398438 16.5625 10.328125 C 14.351562 11.265625 11.832031 11.734375 9 11.734375 C 5.570312 11.734375 2.960938 11.203125 1.171875 10.140625 C -0.617188 9.078125 -1.515625 7.597656 -1.515625 5.703125 C -1.515625 3.796875 -0.742188 2.144531 0.796875 0.75 C 2.347656 -0.644531 4.113281 -1.675781 6.09375 -2.34375 C 4.1875 -3.382812 3.234375 -4.785156 3.234375 -6.546875 C 3.234375 -8.742188 4.519531 -10.492188 7.09375 -11.796875 C 5.226562 -13.285156 4.296875 -15.367188 4.296875 -18.046875 C 4.296875 -19.910156 4.757812 -21.648438 5.6875 -23.265625 C 6.625 -24.890625 7.882812 -26.175781 9.46875 -27.125 C 11.050781 -28.082031 12.773438 -28.5625 14.640625 -28.5625 C 16.054688 -28.5625 17.34375 -28.335938 18.5 -27.890625 C 19.65625 -27.441406 20.644531 -26.804688 21.46875 -25.984375 C 22.320312 -26.847656 23.351562 -27.539062 24.5625 -28.0625 C 25.769531 -28.582031 27.046875 -28.84375 28.390625 -28.84375 Z M 13.25 -11.015625 C 14.289062 -11.015625 15.238281 -11.410156 16.09375 -12.203125 C 16.945312 -13.003906 17.632812 -14.171875 18.15625 -15.703125 C 18.6875 -17.234375 18.953125 -19.0625 18.953125 -21.1875 C 18.953125 -23.050781 18.578125 -24.550781 17.828125 -25.6875 C 17.085938 -26.820312 16.023438 -27.390625 14.640625 -27.390625 C 13.597656 -27.390625 12.644531 -26.988281 11.78125 -26.1875 C 10.925781 -25.382812 10.238281 -24.21875 9.71875 -22.6875 C 9.195312 -21.164062 8.9375 -19.34375 8.9375 -17.21875 C 8.9375 -15.351562 9.304688 -13.851562 10.046875 -12.71875 C 10.796875 -11.582031 11.863281 -11.015625 13.25 -11.015625 Z M 19.625 4.140625 C 19.625 3.359375 19.4375 2.734375 19.0625 2.265625 C 18.6875 1.796875 17.921875 1.335938 16.765625 0.890625 C 15.609375 0.441406 13.875 -0.0195312 11.5625 -0.5 C 9.78125 -0.875 8.289062 -1.320312 7.09375 -1.84375 C 5.789062 -1.0625 4.738281 -0.171875 3.9375 0.828125 C 3.132812 1.835938 2.734375 3.050781 2.734375 4.46875 C 2.734375 6.113281 3.394531 7.457031 4.71875 8.5 C 6.039062 9.539062 7.96875 10.0625 10.5 10.0625 C 12.289062 10.0625 13.875 9.78125 15.25 9.21875 C 16.632812 8.664062 17.707031 7.929688 18.46875 7.015625 C 19.238281 6.097656 19.625 5.140625 19.625 4.140625 Z M 19.625 4.140625 "/></g></g></g><g fill="#ff9e2c" fill-opacity="1"><g transform="translate(542.045482, 55.0321)"><g><path d="M 23.859375 0.609375 C 22.742188 0.609375 21.832031 0.226562 21.125 -0.53125 C 20.414062 -1.289062 20.0625 -2.4375 20.0625 -3.96875 C 20.0625 -4.9375 20.191406 -5.941406 20.453125 -6.984375 L 23.46875 -19.671875 C 23.625 -20.265625 23.703125 -20.898438 23.703125 -21.578125 C 23.703125 -22.691406 23.421875 -23.546875 22.859375 -24.140625 C 22.296875 -24.734375 21.550781 -25.03125 20.625 -25.03125 C 18.6875 -25.03125 16.773438 -23.863281 14.890625 -21.53125 C 13.015625 -19.207031 11.273438 -15.457031 9.671875 -10.28125 L 7.65625 0 L 2.84375 0 L 6.546875 -19.109375 C 6.835938 -20.710938 6.984375 -21.867188 6.984375 -22.578125 C 6.984375 -23.328125 6.867188 -23.90625 6.640625 -24.3125 C 6.421875 -24.71875 6.035156 -25.144531 5.484375 -25.59375 L 5.53125 -25.875 L 12.90625 -28.5625 L 13.1875 -28.5625 L 11.171875 -18.109375 L 11.453125 -18.109375 C 12.753906 -21.421875 14.335938 -23.988281 16.203125 -25.8125 C 18.066406 -27.644531 20.117188 -28.5625 22.359375 -28.5625 C 24.179688 -28.5625 25.660156 -28.039062 26.796875 -27 C 27.929688 -25.957031 28.5 -24.296875 28.5 -22.015625 C 28.5 -20.710938 28.3125 -19.316406 27.9375 -17.828125 L 24.765625 -4.578125 C 24.648438 -4.097656 24.59375 -3.671875 24.59375 -3.296875 C 24.59375 -2.367188 24.945312 -1.90625 25.65625 -1.90625 C 26.363281 -1.90625 27.03125 -2.40625 27.65625 -3.40625 C 28.289062 -4.414062 28.984375 -5.925781 29.734375 -7.9375 L 30.6875 -7.9375 C 30.007812 -5.625 29.316406 -3.851562 28.609375 -2.625 C 27.898438 -1.394531 27.171875 -0.546875 26.421875 -0.078125 C 25.679688 0.378906 24.828125 0.609375 23.859375 0.609375 Z M 23.859375 0.609375 "/></g></g></g><g fill="#ff9e2c" fill-opacity="1"><g transform="translate(575.190687, 55.0321)"><g><path d="M 11.171875 0.609375 C 9.273438 0.609375 7.488281 0.300781 5.8125 -0.3125 C 4.132812 -0.925781 2.660156 -1.8125 1.390625 -2.96875 L 2.84375 -10.5625 L 3.40625 -10.5625 C 3.40625 -8.738281 3.769531 -7.082031 4.5 -5.59375 C 5.226562 -4.101562 6.195312 -2.925781 7.40625 -2.0625 C 8.613281 -1.207031 9.945312 -0.78125 11.40625 -0.78125 C 12.894531 -0.78125 14.09375 -1.207031 15 -2.0625 C 15.914062 -2.925781 16.375 -4.007812 16.375 -5.3125 C 16.375 -6.3125 16.019531 -7.296875 15.3125 -8.265625 C 14.601562 -9.234375 13.351562 -10.503906 11.5625 -12.078125 C 9.1875 -14.117188 7.503906 -15.773438 6.515625 -17.046875 C 5.523438 -18.316406 5.03125 -19.734375 5.03125 -21.296875 C 5.03125 -23.492188 5.875 -25.253906 7.5625 -26.578125 C 9.257812 -27.898438 11.34375 -28.5625 13.8125 -28.5625 C 15.445312 -28.5625 16.976562 -28.304688 18.40625 -27.796875 C 19.84375 -27.296875 21.03125 -26.675781 21.96875 -25.9375 L 20.671875 -19.390625 L 20.125 -19.390625 C 20.050781 -21.847656 19.394531 -23.765625 18.15625 -25.140625 C 16.925781 -26.523438 15.363281 -27.21875 13.46875 -27.21875 C 12.050781 -27.21875 10.894531 -26.84375 10 -26.09375 C 9.101562 -25.351562 8.65625 -24.347656 8.65625 -23.078125 C 8.65625 -22.441406 8.796875 -21.878906 9.078125 -21.390625 C 9.359375 -20.910156 9.867188 -20.316406 10.609375 -19.609375 C 11.359375 -18.910156 12.59375 -17.851562 14.3125 -16.4375 C 16.351562 -14.757812 17.835938 -13.285156 18.765625 -12.015625 C 19.703125 -10.742188 20.171875 -9.21875 20.171875 -7.4375 C 20.171875 -4.90625 19.359375 -2.929688 17.734375 -1.515625 C 16.117188 -0.0976562 13.929688 0.609375 11.171875 0.609375 Z M 11.171875 0.609375 "/></g></g></g><g fill="#ff9e2c" fill-opacity="1"><g transform="translate(81.254322, 101.144794)"><g><path d="M 12.484375 0.359375 C 10.972656 0.359375 9.582031 0.0820312 8.3125 -0.46875 C 7.039062 -1.03125 5.9375 -1.789062 5 -2.75 C 4.070312 -3.71875 3.34375 -4.859375 2.8125 -6.171875 C 2.289062 -7.484375 2.03125 -8.882812 2.03125 -10.375 L 2.03125 -10.4375 C 2.03125 -11.90625 2.289062 -13.296875 2.8125 -14.609375 C 3.34375 -15.921875 4.070312 -17.066406 5 -18.046875 C 5.9375 -19.035156 7.050781 -19.8125 8.34375 -20.375 C 9.632812 -20.9375 11.046875 -21.21875 12.578125 -21.21875 C 13.535156 -21.21875 14.394531 -21.140625 15.15625 -20.984375 C 15.925781 -20.828125 16.640625 -20.601562 17.296875 -20.3125 C 17.953125 -20.03125 18.554688 -19.679688 19.109375 -19.265625 C 19.660156 -18.859375 20.195312 -18.410156 20.71875 -17.921875 L 19.109375 -16.1875 C 18.210938 -17.019531 17.253906 -17.703125 16.234375 -18.234375 C 15.210938 -18.773438 13.984375 -19.046875 12.546875 -19.046875 C 11.398438 -19.046875 10.332031 -18.828125 9.34375 -18.390625 C 8.363281 -17.953125 7.507812 -17.34375 6.78125 -16.5625 C 6.050781 -15.789062 5.484375 -14.882812 5.078125 -13.84375 C 4.671875 -12.800781 4.46875 -11.6875 4.46875 -10.5 L 4.46875 -10.4375 C 4.46875 -9.21875 4.671875 -8.085938 5.078125 -7.046875 C 5.484375 -6.003906 6.050781 -5.09375 6.78125 -4.3125 C 7.507812 -3.539062 8.363281 -2.929688 9.34375 -2.484375 C 10.332031 -2.035156 11.398438 -1.8125 12.546875 -1.8125 C 13.984375 -1.8125 15.21875 -2.078125 16.25 -2.609375 C 17.28125 -3.140625 18.289062 -3.878906 19.28125 -4.828125 L 20.84375 -3.3125 C 20.300781 -2.75 19.738281 -2.242188 19.15625 -1.796875 C 18.570312 -1.359375 17.941406 -0.976562 17.265625 -0.65625 C 16.585938 -0.332031 15.859375 -0.0820312 15.078125 0.09375 C 14.304688 0.269531 13.441406 0.359375 12.484375 0.359375 Z M 12.484375 0.359375 "/></g></g></g><g fill="#ff9e2c" fill-opacity="1"><g transform="translate(107.124269, 101.144794)"><g><path d="M 2.765625 -21.765625 L 5.0625 -21.765625 L 5.0625 0 L 2.765625 0 Z M 2.765625 -21.765625 "/></g></g></g><g fill="#ff9e2c" fill-opacity="1"><g transform="translate(118.71854, 101.144794)"><g><path d="M 9.296875 0.359375 C 8.242188 0.359375 7.25 0.164062 6.3125 -0.21875 C 5.382812 -0.613281 4.570312 -1.160156 3.875 -1.859375 C 3.175781 -2.566406 2.625 -3.410156 2.21875 -4.390625 C 1.8125 -5.378906 1.609375 -6.46875 1.609375 -7.65625 L 1.609375 -7.71875 C 1.609375 -8.832031 1.789062 -9.875 2.15625 -10.84375 C 2.53125 -11.820312 3.046875 -12.671875 3.703125 -13.390625 C 4.359375 -14.117188 5.132812 -14.691406 6.03125 -15.109375 C 6.9375 -15.523438 7.925781 -15.734375 9 -15.734375 C 10.132812 -15.734375 11.148438 -15.519531 12.046875 -15.09375 C 12.941406 -14.664062 13.695312 -14.082031 14.3125 -13.34375 C 14.925781 -12.613281 15.390625 -11.753906 15.703125 -10.765625 C 16.023438 -9.785156 16.1875 -8.734375 16.1875 -7.609375 C 16.1875 -7.441406 16.1875 -7.304688 16.1875 -7.203125 C 16.1875 -7.109375 16.175781 -6.992188 16.15625 -6.859375 L 3.9375 -6.859375 C 4.007812 -6.023438 4.207031 -5.285156 4.53125 -4.640625 C 4.851562 -3.992188 5.253906 -3.445312 5.734375 -3 C 6.222656 -2.550781 6.773438 -2.210938 7.390625 -1.984375 C 8.003906 -1.753906 8.660156 -1.640625 9.359375 -1.640625 C 10.429688 -1.640625 11.347656 -1.835938 12.109375 -2.234375 C 12.878906 -2.628906 13.582031 -3.15625 14.21875 -3.8125 L 15.65625 -2.53125 C 14.875 -1.65625 13.984375 -0.953125 12.984375 -0.421875 C 11.992188 0.0976562 10.765625 0.359375 9.296875 0.359375 Z M 13.859375 -8.5625 C 13.796875 -9.25 13.648438 -9.910156 13.421875 -10.546875 C 13.203125 -11.179688 12.882812 -11.738281 12.46875 -12.21875 C 12.0625 -12.695312 11.566406 -13.078125 10.984375 -13.359375 C 10.398438 -13.648438 9.71875 -13.796875 8.9375 -13.796875 C 8.269531 -13.796875 7.644531 -13.660156 7.0625 -13.390625 C 6.488281 -13.128906 5.984375 -12.765625 5.546875 -12.296875 C 5.109375 -11.828125 4.75 -11.273438 4.46875 -10.640625 C 4.1875 -10.003906 4.007812 -9.3125 3.9375 -8.5625 Z M 13.859375 -8.5625 "/></g></g></g><g fill="#ff9e2c" fill-opacity="1"><g transform="translate(140.118023, 101.144794)"><g><path d="M 7.15625 0.328125 C 6.4375 0.328125 5.734375 0.226562 5.046875 0.03125 C 4.367188 -0.164062 3.753906 -0.46875 3.203125 -0.875 C 2.660156 -1.28125 2.222656 -1.78125 1.890625 -2.375 C 1.566406 -2.976562 1.40625 -3.675781 1.40625 -4.46875 L 1.40625 -4.53125 C 1.40625 -5.34375 1.5625 -6.054688 1.875 -6.671875 C 2.195312 -7.296875 2.648438 -7.816406 3.234375 -8.234375 C 3.816406 -8.648438 4.507812 -8.96875 5.3125 -9.1875 C 6.125 -9.40625 7.015625 -9.515625 7.984375 -9.515625 C 8.984375 -9.515625 9.847656 -9.453125 10.578125 -9.328125 C 11.316406 -9.210938 12.035156 -9.054688 12.734375 -8.859375 L 12.734375 -9.390625 C 12.734375 -10.785156 12.328125 -11.832031 11.515625 -12.53125 C 10.710938 -13.238281 9.585938 -13.59375 8.140625 -13.59375 C 7.222656 -13.59375 6.390625 -13.488281 5.640625 -13.28125 C 4.898438 -13.070312 4.171875 -12.800781 3.453125 -12.46875 L 2.765625 -14.34375 C 3.617188 -14.738281 4.484375 -15.050781 5.359375 -15.28125 C 6.234375 -15.507812 7.238281 -15.625 8.375 -15.625 C 10.5625 -15.625 12.222656 -15.054688 13.359375 -13.921875 C 14.410156 -12.867188 14.9375 -11.367188 14.9375 -9.421875 L 14.9375 0 L 12.734375 0 L 12.734375 -2.328125 C 12.191406 -1.628906 11.46875 -1.007812 10.5625 -0.46875 C 9.664062 0.0625 8.53125 0.328125 7.15625 0.328125 Z M 7.609375 -1.484375 C 8.316406 -1.484375 8.984375 -1.585938 9.609375 -1.796875 C 10.234375 -2.003906 10.78125 -2.289062 11.25 -2.65625 C 11.71875 -3.03125 12.085938 -3.46875 12.359375 -3.96875 C 12.628906 -4.476562 12.765625 -5.046875 12.765625 -5.671875 L 12.765625 -7.15625 C 12.179688 -7.3125 11.515625 -7.457031 10.765625 -7.59375 C 10.023438 -7.738281 9.179688 -7.8125 8.234375 -7.8125 C 6.773438 -7.8125 5.660156 -7.519531 4.890625 -6.9375 C 4.117188 -6.363281 3.734375 -5.59375 3.734375 -4.625 L 3.734375 -4.5625 C 3.734375 -4.082031 3.835938 -3.648438 4.046875 -3.265625 C 4.253906 -2.878906 4.535156 -2.554688 4.890625 -2.296875 C 5.242188 -2.035156 5.65625 -1.832031 6.125 -1.6875 C 6.59375 -1.550781 7.085938 -1.484375 7.609375 -1.484375 Z M 7.609375 -1.484375 "/></g></g></g><g fill="#ff9e2c" fill-opacity="1"><g transform="translate(161.130065, 101.144794)"><g><path d="M 2.5625 -15.40625 L 4.859375 -15.40625 L 4.859375 -11.390625 C 5.140625 -12.023438 5.488281 -12.609375 5.90625 -13.140625 C 6.320312 -13.679688 6.796875 -14.144531 7.328125 -14.53125 C 7.867188 -14.914062 8.457031 -15.207031 9.09375 -15.40625 C 9.726562 -15.613281 10.414062 -15.707031 11.15625 -15.6875 L 11.15625 -13.203125 L 10.96875 -13.203125 C 10.132812 -13.203125 9.34375 -13.050781 8.59375 -12.75 C 7.851562 -12.457031 7.203125 -12.015625 6.640625 -11.421875 C 6.085938 -10.828125 5.648438 -10.085938 5.328125 -9.203125 C 5.015625 -8.316406 4.859375 -7.296875 4.859375 -6.140625 L 4.859375 0 L 2.5625 0 Z M 2.5625 -15.40625 "/></g></g></g><g fill="#ff9e2c" fill-opacity="1"><g transform="translate(174.273887, 101.144794)"><g><path d="M 2.265625 -3.125 L 5.015625 -3.125 L 5.015625 0 L 2.265625 0 Z M 2.265625 -3.125 "/></g></g></g><g fill="#ff9e2c" fill-opacity="1"><g transform="translate(184.109696, 101.144794)"><g><path d="M 12.484375 0.359375 C 10.972656 0.359375 9.582031 0.0820312 8.3125 -0.46875 C 7.039062 -1.03125 5.9375 -1.789062 5 -2.75 C 4.070312 -3.71875 3.34375 -4.859375 2.8125 -6.171875 C 2.289062 -7.484375 2.03125 -8.882812 2.03125 -10.375 L 2.03125 -10.4375 C 2.03125 -11.90625 2.289062 -13.296875 2.8125 -14.609375 C 3.34375 -15.921875 4.070312 -17.066406 5 -18.046875 C 5.9375 -19.035156 7.050781 -19.8125 8.34375 -20.375 C 9.632812 -20.9375 11.046875 -21.21875 12.578125 -21.21875 C 13.535156 -21.21875 14.394531 -21.140625 15.15625 -20.984375 C 15.925781 -20.828125 16.640625 -20.601562 17.296875 -20.3125 C 17.953125 -20.03125 18.554688 -19.679688 19.109375 -19.265625 C 19.660156 -18.859375 20.195312 -18.410156 20.71875 -17.921875 L 19.109375 -16.1875 C 18.210938 -17.019531 17.253906 -17.703125 16.234375 -18.234375 C 15.210938 -18.773438 13.984375 -19.046875 12.546875 -19.046875 C 11.398438 -19.046875 10.332031 -18.828125 9.34375 -18.390625 C 8.363281 -17.953125 7.507812 -17.34375 6.78125 -16.5625 C 6.050781 -15.789062 5.484375 -14.882812 5.078125 -13.84375 C 4.671875 -12.800781 4.46875 -11.6875 4.46875 -10.5 L 4.46875 -10.4375 C 4.46875 -9.21875 4.671875 -8.085938 5.078125 -7.046875 C 5.484375 -6.003906 6.050781 -5.09375 6.78125 -4.3125 C 7.507812 -3.539062 8.363281 -2.929688 9.34375 -2.484375 C 10.332031 -2.035156 11.398438 -1.8125 12.546875 -1.8125 C 13.984375 -1.8125 15.21875 -2.078125 16.25 -2.609375 C 17.28125 -3.140625 18.289062 -3.878906 19.28125 -4.828125 L 20.84375 -3.3125 C 20.300781 -2.75 19.738281 -2.242188 19.15625 -1.796875 C 18.570312 -1.359375 17.941406 -0.976562 17.265625 -0.65625 C 16.585938 -0.332031 15.859375 -0.0820312 15.078125 0.09375 C 14.304688 0.269531 13.441406 0.359375 12.484375 0.359375 Z M 12.484375 0.359375 "/></g></g></g><g fill="#ff9e2c" fill-opacity="1"><g transform="translate(209.979642, 101.144794)"><g><path d="M 2.5625 -15.40625 L 4.859375 -15.40625 L 4.859375 -11.390625 C 5.140625 -12.023438 5.488281 -12.609375 5.90625 -13.140625 C 6.320312 -13.679688 6.796875 -14.144531 7.328125 -14.53125 C 7.867188 -14.914062 8.457031 -15.207031 9.09375 -15.40625 C 9.726562 -15.613281 10.414062 -15.707031 11.15625 -15.6875 L 11.15625 -13.203125 L 10.96875 -13.203125 C 10.132812 -13.203125 9.34375 -13.050781 8.59375 -12.75 C 7.851562 -12.457031 7.203125 -12.015625 6.640625 -11.421875 C 6.085938 -10.828125 5.648438 -10.085938 5.328125 -9.203125 C 5.015625 -8.316406 4.859375 -7.296875 4.859375 -6.140625 L 4.859375 0 L 2.5625 0 Z M 2.5625 -15.40625 "/></g></g></g><g fill="#ff9e2c" fill-opacity="1"><g transform="translate(225.150242, 101.144794)"><g><path d="M 9.296875 0.359375 C 8.242188 0.359375 7.25 0.164062 6.3125 -0.21875 C 5.382812 -0.613281 4.570312 -1.160156 3.875 -1.859375 C 3.175781 -2.566406 2.625 -3.410156 2.21875 -4.390625 C 1.8125 -5.378906 1.609375 -6.46875 1.609375 -7.65625 L 1.609375 -7.71875 C 1.609375 -8.832031 1.789062 -9.875 2.15625 -10.84375 C 2.53125 -11.820312 3.046875 -12.671875 3.703125 -13.390625 C 4.359375 -14.117188 5.132812 -14.691406 6.03125 -15.109375 C 6.9375 -15.523438 7.925781 -15.734375 9 -15.734375 C 10.132812 -15.734375 11.148438 -15.519531 12.046875 -15.09375 C 12.941406 -14.664062 13.695312 -14.082031 14.3125 -13.34375 C 14.925781 -12.613281 15.390625 -11.753906 15.703125 -10.765625 C 16.023438 -9.785156 16.1875 -8.734375 16.1875 -7.609375 C 16.1875 -7.441406 16.1875 -7.304688 16.1875 -7.203125 C 16.1875 -7.109375 16.175781 -6.992188 16.15625 -6.859375 L 3.9375 -6.859375 C 4.007812 -6.023438 4.207031 -5.285156 4.53125 -4.640625 C 4.851562 -3.992188 5.253906 -3.445312 5.734375 -3 C 6.222656 -2.550781 6.773438 -2.210938 7.390625 -1.984375 C 8.003906 -1.753906 8.660156 -1.640625 9.359375 -1.640625 C 10.429688 -1.640625 11.347656 -1.835938 12.109375 -2.234375 C 12.878906 -2.628906 13.582031 -3.15625 14.21875 -3.8125 L 15.65625 -2.53125 C 14.875 -1.65625 13.984375 -0.953125 12.984375 -0.421875 C 11.992188 0.0976562 10.765625 0.359375 9.296875 0.359375 Z M 13.859375 -8.5625 C 13.796875 -9.25 13.648438 -9.910156 13.421875 -10.546875 C 13.203125 -11.179688 12.882812 -11.738281 12.46875 -12.21875 C 12.0625 -12.695312 11.566406 -13.078125 10.984375 -13.359375 C 10.398438 -13.648438 9.71875 -13.796875 8.9375 -13.796875 C 8.269531 -13.796875 7.644531 -13.660156 7.0625 -13.390625 C 6.488281 -13.128906 5.984375 -12.765625 5.546875 -12.296875 C 5.109375 -11.828125 4.75 -11.273438 4.46875 -10.640625 C 4.1875 -10.003906 4.007812 -9.3125 3.9375 -8.5625 Z M 13.859375 -8.5625 "/></g></g></g><g fill="#ff9e2c" fill-opacity="1"><g transform="translate(246.549725, 101.144794)"><g><path d="M 7.15625 0.328125 C 6.4375 0.328125 5.734375 0.226562 5.046875 0.03125 C 4.367188 -0.164062 3.753906 -0.46875 3.203125 -0.875 C 2.660156 -1.28125 2.222656 -1.78125 1.890625 -2.375 C 1.566406 -2.976562 1.40625 -3.675781 1.40625 -4.46875 L 1.40625 -4.53125 C 1.40625 -5.34375 1.5625 -6.054688 1.875 -6.671875 C 2.195312 -7.296875 2.648438 -7.816406 3.234375 -8.234375 C 3.816406 -8.648438 4.507812 -8.96875 5.3125 -9.1875 C 6.125 -9.40625 7.015625 -9.515625 7.984375 -9.515625 C 8.984375 -9.515625 9.847656 -9.453125 10.578125 -9.328125 C 11.316406 -9.210938 12.035156 -9.054688 12.734375 -8.859375 L 12.734375 -9.390625 C 12.734375 -10.785156 12.328125 -11.832031 11.515625 -12.53125 C 10.710938 -13.238281 9.585938 -13.59375 8.140625 -13.59375 C 7.222656 -13.59375 6.390625 -13.488281 5.640625 -13.28125 C 4.898438 -13.070312 4.171875 -12.800781 3.453125 -12.46875 L 2.765625 -14.34375 C 3.617188 -14.738281 4.484375 -15.050781 5.359375 -15.28125 C 6.234375 -15.507812 7.238281 -15.625 8.375 -15.625 C 10.5625 -15.625 12.222656 -15.054688 13.359375 -13.921875 C 14.410156 -12.867188 14.9375 -11.367188 14.9375 -9.421875 L 14.9375 0 L 12.734375 0 L 12.734375 -2.328125 C 12.191406 -1.628906 11.46875 -1.007812 10.5625 -0.46875 C 9.664062 0.0625 8.53125 0.328125 7.15625 0.328125 Z M 7.609375 -1.484375 C 8.316406 -1.484375 8.984375 -1.585938 9.609375 -1.796875 C 10.234375 -2.003906 10.78125 -2.289062 11.25 -2.65625 C 11.71875 -3.03125 12.085938 -3.46875 12.359375 -3.96875 C 12.628906 -4.476562 12.765625 -5.046875 12.765625 -5.671875 L 12.765625 -7.15625 C 12.179688 -7.3125 11.515625 -7.457031 10.765625 -7.59375 C 10.023438 -7.738281 9.179688 -7.8125 8.234375 -7.8125 C 6.773438 -7.8125 5.660156 -7.519531 4.890625 -6.9375 C 4.117188 -6.363281 3.734375 -5.59375 3.734375 -4.625 L 3.734375 -4.5625 C 3.734375 -4.082031 3.835938 -3.648438 4.046875 -3.265625 C 4.253906 -2.878906 4.535156 -2.554688 4.890625 -2.296875 C 5.242188 -2.035156 5.65625 -1.832031 6.125 -1.6875 C 6.59375 -1.550781 7.085938 -1.484375 7.609375 -1.484375 Z M 7.609375 -1.484375 "/></g></g></g><g fill="#ff9e2c" fill-opacity="1"><g transform="translate(267.412748, 101.144794)"><g><path d="M 7.71875 0.265625 C 7.101562 0.265625 6.523438 0.1875 5.984375 0.03125 C 5.453125 -0.125 4.992188 -0.375 4.609375 -0.71875 C 4.222656 -1.070312 3.921875 -1.523438 3.703125 -2.078125 C 3.484375 -2.640625 3.375 -3.304688 3.375 -4.078125 L 3.375 -13.390625 L 1.21875 -13.390625 L 1.21875 -15.40625 L 3.375 -15.40625 L 3.375 -20.0625 L 5.671875 -20.0625 L 5.671875 -15.40625 L 10.546875 -15.40625 L 10.546875 -13.390625 L 5.671875 -13.390625 L 5.671875 -4.375 C 5.671875 -3.425781 5.90625 -2.757812 6.375 -2.375 C 6.851562 -2 7.484375 -1.8125 8.265625 -1.8125 C 8.660156 -1.8125 9.03125 -1.851562 9.375 -1.9375 C 9.71875 -2.019531 10.09375 -2.160156 10.5 -2.359375 L 10.5 -0.390625 C 10.09375 -0.171875 9.664062 -0.0078125 9.21875 0.09375 C 8.78125 0.207031 8.28125 0.265625 7.71875 0.265625 Z M 7.71875 0.265625 "/></g></g></g><g fill="#ff9e2c" fill-opacity="1"><g transform="translate(283.209253, 101.144794)"><g><path d="M 2.625 -21.3125 L 5.25 -21.3125 L 5.25 -18.78125 L 2.625 -18.78125 Z M 2.765625 -15.40625 L 5.0625 -15.40625 L 5.0625 0 L 2.765625 0 Z M 2.765625 -15.40625 "/></g></g></g><g fill="#ff9e2c" fill-opacity="1"><g transform="translate(294.803524, 101.144794)"><g><path d="M 1.046875 -15.40625 L 3.578125 -15.40625 L 8.765625 -2.625 L 13.984375 -15.40625 L 16.453125 -15.40625 L 9.75 0.125 L 7.71875 0.125 Z M 1.046875 -15.40625 "/></g></g></g><g fill="#ff9e2c" fill-opacity="1"><g transform="translate(315.159832, 101.144794)"><g><path d="M 9.296875 0.359375 C 8.242188 0.359375 7.25 0.164062 6.3125 -0.21875 C 5.382812 -0.613281 4.570312 -1.160156 3.875 -1.859375 C 3.175781 -2.566406 2.625 -3.410156 2.21875 -4.390625 C 1.8125 -5.378906 1.609375 -6.46875 1.609375 -7.65625 L 1.609375 -7.71875 C 1.609375 -8.832031 1.789062 -9.875 2.15625 -10.84375 C 2.53125 -11.820312 3.046875 -12.671875 3.703125 -13.390625 C 4.359375 -14.117188 5.132812 -14.691406 6.03125 -15.109375 C 6.9375 -15.523438 7.925781 -15.734375 9 -15.734375 C 10.132812 -15.734375 11.148438 -15.519531 12.046875 -15.09375 C 12.941406 -14.664062 13.695312 -14.082031 14.3125 -13.34375 C 14.925781 -12.613281 15.390625 -11.753906 15.703125 -10.765625 C 16.023438 -9.785156 16.1875 -8.734375 16.1875 -7.609375 C 16.1875 -7.441406 16.1875 -7.304688 16.1875 -7.203125 C 16.1875 -7.109375 16.175781 -6.992188 16.15625 -6.859375 L 3.9375 -6.859375 C 4.007812 -6.023438 4.207031 -5.285156 4.53125 -4.640625 C 4.851562 -3.992188 5.253906 -3.445312 5.734375 -3 C 6.222656 -2.550781 6.773438 -2.210938 7.390625 -1.984375 C 8.003906 -1.753906 8.660156 -1.640625 9.359375 -1.640625 C 10.429688 -1.640625 11.347656 -1.835938 12.109375 -2.234375 C 12.878906 -2.628906 13.582031 -3.15625 14.21875 -3.8125 L 15.65625 -2.53125 C 14.875 -1.65625 13.984375 -0.953125 12.984375 -0.421875 C 11.992188 0.0976562 10.765625 0.359375 9.296875 0.359375 Z M 13.859375 -8.5625 C 13.796875 -9.25 13.648438 -9.910156 13.421875 -10.546875 C 13.203125 -11.179688 12.882812 -11.738281 12.46875 -12.21875 C 12.0625 -12.695312 11.566406 -13.078125 10.984375 -13.359375 C 10.398438 -13.648438 9.71875 -13.796875 8.9375 -13.796875 C 8.269531 -13.796875 7.644531 -13.660156 7.0625 -13.390625 C 6.488281 -13.128906 5.984375 -12.765625 5.546875 -12.296875 C 5.109375 -11.828125 4.75 -11.273438 4.46875 -10.640625 C 4.1875 -10.003906 4.007812 -9.3125 3.9375 -8.5625 Z M 13.859375 -8.5625 "/></g></g></g><g fill="#ff9e2c" fill-opacity="1"><g transform="translate(336.261255, 101.144794)"><g><path d="M 2.265625 -3.125 L 5.015625 -3.125 L 5.015625 0 L 2.265625 0 Z M 2.265625 -3.125 "/></g></g></g><g fill="#545454" fill-opacity="1"><g transform="translate(347.297497, 101.144794)"><g><path d="M 2.953125 -20.875 L 11.828125 -20.875 C 13.023438 -20.875 14.082031 -20.707031 15 -20.375 C 15.925781 -20.050781 16.691406 -19.597656 17.296875 -19.015625 C 18.191406 -18.085938 18.640625 -16.976562 18.640625 -15.6875 L 18.640625 -15.625 C 18.640625 -14.945312 18.539062 -14.34375 18.34375 -13.8125 C 18.15625 -13.289062 17.898438 -12.832031 17.578125 -12.4375 C 17.265625 -12.050781 16.914062 -11.722656 16.53125 -11.453125 C 16.144531 -11.191406 15.742188 -10.972656 15.328125 -10.796875 C 15.941406 -10.617188 16.519531 -10.382812 17.0625 -10.09375 C 17.613281 -9.800781 18.085938 -9.457031 18.484375 -9.0625 C 18.878906 -8.664062 19.195312 -8.191406 19.4375 -7.640625 C 19.675781 -7.097656 19.796875 -6.46875 19.796875 -5.75 L 19.796875 -5.6875 C 19.796875 -4.800781 19.613281 -4.003906 19.25 -3.296875 C 18.894531 -2.585938 18.382812 -1.988281 17.71875 -1.5 C 17.050781 -1.019531 16.25 -0.648438 15.3125 -0.390625 C 14.382812 -0.128906 13.351562 0 12.21875 0 L 2.953125 0 Z M 16.25 -15.359375 C 16.25 -16.390625 15.847656 -17.210938 15.046875 -17.828125 C 14.253906 -18.441406 13.113281 -18.75 11.625 -18.75 L 5.28125 -18.75 L 5.28125 -11.5625 L 11.453125 -11.5625 C 12.878906 -11.5625 14.035156 -11.875 14.921875 -12.5 C 15.804688 -13.132812 16.25 -14.066406 16.25 -15.296875 Z M 17.40625 -5.90625 C 17.40625 -7.039062 16.9375 -7.921875 16 -8.546875 C 15.070312 -9.171875 13.691406 -9.484375 11.859375 -9.484375 L 5.28125 -9.484375 L 5.28125 -2.109375 L 12.28125 -2.109375 C 13.875 -2.109375 15.125 -2.4375 16.03125 -3.09375 C 16.945312 -3.75 17.40625 -4.664062 17.40625 -5.84375 Z M 17.40625 -5.90625 "/></g></g></g><g fill="#545454" fill-opacity="1"><g transform="translate(372.571389, 101.144794)"><g><path d="M 8.234375 0.328125 C 7.296875 0.328125 6.460938 0.179688 5.734375 -0.109375 C 5.015625 -0.410156 4.398438 -0.832031 3.890625 -1.375 C 3.378906 -1.925781 2.988281 -2.578125 2.71875 -3.328125 C 2.457031 -4.085938 2.328125 -4.925781 2.328125 -5.84375 L 2.328125 -15.40625 L 4.625 -15.40625 L 4.625 -6.40625 C 4.625 -4.976562 4.988281 -3.847656 5.71875 -3.015625 C 6.457031 -2.179688 7.515625 -1.765625 8.890625 -1.765625 C 9.546875 -1.765625 10.15625 -1.875 10.71875 -2.09375 C 11.28125 -2.320312 11.765625 -2.648438 12.171875 -3.078125 C 12.585938 -3.515625 12.910156 -4.03125 13.140625 -4.625 C 13.378906 -5.21875 13.5 -5.875 13.5 -6.59375 L 13.5 -15.40625 L 15.765625 -15.40625 L 15.765625 0 L 13.5 0 L 13.5 -2.6875 C 12.988281 -1.851562 12.3125 -1.140625 11.46875 -0.546875 C 10.632812 0.0351562 9.554688 0.328125 8.234375 0.328125 Z M 8.234375 0.328125 "/></g></g></g><g fill="#545454" fill-opacity="1"><g transform="translate(394.686159, 101.144794)"><g><path d="M 2.625 -21.3125 L 5.25 -21.3125 L 5.25 -18.78125 L 2.625 -18.78125 Z M 2.765625 -15.40625 L 5.0625 -15.40625 L 5.0625 0 L 2.765625 0 Z M 2.765625 -15.40625 "/></g></g></g><g fill="#545454" fill-opacity="1"><g transform="translate(406.280431, 101.144794)"><g><path d="M 2.765625 -21.765625 L 5.0625 -21.765625 L 5.0625 0 L 2.765625 0 Z M 2.765625 -21.765625 "/></g></g></g><g fill="#545454" fill-opacity="1"><g transform="translate(417.874702, 101.144794)"><g><path d="M 9.03125 0.328125 C 8.09375 0.328125 7.1875 0.148438 6.3125 -0.203125 C 5.445312 -0.566406 4.664062 -1.085938 3.96875 -1.765625 C 3.269531 -2.453125 2.710938 -3.285156 2.296875 -4.265625 C 1.878906 -5.253906 1.671875 -6.382812 1.671875 -7.65625 L 1.671875 -7.71875 C 1.671875 -8.96875 1.878906 -10.085938 2.296875 -11.078125 C 2.710938 -12.078125 3.269531 -12.921875 3.96875 -13.609375 C 4.664062 -14.296875 5.445312 -14.820312 6.3125 -15.1875 C 7.1875 -15.550781 8.09375 -15.734375 9.03125 -15.734375 C 9.75 -15.734375 10.40625 -15.644531 11 -15.46875 C 11.59375 -15.289062 12.128906 -15.050781 12.609375 -14.75 C 13.085938 -14.457031 13.519531 -14.113281 13.90625 -13.71875 C 14.289062 -13.320312 14.632812 -12.90625 14.9375 -12.46875 L 14.9375 -21.765625 L 17.234375 -21.765625 L 17.234375 0 L 14.9375 0 L 14.9375 -3.09375 C 14.613281 -2.644531 14.257812 -2.207031 13.875 -1.78125 C 13.488281 -1.363281 13.054688 -0.992188 12.578125 -0.671875 C 12.097656 -0.359375 11.566406 -0.113281 10.984375 0.0625 C 10.398438 0.238281 9.75 0.328125 9.03125 0.328125 Z M 9.453125 -1.734375 C 10.171875 -1.734375 10.859375 -1.875 11.515625 -2.15625 C 12.179688 -2.445312 12.773438 -2.851562 13.296875 -3.375 C 13.828125 -3.90625 14.25 -4.53125 14.5625 -5.25 C 14.875 -5.976562 15.03125 -6.789062 15.03125 -7.6875 L 15.03125 -7.75 C 15.03125 -8.644531 14.875 -9.453125 14.5625 -10.171875 C 14.25 -10.898438 13.828125 -11.519531 13.296875 -12.03125 C 12.773438 -12.550781 12.179688 -12.957031 11.515625 -13.25 C 10.859375 -13.539062 10.171875 -13.6875 9.453125 -13.6875 C 8.691406 -13.6875 7.984375 -13.550781 7.328125 -13.28125 C 6.671875 -13.007812 6.097656 -12.617188 5.609375 -12.109375 C 5.128906 -11.609375 4.742188 -10.988281 4.453125 -10.25 C 4.171875 -9.519531 4.03125 -8.6875 4.03125 -7.75 L 4.03125 -7.6875 C 4.03125 -6.769531 4.171875 -5.941406 4.453125 -5.203125 C 4.742188 -4.472656 5.132812 -3.847656 5.625 -3.328125 C 6.125 -2.816406 6.703125 -2.421875 7.359375 -2.140625 C 8.015625 -1.867188 8.710938 -1.734375 9.453125 -1.734375 Z M 9.453125 -1.734375 "/></g></g></g><g fill="#545454" fill-opacity="1"><g transform="translate(441.420004, 101.144794)"><g><path d="M 7.15625 0.328125 C 6.4375 0.328125 5.734375 0.226562 5.046875 0.03125 C 4.367188 -0.164062 3.753906 -0.46875 3.203125 -0.875 C 2.660156 -1.28125 2.222656 -1.78125 1.890625 -2.375 C 1.566406 -2.976562 1.40625 -3.675781 1.40625 -4.46875 L 1.40625 -4.53125 C 1.40625 -5.34375 1.5625 -6.054688 1.875 -6.671875 C 2.195312 -7.296875 2.648438 -7.816406 3.234375 -8.234375 C 3.816406 -8.648438 4.507812 -8.96875 5.3125 -9.1875 C 6.125 -9.40625 7.015625 -9.515625 7.984375 -9.515625 C 8.984375 -9.515625 9.847656 -9.453125 10.578125 -9.328125 C 11.316406 -9.210938 12.035156 -9.054688 12.734375 -8.859375 L 12.734375 -9.390625 C 12.734375 -10.785156 12.328125 -11.832031 11.515625 -12.53125 C 10.710938 -13.238281 9.585938 -13.59375 8.140625 -13.59375 C 7.222656 -13.59375 6.390625 -13.488281 5.640625 -13.28125 C 4.898438 -13.070312 4.171875 -12.800781 3.453125 -12.46875 L 2.765625 -14.34375 C 3.617188 -14.738281 4.484375 -15.050781 5.359375 -15.28125 C 6.234375 -15.507812 7.238281 -15.625 8.375 -15.625 C 10.5625 -15.625 12.222656 -15.054688 13.359375 -13.921875 C 14.410156 -12.867188 14.9375 -11.367188 14.9375 -9.421875 L 14.9375 0 L 12.734375 0 L 12.734375 -2.328125 C 12.191406 -1.628906 11.46875 -1.007812 10.5625 -0.46875 C 9.664062 0.0625 8.53125 0.328125 7.15625 0.328125 Z M 7.609375 -1.484375 C 8.316406 -1.484375 8.984375 -1.585938 9.609375 -1.796875 C 10.234375 -2.003906 10.78125 -2.289062 11.25 -2.65625 C 11.71875 -3.03125 12.085938 -3.46875 12.359375 -3.96875 C 12.628906 -4.476562 12.765625 -5.046875 12.765625 -5.671875 L 12.765625 -7.15625 C 12.179688 -7.3125 11.515625 -7.457031 10.765625 -7.59375 C 10.023438 -7.738281 9.179688 -7.8125 8.234375 -7.8125 C 6.773438 -7.8125 5.660156 -7.519531 4.890625 -6.9375 C 4.117188 -6.363281 3.734375 -5.59375 3.734375 -4.625 L 3.734375 -4.5625 C 3.734375 -4.082031 3.835938 -3.648438 4.046875 -3.265625 C 4.253906 -2.878906 4.535156 -2.554688 4.890625 -2.296875 C 5.242188 -2.035156 5.65625 -1.832031 6.125 -1.6875 C 6.59375 -1.550781 7.085938 -1.484375 7.609375 -1.484375 Z M 7.609375 -1.484375 "/></g></g></g><g fill="#545454" fill-opacity="1"><g transform="translate(462.432046, 101.144794)"><g><path d="M 10.765625 0.328125 C 10.046875 0.328125 9.390625 0.238281 8.796875 0.0625 C 8.203125 -0.113281 7.664062 -0.351562 7.1875 -0.65625 C 6.707031 -0.957031 6.273438 -1.304688 5.890625 -1.703125 C 5.503906 -2.097656 5.160156 -2.515625 4.859375 -2.953125 L 4.859375 0 L 2.5625 0 L 2.5625 -21.765625 L 4.859375 -21.765625 L 4.859375 -12.3125 C 5.179688 -12.769531 5.535156 -13.207031 5.921875 -13.625 C 6.304688 -14.039062 6.738281 -14.398438 7.21875 -14.703125 C 7.695312 -15.015625 8.226562 -15.265625 8.8125 -15.453125 C 9.394531 -15.640625 10.046875 -15.734375 10.765625 -15.734375 C 11.679688 -15.734375 12.578125 -15.554688 13.453125 -15.203125 C 14.335938 -14.847656 15.128906 -14.328125 15.828125 -13.640625 C 16.523438 -12.953125 17.082031 -12.113281 17.5 -11.125 C 17.914062 -10.144531 18.125 -9.019531 18.125 -7.75 L 18.125 -7.6875 C 18.125 -6.4375 17.914062 -5.3125 17.5 -4.3125 C 17.082031 -3.320312 16.53125 -2.484375 15.84375 -1.796875 C 15.15625 -1.117188 14.367188 -0.59375 13.484375 -0.21875 C 12.597656 0.144531 11.691406 0.328125 10.765625 0.328125 Z M 10.34375 -1.734375 C 11.082031 -1.734375 11.785156 -1.863281 12.453125 -2.125 C 13.117188 -2.394531 13.691406 -2.78125 14.171875 -3.28125 C 14.660156 -3.789062 15.046875 -4.414062 15.328125 -5.15625 C 15.617188 -5.894531 15.765625 -6.726562 15.765625 -7.65625 L 15.765625 -7.71875 C 15.765625 -8.632812 15.617188 -9.457031 15.328125 -10.1875 C 15.046875 -10.925781 14.65625 -11.550781 14.15625 -12.0625 C 13.664062 -12.582031 13.09375 -12.984375 12.4375 -13.265625 C 11.78125 -13.546875 11.082031 -13.6875 10.34375 -13.6875 C 9.625 -13.6875 8.929688 -13.539062 8.265625 -13.25 C 7.609375 -12.957031 7.015625 -12.546875 6.484375 -12.015625 C 5.953125 -11.492188 5.53125 -10.867188 5.21875 -10.140625 C 4.914062 -9.421875 4.765625 -8.625 4.765625 -7.75 L 4.765625 -7.6875 C 4.765625 -6.789062 4.914062 -5.972656 5.21875 -5.234375 C 5.53125 -4.503906 5.953125 -3.878906 6.484375 -3.359375 C 7.015625 -2.847656 7.609375 -2.445312 8.265625 -2.15625 C 8.929688 -1.875 9.625 -1.734375 10.34375 -1.734375 Z M 10.34375 -1.734375 "/></g></g></g><g fill="#545454" fill-opacity="1"><g transform="translate(485.977348, 101.144794)"><g><path d="M 2.765625 -21.765625 L 5.0625 -21.765625 L 5.0625 0 L 2.765625 0 Z M 2.765625 -21.765625 "/></g></g></g><g fill="#545454" fill-opacity="1"><g transform="translate(497.57162, 101.144794)"><g><path d="M 9.296875 0.359375 C 8.242188 0.359375 7.25 0.164062 6.3125 -0.21875 C 5.382812 -0.613281 4.570312 -1.160156 3.875 -1.859375 C 3.175781 -2.566406 2.625 -3.410156 2.21875 -4.390625 C 1.8125 -5.378906 1.609375 -6.46875 1.609375 -7.65625 L 1.609375 -7.71875 C 1.609375 -8.832031 1.789062 -9.875 2.15625 -10.84375 C 2.53125 -11.820312 3.046875 -12.671875 3.703125 -13.390625 C 4.359375 -14.117188 5.132812 -14.691406 6.03125 -15.109375 C 6.9375 -15.523438 7.925781 -15.734375 9 -15.734375 C 10.132812 -15.734375 11.148438 -15.519531 12.046875 -15.09375 C 12.941406 -14.664062 13.695312 -14.082031 14.3125 -13.34375 C 14.925781 -12.613281 15.390625 -11.753906 15.703125 -10.765625 C 16.023438 -9.785156 16.1875 -8.734375 16.1875 -7.609375 C 16.1875 -7.441406 16.1875 -7.304688 16.1875 -7.203125 C 16.1875 -7.109375 16.175781 -6.992188 16.15625 -6.859375 L 3.9375 -6.859375 C 4.007812 -6.023438 4.207031 -5.285156 4.53125 -4.640625 C 4.851562 -3.992188 5.253906 -3.445312 5.734375 -3 C 6.222656 -2.550781 6.773438 -2.210938 7.390625 -1.984375 C 8.003906 -1.753906 8.660156 -1.640625 9.359375 -1.640625 C 10.429688 -1.640625 11.347656 -1.835938 12.109375 -2.234375 C 12.878906 -2.628906 13.582031 -3.15625 14.21875 -3.8125 L 15.65625 -2.53125 C 14.875 -1.65625 13.984375 -0.953125 12.984375 -0.421875 C 11.992188 0.0976562 10.765625 0.359375 9.296875 0.359375 Z M 13.859375 -8.5625 C 13.796875 -9.25 13.648438 -9.910156 13.421875 -10.546875 C 13.203125 -11.179688 12.882812 -11.738281 12.46875 -12.21875 C 12.0625 -12.695312 11.566406 -13.078125 10.984375 -13.359375 C 10.398438 -13.648438 9.71875 -13.796875 8.9375 -13.796875 C 8.269531 -13.796875 7.644531 -13.660156 7.0625 -13.390625 C 6.488281 -13.128906 5.984375 -12.765625 5.546875 -12.296875 C 5.109375 -11.828125 4.75 -11.273438 4.46875 -10.640625 C 4.1875 -10.003906 4.007812 -9.3125 3.9375 -8.5625 Z M 13.859375 -8.5625 "/></g></g></g></g></g></g></g></g></svg>