<svg xmlns="http://www.w3.org/2000/svg" xmlns:xlink="http://www.w3.org/1999/xlink" width="500" zoomAndPan="magnify" viewBox="0 0 375 374.999991" height="500" preserveAspectRatio="xMidYMid meet" version="1.0"><defs><g/></defs><g fill="#545454" fill-opacity="1"><g transform="translate(76.738183, 243.919246)"><g><path d="M 15.796875 -0.9375 C 17.421875 -3.195312 18.796875 -6.019531 19.921875 -9.40625 C 21.054688 -12.789062 21.625 -16.238281 21.625 -19.75 L 21.625 -111.875 C 21.625 -115.382812 21.054688 -118.832031 19.921875 -122.21875 C 18.796875 -125.601562 17.421875 -128.425781 15.796875 -130.6875 L 15.796875 -131.625 L 100.59375 -131.625 L 104.546875 -100.59375 L 102.671875 -100.59375 C 100.035156 -106.613281 97.273438 -111.535156 94.390625 -115.359375 C 91.503906 -119.179688 87.742188 -122.1875 83.109375 -124.375 C 78.472656 -126.570312 72.707031 -127.671875 65.8125 -127.671875 L 39.484375 -127.671875 L 39.484375 -68.625 L 64.5 -68.625 C 75.65625 -68.625 82.546875 -74.078125 85.171875 -84.984375 L 87.0625 -84.984375 L 87.0625 -48.328125 L 85.171875 -48.328125 C 82.421875 -59.234375 75.53125 -64.6875 64.5 -64.6875 L 39.484375 -64.6875 L 39.484375 -3.953125 L 70.328125 -3.953125 C 77.222656 -3.953125 82.988281 -5.046875 87.625 -7.234375 C 92.257812 -9.429688 96.019531 -12.441406 98.90625 -16.265625 C 101.789062 -20.085938 104.546875 -25.007812 107.171875 -31.03125 L 109.0625 -31.03125 L 105.109375 0 L 15.796875 0 Z M 15.796875 -0.9375 "/></g></g></g><g fill="#545454" fill-opacity="1"><g transform="translate(193.5038, 243.919246)"><g/></g></g><g fill="#ff9e2c" fill-opacity="1"><g transform="translate(193.5038, 243.919246)"><g><path d="M 6.765625 -0.9375 C 8.898438 -3.195312 10.8125 -6.019531 12.5 -9.40625 C 14.195312 -12.789062 15.421875 -16.238281 16.171875 -19.75 L 34.03125 -111.875 C 34.40625 -114.132812 34.59375 -116.265625 34.59375 -118.265625 C 34.59375 -123.035156 33.71875 -127.175781 31.96875 -130.6875 L 32.15625 -131.625 L 61.296875 -131.625 L 61.109375 -130.6875 C 58.972656 -128.425781 57.0625 -125.601562 55.375 -122.21875 C 53.6875 -118.832031 52.460938 -115.382812 51.703125 -111.875 L 30.84375 -3.953125 L 54.90625 -3.953125 C 65.5625 -3.953125 74.144531 -6.113281 80.65625 -10.4375 C 87.175781 -14.757812 93.570312 -21.75 99.84375 -31.40625 L 101.53125 -31.40625 L 90.8125 0 L 6.578125 0 Z M 6.765625 -0.9375 "/></g></g></g><g fill="#ff9e2c" fill-opacity="1"><g transform="translate(298.245981, 243.919246)"><g/></g></g></svg>