<svg xmlns="http://www.w3.org/2000/svg" xmlns:xlink="http://www.w3.org/1999/xlink" width="500" zoomAndPan="magnify" viewBox="0 0 375 374.999991" height="500" preserveAspectRatio="xMidYMid meet" version="1.0"><defs><g/></defs><g fill="#545454" fill-opacity="1"><g transform="translate(120.468747, 107.526197)"><g><path d="M 5.609375 -0.328125 C 6.191406 -1.128906 6.679688 -2.128906 7.078125 -3.328125 C 7.484375 -4.535156 7.6875 -5.765625 7.6875 -7.015625 L 7.6875 -39.765625 C 7.6875 -41.015625 7.484375 -42.238281 7.078125 -43.4375 C 6.679688 -44.644531 6.191406 -45.648438 5.609375 -46.453125 L 5.609375 -46.78125 L 35.75 -46.78125 L 37.15625 -35.75 L 36.484375 -35.75 C 35.546875 -37.882812 34.566406 -39.628906 33.546875 -40.984375 C 32.523438 -42.347656 31.1875 -43.421875 29.53125 -44.203125 C 27.882812 -44.984375 25.835938 -45.375 23.390625 -45.375 L 14.03125 -45.375 L 14.03125 -24.390625 L 22.921875 -24.390625 C 26.890625 -24.390625 29.335938 -26.328125 30.265625 -30.203125 L 30.9375 -30.203125 L 30.9375 -17.171875 L 30.265625 -17.171875 C 29.285156 -21.046875 26.835938 -22.984375 22.921875 -22.984375 L 14.03125 -22.984375 L 14.03125 -1.40625 L 25 -1.40625 C 27.445312 -1.40625 29.492188 -1.796875 31.140625 -2.578125 C 32.785156 -3.359375 34.117188 -4.425781 35.140625 -5.78125 C 36.171875 -7.132812 37.15625 -8.882812 38.09375 -11.03125 L 38.765625 -11.03125 L 37.359375 0 L 5.609375 0 Z M 5.609375 -0.328125 "/></g></g></g><g fill="#545454" fill-opacity="1"><g transform="translate(161.964128, 107.526197)"><g><path d="M 4.609375 13.03125 C 5.765625 11.425781 6.34375 9.351562 6.34375 6.8125 L 6.34375 -24.65625 C 6.34375 -26.125 6.175781 -27.335938 5.84375 -28.296875 C 5.507812 -29.253906 4.988281 -30.09375 4.28125 -30.8125 L 4.28125 -31.140625 L 11.96875 -34.15625 L 12.296875 -34.15625 L 12.296875 -27.53125 L 12.625 -27.53125 C 13.519531 -29.488281 14.878906 -31.082031 16.703125 -32.3125 C 18.535156 -33.539062 20.609375 -34.15625 22.921875 -34.15625 C 25.816406 -34.15625 28.300781 -33.441406 30.375 -32.015625 C 32.445312 -30.585938 34.023438 -28.632812 35.109375 -26.15625 C 36.203125 -23.6875 36.75 -20.894531 36.75 -17.78125 C 36.75 -14.257812 36.023438 -11.082031 34.578125 -8.25 C 33.128906 -5.425781 31.179688 -3.222656 28.734375 -1.640625 C 26.285156 -0.0546875 23.632812 0.734375 20.78125 0.734375 C 17.394531 0.734375 14.566406 -0.222656 12.296875 -2.140625 L 12.296875 6.8125 C 12.296875 9.351562 12.875 11.425781 14.03125 13.03125 L 14.03125 13.359375 L 4.609375 13.359375 Z M 20.84375 -0.796875 C 23.875 -0.796875 26.269531 -2.175781 28.03125 -4.9375 C 29.789062 -7.707031 30.671875 -11.40625 30.671875 -16.03125 C 30.671875 -18.925781 30.25 -21.46875 29.40625 -23.65625 C 28.5625 -25.84375 27.378906 -27.515625 25.859375 -28.671875 C 24.347656 -29.828125 22.632812 -30.40625 20.71875 -30.40625 C 18.351562 -30.40625 16.390625 -29.65625 14.828125 -28.15625 C 13.273438 -26.664062 12.429688 -24.742188 12.296875 -22.390625 L 12.296875 -9.890625 C 12.390625 -8.460938 12.769531 -7.046875 13.4375 -5.640625 C 14.101562 -4.242188 15.070312 -3.085938 16.34375 -2.171875 C 17.613281 -1.253906 19.113281 -0.796875 20.84375 -0.796875 Z M 20.84375 -0.796875 "/></g></g></g><g fill="#545454" fill-opacity="1"><g transform="translate(201.855826, 107.526197)"><g><path d="M 5.015625 -0.328125 C 6.171875 -1.929688 6.75 -4.003906 6.75 -6.546875 L 6.75 -24.65625 C 6.75 -26.125 6.570312 -27.347656 6.21875 -28.328125 C 5.863281 -29.316406 5.328125 -30.144531 4.609375 -30.8125 L 4.609375 -31.140625 L 12.359375 -34.15625 L 12.703125 -34.15625 L 12.703125 -6.546875 C 12.703125 -4.003906 13.28125 -1.929688 14.4375 -0.328125 L 14.4375 0 L 5.015625 0 Z M 9.6875 -38.5625 C 8.625 -38.5625 7.710938 -38.953125 6.953125 -39.734375 C 6.191406 -40.515625 5.8125 -41.4375 5.8125 -42.5 C 5.8125 -43.570312 6.203125 -44.484375 6.984375 -45.234375 C 7.765625 -45.992188 8.664062 -46.375 9.6875 -46.375 C 10.800781 -46.375 11.738281 -45.992188 12.5 -45.234375 C 13.257812 -44.484375 13.640625 -43.570312 13.640625 -42.5 C 13.640625 -41.382812 13.257812 -40.445312 12.5 -39.6875 C 11.738281 -38.9375 10.800781 -38.5625 9.6875 -38.5625 Z M 9.6875 -38.5625 "/></g></g></g><g fill="#545454" fill-opacity="1"><g transform="translate(220.966416, 107.526197)"><g><path d="M 18.375 0.734375 C 15.519531 0.734375 12.9375 0.078125 10.625 -1.234375 C 8.3125 -2.546875 6.484375 -4.460938 5.140625 -6.984375 C 3.804688 -9.503906 3.140625 -12.5 3.140625 -15.96875 C 3.140625 -19.269531 3.914062 -22.3125 5.46875 -25.09375 C 7.03125 -27.875 9.132812 -30.078125 11.78125 -31.703125 C 14.4375 -33.335938 17.328125 -34.15625 20.453125 -34.15625 C 22.054688 -34.15625 23.710938 -33.921875 25.421875 -33.453125 C 27.140625 -32.984375 28.625 -32.347656 29.875 -31.546875 L 29.875 -22.71875 L 29.203125 -22.71875 C 28.535156 -25.53125 27.195312 -27.816406 25.1875 -29.578125 C 23.1875 -31.335938 20.894531 -32.21875 18.3125 -32.21875 C 16.613281 -32.21875 14.984375 -31.789062 13.421875 -30.9375 C 11.867188 -30.09375 10.59375 -28.742188 9.59375 -26.890625 C 8.59375 -25.046875 8.09375 -22.722656 8.09375 -19.921875 C 8.09375 -16.890625 8.660156 -14.171875 9.796875 -11.765625 C 10.929688 -9.359375 12.5 -7.460938 14.5 -6.078125 C 16.507812 -4.703125 18.71875 -4.015625 21.125 -4.015625 C 23.257812 -4.015625 25.226562 -4.566406 27.03125 -5.671875 C 28.832031 -6.785156 30.160156 -8.4375 31.015625 -10.625 L 31.671875 -10.625 C 31.046875 -7.195312 29.5 -4.445312 27.03125 -2.375 C 24.5625 -0.300781 21.675781 0.734375 18.375 0.734375 Z M 18.375 0.734375 "/></g></g></g><g fill="#ff9e2c" fill-opacity="1"><g transform="translate(27.761721, 185.526192)"><g><path d="M 2.40625 -0.328125 C 3.164062 -1.128906 3.84375 -2.128906 4.4375 -3.328125 C 5.039062 -4.535156 5.476562 -5.765625 5.75 -7.015625 L 12.09375 -39.765625 C 12.226562 -40.566406 12.296875 -41.320312 12.296875 -42.03125 C 12.296875 -43.726562 11.984375 -45.203125 11.359375 -46.453125 L 11.421875 -46.78125 L 21.78125 -46.78125 L 21.71875 -46.453125 C 20.957031 -45.648438 20.273438 -44.644531 19.671875 -43.4375 C 19.078125 -42.238281 18.644531 -41.015625 18.375 -39.765625 L 10.953125 -1.40625 L 19.515625 -1.40625 C 23.296875 -1.40625 26.34375 -2.171875 28.65625 -3.703125 C 30.976562 -5.242188 33.253906 -7.726562 35.484375 -11.15625 L 36.09375 -11.15625 L 32.28125 0 L 2.34375 0 Z M 2.40625 -0.328125 "/></g></g></g><g fill="#ff9e2c" fill-opacity="1"><g transform="translate(64.980606, 185.526192)"><g><path d="M 12.09375 0.734375 C 8.976562 0.734375 6.609375 -0.398438 4.984375 -2.671875 C 3.359375 -4.941406 2.546875 -7.882812 2.546875 -11.5 C 2.546875 -15.101562 3.3125 -18.664062 4.84375 -22.1875 C 6.382812 -25.707031 8.554688 -28.582031 11.359375 -30.8125 C 14.171875 -33.039062 17.378906 -34.15625 20.984375 -34.15625 C 24.191406 -34.15625 26.796875 -33.0625 28.796875 -30.875 L 34.34375 -34.15625 L 34.6875 -34.15625 L 29.34375 -6.421875 C 29.113281 -5.304688 29 -4.476562 29 -3.9375 C 29 -2.820312 29.445312 -2.265625 30.34375 -2.265625 C 31.8125 -2.265625 33.390625 -4.671875 35.078125 -9.484375 L 36.21875 -9.484375 C 35.101562 -5.566406 33.929688 -2.882812 32.703125 -1.4375 C 31.484375 0.0078125 30.09375 0.734375 28.53125 0.734375 C 27.101562 0.734375 25.941406 0.253906 25.046875 -0.703125 C 24.160156 -1.660156 23.71875 -3.140625 23.71875 -5.140625 C 23.71875 -6.078125 23.804688 -7.015625 23.984375 -7.953125 L 24.453125 -10.5625 L 24.125 -10.5625 C 22.875 -7.039062 21.242188 -4.273438 19.234375 -2.265625 C 17.234375 -0.265625 14.851562 0.734375 12.09375 0.734375 Z M 14.375 -3.28125 C 17 -3.28125 19.320312 -5.101562 21.34375 -8.75 C 23.375 -12.40625 25.238281 -17.375 26.9375 -23.65625 C 26.976562 -23.96875 27 -24.414062 27 -25 C 27 -27.40625 26.429688 -29.285156 25.296875 -30.640625 C 24.160156 -31.992188 22.832031 -32.671875 21.3125 -32.671875 C 19 -32.671875 16.882812 -31.566406 14.96875 -29.359375 C 13.050781 -27.160156 11.554688 -24.4375 10.484375 -21.1875 C 9.421875 -17.9375 8.890625 -14.816406 8.890625 -11.828125 C 8.890625 -9.242188 9.34375 -7.171875 10.25 -5.609375 C 11.164062 -4.054688 12.539062 -3.28125 14.375 -3.28125 Z M 14.375 -3.28125 "/></g></g></g><g fill="#ff9e2c" fill-opacity="1"><g transform="translate(103.001332, 185.526192)"><g><path d="M 28.53125 0.734375 C 27.195312 0.734375 26.101562 0.28125 25.25 -0.625 C 24.40625 -1.539062 23.984375 -2.914062 23.984375 -4.75 C 23.984375 -5.90625 24.140625 -7.109375 24.453125 -8.359375 L 28.0625 -23.53125 C 28.238281 -24.238281 28.328125 -24.992188 28.328125 -25.796875 C 28.328125 -27.128906 27.992188 -28.148438 27.328125 -28.859375 C 26.660156 -29.578125 25.769531 -29.9375 24.65625 -29.9375 C 22.34375 -29.9375 20.0625 -28.539062 17.8125 -25.75 C 15.5625 -22.96875 13.476562 -18.484375 11.5625 -12.296875 L 9.15625 0 L 3.40625 0 L 7.8125 -22.859375 C 8.175781 -24.773438 8.359375 -26.15625 8.359375 -27 C 8.359375 -27.882812 8.222656 -28.570312 7.953125 -29.0625 C 7.679688 -29.5625 7.210938 -30.078125 6.546875 -30.609375 L 6.609375 -30.9375 L 15.4375 -34.15625 L 15.765625 -34.15625 L 13.359375 -21.65625 L 13.703125 -21.65625 C 15.253906 -25.613281 17.144531 -28.6875 19.375 -30.875 C 21.601562 -33.0625 24.054688 -34.15625 26.734375 -34.15625 C 28.910156 -34.15625 30.675781 -33.53125 32.03125 -32.28125 C 33.394531 -31.03125 34.078125 -29.046875 34.078125 -26.328125 C 34.078125 -24.765625 33.851562 -23.09375 33.40625 -21.3125 L 29.609375 -5.484375 C 29.472656 -4.898438 29.40625 -4.382812 29.40625 -3.9375 C 29.40625 -2.820312 29.828125 -2.265625 30.671875 -2.265625 C 31.515625 -2.265625 32.316406 -2.863281 33.078125 -4.0625 C 33.835938 -5.269531 34.660156 -7.078125 35.546875 -9.484375 L 36.6875 -9.484375 C 35.882812 -6.722656 35.0625 -4.609375 34.21875 -3.140625 C 33.375 -1.671875 32.503906 -0.65625 31.609375 -0.09375 C 30.710938 0.457031 29.6875 0.734375 28.53125 0.734375 Z M 28.53125 0.734375 "/></g></g></g><g fill="#ff9e2c" fill-opacity="1"><g transform="translate(142.625742, 185.526192)"><g><path d="M 12.09375 0.734375 C 8.976562 0.734375 6.609375 -0.398438 4.984375 -2.671875 C 3.359375 -4.941406 2.546875 -7.882812 2.546875 -11.5 C 2.546875 -15.101562 3.3125 -18.664062 4.84375 -22.1875 C 6.382812 -25.707031 8.546875 -28.582031 11.328125 -30.8125 C 14.109375 -33.039062 17.28125 -34.15625 20.84375 -34.15625 C 23.738281 -34.15625 26.144531 -33.171875 28.0625 -31.203125 L 29.40625 -38.5 C 29.71875 -40.363281 29.875 -41.628906 29.875 -42.296875 C 29.875 -43.328125 29.726562 -44.109375 29.4375 -44.640625 C 29.144531 -45.171875 28.664062 -45.707031 28 -46.25 L 28.0625 -46.578125 L 36.890625 -49.78125 L 37.21875 -49.78125 L 29.40625 -6.421875 C 29.226562 -5.566406 29.140625 -4.785156 29.140625 -4.078125 C 29.140625 -3.453125 29.238281 -2.992188 29.4375 -2.703125 C 29.632812 -2.410156 29.976562 -2.265625 30.46875 -2.265625 C 31.9375 -2.265625 33.519531 -4.671875 35.21875 -9.484375 L 36.359375 -9.484375 C 35.242188 -5.566406 34.0625 -2.882812 32.8125 -1.4375 C 31.5625 0.0078125 30.179688 0.734375 28.671875 0.734375 C 27.242188 0.734375 26.070312 0.253906 25.15625 -0.703125 C 24.25 -1.660156 23.796875 -3.140625 23.796875 -5.140625 C 23.796875 -6.078125 23.882812 -7.015625 24.0625 -7.953125 L 24.53125 -10.5625 L 24.1875 -10.5625 C 22.988281 -7.039062 21.363281 -4.273438 19.3125 -2.265625 C 17.257812 -0.265625 14.851562 0.734375 12.09375 0.734375 Z M 14.375 -3.28125 C 19.175781 -3.28125 23.40625 -10.070312 27.0625 -23.65625 C 27.101562 -23.96875 27.125 -24.390625 27.125 -24.921875 C 27.125 -27.378906 26.546875 -29.285156 25.390625 -30.640625 C 24.234375 -31.992188 22.875 -32.671875 21.3125 -32.671875 C 19 -32.671875 16.882812 -31.566406 14.96875 -29.359375 C 13.050781 -27.160156 11.554688 -24.4375 10.484375 -21.1875 C 9.421875 -17.9375 8.890625 -14.816406 8.890625 -11.828125 C 8.890625 -9.242188 9.34375 -7.171875 10.25 -5.609375 C 11.164062 -4.054688 12.539062 -3.28125 14.375 -3.28125 Z M 14.375 -3.28125 "/></g></g></g><g fill="#ff9e2c" fill-opacity="1"><g transform="translate(181.04739, 185.526192)"><g><path d="M 13.359375 0.734375 C 11.085938 0.734375 8.945312 0.367188 6.9375 -0.359375 C 4.9375 -1.097656 3.179688 -2.160156 1.671875 -3.546875 L 3.40625 -12.625 L 4.078125 -12.625 C 4.078125 -10.445312 4.507812 -8.46875 5.375 -6.6875 C 6.25 -4.90625 7.410156 -3.5 8.859375 -2.46875 C 10.304688 -1.445312 11.898438 -0.9375 13.640625 -0.9375 C 15.421875 -0.9375 16.851562 -1.445312 17.9375 -2.46875 C 19.03125 -3.5 19.578125 -4.789062 19.578125 -6.34375 C 19.578125 -7.550781 19.15625 -8.734375 18.3125 -9.890625 C 17.46875 -11.046875 15.972656 -12.5625 13.828125 -14.4375 C 10.984375 -16.882812 8.96875 -18.863281 7.78125 -20.375 C 6.601562 -21.894531 6.015625 -23.59375 6.015625 -25.46875 C 6.015625 -28.09375 7.023438 -30.195312 9.046875 -31.78125 C 11.078125 -33.363281 13.5625 -34.15625 16.5 -34.15625 C 18.46875 -34.15625 20.304688 -33.851562 22.015625 -33.25 C 23.734375 -32.644531 25.148438 -31.898438 26.265625 -31.015625 L 24.71875 -23.1875 L 24.0625 -23.1875 C 23.96875 -26.125 23.1875 -28.414062 21.71875 -30.0625 C 20.25 -31.71875 18.378906 -32.546875 16.109375 -32.546875 C 14.410156 -32.546875 13.023438 -32.097656 11.953125 -31.203125 C 10.890625 -30.316406 10.359375 -29.113281 10.359375 -27.59375 C 10.359375 -26.84375 10.523438 -26.175781 10.859375 -25.59375 C 11.191406 -25.007812 11.800781 -24.296875 12.6875 -23.453125 C 13.582031 -22.609375 15.054688 -21.335938 17.109375 -19.640625 C 19.554688 -17.640625 21.335938 -15.878906 22.453125 -14.359375 C 23.566406 -12.847656 24.125 -11.023438 24.125 -8.890625 C 24.125 -5.859375 23.15625 -3.492188 21.21875 -1.796875 C 19.28125 -0.109375 16.660156 0.734375 13.359375 0.734375 Z M 13.359375 0.734375 "/></g></g></g><g fill="#ff9e2c" fill-opacity="1"><g transform="translate(209.446005, 185.526192)"><g><path d="M 15.84375 0.734375 C 13.34375 0.734375 11.144531 0.15625 9.25 -1 C 7.363281 -2.15625 5.882812 -3.789062 4.8125 -5.90625 C 3.738281 -8.03125 3.203125 -10.472656 3.203125 -13.234375 C 3.203125 -17.066406 3.984375 -20.570312 5.546875 -23.75 C 7.109375 -26.9375 9.234375 -29.46875 11.921875 -31.34375 C 14.617188 -33.21875 17.570312 -34.15625 20.78125 -34.15625 C 24.570312 -34.15625 27.734375 -33.238281 30.265625 -31.40625 L 28.671875 -22.65625 L 28 -22.65625 C 27.820312 -25.769531 27.039062 -28.160156 25.65625 -29.828125 C 24.28125 -31.503906 22.367188 -32.34375 19.921875 -32.34375 C 18.046875 -32.34375 16.296875 -31.640625 14.671875 -30.234375 C 13.046875 -28.835938 11.726562 -26.859375 10.71875 -24.296875 C 9.71875 -21.734375 9.21875 -18.78125 9.21875 -15.4375 C 9.21875 -11.601562 9.953125 -8.617188 11.421875 -6.484375 C 12.898438 -4.347656 15.085938 -3.28125 17.984375 -3.28125 C 19.765625 -3.28125 21.46875 -3.753906 23.09375 -4.703125 C 24.71875 -5.660156 26.128906 -7.144531 27.328125 -9.15625 L 28.0625 -9.15625 C 27.351562 -6.53125 25.914062 -4.222656 23.75 -2.234375 C 21.59375 -0.253906 18.957031 0.734375 15.84375 0.734375 Z M 15.84375 0.734375 "/></g></g></g><g fill="#ff9e2c" fill-opacity="1"><g transform="translate(240.517421, 185.526192)"><g><path d="M 12.09375 0.734375 C 8.976562 0.734375 6.609375 -0.398438 4.984375 -2.671875 C 3.359375 -4.941406 2.546875 -7.882812 2.546875 -11.5 C 2.546875 -15.101562 3.3125 -18.664062 4.84375 -22.1875 C 6.382812 -25.707031 8.554688 -28.582031 11.359375 -30.8125 C 14.171875 -33.039062 17.378906 -34.15625 20.984375 -34.15625 C 24.191406 -34.15625 26.796875 -33.0625 28.796875 -30.875 L 34.34375 -34.15625 L 34.6875 -34.15625 L 29.34375 -6.421875 C 29.113281 -5.304688 29 -4.476562 29 -3.9375 C 29 -2.820312 29.445312 -2.265625 30.34375 -2.265625 C 31.8125 -2.265625 33.390625 -4.671875 35.078125 -9.484375 L 36.21875 -9.484375 C 35.101562 -5.566406 33.929688 -2.882812 32.703125 -1.4375 C 31.484375 0.0078125 30.09375 0.734375 28.53125 0.734375 C 27.101562 0.734375 25.941406 0.253906 25.046875 -0.703125 C 24.160156 -1.660156 23.71875 -3.140625 23.71875 -5.140625 C 23.71875 -6.078125 23.804688 -7.015625 23.984375 -7.953125 L 24.453125 -10.5625 L 24.125 -10.5625 C 22.875 -7.039062 21.242188 -4.273438 19.234375 -2.265625 C 17.234375 -0.265625 14.851562 0.734375 12.09375 0.734375 Z M 14.375 -3.28125 C 17 -3.28125 19.320312 -5.101562 21.34375 -8.75 C 23.375 -12.40625 25.238281 -17.375 26.9375 -23.65625 C 26.976562 -23.96875 27 -24.414062 27 -25 C 27 -27.40625 26.429688 -29.285156 25.296875 -30.640625 C 24.160156 -31.992188 22.832031 -32.671875 21.3125 -32.671875 C 19 -32.671875 16.882812 -31.566406 14.96875 -29.359375 C 13.050781 -27.160156 11.554688 -24.4375 10.484375 -21.1875 C 9.421875 -17.9375 8.890625 -14.816406 8.890625 -11.828125 C 8.890625 -9.242188 9.34375 -7.171875 10.25 -5.609375 C 11.164062 -4.054688 12.539062 -3.28125 14.375 -3.28125 Z M 14.375 -3.28125 "/></g></g></g><g fill="#ff9e2c" fill-opacity="1"><g transform="translate(278.538147, 185.526192)"><g><path d="M -1.0625 13.03125 C 0.445312 11.382812 1.425781 9.3125 1.875 6.8125 L 7.078125 -22.859375 C 7.390625 -24.460938 7.546875 -25.796875 7.546875 -26.859375 C 7.546875 -27.796875 7.398438 -28.519531 7.109375 -29.03125 C 6.828125 -29.550781 6.375 -30.078125 5.75 -30.609375 L 5.8125 -30.9375 L 14.5625 -34.15625 L 14.90625 -34.15625 L 12.703125 -21.921875 L 13.03125 -21.921875 C 14.457031 -25.796875 16.296875 -28.800781 18.546875 -30.9375 C 20.796875 -33.082031 23.191406 -34.15625 25.734375 -34.15625 C 28.535156 -34.15625 30.75 -33.070312 32.375 -30.90625 C 34 -28.75 34.8125 -25.953125 34.8125 -22.515625 C 34.8125 -18.773438 34.019531 -15.109375 32.4375 -11.515625 C 30.863281 -7.929688 28.648438 -4.992188 25.796875 -2.703125 C 22.941406 -0.410156 19.734375 0.734375 16.171875 0.734375 C 13.410156 0.734375 11.070312 -0.132812 9.15625 -1.875 L 7.625 6.8125 C 7.4375 7.664062 7.34375 8.554688 7.34375 9.484375 C 7.34375 10.910156 7.613281 12.09375 8.15625 13.03125 L 8.09375 13.359375 L -1.0625 13.359375 Z M 15.96875 -0.734375 C 18.195312 -0.734375 20.269531 -1.890625 22.1875 -4.203125 C 24.101562 -6.523438 25.628906 -9.398438 26.765625 -12.828125 C 27.898438 -16.265625 28.46875 -19.519531 28.46875 -22.59375 C 28.46875 -25.039062 28.03125 -26.910156 27.15625 -28.203125 C 26.289062 -29.492188 25.125 -30.140625 23.65625 -30.140625 C 20.976562 -30.140625 18.445312 -28.144531 16.0625 -24.15625 C 13.6875 -20.164062 11.765625 -15.164062 10.296875 -9.15625 C 10.242188 -8.882812 10.21875 -8.484375 10.21875 -7.953125 C 10.21875 -5.679688 10.753906 -3.910156 11.828125 -2.640625 C 12.898438 -1.367188 14.28125 -0.734375 15.96875 -0.734375 Z M 15.96875 -0.734375 "/></g></g></g><g fill="#ff9e2c" fill-opacity="1"><g transform="translate(315.757032, 185.526192)"><g><path d="M 17.984375 -3.28125 C 19.765625 -3.28125 21.46875 -3.753906 23.09375 -4.703125 C 24.71875 -5.660156 26.128906 -7.144531 27.328125 -9.15625 L 28.0625 -9.15625 C 27.351562 -6.53125 25.914062 -4.222656 23.75 -2.234375 C 21.59375 -0.253906 18.957031 0.734375 15.84375 0.734375 C 13.34375 0.734375 11.144531 0.15625 9.25 -1 C 7.363281 -2.15625 5.882812 -3.789062 4.8125 -5.90625 C 3.738281 -8.03125 3.203125 -10.472656 3.203125 -13.234375 C 3.203125 -17.066406 3.984375 -20.570312 5.546875 -23.75 C 7.109375 -26.9375 9.257812 -29.46875 12 -31.34375 C 14.738281 -33.21875 17.753906 -34.15625 21.046875 -34.15625 C 24.078125 -34.15625 26.335938 -33.53125 27.828125 -32.28125 C 29.328125 -31.03125 30.078125 -29.492188 30.078125 -27.671875 C 30.078125 -23.253906 26.554688 -20.242188 19.515625 -18.640625 C 16.890625 -18.015625 13.484375 -17.679688 9.296875 -17.640625 C 9.242188 -17.148438 9.21875 -16.4375 9.21875 -15.5 C 9.21875 -11.664062 9.953125 -8.671875 11.421875 -6.515625 C 12.898438 -4.359375 15.085938 -3.28125 17.984375 -3.28125 Z M 19.84375 -32.34375 C 17.125 -32.34375 14.835938 -31.082031 12.984375 -28.5625 C 11.140625 -26.050781 9.972656 -22.921875 9.484375 -19.171875 C 13.179688 -19.222656 16.144531 -19.648438 18.375 -20.453125 C 20.207031 -21.078125 21.613281 -22.078125 22.59375 -23.453125 C 23.570312 -24.835938 24.0625 -26.332031 24.0625 -27.9375 C 24.0625 -29.3125 23.710938 -30.390625 23.015625 -31.171875 C 22.328125 -31.953125 21.269531 -32.34375 19.84375 -32.34375 Z M 19.84375 -32.34375 "/></g></g></g><g fill="#ff9e2c" fill-opacity="1"><g transform="translate(73.699218, 263.526187)"><g><path d="M 2.40625 -0.328125 C 3.164062 -1.128906 3.84375 -2.128906 4.4375 -3.328125 C 5.039062 -4.535156 5.476562 -5.765625 5.75 -7.015625 L 12.09375 -39.765625 C 12.226562 -40.566406 12.296875 -41.320312 12.296875 -42.03125 C 12.296875 -43.726562 11.984375 -45.203125 11.359375 -46.453125 L 11.421875 -46.78125 L 26.796875 -46.78125 C 30.535156 -46.78125 33.875 -46.109375 36.8125 -44.765625 C 39.757812 -43.429688 42.078125 -41.40625 43.765625 -38.6875 C 45.460938 -35.96875 46.3125 -32.648438 46.3125 -28.734375 C 46.3125 -22.492188 44.992188 -17.203125 42.359375 -12.859375 C 39.734375 -8.515625 36.347656 -5.285156 32.203125 -3.171875 C 28.066406 -1.054688 23.769531 0 19.3125 0 L 2.34375 0 Z M 17.84375 -1.46875 C 21.5 -1.46875 24.972656 -2.554688 28.265625 -4.734375 C 31.566406 -6.921875 34.238281 -10.164062 36.28125 -14.46875 C 38.332031 -18.769531 39.359375 -23.925781 39.359375 -29.9375 C 39.359375 -35.0625 38.144531 -38.90625 35.71875 -41.46875 C 33.289062 -44.03125 30.023438 -45.3125 25.921875 -45.3125 C 23.921875 -45.3125 21.695312 -44.976562 19.25 -44.3125 L 11.15625 -2.46875 C 13.03125 -1.800781 15.257812 -1.46875 17.84375 -1.46875 Z M 17.84375 -1.46875 "/></g></g></g><g fill="#ff9e2c" fill-opacity="1"><g transform="translate(121.475701, 263.526187)"><g><path d="M 17.984375 -3.28125 C 19.765625 -3.28125 21.46875 -3.753906 23.09375 -4.703125 C 24.71875 -5.660156 26.128906 -7.144531 27.328125 -9.15625 L 28.0625 -9.15625 C 27.351562 -6.53125 25.914062 -4.222656 23.75 -2.234375 C 21.59375 -0.253906 18.957031 0.734375 15.84375 0.734375 C 13.34375 0.734375 11.144531 0.15625 9.25 -1 C 7.363281 -2.15625 5.882812 -3.789062 4.8125 -5.90625 C 3.738281 -8.03125 3.203125 -10.472656 3.203125 -13.234375 C 3.203125 -17.066406 3.984375 -20.570312 5.546875 -23.75 C 7.109375 -26.9375 9.257812 -29.46875 12 -31.34375 C 14.738281 -33.21875 17.753906 -34.15625 21.046875 -34.15625 C 24.078125 -34.15625 26.335938 -33.53125 27.828125 -32.28125 C 29.328125 -31.03125 30.078125 -29.492188 30.078125 -27.671875 C 30.078125 -23.253906 26.554688 -20.242188 19.515625 -18.640625 C 16.890625 -18.015625 13.484375 -17.679688 9.296875 -17.640625 C 9.242188 -17.148438 9.21875 -16.4375 9.21875 -15.5 C 9.21875 -11.664062 9.953125 -8.671875 11.421875 -6.515625 C 12.898438 -4.359375 15.085938 -3.28125 17.984375 -3.28125 Z M 19.84375 -32.34375 C 17.125 -32.34375 14.835938 -31.082031 12.984375 -28.5625 C 11.140625 -26.050781 9.972656 -22.921875 9.484375 -19.171875 C 13.179688 -19.222656 16.144531 -19.648438 18.375 -20.453125 C 20.207031 -21.078125 21.613281 -22.078125 22.59375 -23.453125 C 23.570312 -24.835938 24.0625 -26.332031 24.0625 -27.9375 C 24.0625 -29.3125 23.710938 -30.390625 23.015625 -31.171875 C 22.328125 -31.953125 21.269531 -32.34375 19.84375 -32.34375 Z M 19.84375 -32.34375 "/></g></g></g><g fill="#ff9e2c" fill-opacity="1"><g transform="translate(152.948039, 263.526187)"><g><path d="M 13.359375 0.734375 C 11.085938 0.734375 8.945312 0.367188 6.9375 -0.359375 C 4.9375 -1.097656 3.179688 -2.160156 1.671875 -3.546875 L 3.40625 -12.625 L 4.078125 -12.625 C 4.078125 -10.445312 4.507812 -8.46875 5.375 -6.6875 C 6.25 -4.90625 7.410156 -3.5 8.859375 -2.46875 C 10.304688 -1.445312 11.898438 -0.9375 13.640625 -0.9375 C 15.421875 -0.9375 16.851562 -1.445312 17.9375 -2.46875 C 19.03125 -3.5 19.578125 -4.789062 19.578125 -6.34375 C 19.578125 -7.550781 19.15625 -8.734375 18.3125 -9.890625 C 17.46875 -11.046875 15.972656 -12.5625 13.828125 -14.4375 C 10.984375 -16.882812 8.96875 -18.863281 7.78125 -20.375 C 6.601562 -21.894531 6.015625 -23.59375 6.015625 -25.46875 C 6.015625 -28.09375 7.023438 -30.195312 9.046875 -31.78125 C 11.078125 -33.363281 13.5625 -34.15625 16.5 -34.15625 C 18.46875 -34.15625 20.304688 -33.851562 22.015625 -33.25 C 23.734375 -32.644531 25.148438 -31.898438 26.265625 -31.015625 L 24.71875 -23.1875 L 24.0625 -23.1875 C 23.96875 -26.125 23.1875 -28.414062 21.71875 -30.0625 C 20.25 -31.71875 18.378906 -32.546875 16.109375 -32.546875 C 14.410156 -32.546875 13.023438 -32.097656 11.953125 -31.203125 C 10.890625 -30.316406 10.359375 -29.113281 10.359375 -27.59375 C 10.359375 -26.84375 10.523438 -26.175781 10.859375 -25.59375 C 11.191406 -25.007812 11.800781 -24.296875 12.6875 -23.453125 C 13.582031 -22.609375 15.054688 -21.335938 17.109375 -19.640625 C 19.554688 -17.640625 21.335938 -15.878906 22.453125 -14.359375 C 23.566406 -12.847656 24.125 -11.023438 24.125 -8.890625 C 24.125 -5.859375 23.15625 -3.492188 21.21875 -1.796875 C 19.28125 -0.109375 16.660156 0.734375 13.359375 0.734375 Z M 13.359375 0.734375 "/></g></g></g><g fill="#ff9e2c" fill-opacity="1"><g transform="translate(181.346654, 263.526187)"><g><path d="M 9.015625 0.734375 C 7.546875 0.734375 6.363281 0.28125 5.46875 -0.625 C 4.582031 -1.539062 4.140625 -3.023438 4.140625 -5.078125 C 4.140625 -5.835938 4.253906 -6.882812 4.484375 -8.21875 L 7.28125 -22.859375 C 7.59375 -24.460938 7.75 -25.796875 7.75 -26.859375 C 7.75 -27.796875 7.613281 -28.519531 7.34375 -29.03125 C 7.082031 -29.550781 6.640625 -30.078125 6.015625 -30.609375 L 6.078125 -30.9375 L 14.90625 -34.15625 L 15.234375 -34.15625 L 9.890625 -6.421875 C 9.710938 -5.523438 9.625 -4.722656 9.625 -4.015625 C 9.625 -2.847656 10.046875 -2.265625 10.890625 -2.265625 C 11.691406 -2.265625 12.484375 -2.878906 13.265625 -4.109375 C 14.046875 -5.335938 14.859375 -7.128906 15.703125 -9.484375 L 16.84375 -9.484375 C 15.6875 -5.523438 14.484375 -2.832031 13.234375 -1.40625 C 11.984375 0.0195312 10.578125 0.734375 9.015625 0.734375 Z M 13.5625 -38.625 C 12.539062 -38.625 11.691406 -38.96875 11.015625 -39.65625 C 10.347656 -40.351562 10.015625 -41.191406 10.015625 -42.171875 C 10.015625 -43.328125 10.4375 -44.316406 11.28125 -45.140625 C 12.132812 -45.960938 13.160156 -46.375 14.359375 -46.375 C 15.335938 -46.375 16.148438 -46.03125 16.796875 -45.34375 C 17.441406 -44.65625 17.765625 -43.796875 17.765625 -42.765625 C 17.765625 -41.609375 17.351562 -40.628906 16.53125 -39.828125 C 15.707031 -39.023438 14.71875 -38.625 13.5625 -38.625 Z M 13.5625 -38.625 "/></g></g></g><g fill="#ff9e2c" fill-opacity="1"><g transform="translate(200.924987, 263.526187)"><g><path d="M 34.34375 -34.484375 L 33.609375 -30.265625 C 32.097656 -30.535156 30.804688 -30.671875 29.734375 -30.671875 C 28.617188 -30.671875 27.503906 -30.515625 26.390625 -30.203125 C 27.597656 -28.554688 28.203125 -26.597656 28.203125 -24.328125 C 28.203125 -22.097656 27.644531 -20.015625 26.53125 -18.078125 C 25.414062 -16.140625 23.898438 -14.601562 21.984375 -13.46875 C 20.066406 -12.332031 17.992188 -11.765625 15.765625 -11.765625 C 13.273438 -11.765625 11.207031 -12.296875 9.5625 -13.359375 C 8.394531 -12.378906 7.8125 -11.332031 7.8125 -10.21875 C 7.8125 -9.332031 8.3125 -8.554688 9.3125 -7.890625 C 10.320312 -7.222656 12.382812 -6.550781 15.5 -5.875 C 18.976562 -5.125 21.640625 -4.3125 23.484375 -3.4375 C 25.335938 -2.570312 26.585938 -1.632812 27.234375 -0.625 C 27.878906 0.375 28.203125 1.519531 28.203125 2.8125 C 28.203125 4.59375 27.46875 6.347656 26 8.078125 C 24.53125 9.816406 22.46875 11.242188 19.8125 12.359375 C 17.164062 13.472656 14.148438 14.03125 10.765625 14.03125 C 6.660156 14.03125 3.539062 13.394531 1.40625 12.125 C -0.726562 10.851562 -1.796875 9.082031 -1.796875 6.8125 C -1.796875 4.539062 -0.875 2.566406 0.96875 0.890625 C 2.820312 -0.773438 4.925781 -2.007812 7.28125 -2.8125 C 5.007812 -4.050781 3.875 -5.71875 3.875 -7.8125 C 3.875 -10.445312 5.410156 -12.539062 8.484375 -14.09375 C 6.253906 -15.882812 5.140625 -18.378906 5.140625 -21.578125 C 5.140625 -23.804688 5.695312 -25.890625 6.8125 -27.828125 C 7.925781 -29.765625 9.429688 -31.300781 11.328125 -32.4375 C 13.222656 -33.582031 15.285156 -34.15625 17.515625 -34.15625 C 19.203125 -34.15625 20.734375 -33.882812 22.109375 -33.34375 C 23.492188 -32.8125 24.675781 -32.054688 25.65625 -31.078125 C 26.6875 -32.097656 27.925781 -32.921875 29.375 -33.546875 C 30.820312 -34.171875 32.347656 -34.484375 33.953125 -34.484375 Z M 15.84375 -13.171875 C 17.082031 -13.171875 18.210938 -13.644531 19.234375 -14.59375 C 20.265625 -15.550781 21.09375 -16.941406 21.71875 -18.765625 C 22.34375 -20.597656 22.65625 -22.785156 22.65625 -25.328125 C 22.65625 -27.554688 22.207031 -29.347656 21.3125 -30.703125 C 20.425781 -32.066406 19.160156 -32.75 17.515625 -32.75 C 16.265625 -32.75 15.125 -32.269531 14.09375 -31.3125 C 13.070312 -30.351562 12.25 -28.957031 11.625 -27.125 C 11 -25.300781 10.6875 -23.117188 10.6875 -20.578125 C 10.6875 -18.347656 11.128906 -16.554688 12.015625 -15.203125 C 12.910156 -13.847656 14.1875 -13.171875 15.84375 -13.171875 Z M 23.453125 4.9375 C 23.453125 4.007812 23.226562 3.265625 22.78125 2.703125 C 22.34375 2.148438 21.429688 1.601562 20.046875 1.0625 C 18.671875 0.53125 16.597656 -0.0195312 13.828125 -0.59375 C 11.691406 -1.039062 9.910156 -1.578125 8.484375 -2.203125 C 6.921875 -1.265625 5.660156 -0.195312 4.703125 1 C 3.753906 2.207031 3.28125 3.65625 3.28125 5.34375 C 3.28125 7.300781 4.066406 8.90625 5.640625 10.15625 C 7.222656 11.40625 9.53125 12.03125 12.5625 12.03125 C 14.695312 12.03125 16.585938 11.695312 18.234375 11.03125 C 19.890625 10.363281 21.171875 9.484375 22.078125 8.390625 C 22.992188 7.296875 23.453125 6.144531 23.453125 4.9375 Z M 23.453125 4.9375 "/></g></g></g><g fill="#ff9e2c" fill-opacity="1"><g transform="translate(233.265988, 263.526187)"><g><path d="M 28.53125 0.734375 C 27.195312 0.734375 26.101562 0.28125 25.25 -0.625 C 24.40625 -1.539062 23.984375 -2.914062 23.984375 -4.75 C 23.984375 -5.90625 24.140625 -7.109375 24.453125 -8.359375 L 28.0625 -23.53125 C 28.238281 -24.238281 28.328125 -24.992188 28.328125 -25.796875 C 28.328125 -27.128906 27.992188 -28.148438 27.328125 -28.859375 C 26.660156 -29.578125 25.769531 -29.9375 24.65625 -29.9375 C 22.34375 -29.9375 20.0625 -28.539062 17.8125 -25.75 C 15.5625 -22.96875 13.476562 -18.484375 11.5625 -12.296875 L 9.15625 0 L 3.40625 0 L 7.8125 -22.859375 C 8.175781 -24.773438 8.359375 -26.15625 8.359375 -27 C 8.359375 -27.882812 8.222656 -28.570312 7.953125 -29.0625 C 7.679688 -29.5625 7.210938 -30.078125 6.546875 -30.609375 L 6.609375 -30.9375 L 15.4375 -34.15625 L 15.765625 -34.15625 L 13.359375 -21.65625 L 13.703125 -21.65625 C 15.253906 -25.613281 17.144531 -28.6875 19.375 -30.875 C 21.601562 -33.0625 24.054688 -34.15625 26.734375 -34.15625 C 28.910156 -34.15625 30.675781 -33.53125 32.03125 -32.28125 C 33.394531 -31.03125 34.078125 -29.046875 34.078125 -26.328125 C 34.078125 -24.765625 33.851562 -23.09375 33.40625 -21.3125 L 29.609375 -5.484375 C 29.472656 -4.898438 29.40625 -4.382812 29.40625 -3.9375 C 29.40625 -2.820312 29.828125 -2.265625 30.671875 -2.265625 C 31.515625 -2.265625 32.316406 -2.863281 33.078125 -4.0625 C 33.835938 -5.269531 34.660156 -7.078125 35.546875 -9.484375 L 36.6875 -9.484375 C 35.882812 -6.722656 35.0625 -4.609375 34.21875 -3.140625 C 33.375 -1.671875 32.503906 -0.65625 31.609375 -0.09375 C 30.710938 0.457031 29.6875 0.734375 28.53125 0.734375 Z M 28.53125 0.734375 "/></g></g></g><g fill="#ff9e2c" fill-opacity="1"><g transform="translate(272.890398, 263.526187)"><g><path d="M 13.359375 0.734375 C 11.085938 0.734375 8.945312 0.367188 6.9375 -0.359375 C 4.9375 -1.097656 3.179688 -2.160156 1.671875 -3.546875 L 3.40625 -12.625 L 4.078125 -12.625 C 4.078125 -10.445312 4.507812 -8.46875 5.375 -6.6875 C 6.25 -4.90625 7.410156 -3.5 8.859375 -2.46875 C 10.304688 -1.445312 11.898438 -0.9375 13.640625 -0.9375 C 15.421875 -0.9375 16.851562 -1.445312 17.9375 -2.46875 C 19.03125 -3.5 19.578125 -4.789062 19.578125 -6.34375 C 19.578125 -7.550781 19.15625 -8.734375 18.3125 -9.890625 C 17.46875 -11.046875 15.972656 -12.5625 13.828125 -14.4375 C 10.984375 -16.882812 8.96875 -18.863281 7.78125 -20.375 C 6.601562 -21.894531 6.015625 -23.59375 6.015625 -25.46875 C 6.015625 -28.09375 7.023438 -30.195312 9.046875 -31.78125 C 11.078125 -33.363281 13.5625 -34.15625 16.5 -34.15625 C 18.46875 -34.15625 20.304688 -33.851562 22.015625 -33.25 C 23.734375 -32.644531 25.148438 -31.898438 26.265625 -31.015625 L 24.71875 -23.1875 L 24.0625 -23.1875 C 23.96875 -26.125 23.1875 -28.414062 21.71875 -30.0625 C 20.25 -31.71875 18.378906 -32.546875 16.109375 -32.546875 C 14.410156 -32.546875 13.023438 -32.097656 11.953125 -31.203125 C 10.890625 -30.316406 10.359375 -29.113281 10.359375 -27.59375 C 10.359375 -26.84375 10.523438 -26.175781 10.859375 -25.59375 C 11.191406 -25.007812 11.800781 -24.296875 12.6875 -23.453125 C 13.582031 -22.609375 15.054688 -21.335938 17.109375 -19.640625 C 19.554688 -17.640625 21.335938 -15.878906 22.453125 -14.359375 C 23.566406 -12.847656 24.125 -11.023438 24.125 -8.890625 C 24.125 -5.859375 23.15625 -3.492188 21.21875 -1.796875 C 19.28125 -0.109375 16.660156 0.734375 13.359375 0.734375 Z M 13.359375 0.734375 "/></g></g></g><g fill="#545454" fill-opacity="1"><g transform="translate(1.769536, 322.776183)"><g><path d="M 12.5625 0.359375 C 11.050781 0.359375 9.65625 0.0820312 8.375 -0.46875 C 7.09375 -1.03125 5.976562 -1.796875 5.03125 -2.765625 C 4.09375 -3.742188 3.359375 -4.890625 2.828125 -6.203125 C 2.304688 -7.523438 2.046875 -8.9375 2.046875 -10.4375 L 2.046875 -10.5 C 2.046875 -11.976562 2.304688 -13.378906 2.828125 -14.703125 C 3.359375 -16.023438 4.09375 -17.179688 5.03125 -18.171875 C 5.976562 -19.160156 7.097656 -19.9375 8.390625 -20.5 C 9.691406 -21.070312 11.113281 -21.359375 12.65625 -21.359375 C 13.613281 -21.359375 14.476562 -21.273438 15.25 -21.109375 C 16.019531 -20.953125 16.734375 -20.726562 17.390625 -20.4375 C 18.054688 -20.15625 18.664062 -19.804688 19.21875 -19.390625 C 19.78125 -18.984375 20.320312 -18.53125 20.84375 -18.03125 L 19.234375 -16.296875 C 18.328125 -17.128906 17.359375 -17.816406 16.328125 -18.359375 C 15.304688 -18.898438 14.070312 -19.171875 12.625 -19.171875 C 11.46875 -19.171875 10.394531 -18.945312 9.40625 -18.5 C 8.414062 -18.0625 7.554688 -17.453125 6.828125 -16.671875 C 6.097656 -15.898438 5.523438 -14.988281 5.109375 -13.9375 C 4.703125 -12.882812 4.5 -11.757812 4.5 -10.5625 L 4.5 -10.5 C 4.5 -9.28125 4.703125 -8.144531 5.109375 -7.09375 C 5.523438 -6.039062 6.097656 -5.125 6.828125 -4.34375 C 7.554688 -3.570312 8.414062 -2.957031 9.40625 -2.5 C 10.394531 -2.050781 11.46875 -1.828125 12.625 -1.828125 C 14.070312 -1.828125 15.3125 -2.09375 16.34375 -2.625 C 17.382812 -3.15625 18.40625 -3.898438 19.40625 -4.859375 L 20.96875 -3.328125 C 20.425781 -2.765625 19.859375 -2.257812 19.265625 -1.8125 C 18.679688 -1.363281 18.046875 -0.976562 17.359375 -0.65625 C 16.679688 -0.34375 15.953125 -0.0976562 15.171875 0.078125 C 14.398438 0.265625 13.53125 0.359375 12.5625 0.359375 Z M 12.5625 0.359375 "/></g></g></g><g fill="#545454" fill-opacity="1"><g transform="translate(24.929515, 322.776183)"><g><path d="M 2.796875 -21.90625 L 5.09375 -21.90625 L 5.09375 0 L 2.796875 0 Z M 2.796875 -21.90625 "/></g></g></g><g fill="#545454" fill-opacity="1"><g transform="translate(33.719504, 322.776183)"><g><path d="M 9.359375 0.359375 C 8.296875 0.359375 7.296875 0.164062 6.359375 -0.21875 C 5.421875 -0.613281 4.597656 -1.164062 3.890625 -1.875 C 3.191406 -2.582031 2.640625 -3.429688 2.234375 -4.421875 C 1.828125 -5.410156 1.625 -6.503906 1.625 -7.703125 L 1.625 -7.765625 C 1.625 -8.890625 1.804688 -9.941406 2.171875 -10.921875 C 2.546875 -11.898438 3.0625 -12.753906 3.71875 -13.484375 C 4.375 -14.210938 5.15625 -14.785156 6.0625 -15.203125 C 6.976562 -15.628906 7.976562 -15.84375 9.0625 -15.84375 C 10.195312 -15.84375 11.210938 -15.625 12.109375 -15.1875 C 13.015625 -14.757812 13.773438 -14.175781 14.390625 -13.4375 C 15.015625 -12.695312 15.488281 -11.832031 15.8125 -10.84375 C 16.132812 -9.851562 16.296875 -8.789062 16.296875 -7.65625 C 16.296875 -7.488281 16.296875 -7.351562 16.296875 -7.25 C 16.296875 -7.15625 16.285156 -7.039062 16.265625 -6.90625 L 3.953125 -6.90625 C 4.035156 -6.0625 4.238281 -5.3125 4.5625 -4.65625 C 4.882812 -4.007812 5.289062 -3.460938 5.78125 -3.015625 C 6.269531 -2.566406 6.820312 -2.226562 7.4375 -2 C 8.0625 -1.769531 8.722656 -1.65625 9.421875 -1.65625 C 10.503906 -1.65625 11.425781 -1.851562 12.1875 -2.25 C 12.957031 -2.644531 13.664062 -3.175781 14.3125 -3.84375 L 15.75 -2.546875 C 14.96875 -1.671875 14.078125 -0.96875 13.078125 -0.4375 C 12.078125 0.09375 10.835938 0.359375 9.359375 0.359375 Z M 13.953125 -8.609375 C 13.890625 -9.304688 13.742188 -9.972656 13.515625 -10.609375 C 13.285156 -11.253906 12.960938 -11.816406 12.546875 -12.296875 C 12.140625 -12.773438 11.640625 -13.160156 11.046875 -13.453125 C 10.460938 -13.742188 9.78125 -13.890625 9 -13.890625 C 8.320312 -13.890625 7.691406 -13.753906 7.109375 -13.484375 C 6.523438 -13.210938 6.015625 -12.84375 5.578125 -12.375 C 5.140625 -11.90625 4.78125 -11.347656 4.5 -10.703125 C 4.21875 -10.066406 4.035156 -9.367188 3.953125 -8.609375 Z M 13.953125 -8.609375 "/></g></g></g><g fill="#545454" fill-opacity="1"><g transform="translate(52.379483, 322.776183)"><g><path d="M 7.203125 0.328125 C 6.484375 0.328125 5.773438 0.226562 5.078125 0.03125 C 4.390625 -0.164062 3.769531 -0.46875 3.21875 -0.875 C 2.675781 -1.289062 2.238281 -1.796875 1.90625 -2.390625 C 1.570312 -2.992188 1.40625 -3.695312 1.40625 -4.5 L 1.40625 -4.5625 C 1.40625 -5.382812 1.566406 -6.101562 1.890625 -6.71875 C 2.210938 -7.34375 2.664062 -7.863281 3.25 -8.28125 C 3.84375 -8.695312 4.539062 -9.015625 5.34375 -9.234375 C 6.15625 -9.453125 7.054688 -9.5625 8.046875 -9.5625 C 9.046875 -9.5625 9.914062 -9.5 10.65625 -9.375 C 11.394531 -9.257812 12.113281 -9.101562 12.8125 -8.90625 L 12.8125 -9.453125 C 12.8125 -10.847656 12.40625 -11.898438 11.59375 -12.609375 C 10.78125 -13.328125 9.644531 -13.6875 8.1875 -13.6875 C 7.269531 -13.6875 6.4375 -13.578125 5.6875 -13.359375 C 4.9375 -13.148438 4.203125 -12.878906 3.484375 -12.546875 L 2.796875 -14.4375 C 3.648438 -14.832031 4.515625 -15.144531 5.390625 -15.375 C 6.273438 -15.601562 7.289062 -15.71875 8.4375 -15.71875 C 10.632812 -15.71875 12.300781 -15.148438 13.4375 -14.015625 C 14.5 -12.953125 15.03125 -11.441406 15.03125 -9.484375 L 15.03125 0 L 12.8125 0 L 12.8125 -2.34375 C 12.269531 -1.644531 11.539062 -1.023438 10.625 -0.484375 C 9.71875 0.0546875 8.578125 0.328125 7.203125 0.328125 Z M 7.65625 -1.5 C 8.375 -1.5 9.046875 -1.601562 9.671875 -1.8125 C 10.304688 -2.019531 10.859375 -2.304688 11.328125 -2.671875 C 11.796875 -3.046875 12.164062 -3.488281 12.4375 -4 C 12.707031 -4.507812 12.84375 -5.078125 12.84375 -5.703125 L 12.84375 -7.203125 C 12.257812 -7.359375 11.59375 -7.503906 10.84375 -7.640625 C 10.09375 -7.785156 9.238281 -7.859375 8.28125 -7.859375 C 6.820312 -7.859375 5.703125 -7.566406 4.921875 -6.984375 C 4.140625 -6.410156 3.75 -5.632812 3.75 -4.65625 L 3.75 -4.59375 C 3.75 -4.113281 3.851562 -3.675781 4.0625 -3.28125 C 4.269531 -2.894531 4.550781 -2.570312 4.90625 -2.3125 C 5.269531 -2.050781 5.6875 -1.847656 6.15625 -1.703125 C 6.632812 -1.566406 7.132812 -1.5 7.65625 -1.5 Z M 7.65625 -1.5 "/></g></g></g><g fill="#545454" fill-opacity="1"><g transform="translate(70.649459, 322.776183)"><g><path d="M 2.578125 -15.515625 L 4.890625 -15.515625 L 4.890625 -11.453125 C 5.171875 -12.097656 5.519531 -12.691406 5.9375 -13.234375 C 6.351562 -13.773438 6.832031 -14.238281 7.375 -14.625 C 7.914062 -15.007812 8.503906 -15.300781 9.140625 -15.5 C 9.785156 -15.707031 10.476562 -15.800781 11.21875 -15.78125 L 11.21875 -13.296875 L 11.046875 -13.296875 C 10.203125 -13.296875 9.40625 -13.144531 8.65625 -12.84375 C 7.90625 -12.539062 7.25 -12.085938 6.6875 -11.484375 C 6.125 -10.890625 5.679688 -10.144531 5.359375 -9.25 C 5.046875 -8.363281 4.890625 -7.34375 4.890625 -6.1875 L 4.890625 0 L 2.578125 0 Z M 2.578125 -15.515625 "/></g></g></g><g fill="#545454" fill-opacity="1"><g transform="translate(80.999438, 322.776183)"><g><path d="M 2.28125 -3.15625 L 5.046875 -3.15625 L 5.046875 0 L 2.28125 0 Z M 2.28125 -3.15625 "/></g></g></g><g fill="#545454" fill-opacity="1"><g transform="translate(88.019426, 322.776183)"><g><path d="M 12.5625 0.359375 C 11.050781 0.359375 9.65625 0.0820312 8.375 -0.46875 C 7.09375 -1.03125 5.976562 -1.796875 5.03125 -2.765625 C 4.09375 -3.742188 3.359375 -4.890625 2.828125 -6.203125 C 2.304688 -7.523438 2.046875 -8.9375 2.046875 -10.4375 L 2.046875 -10.5 C 2.046875 -11.976562 2.304688 -13.378906 2.828125 -14.703125 C 3.359375 -16.023438 4.09375 -17.179688 5.03125 -18.171875 C 5.976562 -19.160156 7.097656 -19.9375 8.390625 -20.5 C 9.691406 -21.070312 11.113281 -21.359375 12.65625 -21.359375 C 13.613281 -21.359375 14.476562 -21.273438 15.25 -21.109375 C 16.019531 -20.953125 16.734375 -20.726562 17.390625 -20.4375 C 18.054688 -20.15625 18.664062 -19.804688 19.21875 -19.390625 C 19.78125 -18.984375 20.320312 -18.53125 20.84375 -18.03125 L 19.234375 -16.296875 C 18.328125 -17.128906 17.359375 -17.816406 16.328125 -18.359375 C 15.304688 -18.898438 14.070312 -19.171875 12.625 -19.171875 C 11.46875 -19.171875 10.394531 -18.945312 9.40625 -18.5 C 8.414062 -18.0625 7.554688 -17.453125 6.828125 -16.671875 C 6.097656 -15.898438 5.523438 -14.988281 5.109375 -13.9375 C 4.703125 -12.882812 4.5 -11.757812 4.5 -10.5625 L 4.5 -10.5 C 4.5 -9.28125 4.703125 -8.144531 5.109375 -7.09375 C 5.523438 -6.039062 6.097656 -5.125 6.828125 -4.34375 C 7.554688 -3.570312 8.414062 -2.957031 9.40625 -2.5 C 10.394531 -2.050781 11.46875 -1.828125 12.625 -1.828125 C 14.070312 -1.828125 15.3125 -2.09375 16.34375 -2.625 C 17.382812 -3.15625 18.40625 -3.898438 19.40625 -4.859375 L 20.96875 -3.328125 C 20.425781 -2.765625 19.859375 -2.257812 19.265625 -1.8125 C 18.679688 -1.363281 18.046875 -0.976562 17.359375 -0.65625 C 16.679688 -0.34375 15.953125 -0.0976562 15.171875 0.078125 C 14.398438 0.265625 13.53125 0.359375 12.5625 0.359375 Z M 12.5625 0.359375 "/></g></g></g><g fill="#545454" fill-opacity="1"><g transform="translate(111.179405, 322.776183)"><g><path d="M 2.578125 -15.515625 L 4.890625 -15.515625 L 4.890625 -11.453125 C 5.171875 -12.097656 5.519531 -12.691406 5.9375 -13.234375 C 6.351562 -13.773438 6.832031 -14.238281 7.375 -14.625 C 7.914062 -15.007812 8.503906 -15.300781 9.140625 -15.5 C 9.785156 -15.707031 10.476562 -15.800781 11.21875 -15.78125 L 11.21875 -13.296875 L 11.046875 -13.296875 C 10.203125 -13.296875 9.40625 -13.144531 8.65625 -12.84375 C 7.90625 -12.539062 7.25 -12.085938 6.6875 -11.484375 C 6.125 -10.890625 5.679688 -10.144531 5.359375 -9.25 C 5.046875 -8.363281 4.890625 -7.34375 4.890625 -6.1875 L 4.890625 0 L 2.578125 0 Z M 2.578125 -15.515625 "/></g></g></g><g fill="#545454" fill-opacity="1"><g transform="translate(123.569385, 322.776183)"><g><path d="M 9.359375 0.359375 C 8.296875 0.359375 7.296875 0.164062 6.359375 -0.21875 C 5.421875 -0.613281 4.597656 -1.164062 3.890625 -1.875 C 3.191406 -2.582031 2.640625 -3.429688 2.234375 -4.421875 C 1.828125 -5.410156 1.625 -6.503906 1.625 -7.703125 L 1.625 -7.765625 C 1.625 -8.890625 1.804688 -9.941406 2.171875 -10.921875 C 2.546875 -11.898438 3.0625 -12.753906 3.71875 -13.484375 C 4.375 -14.210938 5.15625 -14.785156 6.0625 -15.203125 C 6.976562 -15.628906 7.976562 -15.84375 9.0625 -15.84375 C 10.195312 -15.84375 11.210938 -15.625 12.109375 -15.1875 C 13.015625 -14.757812 13.773438 -14.175781 14.390625 -13.4375 C 15.015625 -12.695312 15.488281 -11.832031 15.8125 -10.84375 C 16.132812 -9.851562 16.296875 -8.789062 16.296875 -7.65625 C 16.296875 -7.488281 16.296875 -7.351562 16.296875 -7.25 C 16.296875 -7.15625 16.285156 -7.039062 16.265625 -6.90625 L 3.953125 -6.90625 C 4.035156 -6.0625 4.238281 -5.3125 4.5625 -4.65625 C 4.882812 -4.007812 5.289062 -3.460938 5.78125 -3.015625 C 6.269531 -2.566406 6.820312 -2.226562 7.4375 -2 C 8.0625 -1.769531 8.722656 -1.65625 9.421875 -1.65625 C 10.503906 -1.65625 11.425781 -1.851562 12.1875 -2.25 C 12.957031 -2.644531 13.664062 -3.175781 14.3125 -3.84375 L 15.75 -2.546875 C 14.96875 -1.671875 14.078125 -0.96875 13.078125 -0.4375 C 12.078125 0.09375 10.835938 0.359375 9.359375 0.359375 Z M 13.953125 -8.609375 C 13.890625 -9.304688 13.742188 -9.972656 13.515625 -10.609375 C 13.285156 -11.253906 12.960938 -11.816406 12.546875 -12.296875 C 12.140625 -12.773438 11.640625 -13.160156 11.046875 -13.453125 C 10.460938 -13.742188 9.78125 -13.890625 9 -13.890625 C 8.320312 -13.890625 7.691406 -13.753906 7.109375 -13.484375 C 6.523438 -13.210938 6.015625 -12.84375 5.578125 -12.375 C 5.140625 -11.90625 4.78125 -11.347656 4.5 -10.703125 C 4.21875 -10.066406 4.035156 -9.367188 3.953125 -8.609375 Z M 13.953125 -8.609375 "/></g></g></g><g fill="#545454" fill-opacity="1"><g transform="translate(142.229364, 322.776183)"><g><path d="M 7.203125 0.328125 C 6.484375 0.328125 5.773438 0.226562 5.078125 0.03125 C 4.390625 -0.164062 3.769531 -0.46875 3.21875 -0.875 C 2.675781 -1.289062 2.238281 -1.796875 1.90625 -2.390625 C 1.570312 -2.992188 1.40625 -3.695312 1.40625 -4.5 L 1.40625 -4.5625 C 1.40625 -5.382812 1.566406 -6.101562 1.890625 -6.71875 C 2.210938 -7.34375 2.664062 -7.863281 3.25 -8.28125 C 3.84375 -8.695312 4.539062 -9.015625 5.34375 -9.234375 C 6.15625 -9.453125 7.054688 -9.5625 8.046875 -9.5625 C 9.046875 -9.5625 9.914062 -9.5 10.65625 -9.375 C 11.394531 -9.257812 12.113281 -9.101562 12.8125 -8.90625 L 12.8125 -9.453125 C 12.8125 -10.847656 12.40625 -11.898438 11.59375 -12.609375 C 10.78125 -13.328125 9.644531 -13.6875 8.1875 -13.6875 C 7.269531 -13.6875 6.4375 -13.578125 5.6875 -13.359375 C 4.9375 -13.148438 4.203125 -12.878906 3.484375 -12.546875 L 2.796875 -14.4375 C 3.648438 -14.832031 4.515625 -15.144531 5.390625 -15.375 C 6.273438 -15.601562 7.289062 -15.71875 8.4375 -15.71875 C 10.632812 -15.71875 12.300781 -15.148438 13.4375 -14.015625 C 14.5 -12.953125 15.03125 -11.441406 15.03125 -9.484375 L 15.03125 0 L 12.8125 0 L 12.8125 -2.34375 C 12.269531 -1.644531 11.539062 -1.023438 10.625 -0.484375 C 9.71875 0.0546875 8.578125 0.328125 7.203125 0.328125 Z M 7.65625 -1.5 C 8.375 -1.5 9.046875 -1.601562 9.671875 -1.8125 C 10.304688 -2.019531 10.859375 -2.304688 11.328125 -2.671875 C 11.796875 -3.046875 12.164062 -3.488281 12.4375 -4 C 12.707031 -4.507812 12.84375 -5.078125 12.84375 -5.703125 L 12.84375 -7.203125 C 12.257812 -7.359375 11.59375 -7.503906 10.84375 -7.640625 C 10.09375 -7.785156 9.238281 -7.859375 8.28125 -7.859375 C 6.820312 -7.859375 5.703125 -7.566406 4.921875 -6.984375 C 4.140625 -6.410156 3.75 -5.632812 3.75 -4.65625 L 3.75 -4.59375 C 3.75 -4.113281 3.851562 -3.675781 4.0625 -3.28125 C 4.269531 -2.894531 4.550781 -2.570312 4.90625 -2.3125 C 5.269531 -2.050781 5.6875 -1.847656 6.15625 -1.703125 C 6.632812 -1.566406 7.132812 -1.5 7.65625 -1.5 Z M 7.65625 -1.5 "/></g></g></g><g fill="#545454" fill-opacity="1"><g transform="translate(160.349343, 322.776183)"><g><path d="M 7.765625 0.265625 C 7.148438 0.265625 6.570312 0.1875 6.03125 0.03125 C 5.488281 -0.125 5.019531 -0.378906 4.625 -0.734375 C 4.238281 -1.085938 3.9375 -1.539062 3.71875 -2.09375 C 3.5 -2.65625 3.390625 -3.328125 3.390625 -4.109375 L 3.390625 -13.46875 L 1.234375 -13.46875 L 1.234375 -15.515625 L 3.390625 -15.515625 L 3.390625 -20.1875 L 5.703125 -20.1875 L 5.703125 -15.515625 L 10.625 -15.515625 L 10.625 -13.46875 L 5.703125 -13.46875 L 5.703125 -4.40625 C 5.703125 -3.445312 5.941406 -2.773438 6.421875 -2.390625 C 6.898438 -2.015625 7.53125 -1.828125 8.3125 -1.828125 C 8.707031 -1.828125 9.078125 -1.863281 9.421875 -1.9375 C 9.773438 -2.019531 10.15625 -2.164062 10.5625 -2.375 L 10.5625 -0.390625 C 10.15625 -0.171875 9.726562 -0.0078125 9.28125 0.09375 C 8.832031 0.207031 8.328125 0.265625 7.765625 0.265625 Z M 7.765625 0.265625 "/></g></g></g><g fill="#545454" fill-opacity="1"><g transform="translate(173.369331, 322.776183)"><g><path d="M 2.640625 -21.453125 L 5.28125 -21.453125 L 5.28125 -18.90625 L 2.640625 -18.90625 Z M 2.796875 -15.515625 L 5.09375 -15.515625 L 5.09375 0 L 2.796875 0 Z M 2.796875 -15.515625 "/></g></g></g><g fill="#545454" fill-opacity="1"><g transform="translate(182.15932, 322.776183)"><g><path d="M 1.046875 -15.515625 L 3.59375 -15.515625 L 8.8125 -2.640625 L 14.0625 -15.515625 L 16.5625 -15.515625 L 9.8125 0.125 L 7.765625 0.125 Z M 1.046875 -15.515625 "/></g></g></g><g fill="#545454" fill-opacity="1"><g transform="translate(199.769292, 322.776183)"><g><path d="M 9.359375 0.359375 C 8.296875 0.359375 7.296875 0.164062 6.359375 -0.21875 C 5.421875 -0.613281 4.597656 -1.164062 3.890625 -1.875 C 3.191406 -2.582031 2.640625 -3.429688 2.234375 -4.421875 C 1.828125 -5.410156 1.625 -6.503906 1.625 -7.703125 L 1.625 -7.765625 C 1.625 -8.890625 1.804688 -9.941406 2.171875 -10.921875 C 2.546875 -11.898438 3.0625 -12.753906 3.71875 -13.484375 C 4.375 -14.210938 5.15625 -14.785156 6.0625 -15.203125 C 6.976562 -15.628906 7.976562 -15.84375 9.0625 -15.84375 C 10.195312 -15.84375 11.210938 -15.625 12.109375 -15.1875 C 13.015625 -14.757812 13.773438 -14.175781 14.390625 -13.4375 C 15.015625 -12.695312 15.488281 -11.832031 15.8125 -10.84375 C 16.132812 -9.851562 16.296875 -8.789062 16.296875 -7.65625 C 16.296875 -7.488281 16.296875 -7.351562 16.296875 -7.25 C 16.296875 -7.15625 16.285156 -7.039062 16.265625 -6.90625 L 3.953125 -6.90625 C 4.035156 -6.0625 4.238281 -5.3125 4.5625 -4.65625 C 4.882812 -4.007812 5.289062 -3.460938 5.78125 -3.015625 C 6.269531 -2.566406 6.820312 -2.226562 7.4375 -2 C 8.0625 -1.769531 8.722656 -1.65625 9.421875 -1.65625 C 10.503906 -1.65625 11.425781 -1.851562 12.1875 -2.25 C 12.957031 -2.644531 13.664062 -3.175781 14.3125 -3.84375 L 15.75 -2.546875 C 14.96875 -1.671875 14.078125 -0.96875 13.078125 -0.4375 C 12.078125 0.09375 10.835938 0.359375 9.359375 0.359375 Z M 13.953125 -8.609375 C 13.890625 -9.304688 13.742188 -9.972656 13.515625 -10.609375 C 13.285156 -11.253906 12.960938 -11.816406 12.546875 -12.296875 C 12.140625 -12.773438 11.640625 -13.160156 11.046875 -13.453125 C 10.460938 -13.742188 9.78125 -13.890625 9 -13.890625 C 8.320312 -13.890625 7.691406 -13.753906 7.109375 -13.484375 C 6.523438 -13.210938 6.015625 -12.84375 5.578125 -12.375 C 5.140625 -11.90625 4.78125 -11.347656 4.5 -10.703125 C 4.21875 -10.066406 4.035156 -9.367188 3.953125 -8.609375 Z M 13.953125 -8.609375 "/></g></g></g><g fill="#545454" fill-opacity="1"><g transform="translate(218.129276, 322.776183)"><g><path d="M 2.28125 -3.15625 L 5.046875 -3.15625 L 5.046875 0 L 2.28125 0 Z M 2.28125 -3.15625 "/></g></g></g><g fill="#545454" fill-opacity="1"><g transform="translate(226.349292, 322.776183)"><g><path d="M 2.96875 -21 L 11.90625 -21 C 13.101562 -21 14.164062 -20.832031 15.09375 -20.5 C 16.03125 -20.175781 16.800781 -19.722656 17.40625 -19.140625 C 18.300781 -18.203125 18.75 -17.082031 18.75 -15.78125 L 18.75 -15.71875 C 18.75 -15.039062 18.65625 -14.4375 18.46875 -13.90625 C 18.28125 -13.375 18.023438 -12.910156 17.703125 -12.515625 C 17.378906 -12.128906 17.019531 -11.800781 16.625 -11.53125 C 16.238281 -11.257812 15.835938 -11.035156 15.421875 -10.859375 C 16.035156 -10.679688 16.617188 -10.445312 17.171875 -10.15625 C 17.722656 -9.863281 18.195312 -9.515625 18.59375 -9.109375 C 19 -8.710938 19.320312 -8.238281 19.5625 -7.6875 C 19.800781 -7.144531 19.921875 -6.515625 19.921875 -5.796875 L 19.921875 -5.734375 C 19.921875 -4.828125 19.738281 -4.019531 19.375 -3.3125 C 19.019531 -2.601562 18.503906 -2.003906 17.828125 -1.515625 C 17.160156 -1.023438 16.359375 -0.648438 15.421875 -0.390625 C 14.484375 -0.128906 13.441406 0 12.296875 0 L 2.96875 0 Z M 16.34375 -15.453125 C 16.34375 -16.492188 15.941406 -17.320312 15.140625 -17.9375 C 14.347656 -18.5625 13.203125 -18.875 11.703125 -18.875 L 5.3125 -18.875 L 5.3125 -11.640625 L 11.515625 -11.640625 C 12.960938 -11.640625 14.128906 -11.953125 15.015625 -12.578125 C 15.898438 -13.210938 16.34375 -14.148438 16.34375 -15.390625 Z M 17.515625 -5.9375 C 17.515625 -7.082031 17.046875 -7.96875 16.109375 -8.59375 C 15.171875 -9.226562 13.78125 -9.546875 11.9375 -9.546875 L 5.3125 -9.546875 L 5.3125 -2.125 L 12.359375 -2.125 C 13.960938 -2.125 15.222656 -2.453125 16.140625 -3.109375 C 17.054688 -3.773438 17.515625 -4.695312 17.515625 -5.875 Z M 17.515625 -5.9375 "/></g></g></g><g fill="#545454" fill-opacity="1"><g transform="translate(248.909257, 322.776183)"><g><path d="M 8.28125 0.328125 C 7.34375 0.328125 6.507812 0.179688 5.78125 -0.109375 C 5.050781 -0.410156 4.429688 -0.835938 3.921875 -1.390625 C 3.410156 -1.941406 3.019531 -2.597656 2.75 -3.359375 C 2.476562 -4.117188 2.34375 -4.957031 2.34375 -5.875 L 2.34375 -15.515625 L 4.65625 -15.515625 L 4.65625 -6.453125 C 4.65625 -5.015625 5.023438 -3.875 5.765625 -3.03125 C 6.503906 -2.1875 7.5625 -1.765625 8.9375 -1.765625 C 9.601562 -1.765625 10.21875 -1.878906 10.78125 -2.109375 C 11.351562 -2.335938 11.84375 -2.664062 12.25 -3.09375 C 12.664062 -3.53125 12.992188 -4.046875 13.234375 -4.640625 C 13.472656 -5.242188 13.59375 -5.90625 13.59375 -6.625 L 13.59375 -15.515625 L 15.875 -15.515625 L 15.875 0 L 13.59375 0 L 13.59375 -2.703125 C 13.070312 -1.859375 12.390625 -1.140625 11.546875 -0.546875 C 10.710938 0.0351562 9.625 0.328125 8.28125 0.328125 Z M 8.28125 0.328125 "/></g></g></g><g fill="#545454" fill-opacity="1"><g transform="translate(268.289231, 322.776183)"><g><path d="M 2.640625 -21.453125 L 5.28125 -21.453125 L 5.28125 -18.90625 L 2.640625 -18.90625 Z M 2.796875 -15.515625 L 5.09375 -15.515625 L 5.09375 0 L 2.796875 0 Z M 2.796875 -15.515625 "/></g></g></g><g fill="#545454" fill-opacity="1"><g transform="translate(277.079231, 322.776183)"><g><path d="M 2.796875 -21.90625 L 5.09375 -21.90625 L 5.09375 0 L 2.796875 0 Z M 2.796875 -21.90625 "/></g></g></g><g fill="#545454" fill-opacity="1"><g transform="translate(285.869231, 322.776183)"><g><path d="M 9.09375 0.328125 C 8.15625 0.328125 7.242188 0.148438 6.359375 -0.203125 C 5.484375 -0.566406 4.691406 -1.09375 3.984375 -1.78125 C 3.285156 -2.46875 2.726562 -3.304688 2.3125 -4.296875 C 1.894531 -5.296875 1.6875 -6.429688 1.6875 -7.703125 L 1.6875 -7.765625 C 1.6875 -9.023438 1.894531 -10.15625 2.3125 -11.15625 C 2.726562 -12.15625 3.285156 -13 3.984375 -13.6875 C 4.691406 -14.382812 5.484375 -14.914062 6.359375 -15.28125 C 7.242188 -15.65625 8.15625 -15.84375 9.09375 -15.84375 C 9.8125 -15.84375 10.46875 -15.75 11.0625 -15.5625 C 11.664062 -15.382812 12.207031 -15.144531 12.6875 -14.84375 C 13.164062 -14.550781 13.597656 -14.203125 13.984375 -13.796875 C 14.378906 -13.398438 14.726562 -12.984375 15.03125 -12.546875 L 15.03125 -21.90625 L 17.34375 -21.90625 L 17.34375 0 L 15.03125 0 L 15.03125 -3.125 C 14.707031 -2.664062 14.347656 -2.222656 13.953125 -1.796875 C 13.566406 -1.378906 13.132812 -1.007812 12.65625 -0.6875 C 12.175781 -0.363281 11.640625 -0.113281 11.046875 0.0625 C 10.460938 0.238281 9.8125 0.328125 9.09375 0.328125 Z M 9.515625 -1.734375 C 10.234375 -1.734375 10.925781 -1.878906 11.59375 -2.171875 C 12.257812 -2.460938 12.859375 -2.875 13.390625 -3.40625 C 13.921875 -3.9375 14.34375 -4.566406 14.65625 -5.296875 C 14.96875 -6.023438 15.125 -6.835938 15.125 -7.734375 L 15.125 -7.796875 C 15.125 -8.703125 14.96875 -9.519531 14.65625 -10.25 C 14.34375 -10.976562 13.921875 -11.601562 13.390625 -12.125 C 12.859375 -12.644531 12.257812 -13.046875 11.59375 -13.328125 C 10.925781 -13.617188 10.234375 -13.765625 9.515625 -13.765625 C 8.753906 -13.765625 8.039062 -13.628906 7.375 -13.359375 C 6.71875 -13.085938 6.144531 -12.695312 5.65625 -12.1875 C 5.164062 -11.6875 4.773438 -11.0625 4.484375 -10.3125 C 4.191406 -9.570312 4.046875 -8.734375 4.046875 -7.796875 L 4.046875 -7.734375 C 4.046875 -6.816406 4.191406 -5.988281 4.484375 -5.25 C 4.773438 -4.507812 5.171875 -3.878906 5.671875 -3.359375 C 6.171875 -2.835938 6.75 -2.4375 7.40625 -2.15625 C 8.070312 -1.875 8.773438 -1.734375 9.515625 -1.734375 Z M 9.515625 -1.734375 "/></g></g></g><g fill="#545454" fill-opacity="1"><g transform="translate(306.689192, 322.776183)"><g><path d="M 7.203125 0.328125 C 6.484375 0.328125 5.773438 0.226562 5.078125 0.03125 C 4.390625 -0.164062 3.769531 -0.46875 3.21875 -0.875 C 2.675781 -1.289062 2.238281 -1.796875 1.90625 -2.390625 C 1.570312 -2.992188 1.40625 -3.695312 1.40625 -4.5 L 1.40625 -4.5625 C 1.40625 -5.382812 1.566406 -6.101562 1.890625 -6.71875 C 2.210938 -7.34375 2.664062 -7.863281 3.25 -8.28125 C 3.84375 -8.695312 4.539062 -9.015625 5.34375 -9.234375 C 6.15625 -9.453125 7.054688 -9.5625 8.046875 -9.5625 C 9.046875 -9.5625 9.914062 -9.5 10.65625 -9.375 C 11.394531 -9.257812 12.113281 -9.101562 12.8125 -8.90625 L 12.8125 -9.453125 C 12.8125 -10.847656 12.40625 -11.898438 11.59375 -12.609375 C 10.78125 -13.328125 9.644531 -13.6875 8.1875 -13.6875 C 7.269531 -13.6875 6.4375 -13.578125 5.6875 -13.359375 C 4.9375 -13.148438 4.203125 -12.878906 3.484375 -12.546875 L 2.796875 -14.4375 C 3.648438 -14.832031 4.515625 -15.144531 5.390625 -15.375 C 6.273438 -15.601562 7.289062 -15.71875 8.4375 -15.71875 C 10.632812 -15.71875 12.300781 -15.148438 13.4375 -14.015625 C 14.5 -12.953125 15.03125 -11.441406 15.03125 -9.484375 L 15.03125 0 L 12.8125 0 L 12.8125 -2.34375 C 12.269531 -1.644531 11.539062 -1.023438 10.625 -0.484375 C 9.71875 0.0546875 8.578125 0.328125 7.203125 0.328125 Z M 7.65625 -1.5 C 8.375 -1.5 9.046875 -1.601562 9.671875 -1.8125 C 10.304688 -2.019531 10.859375 -2.304688 11.328125 -2.671875 C 11.796875 -3.046875 12.164062 -3.488281 12.4375 -4 C 12.707031 -4.507812 12.84375 -5.078125 12.84375 -5.703125 L 12.84375 -7.203125 C 12.257812 -7.359375 11.59375 -7.503906 10.84375 -7.640625 C 10.09375 -7.785156 9.238281 -7.859375 8.28125 -7.859375 C 6.820312 -7.859375 5.703125 -7.566406 4.921875 -6.984375 C 4.140625 -6.410156 3.75 -5.632812 3.75 -4.65625 L 3.75 -4.59375 C 3.75 -4.113281 3.851562 -3.675781 4.0625 -3.28125 C 4.269531 -2.894531 4.550781 -2.570312 4.90625 -2.3125 C 5.269531 -2.050781 5.6875 -1.847656 6.15625 -1.703125 C 6.632812 -1.566406 7.132812 -1.5 7.65625 -1.5 Z M 7.65625 -1.5 "/></g></g></g><g fill="#545454" fill-opacity="1"><g transform="translate(324.959179, 322.776183)"><g><path d="M 10.828125 0.328125 C 10.109375 0.328125 9.445312 0.238281 8.84375 0.0625 C 8.25 -0.113281 7.710938 -0.351562 7.234375 -0.65625 C 6.753906 -0.957031 6.316406 -1.304688 5.921875 -1.703125 C 5.535156 -2.109375 5.191406 -2.53125 4.890625 -2.96875 L 4.890625 0 L 2.578125 0 L 2.578125 -21.90625 L 4.890625 -21.90625 L 4.890625 -12.390625 C 5.210938 -12.847656 5.566406 -13.285156 5.953125 -13.703125 C 6.347656 -14.128906 6.785156 -14.492188 7.265625 -14.796875 C 7.742188 -15.109375 8.273438 -15.359375 8.859375 -15.546875 C 9.453125 -15.742188 10.109375 -15.84375 10.828125 -15.84375 C 11.742188 -15.84375 12.644531 -15.660156 13.53125 -15.296875 C 14.425781 -14.941406 15.222656 -14.414062 15.921875 -13.71875 C 16.628906 -13.03125 17.191406 -12.191406 17.609375 -11.203125 C 18.023438 -10.210938 18.234375 -9.078125 18.234375 -7.796875 L 18.234375 -7.734375 C 18.234375 -6.472656 18.023438 -5.34375 17.609375 -4.34375 C 17.191406 -3.34375 16.632812 -2.5 15.9375 -1.8125 C 15.25 -1.125 14.457031 -0.59375 13.5625 -0.21875 C 12.675781 0.144531 11.765625 0.328125 10.828125 0.328125 Z M 10.40625 -1.734375 C 11.144531 -1.734375 11.847656 -1.867188 12.515625 -2.140625 C 13.191406 -2.410156 13.773438 -2.800781 14.265625 -3.3125 C 14.753906 -3.820312 15.144531 -4.445312 15.4375 -5.1875 C 15.726562 -5.925781 15.875 -6.765625 15.875 -7.703125 L 15.875 -7.765625 C 15.875 -8.691406 15.726562 -9.523438 15.4375 -10.265625 C 15.144531 -11.003906 14.75 -11.632812 14.25 -12.15625 C 13.75 -12.675781 13.164062 -13.070312 12.5 -13.34375 C 11.84375 -13.625 11.144531 -13.765625 10.40625 -13.765625 C 9.6875 -13.765625 8.988281 -13.617188 8.3125 -13.328125 C 7.644531 -13.046875 7.046875 -12.640625 6.515625 -12.109375 C 5.992188 -11.578125 5.578125 -10.945312 5.265625 -10.21875 C 4.953125 -9.488281 4.796875 -8.679688 4.796875 -7.796875 L 4.796875 -7.734375 C 4.796875 -6.835938 4.953125 -6.019531 5.265625 -5.28125 C 5.578125 -4.539062 5.992188 -3.910156 6.515625 -3.390625 C 7.046875 -2.867188 7.644531 -2.460938 8.3125 -2.171875 C 8.988281 -1.878906 9.6875 -1.734375 10.40625 -1.734375 Z M 10.40625 -1.734375 "/></g></g></g><g fill="#545454" fill-opacity="1"><g transform="translate(345.779162, 322.776183)"><g><path d="M 2.796875 -21.90625 L 5.09375 -21.90625 L 5.09375 0 L 2.796875 0 Z M 2.796875 -21.90625 "/></g></g></g><g fill="#545454" fill-opacity="1"><g transform="translate(354.569162, 322.776183)"><g><path d="M 9.359375 0.359375 C 8.296875 0.359375 7.296875 0.164062 6.359375 -0.21875 C 5.421875 -0.613281 4.597656 -1.164062 3.890625 -1.875 C 3.191406 -2.582031 2.640625 -3.429688 2.234375 -4.421875 C 1.828125 -5.410156 1.625 -6.503906 1.625 -7.703125 L 1.625 -7.765625 C 1.625 -8.890625 1.804688 -9.941406 2.171875 -10.921875 C 2.546875 -11.898438 3.0625 -12.753906 3.71875 -13.484375 C 4.375 -14.210938 5.15625 -14.785156 6.0625 -15.203125 C 6.976562 -15.628906 7.976562 -15.84375 9.0625 -15.84375 C 10.195312 -15.84375 11.210938 -15.625 12.109375 -15.1875 C 13.015625 -14.757812 13.773438 -14.175781 14.390625 -13.4375 C 15.015625 -12.695312 15.488281 -11.832031 15.8125 -10.84375 C 16.132812 -9.851562 16.296875 -8.789062 16.296875 -7.65625 C 16.296875 -7.488281 16.296875 -7.351562 16.296875 -7.25 C 16.296875 -7.15625 16.285156 -7.039062 16.265625 -6.90625 L 3.953125 -6.90625 C 4.035156 -6.0625 4.238281 -5.3125 4.5625 -4.65625 C 4.882812 -4.007812 5.289062 -3.460938 5.78125 -3.015625 C 6.269531 -2.566406 6.820312 -2.226562 7.4375 -2 C 8.0625 -1.769531 8.722656 -1.65625 9.421875 -1.65625 C 10.503906 -1.65625 11.425781 -1.851562 12.1875 -2.25 C 12.957031 -2.644531 13.664062 -3.175781 14.3125 -3.84375 L 15.75 -2.546875 C 14.96875 -1.671875 14.078125 -0.96875 13.078125 -0.4375 C 12.078125 0.09375 10.835938 0.359375 9.359375 0.359375 Z M 13.953125 -8.609375 C 13.890625 -9.304688 13.742188 -9.972656 13.515625 -10.609375 C 13.285156 -11.253906 12.960938 -11.816406 12.546875 -12.296875 C 12.140625 -12.773438 11.640625 -13.160156 11.046875 -13.453125 C 10.460938 -13.742188 9.78125 -13.890625 9 -13.890625 C 8.320312 -13.890625 7.691406 -13.753906 7.109375 -13.484375 C 6.523438 -13.210938 6.015625 -12.84375 5.578125 -12.375 C 5.140625 -11.90625 4.78125 -11.347656 4.5 -10.703125 C 4.21875 -10.066406 4.035156 -9.367188 3.953125 -8.609375 Z M 13.953125 -8.609375 "/></g></g></g></svg>