<svg xmlns="http://www.w3.org/2000/svg" xmlns:xlink="http://www.w3.org/1999/xlink" width="907" zoomAndPan="magnify" viewBox="0 0 680.25 113.249998" height="151" preserveAspectRatio="xMidYMid meet" version="1.0"><defs><g/><clipPath id="1765c5798e"><path d="M 4 0 L 676 0 L 676 112.503906 L 4 112.503906 Z M 4 0 " clip-rule="nonzero"/></clipPath><clipPath id="3e02e8dac1"><path d="M 0.488281 0 L 671.644531 0 L 671.644531 112.058594 L 0.488281 112.058594 Z M 0.488281 0 " clip-rule="nonzero"/></clipPath><clipPath id="9c0b302916"><rect x="0" width="672" y="0" height="113"/></clipPath><clipPath id="ae87e87742"><rect x="0" width="672" y="0" height="113"/></clipPath></defs><g clip-path="url(#1765c5798e)"><g transform="matrix(1, 0, 0, 1, 4, 0.000000000000002895)"><g clip-path="url(#ae87e87742)"><g clip-path="url(#3e02e8dac1)"><g transform="matrix(1, 0, 0, 1, 0, 0.000000000000002895)"><g clip-path="url(#9c0b302916)"><g fill="#545454" fill-opacity="1"><g transform="translate(1.580692, 50.960733)"><g><path d="M 5.25 -0.3125 C 5.789062 -1.0625 6.25 -2 6.625 -3.125 C 7 -4.25 7.1875 -5.394531 7.1875 -6.5625 L 7.1875 -37.21875 C 7.1875 -38.382812 7 -39.53125 6.625 -40.65625 C 6.25 -41.789062 5.789062 -42.734375 5.25 -43.484375 L 5.25 -43.796875 L 33.46875 -43.796875 L 34.78125 -33.46875 L 34.15625 -33.46875 C 33.28125 -35.46875 32.363281 -37.101562 31.40625 -38.375 C 30.445312 -39.65625 29.195312 -40.660156 27.65625 -41.390625 C 26.113281 -42.117188 24.191406 -42.484375 21.890625 -42.484375 L 13.140625 -42.484375 L 13.140625 -22.828125 L 21.453125 -22.828125 C 25.171875 -22.828125 27.46875 -24.644531 28.34375 -28.28125 L 28.96875 -28.28125 L 28.96875 -16.078125 L 28.34375 -16.078125 C 27.425781 -19.703125 25.128906 -21.515625 21.453125 -21.515625 L 13.140625 -21.515625 L 13.140625 -1.3125 L 23.390625 -1.3125 C 25.691406 -1.3125 27.613281 -1.675781 29.15625 -2.40625 C 30.695312 -3.132812 31.945312 -4.132812 32.90625 -5.40625 C 33.863281 -6.675781 34.78125 -8.316406 35.65625 -10.328125 L 36.28125 -10.328125 L 34.96875 0 L 5.25 0 Z M 5.25 -0.3125 "/></g></g></g><g fill="#545454" fill-opacity="1"><g transform="translate(40.434201, 50.960733)"><g><path d="M 4.3125 12.203125 C 5.394531 10.703125 5.9375 8.757812 5.9375 6.375 L 5.9375 -23.078125 C 5.9375 -24.460938 5.78125 -25.601562 5.46875 -26.5 C 5.15625 -27.394531 4.664062 -28.175781 4 -28.84375 L 4 -29.15625 L 11.203125 -31.96875 L 11.515625 -31.96875 L 11.515625 -25.78125 L 11.828125 -25.78125 C 12.660156 -27.613281 13.929688 -29.101562 15.640625 -30.25 C 17.347656 -31.394531 19.285156 -31.96875 21.453125 -31.96875 C 24.171875 -31.96875 26.5 -31.300781 28.4375 -29.96875 C 30.375 -28.632812 31.851562 -26.804688 32.875 -24.484375 C 33.894531 -22.171875 34.40625 -19.554688 34.40625 -16.640625 C 34.40625 -13.347656 33.726562 -10.375 32.375 -7.71875 C 31.019531 -5.070312 29.191406 -3.007812 26.890625 -1.53125 C 24.597656 -0.0507812 22.117188 0.6875 19.453125 0.6875 C 16.285156 0.6875 13.640625 -0.207031 11.515625 -2 L 11.515625 6.375 C 11.515625 8.757812 12.054688 10.703125 13.140625 12.203125 L 13.140625 12.515625 L 4.3125 12.515625 Z M 19.515625 -0.75 C 22.359375 -0.75 24.601562 -2.039062 26.25 -4.625 C 27.894531 -7.21875 28.71875 -10.679688 28.71875 -15.015625 C 28.71875 -17.722656 28.320312 -20.097656 27.53125 -22.140625 C 26.738281 -24.191406 25.628906 -25.757812 24.203125 -26.84375 C 22.785156 -27.925781 21.179688 -28.46875 19.390625 -28.46875 C 17.179688 -28.46875 15.347656 -27.769531 13.890625 -26.375 C 12.429688 -24.976562 11.640625 -23.171875 11.515625 -20.953125 L 11.515625 -9.265625 C 11.597656 -7.921875 11.953125 -6.59375 12.578125 -5.28125 C 13.203125 -3.96875 14.109375 -2.882812 15.296875 -2.03125 C 16.484375 -1.175781 17.890625 -0.75 19.515625 -0.75 Z M 19.515625 -0.75 "/></g></g></g><g fill="#545454" fill-opacity="1"><g transform="translate(77.786114, 50.960733)"><g><path d="M 4.6875 -0.3125 C 5.769531 -1.8125 6.3125 -3.75 6.3125 -6.125 L 6.3125 -23.078125 C 6.3125 -24.460938 6.144531 -25.613281 5.8125 -26.53125 C 5.476562 -27.445312 4.976562 -28.21875 4.3125 -28.84375 L 4.3125 -29.15625 L 11.578125 -31.96875 L 11.890625 -31.96875 L 11.890625 -6.125 C 11.890625 -3.75 12.429688 -1.8125 13.515625 -0.3125 L 13.515625 0 L 4.6875 0 Z M 9.078125 -36.09375 C 8.078125 -36.09375 7.21875 -36.457031 6.5 -37.1875 C 5.789062 -37.914062 5.4375 -38.785156 5.4375 -39.796875 C 5.4375 -40.796875 5.800781 -41.648438 6.53125 -42.359375 C 7.269531 -43.066406 8.117188 -43.421875 9.078125 -43.421875 C 10.117188 -43.421875 10.992188 -43.066406 11.703125 -42.359375 C 12.410156 -41.648438 12.765625 -40.796875 12.765625 -39.796875 C 12.765625 -38.742188 12.410156 -37.863281 11.703125 -37.15625 C 10.992188 -36.445312 10.117188 -36.09375 9.078125 -36.09375 Z M 9.078125 -36.09375 "/></g></g></g><g fill="#545454" fill-opacity="1"><g transform="translate(95.679995, 50.960733)"><g><path d="M 17.203125 0.6875 C 14.535156 0.6875 12.113281 0.0703125 9.9375 -1.15625 C 7.769531 -2.382812 6.0625 -4.175781 4.8125 -6.53125 C 3.5625 -8.894531 2.9375 -11.703125 2.9375 -14.953125 C 2.9375 -18.035156 3.664062 -20.878906 5.125 -23.484375 C 6.582031 -26.097656 8.550781 -28.164062 11.03125 -29.6875 C 13.519531 -31.207031 16.222656 -31.96875 19.140625 -31.96875 C 20.640625 -31.96875 22.191406 -31.75 23.796875 -31.3125 C 25.410156 -30.875 26.800781 -30.28125 27.96875 -29.53125 L 27.96875 -21.265625 L 27.34375 -21.265625 C 26.71875 -23.898438 25.460938 -26.039062 23.578125 -27.6875 C 21.703125 -29.332031 19.554688 -30.15625 17.140625 -30.15625 C 15.554688 -30.15625 14.035156 -29.757812 12.578125 -28.96875 C 11.117188 -28.175781 9.914062 -26.910156 8.96875 -25.171875 C 8.03125 -23.441406 7.5625 -21.265625 7.5625 -18.640625 C 7.5625 -15.804688 8.09375 -13.257812 9.15625 -11 C 10.226562 -8.75 11.703125 -6.976562 13.578125 -5.6875 C 15.453125 -4.394531 17.515625 -3.75 19.765625 -3.75 C 21.765625 -3.75 23.609375 -4.269531 25.296875 -5.3125 C 26.992188 -6.351562 28.238281 -7.898438 29.03125 -9.953125 L 29.65625 -9.953125 C 29.070312 -6.734375 27.617188 -4.15625 25.296875 -2.21875 C 22.984375 -0.28125 20.285156 0.6875 17.203125 0.6875 Z M 17.203125 0.6875 "/></g></g></g><g fill="#ffffff" fill-opacity="1"><g transform="translate(127.103902, 50.960733)"><g/></g></g><g fill="#ff9e2c" fill-opacity="1"><g transform="translate(142.745424, 50.960733)"><g><path d="M 2.25 -0.3125 C 2.957031 -1.0625 3.59375 -2 4.15625 -3.125 C 4.71875 -4.25 5.125 -5.394531 5.375 -6.5625 L 11.328125 -37.21875 C 11.453125 -37.96875 11.515625 -38.679688 11.515625 -39.359375 C 11.515625 -40.941406 11.222656 -42.316406 10.640625 -43.484375 L 10.703125 -43.796875 L 20.390625 -43.796875 L 20.328125 -43.484375 C 19.617188 -42.734375 18.984375 -41.789062 18.421875 -40.65625 C 17.859375 -39.53125 17.453125 -38.382812 17.203125 -37.21875 L 10.265625 -1.3125 L 18.265625 -1.3125 C 21.816406 -1.3125 24.675781 -2.03125 26.84375 -3.46875 C 29.007812 -4.90625 31.132812 -7.234375 33.21875 -10.453125 L 33.78125 -10.453125 L 30.21875 0 L 2.1875 0 Z M 2.25 -0.3125 "/></g></g></g><g fill="#ff9e2c" fill-opacity="1"><g transform="translate(177.594709, 50.960733)"><g><path d="M 11.328125 0.6875 C 8.398438 0.6875 6.175781 -0.375 4.65625 -2.5 C 3.132812 -4.625 2.375 -7.378906 2.375 -10.765625 C 2.375 -14.140625 3.09375 -17.472656 4.53125 -20.765625 C 5.96875 -24.066406 8 -26.757812 10.625 -28.84375 C 13.257812 -30.925781 16.265625 -31.96875 19.640625 -31.96875 C 22.648438 -31.96875 25.09375 -30.945312 26.96875 -28.90625 L 32.15625 -31.96875 L 32.46875 -31.96875 L 27.46875 -6 C 27.257812 -4.957031 27.15625 -4.1875 27.15625 -3.6875 C 27.15625 -2.644531 27.570312 -2.125 28.40625 -2.125 C 29.78125 -2.125 31.257812 -4.378906 32.84375 -8.890625 L 33.90625 -8.890625 C 32.863281 -5.210938 31.769531 -2.695312 30.625 -1.34375 C 29.476562 0.0078125 28.175781 0.6875 26.71875 0.6875 C 25.382812 0.6875 24.296875 0.238281 23.453125 -0.65625 C 22.617188 -1.550781 22.203125 -2.9375 22.203125 -4.8125 C 22.203125 -5.6875 22.285156 -6.5625 22.453125 -7.4375 L 22.890625 -9.890625 L 22.578125 -9.890625 C 21.410156 -6.585938 19.890625 -4 18.015625 -2.125 C 16.140625 -0.25 13.910156 0.6875 11.328125 0.6875 Z M 13.453125 -3.0625 C 15.910156 -3.0625 18.085938 -4.769531 19.984375 -8.1875 C 21.878906 -11.613281 23.625 -16.265625 25.21875 -22.140625 C 25.257812 -22.429688 25.28125 -22.847656 25.28125 -23.390625 C 25.28125 -25.648438 24.742188 -27.414062 23.671875 -28.6875 C 22.609375 -29.957031 21.367188 -30.59375 19.953125 -30.59375 C 17.785156 -30.59375 15.804688 -29.5625 14.015625 -27.5 C 12.222656 -25.4375 10.828125 -22.878906 9.828125 -19.828125 C 8.828125 -16.785156 8.328125 -13.867188 8.328125 -11.078125 C 8.328125 -8.648438 8.753906 -6.707031 9.609375 -5.25 C 10.460938 -3.789062 11.742188 -3.0625 13.453125 -3.0625 Z M 13.453125 -3.0625 "/></g></g></g><g fill="#ff9e2c" fill-opacity="1"><g transform="translate(213.194779, 50.960733)"><g><path d="M 26.71875 0.6875 C 25.46875 0.6875 24.441406 0.257812 23.640625 -0.59375 C 22.847656 -1.445312 22.453125 -2.726562 22.453125 -4.4375 C 22.453125 -5.519531 22.597656 -6.644531 22.890625 -7.8125 L 26.28125 -22.015625 C 26.445312 -22.679688 26.53125 -23.394531 26.53125 -24.15625 C 26.53125 -25.40625 26.21875 -26.363281 25.59375 -27.03125 C 24.96875 -27.695312 24.128906 -28.03125 23.078125 -28.03125 C 20.910156 -28.03125 18.773438 -26.722656 16.671875 -24.109375 C 14.566406 -21.503906 12.617188 -17.304688 10.828125 -11.515625 L 8.578125 0 L 3.1875 0 L 7.3125 -21.390625 C 7.644531 -23.191406 7.8125 -24.488281 7.8125 -25.28125 C 7.8125 -26.113281 7.6875 -26.757812 7.4375 -27.21875 C 7.1875 -27.675781 6.75 -28.15625 6.125 -28.65625 L 6.1875 -28.96875 L 14.453125 -31.96875 L 14.765625 -31.96875 L 12.515625 -20.265625 L 12.828125 -20.265625 C 14.285156 -23.984375 16.054688 -26.863281 18.140625 -28.90625 C 20.222656 -30.945312 22.519531 -31.96875 25.03125 -31.96875 C 27.070312 -31.96875 28.726562 -31.382812 30 -30.21875 C 31.269531 -29.050781 31.90625 -27.195312 31.90625 -24.65625 C 31.90625 -23.1875 31.695312 -21.617188 31.28125 -19.953125 L 27.71875 -5.125 C 27.59375 -4.582031 27.53125 -4.101562 27.53125 -3.6875 C 27.53125 -2.644531 27.925781 -2.125 28.71875 -2.125 C 29.507812 -2.125 30.257812 -2.6875 30.96875 -3.8125 C 31.675781 -4.9375 32.445312 -6.628906 33.28125 -8.890625 L 34.34375 -8.890625 C 33.59375 -6.296875 32.820312 -4.3125 32.03125 -2.9375 C 31.238281 -1.5625 30.425781 -0.613281 29.59375 -0.09375 C 28.757812 0.425781 27.800781 0.6875 26.71875 0.6875 Z M 26.71875 0.6875 "/></g></g></g><g fill="#ff9e2c" fill-opacity="1"><g transform="translate(250.296423, 50.960733)"><g><path d="M 11.328125 0.6875 C 8.398438 0.6875 6.175781 -0.375 4.65625 -2.5 C 3.132812 -4.625 2.375 -7.378906 2.375 -10.765625 C 2.375 -14.140625 3.09375 -17.472656 4.53125 -20.765625 C 5.96875 -24.066406 7.988281 -26.757812 10.59375 -28.84375 C 13.207031 -30.925781 16.179688 -31.96875 19.515625 -31.96875 C 22.234375 -31.96875 24.488281 -31.050781 26.28125 -29.21875 L 27.53125 -36.03125 C 27.820312 -37.78125 27.96875 -38.972656 27.96875 -39.609375 C 27.96875 -40.566406 27.832031 -41.296875 27.5625 -41.796875 C 27.289062 -42.296875 26.84375 -42.796875 26.21875 -43.296875 L 26.28125 -43.609375 L 34.53125 -46.609375 L 34.84375 -46.609375 L 27.53125 -6 C 27.363281 -5.207031 27.28125 -4.476562 27.28125 -3.8125 C 27.28125 -3.226562 27.375 -2.800781 27.5625 -2.53125 C 27.75 -2.257812 28.070312 -2.125 28.53125 -2.125 C 29.90625 -2.125 31.382812 -4.378906 32.96875 -8.890625 L 34.03125 -8.890625 C 32.988281 -5.210938 31.882812 -2.695312 30.71875 -1.34375 C 29.550781 0.0078125 28.257812 0.6875 26.84375 0.6875 C 25.507812 0.6875 24.410156 0.238281 23.546875 -0.65625 C 22.691406 -1.550781 22.265625 -2.9375 22.265625 -4.8125 C 22.265625 -5.6875 22.347656 -6.5625 22.515625 -7.4375 L 22.953125 -9.890625 L 22.640625 -9.890625 C 21.515625 -6.585938 19.992188 -4 18.078125 -2.125 C 16.160156 -0.25 13.910156 0.6875 11.328125 0.6875 Z M 13.453125 -3.0625 C 17.953125 -3.0625 21.914062 -9.421875 25.34375 -22.140625 C 25.382812 -22.429688 25.40625 -22.828125 25.40625 -23.328125 C 25.40625 -25.628906 24.859375 -27.414062 23.765625 -28.6875 C 22.679688 -29.957031 21.410156 -30.59375 19.953125 -30.59375 C 17.785156 -30.59375 15.804688 -29.5625 14.015625 -27.5 C 12.222656 -25.4375 10.828125 -22.878906 9.828125 -19.828125 C 8.828125 -16.785156 8.328125 -13.867188 8.328125 -11.078125 C 8.328125 -8.648438 8.753906 -6.707031 9.609375 -5.25 C 10.460938 -3.789062 11.742188 -3.0625 13.453125 -3.0625 Z M 13.453125 -3.0625 "/></g></g></g><g fill="#ff9e2c" fill-opacity="1"><g transform="translate(286.271899, 50.960733)"><g><path d="M 12.515625 0.6875 C 10.390625 0.6875 8.382812 0.34375 6.5 -0.34375 C 4.625 -1.03125 2.976562 -2.019531 1.5625 -3.3125 L 3.1875 -11.828125 L 3.8125 -11.828125 C 3.8125 -9.785156 4.21875 -7.925781 5.03125 -6.25 C 5.84375 -4.582031 6.925781 -3.269531 8.28125 -2.3125 C 9.644531 -1.351562 11.140625 -0.875 12.765625 -0.875 C 14.429688 -0.875 15.773438 -1.351562 16.796875 -2.3125 C 17.816406 -3.269531 18.328125 -4.476562 18.328125 -5.9375 C 18.328125 -7.0625 17.929688 -8.164062 17.140625 -9.25 C 16.347656 -10.34375 14.953125 -11.765625 12.953125 -13.515625 C 10.285156 -15.804688 8.394531 -17.660156 7.28125 -19.078125 C 6.175781 -20.492188 5.625 -22.082031 5.625 -23.84375 C 5.625 -26.300781 6.570312 -28.269531 8.46875 -29.75 C 10.375 -31.226562 12.703125 -31.96875 15.453125 -31.96875 C 17.285156 -31.96875 19.003906 -31.6875 20.609375 -31.125 C 22.210938 -30.5625 23.539062 -29.863281 24.59375 -29.03125 L 23.140625 -21.703125 L 22.515625 -21.703125 C 22.429688 -24.460938 21.703125 -26.613281 20.328125 -28.15625 C 18.953125 -29.695312 17.203125 -30.46875 15.078125 -30.46875 C 13.492188 -30.46875 12.203125 -30.050781 11.203125 -29.21875 C 10.203125 -28.382812 9.703125 -27.257812 9.703125 -25.84375 C 9.703125 -25.132812 9.859375 -24.503906 10.171875 -23.953125 C 10.484375 -23.410156 11.054688 -22.742188 11.890625 -21.953125 C 12.722656 -21.160156 14.097656 -19.972656 16.015625 -18.390625 C 18.304688 -16.515625 19.972656 -14.867188 21.015625 -13.453125 C 22.054688 -12.035156 22.578125 -10.328125 22.578125 -8.328125 C 22.578125 -5.484375 21.671875 -3.269531 19.859375 -1.6875 C 18.046875 -0.101562 15.597656 0.6875 12.515625 0.6875 Z M 12.515625 0.6875 "/></g></g></g><g fill="#ff9e2c" fill-opacity="1"><g transform="translate(312.862462, 50.960733)"><g><path d="M 14.828125 0.6875 C 12.492188 0.6875 10.4375 0.144531 8.65625 -0.9375 C 6.882812 -2.019531 5.5 -3.550781 4.5 -5.53125 C 3.5 -7.519531 3 -9.804688 3 -12.390625 C 3 -15.972656 3.726562 -19.253906 5.1875 -22.234375 C 6.644531 -25.222656 8.632812 -27.59375 11.15625 -29.34375 C 13.6875 -31.09375 16.453125 -31.96875 19.453125 -31.96875 C 23.003906 -31.96875 25.96875 -31.113281 28.34375 -29.40625 L 26.84375 -21.203125 L 26.21875 -21.203125 C 26.050781 -24.128906 25.316406 -26.375 24.015625 -27.9375 C 22.722656 -29.5 20.929688 -30.28125 18.640625 -30.28125 C 16.890625 -30.28125 15.253906 -29.625 13.734375 -28.3125 C 12.210938 -27 10.984375 -25.140625 10.046875 -22.734375 C 9.109375 -20.335938 8.640625 -17.578125 8.640625 -14.453125 C 8.640625 -10.867188 9.328125 -8.070312 10.703125 -6.0625 C 12.078125 -4.0625 14.117188 -3.0625 16.828125 -3.0625 C 18.492188 -3.0625 20.085938 -3.507812 21.609375 -4.40625 C 23.140625 -5.300781 24.46875 -6.691406 25.59375 -8.578125 L 26.28125 -8.578125 C 25.613281 -6.109375 24.265625 -3.945312 22.234375 -2.09375 C 20.210938 -0.238281 17.742188 0.6875 14.828125 0.6875 Z M 14.828125 0.6875 "/></g></g></g><g fill="#ff9e2c" fill-opacity="1"><g transform="translate(341.955655, 50.960733)"><g><path d="M 11.328125 0.6875 C 8.398438 0.6875 6.175781 -0.375 4.65625 -2.5 C 3.132812 -4.625 2.375 -7.378906 2.375 -10.765625 C 2.375 -14.140625 3.09375 -17.472656 4.53125 -20.765625 C 5.96875 -24.066406 8 -26.757812 10.625 -28.84375 C 13.257812 -30.925781 16.265625 -31.96875 19.640625 -31.96875 C 22.648438 -31.96875 25.09375 -30.945312 26.96875 -28.90625 L 32.15625 -31.96875 L 32.46875 -31.96875 L 27.46875 -6 C 27.257812 -4.957031 27.15625 -4.1875 27.15625 -3.6875 C 27.15625 -2.644531 27.570312 -2.125 28.40625 -2.125 C 29.78125 -2.125 31.257812 -4.378906 32.84375 -8.890625 L 33.90625 -8.890625 C 32.863281 -5.210938 31.769531 -2.695312 30.625 -1.34375 C 29.476562 0.0078125 28.175781 0.6875 26.71875 0.6875 C 25.382812 0.6875 24.296875 0.238281 23.453125 -0.65625 C 22.617188 -1.550781 22.203125 -2.9375 22.203125 -4.8125 C 22.203125 -5.6875 22.285156 -6.5625 22.453125 -7.4375 L 22.890625 -9.890625 L 22.578125 -9.890625 C 21.410156 -6.585938 19.890625 -4 18.015625 -2.125 C 16.140625 -0.25 13.910156 0.6875 11.328125 0.6875 Z M 13.453125 -3.0625 C 15.910156 -3.0625 18.085938 -4.769531 19.984375 -8.1875 C 21.878906 -11.613281 23.625 -16.265625 25.21875 -22.140625 C 25.257812 -22.429688 25.28125 -22.847656 25.28125 -23.390625 C 25.28125 -25.648438 24.742188 -27.414062 23.671875 -28.6875 C 22.609375 -29.957031 21.367188 -30.59375 19.953125 -30.59375 C 17.785156 -30.59375 15.804688 -29.5625 14.015625 -27.5 C 12.222656 -25.4375 10.828125 -22.878906 9.828125 -19.828125 C 8.828125 -16.785156 8.328125 -13.867188 8.328125 -11.078125 C 8.328125 -8.648438 8.753906 -6.707031 9.609375 -5.25 C 10.460938 -3.789062 11.742188 -3.0625 13.453125 -3.0625 Z M 13.453125 -3.0625 "/></g></g></g><g fill="#ff9e2c" fill-opacity="1"><g transform="translate(377.555725, 50.960733)"><g><path d="M -1 12.203125 C 0.414062 10.660156 1.332031 8.71875 1.75 6.375 L 6.625 -21.390625 C 6.914062 -22.898438 7.0625 -24.15625 7.0625 -25.15625 C 7.0625 -26.03125 6.925781 -26.707031 6.65625 -27.1875 C 6.382812 -27.664062 5.957031 -28.15625 5.375 -28.65625 L 5.4375 -28.96875 L 13.640625 -31.96875 L 13.953125 -31.96875 L 11.890625 -20.515625 L 12.203125 -20.515625 C 13.535156 -24.148438 15.253906 -26.96875 17.359375 -28.96875 C 19.460938 -30.96875 21.707031 -31.96875 24.09375 -31.96875 C 26.71875 -31.96875 28.789062 -30.957031 30.3125 -28.9375 C 31.832031 -26.914062 32.59375 -24.296875 32.59375 -21.078125 C 32.59375 -17.578125 31.851562 -14.144531 30.375 -10.78125 C 28.894531 -7.425781 26.816406 -4.675781 24.140625 -2.53125 C 21.472656 -0.382812 18.472656 0.6875 15.140625 0.6875 C 12.554688 0.6875 10.367188 -0.125 8.578125 -1.75 L 7.125 6.375 C 6.957031 7.164062 6.875 8.003906 6.875 8.890625 C 6.875 10.222656 7.125 11.328125 7.625 12.203125 L 7.5625 12.515625 L -1 12.515625 Z M 14.953125 -0.6875 C 17.035156 -0.6875 18.972656 -1.769531 20.765625 -3.9375 C 22.554688 -6.101562 23.984375 -8.789062 25.046875 -12 C 26.117188 -15.21875 26.65625 -18.265625 26.65625 -21.140625 C 26.65625 -23.441406 26.25 -25.195312 25.4375 -26.40625 C 24.625 -27.613281 23.523438 -28.21875 22.140625 -28.21875 C 19.640625 -28.21875 17.273438 -26.347656 15.046875 -22.609375 C 12.816406 -18.878906 11.015625 -14.203125 9.640625 -8.578125 C 9.597656 -8.328125 9.578125 -7.945312 9.578125 -7.4375 C 9.578125 -5.3125 10.078125 -3.65625 11.078125 -2.46875 C 12.078125 -1.28125 13.367188 -0.6875 14.953125 -0.6875 Z M 14.953125 -0.6875 "/></g></g></g><g fill="#ff9e2c" fill-opacity="1"><g transform="translate(412.40501, 50.960733)"><g><path d="M 16.828125 -3.0625 C 18.492188 -3.0625 20.085938 -3.507812 21.609375 -4.40625 C 23.140625 -5.300781 24.46875 -6.691406 25.59375 -8.578125 L 26.28125 -8.578125 C 25.613281 -6.109375 24.265625 -3.945312 22.234375 -2.09375 C 20.210938 -0.238281 17.742188 0.6875 14.828125 0.6875 C 12.492188 0.6875 10.4375 0.144531 8.65625 -0.9375 C 6.882812 -2.019531 5.5 -3.550781 4.5 -5.53125 C 3.5 -7.519531 3 -9.804688 3 -12.390625 C 3 -15.972656 3.726562 -19.253906 5.1875 -22.234375 C 6.644531 -25.222656 8.65625 -27.59375 11.21875 -29.34375 C 13.789062 -31.09375 16.617188 -31.96875 19.703125 -31.96875 C 22.546875 -31.96875 24.664062 -31.382812 26.0625 -30.21875 C 27.457031 -29.050781 28.15625 -27.613281 28.15625 -25.90625 C 28.15625 -21.769531 24.859375 -18.953125 18.265625 -17.453125 C 15.804688 -16.867188 12.617188 -16.554688 8.703125 -16.515625 C 8.660156 -16.054688 8.640625 -15.390625 8.640625 -14.515625 C 8.640625 -10.929688 9.328125 -8.125 10.703125 -6.09375 C 12.078125 -4.070312 14.117188 -3.0625 16.828125 -3.0625 Z M 18.578125 -30.28125 C 16.035156 -30.28125 13.898438 -29.097656 12.171875 -26.734375 C 10.441406 -24.378906 9.347656 -21.453125 8.890625 -17.953125 C 12.347656 -17.992188 15.117188 -18.390625 17.203125 -19.140625 C 18.910156 -19.722656 20.222656 -20.660156 21.140625 -21.953125 C 22.054688 -23.253906 22.515625 -24.65625 22.515625 -26.15625 C 22.515625 -27.445312 22.191406 -28.457031 21.546875 -29.1875 C 20.898438 -29.914062 19.910156 -30.28125 18.578125 -30.28125 Z M 18.578125 -30.28125 "/></g></g></g><g fill="#ff9e2c" fill-opacity="1"><g transform="translate(441.873607, 50.960733)"><g/></g></g><g fill="#ff9e2c" fill-opacity="1"><g transform="translate(457.515105, 50.960733)"><g><path d="M 2.25 -0.3125 C 2.957031 -1.0625 3.59375 -2 4.15625 -3.125 C 4.71875 -4.25 5.125 -5.394531 5.375 -6.5625 L 11.328125 -37.21875 C 11.453125 -37.96875 11.515625 -38.679688 11.515625 -39.359375 C 11.515625 -40.941406 11.222656 -42.316406 10.640625 -43.484375 L 10.703125 -43.796875 L 25.09375 -43.796875 C 28.59375 -43.796875 31.71875 -43.171875 34.46875 -41.921875 C 37.21875 -40.671875 39.382812 -38.769531 40.96875 -36.21875 C 42.5625 -33.675781 43.359375 -30.570312 43.359375 -26.90625 C 43.359375 -21.0625 42.125 -16.101562 39.65625 -12.03125 C 37.195312 -7.96875 34.03125 -4.945312 30.15625 -2.96875 C 26.28125 -0.988281 22.253906 0 18.078125 0 L 2.1875 0 Z M 16.703125 -1.375 C 20.117188 -1.375 23.367188 -2.394531 26.453125 -4.4375 C 29.546875 -6.476562 32.050781 -9.507812 33.96875 -13.53125 C 35.882812 -17.5625 36.84375 -22.394531 36.84375 -28.03125 C 36.84375 -32.820312 35.707031 -36.414062 33.4375 -38.8125 C 31.164062 -41.21875 28.113281 -42.421875 24.28125 -42.421875 C 22.394531 -42.421875 20.304688 -42.109375 18.015625 -41.484375 L 10.453125 -2.3125 C 12.203125 -1.6875 14.285156 -1.375 16.703125 -1.375 Z M 16.703125 -1.375 "/></g></g></g><g fill="#ff9e2c" fill-opacity="1"><g transform="translate(502.249819, 50.960733)"><g><path d="M 16.828125 -3.0625 C 18.492188 -3.0625 20.085938 -3.507812 21.609375 -4.40625 C 23.140625 -5.300781 24.46875 -6.691406 25.59375 -8.578125 L 26.28125 -8.578125 C 25.613281 -6.109375 24.265625 -3.945312 22.234375 -2.09375 C 20.210938 -0.238281 17.742188 0.6875 14.828125 0.6875 C 12.492188 0.6875 10.4375 0.144531 8.65625 -0.9375 C 6.882812 -2.019531 5.5 -3.550781 4.5 -5.53125 C 3.5 -7.519531 3 -9.804688 3 -12.390625 C 3 -15.972656 3.726562 -19.253906 5.1875 -22.234375 C 6.644531 -25.222656 8.65625 -27.59375 11.21875 -29.34375 C 13.789062 -31.09375 16.617188 -31.96875 19.703125 -31.96875 C 22.546875 -31.96875 24.664062 -31.382812 26.0625 -30.21875 C 27.457031 -29.050781 28.15625 -27.613281 28.15625 -25.90625 C 28.15625 -21.769531 24.859375 -18.953125 18.265625 -17.453125 C 15.804688 -16.867188 12.617188 -16.554688 8.703125 -16.515625 C 8.660156 -16.054688 8.640625 -15.390625 8.640625 -14.515625 C 8.640625 -10.929688 9.328125 -8.125 10.703125 -6.09375 C 12.078125 -4.070312 14.117188 -3.0625 16.828125 -3.0625 Z M 18.578125 -30.28125 C 16.035156 -30.28125 13.898438 -29.097656 12.171875 -26.734375 C 10.441406 -24.378906 9.347656 -21.453125 8.890625 -17.953125 C 12.347656 -17.992188 15.117188 -18.390625 17.203125 -19.140625 C 18.910156 -19.722656 20.222656 -20.660156 21.140625 -21.953125 C 22.054688 -23.253906 22.515625 -24.65625 22.515625 -26.15625 C 22.515625 -27.445312 22.191406 -28.457031 21.546875 -29.1875 C 20.898438 -29.914062 19.910156 -30.28125 18.578125 -30.28125 Z M 18.578125 -30.28125 "/></g></g></g><g fill="#ff9e2c" fill-opacity="1"><g transform="translate(531.718416, 50.960733)"><g><path d="M 12.515625 0.6875 C 10.390625 0.6875 8.382812 0.34375 6.5 -0.34375 C 4.625 -1.03125 2.976562 -2.019531 1.5625 -3.3125 L 3.1875 -11.828125 L 3.8125 -11.828125 C 3.8125 -9.785156 4.21875 -7.925781 5.03125 -6.25 C 5.84375 -4.582031 6.925781 -3.269531 8.28125 -2.3125 C 9.644531 -1.351562 11.140625 -0.875 12.765625 -0.875 C 14.429688 -0.875 15.773438 -1.351562 16.796875 -2.3125 C 17.816406 -3.269531 18.328125 -4.476562 18.328125 -5.9375 C 18.328125 -7.0625 17.929688 -8.164062 17.140625 -9.25 C 16.347656 -10.34375 14.953125 -11.765625 12.953125 -13.515625 C 10.285156 -15.804688 8.394531 -17.660156 7.28125 -19.078125 C 6.175781 -20.492188 5.625 -22.082031 5.625 -23.84375 C 5.625 -26.300781 6.570312 -28.269531 8.46875 -29.75 C 10.375 -31.226562 12.703125 -31.96875 15.453125 -31.96875 C 17.285156 -31.96875 19.003906 -31.6875 20.609375 -31.125 C 22.210938 -30.5625 23.539062 -29.863281 24.59375 -29.03125 L 23.140625 -21.703125 L 22.515625 -21.703125 C 22.429688 -24.460938 21.703125 -26.613281 20.328125 -28.15625 C 18.953125 -29.695312 17.203125 -30.46875 15.078125 -30.46875 C 13.492188 -30.46875 12.203125 -30.050781 11.203125 -29.21875 C 10.203125 -28.382812 9.703125 -27.257812 9.703125 -25.84375 C 9.703125 -25.132812 9.859375 -24.503906 10.171875 -23.953125 C 10.484375 -23.410156 11.054688 -22.742188 11.890625 -21.953125 C 12.722656 -21.160156 14.097656 -19.972656 16.015625 -18.390625 C 18.304688 -16.515625 19.972656 -14.867188 21.015625 -13.453125 C 22.054688 -12.035156 22.578125 -10.328125 22.578125 -8.328125 C 22.578125 -5.484375 21.671875 -3.269531 19.859375 -1.6875 C 18.046875 -0.101562 15.597656 0.6875 12.515625 0.6875 Z M 12.515625 0.6875 "/></g></g></g><g fill="#ff9e2c" fill-opacity="1"><g transform="translate(558.308979, 50.960733)"><g><path d="M 8.453125 0.6875 C 7.066406 0.6875 5.957031 0.257812 5.125 -0.59375 C 4.289062 -1.445312 3.875 -2.832031 3.875 -4.75 C 3.875 -5.457031 3.976562 -6.4375 4.1875 -7.6875 L 6.8125 -21.390625 C 7.101562 -22.898438 7.25 -24.15625 7.25 -25.15625 C 7.25 -26.03125 7.125 -26.707031 6.875 -27.1875 C 6.625 -27.664062 6.207031 -28.15625 5.625 -28.65625 L 5.6875 -28.96875 L 13.953125 -31.96875 L 14.265625 -31.96875 L 9.265625 -6 C 9.097656 -5.164062 9.015625 -4.414062 9.015625 -3.75 C 9.015625 -2.664062 9.410156 -2.125 10.203125 -2.125 C 10.953125 -2.125 11.691406 -2.695312 12.421875 -3.84375 C 13.148438 -4.988281 13.910156 -6.671875 14.703125 -8.890625 L 15.765625 -8.890625 C 14.679688 -5.171875 13.554688 -2.644531 12.390625 -1.3125 C 11.222656 0.0195312 9.910156 0.6875 8.453125 0.6875 Z M 12.703125 -36.15625 C 11.742188 -36.15625 10.953125 -36.476562 10.328125 -37.125 C 9.703125 -37.769531 9.390625 -38.554688 9.390625 -39.484375 C 9.390625 -40.566406 9.785156 -41.492188 10.578125 -42.265625 C 11.367188 -43.035156 12.328125 -43.421875 13.453125 -43.421875 C 14.367188 -43.421875 15.128906 -43.097656 15.734375 -42.453125 C 16.335938 -41.804688 16.640625 -41.003906 16.640625 -40.046875 C 16.640625 -38.953125 16.253906 -38.03125 15.484375 -37.28125 C 14.710938 -36.53125 13.785156 -36.15625 12.703125 -36.15625 Z M 12.703125 -36.15625 "/></g></g></g><g fill="#ff9e2c" fill-opacity="1"><g transform="translate(576.640796, 50.960733)"><g><path d="M 32.15625 -32.28125 L 31.46875 -28.34375 C 30.050781 -28.59375 28.84375 -28.71875 27.84375 -28.71875 C 26.800781 -28.71875 25.757812 -28.570312 24.71875 -28.28125 C 25.84375 -26.738281 26.40625 -24.898438 26.40625 -22.765625 C 26.40625 -20.679688 25.878906 -18.734375 24.828125 -16.921875 C 23.785156 -15.109375 22.367188 -13.671875 20.578125 -12.609375 C 18.785156 -11.546875 16.847656 -11.015625 14.765625 -11.015625 C 12.429688 -11.015625 10.492188 -11.515625 8.953125 -12.515625 C 7.859375 -11.597656 7.3125 -10.617188 7.3125 -9.578125 C 7.3125 -8.742188 7.78125 -8.007812 8.71875 -7.375 C 9.664062 -6.75 11.597656 -6.125 14.515625 -5.5 C 17.765625 -4.789062 20.253906 -4.03125 21.984375 -3.21875 C 23.722656 -2.40625 24.894531 -1.53125 25.5 -0.59375 C 26.101562 0.34375 26.40625 1.414062 26.40625 2.625 C 26.40625 4.289062 25.710938 5.9375 24.328125 7.5625 C 22.953125 9.195312 21.023438 10.535156 18.546875 11.578125 C 16.066406 12.617188 13.242188 13.140625 10.078125 13.140625 C 6.234375 13.140625 3.3125 12.546875 1.3125 11.359375 C -0.6875 10.171875 -1.6875 8.507812 -1.6875 6.375 C -1.6875 4.25 -0.820312 2.40625 0.90625 0.84375 C 2.632812 -0.71875 4.601562 -1.875 6.8125 -2.625 C 4.6875 -3.789062 3.625 -5.351562 3.625 -7.3125 C 3.625 -9.78125 5.066406 -11.742188 7.953125 -13.203125 C 5.859375 -14.867188 4.8125 -17.203125 4.8125 -20.203125 C 4.8125 -22.285156 5.332031 -24.234375 6.375 -26.046875 C 7.425781 -27.867188 8.835938 -29.3125 10.609375 -30.375 C 12.378906 -31.4375 14.304688 -31.96875 16.390625 -31.96875 C 17.972656 -31.96875 19.410156 -31.71875 20.703125 -31.21875 C 21.992188 -30.71875 23.101562 -30.007812 24.03125 -29.09375 C 24.988281 -30.050781 26.144531 -30.820312 27.5 -31.40625 C 28.851562 -31.988281 30.28125 -32.28125 31.78125 -32.28125 Z M 14.828125 -12.328125 C 15.992188 -12.328125 17.054688 -12.773438 18.015625 -13.671875 C 18.972656 -14.566406 19.742188 -15.867188 20.328125 -17.578125 C 20.910156 -19.285156 21.203125 -21.332031 21.203125 -23.71875 C 21.203125 -25.800781 20.785156 -27.476562 19.953125 -28.75 C 19.117188 -30.019531 17.929688 -30.65625 16.390625 -30.65625 C 15.222656 -30.65625 14.160156 -30.207031 13.203125 -29.3125 C 12.242188 -28.414062 11.472656 -27.109375 10.890625 -25.390625 C 10.304688 -23.679688 10.015625 -21.640625 10.015625 -19.265625 C 10.015625 -17.179688 10.429688 -15.503906 11.265625 -14.234375 C 12.097656 -12.960938 13.285156 -12.328125 14.828125 -12.328125 Z M 21.953125 4.625 C 21.953125 3.75 21.742188 3.050781 21.328125 2.53125 C 20.910156 2.007812 20.054688 1.5 18.765625 1 C 17.472656 0.5 15.535156 -0.0195312 12.953125 -0.5625 C 10.953125 -0.976562 9.285156 -1.476562 7.953125 -2.0625 C 6.484375 -1.1875 5.300781 -0.1875 4.40625 0.9375 C 3.507812 2.0625 3.0625 3.414062 3.0625 5 C 3.0625 6.832031 3.800781 8.332031 5.28125 9.5 C 6.757812 10.675781 8.921875 11.265625 11.765625 11.265625 C 13.765625 11.265625 15.535156 10.953125 17.078125 10.328125 C 18.617188 9.703125 19.816406 8.875 20.671875 7.84375 C 21.523438 6.820312 21.953125 5.75 21.953125 4.625 Z M 21.953125 4.625 "/></g></g></g><g fill="#ff9e2c" fill-opacity="1"><g transform="translate(606.922759, 50.960733)"><g><path d="M 26.71875 0.6875 C 25.46875 0.6875 24.441406 0.257812 23.640625 -0.59375 C 22.847656 -1.445312 22.453125 -2.726562 22.453125 -4.4375 C 22.453125 -5.519531 22.597656 -6.644531 22.890625 -7.8125 L 26.28125 -22.015625 C 26.445312 -22.679688 26.53125 -23.394531 26.53125 -24.15625 C 26.53125 -25.40625 26.21875 -26.363281 25.59375 -27.03125 C 24.96875 -27.695312 24.128906 -28.03125 23.078125 -28.03125 C 20.910156 -28.03125 18.773438 -26.722656 16.671875 -24.109375 C 14.566406 -21.503906 12.617188 -17.304688 10.828125 -11.515625 L 8.578125 0 L 3.1875 0 L 7.3125 -21.390625 C 7.644531 -23.191406 7.8125 -24.488281 7.8125 -25.28125 C 7.8125 -26.113281 7.6875 -26.757812 7.4375 -27.21875 C 7.1875 -27.675781 6.75 -28.15625 6.125 -28.65625 L 6.1875 -28.96875 L 14.453125 -31.96875 L 14.765625 -31.96875 L 12.515625 -20.265625 L 12.828125 -20.265625 C 14.285156 -23.984375 16.054688 -26.863281 18.140625 -28.90625 C 20.222656 -30.945312 22.519531 -31.96875 25.03125 -31.96875 C 27.070312 -31.96875 28.726562 -31.382812 30 -30.21875 C 31.269531 -29.050781 31.90625 -27.195312 31.90625 -24.65625 C 31.90625 -23.1875 31.695312 -21.617188 31.28125 -19.953125 L 27.71875 -5.125 C 27.59375 -4.582031 27.53125 -4.101562 27.53125 -3.6875 C 27.53125 -2.644531 27.925781 -2.125 28.71875 -2.125 C 29.507812 -2.125 30.257812 -2.6875 30.96875 -3.8125 C 31.675781 -4.9375 32.445312 -6.628906 33.28125 -8.890625 L 34.34375 -8.890625 C 33.59375 -6.296875 32.820312 -4.3125 32.03125 -2.9375 C 31.238281 -1.5625 30.425781 -0.613281 29.59375 -0.09375 C 28.757812 0.425781 27.800781 0.6875 26.71875 0.6875 Z M 26.71875 0.6875 "/></g></g></g><g fill="#ff9e2c" fill-opacity="1"><g transform="translate(644.024403, 50.960733)"><g><path d="M 12.515625 0.6875 C 10.390625 0.6875 8.382812 0.34375 6.5 -0.34375 C 4.625 -1.03125 2.976562 -2.019531 1.5625 -3.3125 L 3.1875 -11.828125 L 3.8125 -11.828125 C 3.8125 -9.785156 4.21875 -7.925781 5.03125 -6.25 C 5.84375 -4.582031 6.925781 -3.269531 8.28125 -2.3125 C 9.644531 -1.351562 11.140625 -0.875 12.765625 -0.875 C 14.429688 -0.875 15.773438 -1.351562 16.796875 -2.3125 C 17.816406 -3.269531 18.328125 -4.476562 18.328125 -5.9375 C 18.328125 -7.0625 17.929688 -8.164062 17.140625 -9.25 C 16.347656 -10.34375 14.953125 -11.765625 12.953125 -13.515625 C 10.285156 -15.804688 8.394531 -17.660156 7.28125 -19.078125 C 6.175781 -20.492188 5.625 -22.082031 5.625 -23.84375 C 5.625 -26.300781 6.570312 -28.269531 8.46875 -29.75 C 10.375 -31.226562 12.703125 -31.96875 15.453125 -31.96875 C 17.285156 -31.96875 19.003906 -31.6875 20.609375 -31.125 C 22.210938 -30.5625 23.539062 -29.863281 24.59375 -29.03125 L 23.140625 -21.703125 L 22.515625 -21.703125 C 22.429688 -24.460938 21.703125 -26.613281 20.328125 -28.15625 C 18.953125 -29.695312 17.203125 -30.46875 15.078125 -30.46875 C 13.492188 -30.46875 12.203125 -30.050781 11.203125 -29.21875 C 10.203125 -28.382812 9.703125 -27.257812 9.703125 -25.84375 C 9.703125 -25.132812 9.859375 -24.503906 10.171875 -23.953125 C 10.484375 -23.410156 11.054688 -22.742188 11.890625 -21.953125 C 12.722656 -21.160156 14.097656 -19.972656 16.015625 -18.390625 C 18.304688 -16.515625 19.972656 -14.867188 21.015625 -13.453125 C 22.054688 -12.035156 22.578125 -10.328125 22.578125 -8.328125 C 22.578125 -5.484375 21.671875 -3.269531 19.859375 -1.6875 C 18.046875 -0.101562 15.597656 0.6875 12.515625 0.6875 Z M 12.515625 0.6875 "/></g></g></g><g fill="#ff9e2c" fill-opacity="1"><g transform="translate(91.128403, 102.577754)"><g><path d="M 13.984375 0.40625 C 12.285156 0.40625 10.722656 0.09375 9.296875 -0.53125 C 7.878906 -1.15625 6.644531 -2.003906 5.59375 -3.078125 C 4.550781 -4.160156 3.734375 -5.4375 3.140625 -6.90625 C 2.554688 -8.375 2.265625 -9.941406 2.265625 -11.609375 L 2.265625 -11.671875 C 2.265625 -13.316406 2.554688 -14.875 3.140625 -16.34375 C 3.734375 -17.8125 4.550781 -19.09375 5.59375 -20.1875 C 6.644531 -21.289062 7.894531 -22.160156 9.34375 -22.796875 C 10.789062 -23.429688 12.367188 -23.75 14.078125 -23.75 C 15.140625 -23.75 16.097656 -23.660156 16.953125 -23.484375 C 17.816406 -23.304688 18.613281 -23.054688 19.34375 -22.734375 C 20.082031 -22.410156 20.757812 -22.019531 21.375 -21.5625 C 22 -21.113281 22.601562 -20.609375 23.1875 -20.046875 L 21.390625 -18.109375 C 20.378906 -19.046875 19.300781 -19.8125 18.15625 -20.40625 C 17.019531 -21.007812 15.648438 -21.3125 14.046875 -21.3125 C 12.753906 -21.3125 11.554688 -21.066406 10.453125 -20.578125 C 9.359375 -20.085938 8.40625 -19.410156 7.59375 -18.546875 C 6.78125 -17.679688 6.144531 -16.664062 5.6875 -15.5 C 5.226562 -14.332031 5 -13.082031 5 -11.75 L 5 -11.671875 C 5 -10.316406 5.226562 -9.054688 5.6875 -7.890625 C 6.144531 -6.722656 6.78125 -5.703125 7.59375 -4.828125 C 8.40625 -3.960938 9.359375 -3.28125 10.453125 -2.78125 C 11.554688 -2.28125 12.753906 -2.03125 14.046875 -2.03125 C 15.648438 -2.03125 17.03125 -2.320312 18.1875 -2.90625 C 19.34375 -3.5 20.472656 -4.332031 21.578125 -5.40625 L 23.3125 -3.703125 C 22.71875 -3.078125 22.09375 -2.515625 21.4375 -2.015625 C 20.78125 -1.515625 20.070312 -1.085938 19.3125 -0.734375 C 18.5625 -0.378906 17.75 -0.101562 16.875 0.09375 C 16.007812 0.300781 15.046875 0.40625 13.984375 0.40625 Z M 13.984375 0.40625 "/></g></g></g><g fill="#ff9e2c" fill-opacity="1"><g transform="translate(120.086363, 102.577754)"><g><path d="M 3.109375 -24.359375 L 5.671875 -24.359375 L 5.671875 0 L 3.109375 0 Z M 3.109375 -24.359375 "/></g></g></g><g fill="#ff9e2c" fill-opacity="1"><g transform="translate(133.064606, 102.577754)"><g><path d="M 10.40625 0.40625 C 9.226562 0.40625 8.113281 0.1875 7.0625 -0.25 C 6.019531 -0.6875 5.109375 -1.296875 4.328125 -2.078125 C 3.554688 -2.867188 2.941406 -3.816406 2.484375 -4.921875 C 2.023438 -6.023438 1.796875 -7.242188 1.796875 -8.578125 L 1.796875 -8.640625 C 1.796875 -9.890625 2 -11.054688 2.40625 -12.140625 C 2.820312 -13.234375 3.394531 -14.1875 4.125 -15 C 4.863281 -15.8125 5.738281 -16.445312 6.75 -16.90625 C 7.757812 -17.375 8.867188 -17.609375 10.078125 -17.609375 C 11.335938 -17.609375 12.46875 -17.367188 13.46875 -16.890625 C 14.476562 -16.410156 15.328125 -15.757812 16.015625 -14.9375 C 16.703125 -14.113281 17.222656 -13.148438 17.578125 -12.046875 C 17.929688 -10.953125 18.109375 -9.769531 18.109375 -8.5 C 18.109375 -8.320312 18.109375 -8.175781 18.109375 -8.0625 C 18.109375 -7.957031 18.097656 -7.828125 18.078125 -7.671875 L 4.40625 -7.671875 C 4.488281 -6.734375 4.707031 -5.90625 5.0625 -5.1875 C 5.425781 -4.46875 5.878906 -3.859375 6.421875 -3.359375 C 6.960938 -2.859375 7.578125 -2.476562 8.265625 -2.21875 C 8.960938 -1.957031 9.695312 -1.828125 10.46875 -1.828125 C 11.675781 -1.828125 12.707031 -2.050781 13.5625 -2.5 C 14.414062 -2.945312 15.195312 -3.535156 15.90625 -4.265625 L 17.515625 -2.828125 C 16.648438 -1.859375 15.660156 -1.078125 14.546875 -0.484375 C 13.429688 0.109375 12.050781 0.40625 10.40625 0.40625 Z M 15.515625 -9.578125 C 15.441406 -10.347656 15.273438 -11.085938 15.015625 -11.796875 C 14.765625 -12.515625 14.410156 -13.140625 13.953125 -13.671875 C 13.503906 -14.210938 12.953125 -14.644531 12.296875 -14.96875 C 11.640625 -15.289062 10.875 -15.453125 10 -15.453125 C 9.25 -15.453125 8.550781 -15.300781 7.90625 -15 C 7.257812 -14.695312 6.691406 -14.285156 6.203125 -13.765625 C 5.710938 -13.242188 5.3125 -12.625 5 -11.90625 C 4.6875 -11.195312 4.488281 -10.421875 4.40625 -9.578125 Z M 15.515625 -9.578125 "/></g></g></g><g fill="#ff9e2c" fill-opacity="1"><g transform="translate(157.018479, 102.577754)"><g><path d="M 8 0.359375 C 7.207031 0.359375 6.425781 0.25 5.65625 0.03125 C 4.882812 -0.1875 4.191406 -0.523438 3.578125 -0.984375 C 2.972656 -1.441406 2.484375 -2.003906 2.109375 -2.671875 C 1.742188 -3.335938 1.5625 -4.113281 1.5625 -5 L 1.5625 -5.078125 C 1.5625 -5.984375 1.738281 -6.78125 2.09375 -7.46875 C 2.457031 -8.15625 2.96875 -8.734375 3.625 -9.203125 C 4.28125 -9.671875 5.054688 -10.023438 5.953125 -10.265625 C 6.859375 -10.515625 7.851562 -10.640625 8.9375 -10.640625 C 10.050781 -10.640625 11.019531 -10.570312 11.84375 -10.4375 C 12.664062 -10.300781 13.46875 -10.125 14.25 -9.90625 L 14.25 -10.515625 C 14.25 -12.066406 13.796875 -13.238281 12.890625 -14.03125 C 11.992188 -14.820312 10.734375 -15.21875 9.109375 -15.21875 C 8.085938 -15.21875 7.160156 -15.097656 6.328125 -14.859375 C 5.492188 -14.628906 4.675781 -14.320312 3.875 -13.9375 L 3.109375 -16.046875 C 4.054688 -16.492188 5.019531 -16.84375 6 -17.09375 C 6.976562 -17.351562 8.101562 -17.484375 9.375 -17.484375 C 11.820312 -17.484375 13.675781 -16.847656 14.9375 -15.578125 C 16.125 -14.398438 16.71875 -12.722656 16.71875 -10.546875 L 16.71875 0 L 14.25 0 L 14.25 -2.609375 C 13.644531 -1.828125 12.835938 -1.132812 11.828125 -0.53125 C 10.816406 0.0625 9.539062 0.359375 8 0.359375 Z M 8.5 -1.671875 C 9.300781 -1.671875 10.050781 -1.785156 10.75 -2.015625 C 11.457031 -2.253906 12.070312 -2.578125 12.59375 -2.984375 C 13.113281 -3.398438 13.523438 -3.890625 13.828125 -4.453125 C 14.128906 -5.015625 14.28125 -5.644531 14.28125 -6.34375 L 14.28125 -8 C 13.632812 -8.175781 12.894531 -8.34375 12.0625 -8.5 C 11.226562 -8.65625 10.273438 -8.734375 9.203125 -8.734375 C 7.578125 -8.734375 6.332031 -8.410156 5.46875 -7.765625 C 4.601562 -7.128906 4.171875 -6.265625 4.171875 -5.171875 L 4.171875 -5.109375 C 4.171875 -4.566406 4.285156 -4.078125 4.515625 -3.640625 C 4.753906 -3.210938 5.070312 -2.851562 5.46875 -2.5625 C 5.875 -2.28125 6.335938 -2.0625 6.859375 -1.90625 C 7.378906 -1.75 7.925781 -1.671875 8.5 -1.671875 Z M 8.5 -1.671875 "/></g></g></g><g fill="#ff9e2c" fill-opacity="1"><g transform="translate(180.538663, 102.577754)"><g><path d="M 2.875 -17.25 L 5.4375 -17.25 L 5.4375 -12.75 C 5.75 -13.457031 6.140625 -14.109375 6.609375 -14.703125 C 7.078125 -15.304688 7.609375 -15.820312 8.203125 -16.25 C 8.804688 -16.6875 9.460938 -17.015625 10.171875 -17.234375 C 10.878906 -17.460938 11.644531 -17.566406 12.46875 -17.546875 L 12.46875 -14.78125 L 12.28125 -14.78125 C 11.34375 -14.78125 10.457031 -14.613281 9.625 -14.28125 C 8.789062 -13.945312 8.0625 -13.445312 7.4375 -12.78125 C 6.8125 -12.113281 6.320312 -11.285156 5.96875 -10.296875 C 5.613281 -9.304688 5.4375 -8.164062 5.4375 -6.875 L 5.4375 0 L 2.875 0 Z M 2.875 -17.25 "/></g></g></g><g fill="#ff9e2c" fill-opacity="1"><g transform="translate(195.251421, 102.577754)"><g><path d="M 2.53125 -3.5 L 5.609375 -3.5 L 5.609375 0 L 2.53125 0 Z M 2.53125 -3.5 "/></g></g></g><g fill="#ff9e2c" fill-opacity="1"><g transform="translate(206.2613, 102.577754)"><g><path d="M 13.984375 0.40625 C 12.285156 0.40625 10.722656 0.09375 9.296875 -0.53125 C 7.878906 -1.15625 6.644531 -2.003906 5.59375 -3.078125 C 4.550781 -4.160156 3.734375 -5.4375 3.140625 -6.90625 C 2.554688 -8.375 2.265625 -9.941406 2.265625 -11.609375 L 2.265625 -11.671875 C 2.265625 -13.316406 2.554688 -14.875 3.140625 -16.34375 C 3.734375 -17.8125 4.550781 -19.09375 5.59375 -20.1875 C 6.644531 -21.289062 7.894531 -22.160156 9.34375 -22.796875 C 10.789062 -23.429688 12.367188 -23.75 14.078125 -23.75 C 15.140625 -23.75 16.097656 -23.660156 16.953125 -23.484375 C 17.816406 -23.304688 18.613281 -23.054688 19.34375 -22.734375 C 20.082031 -22.410156 20.757812 -22.019531 21.375 -21.5625 C 22 -21.113281 22.601562 -20.609375 23.1875 -20.046875 L 21.390625 -18.109375 C 20.378906 -19.046875 19.300781 -19.8125 18.15625 -20.40625 C 17.019531 -21.007812 15.648438 -21.3125 14.046875 -21.3125 C 12.753906 -21.3125 11.554688 -21.066406 10.453125 -20.578125 C 9.359375 -20.085938 8.40625 -19.410156 7.59375 -18.546875 C 6.78125 -17.679688 6.144531 -16.664062 5.6875 -15.5 C 5.226562 -14.332031 5 -13.082031 5 -11.75 L 5 -11.671875 C 5 -10.316406 5.226562 -9.054688 5.6875 -7.890625 C 6.144531 -6.722656 6.78125 -5.703125 7.59375 -4.828125 C 8.40625 -3.960938 9.359375 -3.28125 10.453125 -2.78125 C 11.554688 -2.28125 12.753906 -2.03125 14.046875 -2.03125 C 15.648438 -2.03125 17.03125 -2.320312 18.1875 -2.90625 C 19.34375 -3.5 20.472656 -4.332031 21.578125 -5.40625 L 23.3125 -3.703125 C 22.71875 -3.078125 22.09375 -2.515625 21.4375 -2.015625 C 20.78125 -1.515625 20.070312 -1.085938 19.3125 -0.734375 C 18.5625 -0.378906 17.75 -0.101562 16.875 0.09375 C 16.007812 0.300781 15.046875 0.40625 13.984375 0.40625 Z M 13.984375 0.40625 "/></g></g></g><g fill="#ff9e2c" fill-opacity="1"><g transform="translate(235.21926, 102.577754)"><g><path d="M 2.875 -17.25 L 5.4375 -17.25 L 5.4375 -12.75 C 5.75 -13.457031 6.140625 -14.109375 6.609375 -14.703125 C 7.078125 -15.304688 7.609375 -15.820312 8.203125 -16.25 C 8.804688 -16.6875 9.460938 -17.015625 10.171875 -17.234375 C 10.878906 -17.460938 11.644531 -17.566406 12.46875 -17.546875 L 12.46875 -14.78125 L 12.28125 -14.78125 C 11.34375 -14.78125 10.457031 -14.613281 9.625 -14.28125 C 8.789062 -13.945312 8.0625 -13.445312 7.4375 -12.78125 C 6.8125 -12.113281 6.320312 -11.285156 5.96875 -10.296875 C 5.613281 -9.304688 5.4375 -8.164062 5.4375 -6.875 L 5.4375 0 L 2.875 0 Z M 2.875 -17.25 "/></g></g></g><g fill="#ff9e2c" fill-opacity="1"><g transform="translate(252.200727, 102.577754)"><g><path d="M 10.40625 0.40625 C 9.226562 0.40625 8.113281 0.1875 7.0625 -0.25 C 6.019531 -0.6875 5.109375 -1.296875 4.328125 -2.078125 C 3.554688 -2.867188 2.941406 -3.816406 2.484375 -4.921875 C 2.023438 -6.023438 1.796875 -7.242188 1.796875 -8.578125 L 1.796875 -8.640625 C 1.796875 -9.890625 2 -11.054688 2.40625 -12.140625 C 2.820312 -13.234375 3.394531 -14.1875 4.125 -15 C 4.863281 -15.8125 5.738281 -16.445312 6.75 -16.90625 C 7.757812 -17.375 8.867188 -17.609375 10.078125 -17.609375 C 11.335938 -17.609375 12.46875 -17.367188 13.46875 -16.890625 C 14.476562 -16.410156 15.328125 -15.757812 16.015625 -14.9375 C 16.703125 -14.113281 17.222656 -13.148438 17.578125 -12.046875 C 17.929688 -10.953125 18.109375 -9.769531 18.109375 -8.5 C 18.109375 -8.320312 18.109375 -8.175781 18.109375 -8.0625 C 18.109375 -7.957031 18.097656 -7.828125 18.078125 -7.671875 L 4.40625 -7.671875 C 4.488281 -6.734375 4.707031 -5.90625 5.0625 -5.1875 C 5.425781 -4.46875 5.878906 -3.859375 6.421875 -3.359375 C 6.960938 -2.859375 7.578125 -2.476562 8.265625 -2.21875 C 8.960938 -1.957031 9.695312 -1.828125 10.46875 -1.828125 C 11.675781 -1.828125 12.707031 -2.050781 13.5625 -2.5 C 14.414062 -2.945312 15.195312 -3.535156 15.90625 -4.265625 L 17.515625 -2.828125 C 16.648438 -1.859375 15.660156 -1.078125 14.546875 -0.484375 C 13.429688 0.109375 12.050781 0.40625 10.40625 0.40625 Z M 15.515625 -9.578125 C 15.441406 -10.347656 15.273438 -11.085938 15.015625 -11.796875 C 14.765625 -12.515625 14.410156 -13.140625 13.953125 -13.671875 C 13.503906 -14.210938 12.953125 -14.644531 12.296875 -14.96875 C 11.640625 -15.289062 10.875 -15.453125 10 -15.453125 C 9.25 -15.453125 8.550781 -15.300781 7.90625 -15 C 7.257812 -14.695312 6.691406 -14.285156 6.203125 -13.765625 C 5.710938 -13.242188 5.3125 -12.625 5 -11.90625 C 4.6875 -11.195312 4.488281 -10.421875 4.40625 -9.578125 Z M 15.515625 -9.578125 "/></g></g></g><g fill="#ff9e2c" fill-opacity="1"><g transform="translate(276.154599, 102.577754)"><g><path d="M 8 0.359375 C 7.207031 0.359375 6.425781 0.25 5.65625 0.03125 C 4.882812 -0.1875 4.191406 -0.523438 3.578125 -0.984375 C 2.972656 -1.441406 2.484375 -2.003906 2.109375 -2.671875 C 1.742188 -3.335938 1.5625 -4.113281 1.5625 -5 L 1.5625 -5.078125 C 1.5625 -5.984375 1.738281 -6.78125 2.09375 -7.46875 C 2.457031 -8.15625 2.96875 -8.734375 3.625 -9.203125 C 4.28125 -9.671875 5.054688 -10.023438 5.953125 -10.265625 C 6.859375 -10.515625 7.851562 -10.640625 8.9375 -10.640625 C 10.050781 -10.640625 11.019531 -10.570312 11.84375 -10.4375 C 12.664062 -10.300781 13.46875 -10.125 14.25 -9.90625 L 14.25 -10.515625 C 14.25 -12.066406 13.796875 -13.238281 12.890625 -14.03125 C 11.992188 -14.820312 10.734375 -15.21875 9.109375 -15.21875 C 8.085938 -15.21875 7.160156 -15.097656 6.328125 -14.859375 C 5.492188 -14.628906 4.675781 -14.320312 3.875 -13.9375 L 3.109375 -16.046875 C 4.054688 -16.492188 5.019531 -16.84375 6 -17.09375 C 6.976562 -17.351562 8.101562 -17.484375 9.375 -17.484375 C 11.820312 -17.484375 13.675781 -16.847656 14.9375 -15.578125 C 16.125 -14.398438 16.71875 -12.722656 16.71875 -10.546875 L 16.71875 0 L 14.25 0 L 14.25 -2.609375 C 13.644531 -1.828125 12.835938 -1.132812 11.828125 -0.53125 C 10.816406 0.0625 9.539062 0.359375 8 0.359375 Z M 8.5 -1.671875 C 9.300781 -1.671875 10.050781 -1.785156 10.75 -2.015625 C 11.457031 -2.253906 12.070312 -2.578125 12.59375 -2.984375 C 13.113281 -3.398438 13.523438 -3.890625 13.828125 -4.453125 C 14.128906 -5.015625 14.28125 -5.644531 14.28125 -6.34375 L 14.28125 -8 C 13.632812 -8.175781 12.894531 -8.34375 12.0625 -8.5 C 11.226562 -8.65625 10.273438 -8.734375 9.203125 -8.734375 C 7.578125 -8.734375 6.332031 -8.410156 5.46875 -7.765625 C 4.601562 -7.128906 4.171875 -6.265625 4.171875 -5.171875 L 4.171875 -5.109375 C 4.171875 -4.566406 4.285156 -4.078125 4.515625 -3.640625 C 4.753906 -3.210938 5.070312 -2.851562 5.46875 -2.5625 C 5.875 -2.28125 6.335938 -2.0625 6.859375 -1.90625 C 7.378906 -1.75 7.925781 -1.671875 8.5 -1.671875 Z M 8.5 -1.671875 "/></g></g></g><g fill="#ff9e2c" fill-opacity="1"><g transform="translate(299.507976, 102.577754)"><g><path d="M 8.640625 0.296875 C 7.953125 0.296875 7.304688 0.207031 6.703125 0.03125 C 6.097656 -0.144531 5.578125 -0.425781 5.140625 -0.8125 C 4.710938 -1.207031 4.375 -1.710938 4.125 -2.328125 C 3.882812 -2.953125 3.765625 -3.695312 3.765625 -4.5625 L 3.765625 -14.984375 L 1.375 -14.984375 L 1.375 -17.25 L 3.765625 -17.25 L 3.765625 -22.453125 L 6.34375 -22.453125 L 6.34375 -17.25 L 11.8125 -17.25 L 11.8125 -14.984375 L 6.34375 -14.984375 L 6.34375 -4.90625 C 6.34375 -3.832031 6.609375 -3.082031 7.140625 -2.65625 C 7.671875 -2.238281 8.367188 -2.03125 9.234375 -2.03125 C 9.679688 -2.03125 10.097656 -2.070312 10.484375 -2.15625 C 10.878906 -2.25 11.300781 -2.410156 11.75 -2.640625 L 11.75 -0.4375 C 11.300781 -0.1875 10.828125 -0.00390625 10.328125 0.109375 C 9.828125 0.234375 9.265625 0.296875 8.640625 0.296875 Z M 8.640625 0.296875 "/></g></g></g><g fill="#ff9e2c" fill-opacity="1"><g transform="translate(317.19006, 102.577754)"><g><path d="M 2.9375 -23.859375 L 5.875 -23.859375 L 5.875 -21.015625 L 2.9375 -21.015625 Z M 3.109375 -17.25 L 5.671875 -17.25 L 5.671875 0 L 3.109375 0 Z M 3.109375 -17.25 "/></g></g></g><g fill="#ff9e2c" fill-opacity="1"><g transform="translate(330.168303, 102.577754)"><g><path d="M 1.171875 -17.25 L 4 -17.25 L 9.8125 -2.9375 L 15.640625 -17.25 L 18.421875 -17.25 L 10.90625 0.140625 L 8.640625 0.140625 Z M 1.171875 -17.25 "/></g></g></g><g fill="#ff9e2c" fill-opacity="1"><g transform="translate(352.954479, 102.577754)"><g><path d="M 10.40625 0.40625 C 9.226562 0.40625 8.113281 0.1875 7.0625 -0.25 C 6.019531 -0.6875 5.109375 -1.296875 4.328125 -2.078125 C 3.554688 -2.867188 2.941406 -3.816406 2.484375 -4.921875 C 2.023438 -6.023438 1.796875 -7.242188 1.796875 -8.578125 L 1.796875 -8.640625 C 1.796875 -9.890625 2 -11.054688 2.40625 -12.140625 C 2.820312 -13.234375 3.394531 -14.1875 4.125 -15 C 4.863281 -15.8125 5.738281 -16.445312 6.75 -16.90625 C 7.757812 -17.375 8.867188 -17.609375 10.078125 -17.609375 C 11.335938 -17.609375 12.46875 -17.367188 13.46875 -16.890625 C 14.476562 -16.410156 15.328125 -15.757812 16.015625 -14.9375 C 16.703125 -14.113281 17.222656 -13.148438 17.578125 -12.046875 C 17.929688 -10.953125 18.109375 -9.769531 18.109375 -8.5 C 18.109375 -8.320312 18.109375 -8.175781 18.109375 -8.0625 C 18.109375 -7.957031 18.097656 -7.828125 18.078125 -7.671875 L 4.40625 -7.671875 C 4.488281 -6.734375 4.707031 -5.90625 5.0625 -5.1875 C 5.425781 -4.46875 5.878906 -3.859375 6.421875 -3.359375 C 6.960938 -2.859375 7.578125 -2.476562 8.265625 -2.21875 C 8.960938 -1.957031 9.695312 -1.828125 10.46875 -1.828125 C 11.675781 -1.828125 12.707031 -2.050781 13.5625 -2.5 C 14.414062 -2.945312 15.195312 -3.535156 15.90625 -4.265625 L 17.515625 -2.828125 C 16.648438 -1.859375 15.660156 -1.078125 14.546875 -0.484375 C 13.429688 0.109375 12.050781 0.40625 10.40625 0.40625 Z M 15.515625 -9.578125 C 15.441406 -10.347656 15.273438 -11.085938 15.015625 -11.796875 C 14.765625 -12.515625 14.410156 -13.140625 13.953125 -13.671875 C 13.503906 -14.210938 12.953125 -14.644531 12.296875 -14.96875 C 11.640625 -15.289062 10.875 -15.453125 10 -15.453125 C 9.25 -15.453125 8.550781 -15.300781 7.90625 -15 C 7.257812 -14.695312 6.691406 -14.285156 6.203125 -13.765625 C 5.710938 -13.242188 5.3125 -12.625 5 -11.90625 C 4.6875 -11.195312 4.488281 -10.421875 4.40625 -9.578125 Z M 15.515625 -9.578125 "/></g></g></g><g fill="#ff9e2c" fill-opacity="1"><g transform="translate(376.574714, 102.577754)"><g><path d="M 2.53125 -3.5 L 5.609375 -3.5 L 5.609375 0 L 2.53125 0 Z M 2.53125 -3.5 "/></g></g></g><g fill="#545454" fill-opacity="1"><g transform="translate(388.928317, 102.577754)"><g><path d="M 3.296875 -23.34375 L 13.25 -23.34375 C 14.582031 -23.34375 15.765625 -23.160156 16.796875 -22.796875 C 17.828125 -22.429688 18.675781 -21.925781 19.34375 -21.28125 C 20.34375 -20.238281 20.84375 -18.992188 20.84375 -17.546875 L 20.84375 -17.484375 C 20.84375 -16.722656 20.738281 -16.046875 20.53125 -15.453125 C 20.320312 -14.867188 20.035156 -14.359375 19.671875 -13.921875 C 19.316406 -13.492188 18.921875 -13.128906 18.484375 -12.828125 C 18.054688 -12.523438 17.609375 -12.273438 17.140625 -12.078125 C 17.835938 -11.878906 18.488281 -11.617188 19.09375 -11.296875 C 19.707031 -10.972656 20.234375 -10.585938 20.671875 -10.140625 C 21.117188 -9.691406 21.476562 -9.160156 21.75 -8.546875 C 22.019531 -7.941406 22.15625 -7.238281 22.15625 -6.4375 L 22.15625 -6.375 C 22.15625 -5.375 21.953125 -4.476562 21.546875 -3.6875 C 21.148438 -2.894531 20.578125 -2.226562 19.828125 -1.6875 C 19.085938 -1.144531 18.191406 -0.726562 17.140625 -0.4375 C 16.097656 -0.144531 14.941406 0 13.671875 0 L 3.296875 0 Z M 18.1875 -17.1875 C 18.1875 -18.34375 17.738281 -19.265625 16.84375 -19.953125 C 15.957031 -20.640625 14.679688 -20.984375 13.015625 -20.984375 L 5.90625 -20.984375 L 5.90625 -12.9375 L 12.8125 -12.9375 C 14.414062 -12.9375 15.710938 -13.285156 16.703125 -13.984375 C 17.691406 -14.691406 18.1875 -15.734375 18.1875 -17.109375 Z M 19.484375 -6.609375 C 19.484375 -7.867188 18.957031 -8.847656 17.90625 -9.546875 C 16.863281 -10.253906 15.320312 -10.609375 13.28125 -10.609375 L 5.90625 -10.609375 L 5.90625 -2.375 L 13.75 -2.375 C 15.519531 -2.375 16.914062 -2.738281 17.9375 -3.46875 C 18.96875 -4.195312 19.484375 -5.21875 19.484375 -6.53125 Z M 19.484375 -6.609375 "/></g></g></g><g fill="#545454" fill-opacity="1"><g transform="translate(417.219075, 102.577754)"><g><path d="M 9.203125 0.359375 C 8.160156 0.359375 7.234375 0.191406 6.421875 -0.140625 C 5.609375 -0.472656 4.914062 -0.941406 4.34375 -1.546875 C 3.78125 -2.160156 3.347656 -2.890625 3.046875 -3.734375 C 2.753906 -4.578125 2.609375 -5.507812 2.609375 -6.53125 L 2.609375 -17.25 L 5.171875 -17.25 L 5.171875 -7.171875 C 5.171875 -5.566406 5.582031 -4.296875 6.40625 -3.359375 C 7.226562 -2.429688 8.40625 -1.96875 9.9375 -1.96875 C 10.675781 -1.96875 11.359375 -2.09375 11.984375 -2.34375 C 12.617188 -2.601562 13.164062 -2.972656 13.625 -3.453125 C 14.082031 -3.929688 14.441406 -4.503906 14.703125 -5.171875 C 14.972656 -5.835938 15.109375 -6.570312 15.109375 -7.375 L 15.109375 -17.25 L 17.640625 -17.25 L 17.640625 0 L 15.109375 0 L 15.109375 -3 C 14.535156 -2.0625 13.78125 -1.265625 12.84375 -0.609375 C 11.90625 0.0351562 10.691406 0.359375 9.203125 0.359375 Z M 9.203125 0.359375 "/></g></g></g><g fill="#545454" fill-opacity="1"><g transform="translate(441.973616, 102.577754)"><g><path d="M 2.9375 -23.859375 L 5.875 -23.859375 L 5.875 -21.015625 L 2.9375 -21.015625 Z M 3.109375 -17.25 L 5.671875 -17.25 L 5.671875 0 L 3.109375 0 Z M 3.109375 -17.25 "/></g></g></g><g fill="#545454" fill-opacity="1"><g transform="translate(454.951859, 102.577754)"><g><path d="M 3.109375 -24.359375 L 5.671875 -24.359375 L 5.671875 0 L 3.109375 0 Z M 3.109375 -24.359375 "/></g></g></g><g fill="#545454" fill-opacity="1"><g transform="translate(467.930102, 102.577754)"><g><path d="M 10.109375 0.359375 C 9.066406 0.359375 8.054688 0.160156 7.078125 -0.234375 C 6.097656 -0.628906 5.21875 -1.210938 4.4375 -1.984375 C 3.65625 -2.753906 3.03125 -3.6875 2.5625 -4.78125 C 2.101562 -5.882812 1.875 -7.148438 1.875 -8.578125 L 1.875 -8.640625 C 1.875 -10.035156 2.101562 -11.289062 2.5625 -12.40625 C 3.03125 -13.519531 3.65625 -14.457031 4.4375 -15.21875 C 5.21875 -15.988281 6.097656 -16.578125 7.078125 -16.984375 C 8.054688 -17.398438 9.066406 -17.609375 10.109375 -17.609375 C 10.910156 -17.609375 11.644531 -17.507812 12.3125 -17.3125 C 12.976562 -17.113281 13.578125 -16.847656 14.109375 -16.515625 C 14.640625 -16.179688 15.125 -15.789062 15.5625 -15.34375 C 16 -14.894531 16.382812 -14.425781 16.71875 -13.9375 L 16.71875 -24.359375 L 19.28125 -24.359375 L 19.28125 0 L 16.71875 0 L 16.71875 -3.46875 C 16.351562 -2.957031 15.953125 -2.46875 15.515625 -2 C 15.085938 -1.53125 14.609375 -1.117188 14.078125 -0.765625 C 13.546875 -0.410156 12.953125 -0.132812 12.296875 0.0625 C 11.640625 0.257812 10.910156 0.359375 10.109375 0.359375 Z M 10.578125 -1.9375 C 11.378906 -1.9375 12.148438 -2.097656 12.890625 -2.421875 C 13.640625 -2.742188 14.304688 -3.195312 14.890625 -3.78125 C 15.484375 -4.375 15.953125 -5.078125 16.296875 -5.890625 C 16.640625 -6.703125 16.8125 -7.609375 16.8125 -8.609375 L 16.8125 -8.671875 C 16.8125 -9.671875 16.640625 -10.578125 16.296875 -11.390625 C 15.953125 -12.203125 15.484375 -12.894531 14.890625 -13.46875 C 14.304688 -14.050781 13.640625 -14.503906 12.890625 -14.828125 C 12.148438 -15.148438 11.378906 -15.3125 10.578125 -15.3125 C 9.734375 -15.3125 8.941406 -15.160156 8.203125 -14.859375 C 7.472656 -14.554688 6.832031 -14.117188 6.28125 -13.546875 C 5.738281 -12.984375 5.304688 -12.289062 4.984375 -11.46875 C 4.660156 -10.644531 4.5 -9.710938 4.5 -8.671875 L 4.5 -8.609375 C 4.5 -7.585938 4.660156 -6.664062 4.984375 -5.84375 C 5.304688 -5.019531 5.742188 -4.316406 6.296875 -3.734375 C 6.859375 -3.160156 7.503906 -2.71875 8.234375 -2.40625 C 8.972656 -2.09375 9.753906 -1.9375 10.578125 -1.9375 Z M 10.578125 -1.9375 "/></g></g></g><g fill="#545454" fill-opacity="1"><g transform="translate(494.285933, 102.577754)"><g><path d="M 8 0.359375 C 7.207031 0.359375 6.425781 0.25 5.65625 0.03125 C 4.882812 -0.1875 4.191406 -0.523438 3.578125 -0.984375 C 2.972656 -1.441406 2.484375 -2.003906 2.109375 -2.671875 C 1.742188 -3.335938 1.5625 -4.113281 1.5625 -5 L 1.5625 -5.078125 C 1.5625 -5.984375 1.738281 -6.78125 2.09375 -7.46875 C 2.457031 -8.15625 2.96875 -8.734375 3.625 -9.203125 C 4.28125 -9.671875 5.054688 -10.023438 5.953125 -10.265625 C 6.859375 -10.515625 7.851562 -10.640625 8.9375 -10.640625 C 10.050781 -10.640625 11.019531 -10.570312 11.84375 -10.4375 C 12.664062 -10.300781 13.46875 -10.125 14.25 -9.90625 L 14.25 -10.515625 C 14.25 -12.066406 13.796875 -13.238281 12.890625 -14.03125 C 11.992188 -14.820312 10.734375 -15.21875 9.109375 -15.21875 C 8.085938 -15.21875 7.160156 -15.097656 6.328125 -14.859375 C 5.492188 -14.628906 4.675781 -14.320312 3.875 -13.9375 L 3.109375 -16.046875 C 4.054688 -16.492188 5.019531 -16.84375 6 -17.09375 C 6.976562 -17.351562 8.101562 -17.484375 9.375 -17.484375 C 11.820312 -17.484375 13.675781 -16.847656 14.9375 -15.578125 C 16.125 -14.398438 16.71875 -12.722656 16.71875 -10.546875 L 16.71875 0 L 14.25 0 L 14.25 -2.609375 C 13.644531 -1.828125 12.835938 -1.132812 11.828125 -0.53125 C 10.816406 0.0625 9.539062 0.359375 8 0.359375 Z M 8.5 -1.671875 C 9.300781 -1.671875 10.050781 -1.785156 10.75 -2.015625 C 11.457031 -2.253906 12.070312 -2.578125 12.59375 -2.984375 C 13.113281 -3.398438 13.523438 -3.890625 13.828125 -4.453125 C 14.128906 -5.015625 14.28125 -5.644531 14.28125 -6.34375 L 14.28125 -8 C 13.632812 -8.175781 12.894531 -8.34375 12.0625 -8.5 C 11.226562 -8.65625 10.273438 -8.734375 9.203125 -8.734375 C 7.578125 -8.734375 6.332031 -8.410156 5.46875 -7.765625 C 4.601562 -7.128906 4.171875 -6.265625 4.171875 -5.171875 L 4.171875 -5.109375 C 4.171875 -4.566406 4.285156 -4.078125 4.515625 -3.640625 C 4.753906 -3.210938 5.070312 -2.851562 5.46875 -2.5625 C 5.875 -2.28125 6.335938 -2.0625 6.859375 -1.90625 C 7.378906 -1.75 7.925781 -1.671875 8.5 -1.671875 Z M 8.5 -1.671875 "/></g></g></g><g fill="#545454" fill-opacity="1"><g transform="translate(517.806117, 102.577754)"><g><path d="M 12.046875 0.359375 C 11.242188 0.359375 10.507812 0.257812 9.84375 0.0625 C 9.175781 -0.132812 8.570312 -0.398438 8.03125 -0.734375 C 7.5 -1.066406 7.015625 -1.453125 6.578125 -1.890625 C 6.148438 -2.335938 5.769531 -2.804688 5.4375 -3.296875 L 5.4375 0 L 2.875 0 L 2.875 -24.359375 L 5.4375 -24.359375 L 5.4375 -13.78125 C 5.789062 -14.289062 6.179688 -14.78125 6.609375 -15.25 C 7.046875 -15.71875 7.53125 -16.125 8.0625 -16.46875 C 8.601562 -16.8125 9.203125 -17.085938 9.859375 -17.296875 C 10.515625 -17.503906 11.242188 -17.609375 12.046875 -17.609375 C 13.066406 -17.609375 14.070312 -17.40625 15.0625 -17 C 16.050781 -16.601562 16.929688 -16.019531 17.703125 -15.25 C 18.484375 -14.488281 19.109375 -13.554688 19.578125 -12.453125 C 20.046875 -11.359375 20.28125 -10.097656 20.28125 -8.671875 L 20.28125 -8.609375 C 20.28125 -7.203125 20.046875 -5.941406 19.578125 -4.828125 C 19.109375 -3.722656 18.488281 -2.785156 17.71875 -2.015625 C 16.957031 -1.253906 16.082031 -0.664062 15.09375 -0.25 C 14.101562 0.15625 13.085938 0.359375 12.046875 0.359375 Z M 11.578125 -1.9375 C 12.398438 -1.9375 13.179688 -2.082031 13.921875 -2.375 C 14.671875 -2.675781 15.316406 -3.109375 15.859375 -3.671875 C 16.398438 -4.242188 16.832031 -4.941406 17.15625 -5.765625 C 17.476562 -6.585938 17.640625 -7.523438 17.640625 -8.578125 L 17.640625 -8.640625 C 17.640625 -9.660156 17.476562 -10.582031 17.15625 -11.40625 C 16.832031 -12.226562 16.394531 -12.925781 15.84375 -13.5 C 15.289062 -14.082031 14.644531 -14.53125 13.90625 -14.84375 C 13.175781 -15.15625 12.398438 -15.3125 11.578125 -15.3125 C 10.773438 -15.3125 10 -15.148438 9.25 -14.828125 C 8.507812 -14.503906 7.84375 -14.046875 7.25 -13.453125 C 6.664062 -12.867188 6.203125 -12.171875 5.859375 -11.359375 C 5.515625 -10.546875 5.34375 -9.648438 5.34375 -8.671875 L 5.34375 -8.609375 C 5.34375 -7.609375 5.515625 -6.695312 5.859375 -5.875 C 6.203125 -5.050781 6.664062 -4.347656 7.25 -3.765625 C 7.84375 -3.191406 8.507812 -2.742188 9.25 -2.421875 C 10 -2.097656 10.773438 -1.9375 11.578125 -1.9375 Z M 11.578125 -1.9375 "/></g></g></g><g fill="#545454" fill-opacity="1"><g transform="translate(544.161948, 102.577754)"><g><path d="M 3.109375 -24.359375 L 5.671875 -24.359375 L 5.671875 0 L 3.109375 0 Z M 3.109375 -24.359375 "/></g></g></g><g fill="#545454" fill-opacity="1"><g transform="translate(557.140191, 102.577754)"><g><path d="M 10.40625 0.40625 C 9.226562 0.40625 8.113281 0.1875 7.0625 -0.25 C 6.019531 -0.6875 5.109375 -1.296875 4.328125 -2.078125 C 3.554688 -2.867188 2.941406 -3.816406 2.484375 -4.921875 C 2.023438 -6.023438 1.796875 -7.242188 1.796875 -8.578125 L 1.796875 -8.640625 C 1.796875 -9.890625 2 -11.054688 2.40625 -12.140625 C 2.820312 -13.234375 3.394531 -14.1875 4.125 -15 C 4.863281 -15.8125 5.738281 -16.445312 6.75 -16.90625 C 7.757812 -17.375 8.867188 -17.609375 10.078125 -17.609375 C 11.335938 -17.609375 12.46875 -17.367188 13.46875 -16.890625 C 14.476562 -16.410156 15.328125 -15.757812 16.015625 -14.9375 C 16.703125 -14.113281 17.222656 -13.148438 17.578125 -12.046875 C 17.929688 -10.953125 18.109375 -9.769531 18.109375 -8.5 C 18.109375 -8.320312 18.109375 -8.175781 18.109375 -8.0625 C 18.109375 -7.957031 18.097656 -7.828125 18.078125 -7.671875 L 4.40625 -7.671875 C 4.488281 -6.734375 4.707031 -5.90625 5.0625 -5.1875 C 5.425781 -4.46875 5.878906 -3.859375 6.421875 -3.359375 C 6.960938 -2.859375 7.578125 -2.476562 8.265625 -2.21875 C 8.960938 -1.957031 9.695312 -1.828125 10.46875 -1.828125 C 11.675781 -1.828125 12.707031 -2.050781 13.5625 -2.5 C 14.414062 -2.945312 15.195312 -3.535156 15.90625 -4.265625 L 17.515625 -2.828125 C 16.648438 -1.859375 15.660156 -1.078125 14.546875 -0.484375 C 13.429688 0.109375 12.050781 0.40625 10.40625 0.40625 Z M 15.515625 -9.578125 C 15.441406 -10.347656 15.273438 -11.085938 15.015625 -11.796875 C 14.765625 -12.515625 14.410156 -13.140625 13.953125 -13.671875 C 13.503906 -14.210938 12.953125 -14.644531 12.296875 -14.96875 C 11.640625 -15.289062 10.875 -15.453125 10 -15.453125 C 9.25 -15.453125 8.550781 -15.300781 7.90625 -15 C 7.257812 -14.695312 6.691406 -14.285156 6.203125 -13.765625 C 5.710938 -13.242188 5.3125 -12.625 5 -11.90625 C 4.6875 -11.195312 4.488281 -10.421875 4.40625 -9.578125 Z M 15.515625 -9.578125 "/></g></g></g></g></g></g></g></g></g></svg>