<svg xmlns="http://www.w3.org/2000/svg" xmlns:xlink="http://www.w3.org/1999/xlink" width="500" zoomAndPan="magnify" viewBox="0 0 375 254.999984" height="340" preserveAspectRatio="xMidYMid meet" version="1.0"><defs><g/><clipPath id="57bfc0ea00"><rect x="0" width="353" y="0" height="255"/></clipPath></defs><g transform="matrix(1, 0, 0, 1, 11, 0.000000000000009567)"><g clip-path="url(#57bfc0ea00)"><g fill="#545454" fill-opacity="1"><g transform="translate(112.921037, 47.347273)"><g><path d="M 5.3125 -0.3125 C 5.863281 -1.070312 6.328125 -2.019531 6.703125 -3.15625 C 7.085938 -4.300781 7.28125 -5.460938 7.28125 -6.640625 L 7.28125 -37.65625 C 7.28125 -38.84375 7.085938 -40.003906 6.703125 -41.140625 C 6.328125 -42.285156 5.863281 -43.234375 5.3125 -43.984375 L 5.3125 -44.3125 L 33.859375 -44.3125 L 35.1875 -33.859375 L 34.5625 -33.859375 C 33.675781 -35.890625 32.742188 -37.546875 31.765625 -38.828125 C 30.796875 -40.117188 29.53125 -41.132812 27.96875 -41.875 C 26.414062 -42.613281 24.476562 -42.984375 22.15625 -42.984375 L 13.296875 -42.984375 L 13.296875 -23.109375 L 21.703125 -23.109375 C 25.460938 -23.109375 27.785156 -24.941406 28.671875 -28.609375 L 29.3125 -28.609375 L 29.3125 -16.265625 L 28.671875 -16.265625 C 27.742188 -19.941406 25.421875 -21.78125 21.703125 -21.78125 L 13.296875 -21.78125 L 13.296875 -1.328125 L 23.671875 -1.328125 C 25.992188 -1.328125 27.9375 -1.695312 29.5 -2.4375 C 31.0625 -3.175781 32.328125 -4.1875 33.296875 -5.46875 C 34.265625 -6.757812 35.191406 -8.414062 36.078125 -10.4375 L 36.71875 -10.4375 L 35.390625 0 L 5.3125 0 Z M 5.3125 -0.3125 "/></g></g></g><g fill="#545454" fill-opacity="1"><g transform="translate(152.222315, 47.347273)"><g><path d="M 4.375 12.34375 C 5.46875 10.820312 6.015625 8.859375 6.015625 6.453125 L 6.015625 -23.359375 C 6.015625 -24.742188 5.851562 -25.890625 5.53125 -26.796875 C 5.21875 -27.710938 4.722656 -28.507812 4.046875 -29.1875 L 4.046875 -29.5 L 11.328125 -32.34375 L 11.640625 -32.34375 L 11.640625 -26.078125 L 11.96875 -26.078125 C 12.8125 -27.929688 14.097656 -29.4375 15.828125 -30.59375 C 17.554688 -31.757812 19.515625 -32.34375 21.703125 -32.34375 C 24.453125 -32.34375 26.804688 -31.664062 28.765625 -30.3125 C 30.734375 -28.96875 32.234375 -27.125 33.265625 -24.78125 C 34.296875 -22.4375 34.8125 -19.789062 34.8125 -16.84375 C 34.8125 -13.507812 34.125 -10.5 32.75 -7.8125 C 31.382812 -5.132812 29.539062 -3.046875 27.21875 -1.546875 C 24.894531 -0.046875 22.382812 0.703125 19.6875 0.703125 C 16.476562 0.703125 13.796875 -0.207031 11.640625 -2.03125 L 11.640625 6.453125 C 11.640625 8.859375 12.191406 10.820312 13.296875 12.34375 L 13.296875 12.65625 L 4.375 12.65625 Z M 19.75 -0.765625 C 22.613281 -0.765625 24.878906 -2.070312 26.546875 -4.6875 C 28.210938 -7.300781 29.046875 -10.800781 29.046875 -15.1875 C 29.046875 -17.9375 28.644531 -20.34375 27.84375 -22.40625 C 27.039062 -24.476562 25.921875 -26.0625 24.484375 -27.15625 C 23.054688 -28.25 21.4375 -28.796875 19.625 -28.796875 C 17.382812 -28.796875 15.523438 -28.085938 14.046875 -26.671875 C 12.578125 -25.265625 11.773438 -23.441406 11.640625 -21.203125 L 11.640625 -9.375 C 11.722656 -8.019531 12.082031 -6.675781 12.71875 -5.34375 C 13.351562 -4.019531 14.269531 -2.925781 15.46875 -2.0625 C 16.675781 -1.195312 18.101562 -0.765625 19.75 -0.765625 Z M 19.75 -0.765625 "/></g></g></g><g fill="#545454" fill-opacity="1"><g transform="translate(190.004704, 47.347273)"><g><path d="M 4.75 -0.3125 C 5.84375 -1.832031 6.390625 -3.796875 6.390625 -6.203125 L 6.390625 -23.359375 C 6.390625 -24.742188 6.21875 -25.898438 5.875 -26.828125 C 5.539062 -27.765625 5.039062 -28.550781 4.375 -29.1875 L 4.375 -29.5 L 11.703125 -32.34375 L 12.03125 -32.34375 L 12.03125 -6.203125 C 12.03125 -3.796875 12.578125 -1.832031 13.671875 -0.3125 L 13.671875 0 L 4.75 0 Z M 9.171875 -36.515625 C 8.160156 -36.515625 7.296875 -36.882812 6.578125 -37.625 C 5.867188 -38.363281 5.515625 -39.238281 5.515625 -40.25 C 5.515625 -41.269531 5.878906 -42.132812 6.609375 -42.84375 C 7.347656 -43.5625 8.203125 -43.921875 9.171875 -43.921875 C 10.234375 -43.921875 11.117188 -43.5625 11.828125 -42.84375 C 12.546875 -42.132812 12.90625 -41.269531 12.90625 -40.25 C 12.90625 -39.195312 12.546875 -38.3125 11.828125 -37.59375 C 11.117188 -36.875 10.234375 -36.515625 9.171875 -36.515625 Z M 9.171875 -36.515625 "/></g></g></g><g fill="#545454" fill-opacity="1"><g transform="translate(208.104809, 47.347273)"><g><path d="M 17.40625 0.703125 C 14.707031 0.703125 12.257812 0.0820312 10.0625 -1.15625 C 7.863281 -2.40625 6.128906 -4.222656 4.859375 -6.609375 C 3.597656 -8.992188 2.96875 -11.832031 2.96875 -15.125 C 2.96875 -18.25 3.707031 -21.128906 5.1875 -23.765625 C 6.664062 -26.398438 8.660156 -28.488281 11.171875 -30.03125 C 13.679688 -31.570312 16.414062 -32.34375 19.375 -32.34375 C 20.882812 -32.34375 22.453125 -32.117188 24.078125 -31.671875 C 25.703125 -31.234375 27.109375 -30.632812 28.296875 -29.875 L 28.296875 -21.515625 L 27.65625 -21.515625 C 27.03125 -24.179688 25.765625 -26.347656 23.859375 -28.015625 C 21.960938 -29.679688 19.789062 -30.515625 17.34375 -30.515625 C 15.738281 -30.515625 14.195312 -30.113281 12.71875 -29.3125 C 11.238281 -28.507812 10.023438 -27.226562 9.078125 -25.46875 C 8.128906 -23.71875 7.65625 -21.515625 7.65625 -18.859375 C 7.65625 -15.992188 8.191406 -13.421875 9.265625 -11.140625 C 10.347656 -8.859375 11.835938 -7.0625 13.734375 -5.75 C 15.628906 -4.445312 17.71875 -3.796875 20 -3.796875 C 22.03125 -3.796875 23.898438 -4.320312 25.609375 -5.375 C 27.316406 -6.4375 28.570312 -8 29.375 -10.0625 L 30 -10.0625 C 29.40625 -6.8125 27.9375 -4.203125 25.59375 -2.234375 C 23.257812 -0.273438 20.53125 0.703125 17.40625 0.703125 Z M 17.40625 0.703125 "/></g></g></g><g fill="#ff9e2c" fill-opacity="1"><g transform="translate(25.117963, 120.813239)"><g><path d="M 2.28125 -0.3125 C 3 -1.070312 3.640625 -2.019531 4.203125 -3.15625 C 4.773438 -4.300781 5.1875 -5.460938 5.4375 -6.640625 L 11.453125 -37.65625 C 11.578125 -38.414062 11.640625 -39.132812 11.640625 -39.8125 C 11.640625 -41.414062 11.347656 -42.804688 10.765625 -43.984375 L 10.828125 -44.3125 L 20.640625 -44.3125 L 20.578125 -43.984375 C 19.859375 -43.234375 19.210938 -42.285156 18.640625 -41.140625 C 18.066406 -40.003906 17.65625 -38.84375 17.40625 -37.65625 L 10.375 -1.328125 L 18.484375 -1.328125 C 22.066406 -1.328125 24.957031 -2.054688 27.15625 -3.515625 C 29.351562 -4.972656 31.503906 -7.328125 33.609375 -10.578125 L 34.1875 -10.578125 L 30.578125 0 L 2.21875 0 Z M 2.28125 -0.3125 "/></g></g></g><g fill="#ff9e2c" fill-opacity="1"><g transform="translate(60.368867, 120.813239)"><g><path d="M 11.453125 0.703125 C 8.503906 0.703125 6.257812 -0.375 4.71875 -2.53125 C 3.175781 -4.6875 2.40625 -7.472656 2.40625 -10.890625 C 2.40625 -14.304688 3.128906 -17.679688 4.578125 -21.015625 C 6.035156 -24.347656 8.09375 -27.066406 10.75 -29.171875 C 13.414062 -31.285156 16.457031 -32.34375 19.875 -32.34375 C 22.914062 -32.34375 25.382812 -31.3125 27.28125 -29.25 L 32.53125 -32.34375 L 32.84375 -32.34375 L 27.78125 -6.078125 C 27.570312 -5.023438 27.46875 -4.242188 27.46875 -3.734375 C 27.46875 -2.679688 27.890625 -2.15625 28.734375 -2.15625 C 30.128906 -2.15625 31.628906 -4.429688 33.234375 -8.984375 L 34.3125 -8.984375 C 33.25 -5.273438 32.140625 -2.734375 30.984375 -1.359375 C 29.828125 0.015625 28.507812 0.703125 27.03125 0.703125 C 25.675781 0.703125 24.578125 0.25 23.734375 -0.65625 C 22.890625 -1.570312 22.46875 -2.976562 22.46875 -4.875 C 22.46875 -5.757812 22.550781 -6.644531 22.71875 -7.53125 L 23.171875 -10 L 22.84375 -10 C 21.664062 -6.664062 20.125 -4.046875 18.21875 -2.140625 C 16.320312 -0.242188 14.066406 0.703125 11.453125 0.703125 Z M 13.609375 -3.09375 C 16.097656 -3.09375 18.300781 -4.820312 20.21875 -8.28125 C 22.144531 -11.75 23.910156 -16.457031 25.515625 -22.40625 C 25.554688 -22.695312 25.578125 -23.117188 25.578125 -23.671875 C 25.578125 -25.953125 25.035156 -27.734375 23.953125 -29.015625 C 22.878906 -30.304688 21.625 -30.953125 20.1875 -30.953125 C 18 -30.953125 15.992188 -29.90625 14.171875 -27.8125 C 12.359375 -25.726562 10.945312 -23.144531 9.9375 -20.0625 C 8.925781 -16.976562 8.421875 -14.023438 8.421875 -11.203125 C 8.421875 -8.753906 8.851562 -6.789062 9.71875 -5.3125 C 10.582031 -3.832031 11.878906 -3.09375 13.609375 -3.09375 Z M 13.609375 -3.09375 "/></g></g></g><g fill="#ff9e2c" fill-opacity="1"><g transform="translate(96.379216, 120.813239)"><g><path d="M 27.03125 0.703125 C 25.757812 0.703125 24.722656 0.269531 23.921875 -0.59375 C 23.117188 -1.46875 22.71875 -2.769531 22.71875 -4.5 C 22.71875 -5.59375 22.867188 -6.726562 23.171875 -7.90625 L 26.578125 -22.28125 C 26.753906 -22.957031 26.84375 -23.675781 26.84375 -24.4375 C 26.84375 -25.695312 26.523438 -26.664062 25.890625 -27.34375 C 25.253906 -28.019531 24.410156 -28.359375 23.359375 -28.359375 C 21.160156 -28.359375 18.992188 -27.035156 16.859375 -24.390625 C 14.734375 -21.753906 12.765625 -17.503906 10.953125 -11.640625 L 8.671875 0 L 3.234375 0 L 7.40625 -21.640625 C 7.738281 -23.460938 7.90625 -24.773438 7.90625 -25.578125 C 7.90625 -26.421875 7.78125 -27.070312 7.53125 -27.53125 C 7.28125 -28 6.835938 -28.484375 6.203125 -28.984375 L 6.265625 -29.3125 L 14.625 -32.34375 L 14.9375 -32.34375 L 12.65625 -20.515625 L 12.96875 -20.515625 C 14.445312 -24.265625 16.238281 -27.171875 18.34375 -29.234375 C 20.457031 -31.304688 22.78125 -32.34375 25.3125 -32.34375 C 27.382812 -32.34375 29.0625 -31.75 30.34375 -30.5625 C 31.632812 -29.382812 32.28125 -27.507812 32.28125 -24.9375 C 32.28125 -23.457031 32.066406 -21.875 31.640625 -20.1875 L 28.046875 -5.1875 C 27.910156 -4.644531 27.84375 -4.160156 27.84375 -3.734375 C 27.84375 -2.679688 28.242188 -2.15625 29.046875 -2.15625 C 29.847656 -2.15625 30.609375 -2.722656 31.328125 -3.859375 C 32.046875 -4.992188 32.828125 -6.703125 33.671875 -8.984375 L 34.75 -8.984375 C 33.988281 -6.367188 33.207031 -4.363281 32.40625 -2.96875 C 31.601562 -1.582031 30.78125 -0.625 29.9375 -0.09375 C 29.09375 0.4375 28.125 0.703125 27.03125 0.703125 Z M 27.03125 0.703125 "/></g></g></g><g fill="#ff9e2c" fill-opacity="1"><g transform="translate(133.908453, 120.813239)"><g><path d="M 11.453125 0.703125 C 8.503906 0.703125 6.257812 -0.375 4.71875 -2.53125 C 3.175781 -4.6875 2.40625 -7.472656 2.40625 -10.890625 C 2.40625 -14.304688 3.128906 -17.679688 4.578125 -21.015625 C 6.035156 -24.347656 8.082031 -27.066406 10.71875 -29.171875 C 13.363281 -31.285156 16.375 -32.34375 19.75 -32.34375 C 22.488281 -32.34375 24.765625 -31.414062 26.578125 -29.5625 L 27.84375 -36.453125 C 28.144531 -38.234375 28.296875 -39.4375 28.296875 -40.0625 C 28.296875 -41.03125 28.15625 -41.769531 27.875 -42.28125 C 27.601562 -42.789062 27.148438 -43.296875 26.515625 -43.796875 L 26.578125 -44.125 L 34.9375 -47.15625 L 35.25 -47.15625 L 27.84375 -6.078125 C 27.675781 -5.273438 27.59375 -4.535156 27.59375 -3.859375 C 27.59375 -3.265625 27.6875 -2.832031 27.875 -2.5625 C 28.070312 -2.289062 28.398438 -2.15625 28.859375 -2.15625 C 30.253906 -2.15625 31.753906 -4.429688 33.359375 -8.984375 L 34.4375 -8.984375 C 33.375 -5.273438 32.253906 -2.734375 31.078125 -1.359375 C 29.898438 0.015625 28.59375 0.703125 27.15625 0.703125 C 25.800781 0.703125 24.691406 0.25 23.828125 -0.65625 C 22.960938 -1.570312 22.53125 -2.976562 22.53125 -4.875 C 22.53125 -5.757812 22.613281 -6.644531 22.78125 -7.53125 L 23.234375 -10 L 22.90625 -10 C 21.769531 -6.664062 20.226562 -4.046875 18.28125 -2.140625 C 16.34375 -0.242188 14.066406 0.703125 11.453125 0.703125 Z M 13.609375 -3.09375 C 18.160156 -3.09375 22.171875 -9.53125 25.640625 -22.40625 C 25.679688 -22.695312 25.703125 -23.097656 25.703125 -23.609375 C 25.703125 -25.929688 25.148438 -27.734375 24.046875 -29.015625 C 22.953125 -30.304688 21.664062 -30.953125 20.1875 -30.953125 C 18 -30.953125 15.992188 -29.90625 14.171875 -27.8125 C 12.359375 -25.726562 10.945312 -23.144531 9.9375 -20.0625 C 8.925781 -16.976562 8.421875 -14.023438 8.421875 -11.203125 C 8.421875 -8.753906 8.851562 -6.789062 9.71875 -5.3125 C 10.582031 -3.832031 11.878906 -3.09375 13.609375 -3.09375 Z M 13.609375 -3.09375 "/></g></g></g><g fill="#ff9e2c" fill-opacity="1"><g transform="translate(170.298524, 120.813239)"><g><path d="M 12.65625 0.703125 C 10.507812 0.703125 8.484375 0.351562 6.578125 -0.34375 C 4.679688 -1.039062 3.015625 -2.046875 1.578125 -3.359375 L 3.234375 -11.96875 L 3.859375 -11.96875 C 3.859375 -9.894531 4.269531 -8.015625 5.09375 -6.328125 C 5.914062 -4.640625 7.007812 -3.3125 8.375 -2.34375 C 9.75 -1.375 11.257812 -0.890625 12.90625 -0.890625 C 14.59375 -0.890625 15.953125 -1.375 16.984375 -2.34375 C 18.023438 -3.3125 18.546875 -4.535156 18.546875 -6.015625 C 18.546875 -7.148438 18.144531 -8.265625 17.34375 -9.359375 C 16.539062 -10.460938 15.128906 -11.898438 13.109375 -13.671875 C 10.398438 -15.992188 8.488281 -17.867188 7.375 -19.296875 C 6.257812 -20.734375 5.703125 -22.335938 5.703125 -24.109375 C 5.703125 -26.597656 6.660156 -28.59375 8.578125 -30.09375 C 10.492188 -31.59375 12.847656 -32.34375 15.640625 -32.34375 C 17.492188 -32.34375 19.234375 -32.054688 20.859375 -31.484375 C 22.484375 -30.921875 23.820312 -30.21875 24.875 -29.375 L 23.421875 -21.96875 L 22.78125 -21.96875 C 22.695312 -24.75 21.957031 -26.921875 20.5625 -28.484375 C 19.175781 -30.046875 17.40625 -30.828125 15.25 -30.828125 C 13.644531 -30.828125 12.335938 -30.40625 11.328125 -29.5625 C 10.316406 -28.71875 9.8125 -27.578125 9.8125 -26.140625 C 9.8125 -25.421875 9.96875 -24.785156 10.28125 -24.234375 C 10.601562 -23.691406 11.1875 -23.019531 12.03125 -22.21875 C 12.875 -21.414062 14.265625 -20.210938 16.203125 -18.609375 C 18.523438 -16.710938 20.210938 -15.046875 21.265625 -13.609375 C 22.316406 -12.171875 22.84375 -10.441406 22.84375 -8.421875 C 22.84375 -5.546875 21.925781 -3.304688 20.09375 -1.703125 C 18.257812 -0.0976562 15.78125 0.703125 12.65625 0.703125 Z M 12.65625 0.703125 "/></g></g></g><g fill="#ff9e2c" fill-opacity="1"><g transform="translate(197.19554, 120.813239)"><g><path d="M 15 0.703125 C 12.632812 0.703125 10.554688 0.15625 8.765625 -0.9375 C 6.972656 -2.039062 5.566406 -3.59375 4.546875 -5.59375 C 3.535156 -7.601562 3.03125 -9.914062 3.03125 -12.53125 C 3.03125 -16.15625 3.769531 -19.476562 5.25 -22.5 C 6.726562 -25.519531 8.742188 -27.914062 11.296875 -29.6875 C 13.847656 -31.457031 16.644531 -32.34375 19.6875 -32.34375 C 23.269531 -32.34375 26.265625 -31.476562 28.671875 -29.75 L 27.15625 -21.453125 L 26.515625 -21.453125 C 26.347656 -24.410156 25.609375 -26.679688 24.296875 -28.265625 C 22.992188 -29.847656 21.179688 -30.640625 18.859375 -30.640625 C 17.085938 -30.640625 15.429688 -29.972656 13.890625 -28.640625 C 12.347656 -27.304688 11.101562 -25.425781 10.15625 -23 C 9.207031 -20.582031 8.734375 -17.789062 8.734375 -14.625 C 8.734375 -10.988281 9.425781 -8.15625 10.8125 -6.125 C 12.207031 -4.101562 14.28125 -3.09375 17.03125 -3.09375 C 18.71875 -3.09375 20.328125 -3.546875 21.859375 -4.453125 C 23.398438 -5.367188 24.742188 -6.773438 25.890625 -8.671875 L 26.578125 -8.671875 C 25.910156 -6.179688 24.550781 -3.992188 22.5 -2.109375 C 20.457031 -0.234375 17.957031 0.703125 15 0.703125 Z M 15 0.703125 "/></g></g></g><g fill="#ff9e2c" fill-opacity="1"><g transform="translate(226.624031, 120.813239)"><g><path d="M 11.453125 0.703125 C 8.503906 0.703125 6.257812 -0.375 4.71875 -2.53125 C 3.175781 -4.6875 2.40625 -7.472656 2.40625 -10.890625 C 2.40625 -14.304688 3.128906 -17.679688 4.578125 -21.015625 C 6.035156 -24.347656 8.09375 -27.066406 10.75 -29.171875 C 13.414062 -31.285156 16.457031 -32.34375 19.875 -32.34375 C 22.914062 -32.34375 25.382812 -31.3125 27.28125 -29.25 L 32.53125 -32.34375 L 32.84375 -32.34375 L 27.78125 -6.078125 C 27.570312 -5.023438 27.46875 -4.242188 27.46875 -3.734375 C 27.46875 -2.679688 27.890625 -2.15625 28.734375 -2.15625 C 30.128906 -2.15625 31.628906 -4.429688 33.234375 -8.984375 L 34.3125 -8.984375 C 33.25 -5.273438 32.140625 -2.734375 30.984375 -1.359375 C 29.828125 0.015625 28.507812 0.703125 27.03125 0.703125 C 25.675781 0.703125 24.578125 0.25 23.734375 -0.65625 C 22.890625 -1.570312 22.46875 -2.976562 22.46875 -4.875 C 22.46875 -5.757812 22.550781 -6.644531 22.71875 -7.53125 L 23.171875 -10 L 22.84375 -10 C 21.664062 -6.664062 20.125 -4.046875 18.21875 -2.140625 C 16.320312 -0.242188 14.066406 0.703125 11.453125 0.703125 Z M 13.609375 -3.09375 C 16.097656 -3.09375 18.300781 -4.820312 20.21875 -8.28125 C 22.144531 -11.75 23.910156 -16.457031 25.515625 -22.40625 C 25.554688 -22.695312 25.578125 -23.117188 25.578125 -23.671875 C 25.578125 -25.953125 25.035156 -27.734375 23.953125 -29.015625 C 22.878906 -30.304688 21.625 -30.953125 20.1875 -30.953125 C 18 -30.953125 15.992188 -29.90625 14.171875 -27.8125 C 12.359375 -25.726562 10.945312 -23.144531 9.9375 -20.0625 C 8.925781 -16.976562 8.421875 -14.023438 8.421875 -11.203125 C 8.421875 -8.753906 8.851562 -6.789062 9.71875 -5.3125 C 10.582031 -3.832031 11.878906 -3.09375 13.609375 -3.09375 Z M 13.609375 -3.09375 "/></g></g></g><g fill="#ff9e2c" fill-opacity="1"><g transform="translate(262.63438, 120.813239)"><g><path d="M -1.015625 12.34375 C 0.421875 10.78125 1.347656 8.816406 1.765625 6.453125 L 6.703125 -21.640625 C 7.003906 -23.160156 7.15625 -24.425781 7.15625 -25.4375 C 7.15625 -26.332031 7.015625 -27.019531 6.734375 -27.5 C 6.460938 -27.988281 6.03125 -28.484375 5.4375 -28.984375 L 5.5 -29.3125 L 13.796875 -32.34375 L 14.109375 -32.34375 L 12.03125 -20.765625 L 12.34375 -20.765625 C 13.695312 -24.429688 15.4375 -27.273438 17.5625 -29.296875 C 19.695312 -31.328125 21.96875 -32.34375 24.375 -32.34375 C 27.03125 -32.34375 29.128906 -31.316406 30.671875 -29.265625 C 32.210938 -27.222656 32.984375 -24.578125 32.984375 -21.328125 C 32.984375 -17.785156 32.234375 -14.316406 30.734375 -10.921875 C 29.234375 -7.523438 27.128906 -4.738281 24.421875 -2.5625 C 21.722656 -0.382812 18.6875 0.703125 15.3125 0.703125 C 12.695312 0.703125 10.484375 -0.117188 8.671875 -1.765625 L 7.21875 6.453125 C 7.050781 7.253906 6.96875 8.097656 6.96875 8.984375 C 6.96875 10.335938 7.21875 11.457031 7.71875 12.34375 L 7.65625 12.65625 L -1.015625 12.65625 Z M 15.125 -0.703125 C 17.238281 -0.703125 19.203125 -1.796875 21.015625 -3.984375 C 22.828125 -6.179688 24.269531 -8.90625 25.34375 -12.15625 C 26.425781 -15.40625 26.96875 -18.484375 26.96875 -21.390625 C 26.96875 -23.710938 26.554688 -25.484375 25.734375 -26.703125 C 24.910156 -27.929688 23.800781 -28.546875 22.40625 -28.546875 C 19.875 -28.546875 17.476562 -26.65625 15.21875 -22.875 C 12.96875 -19.101562 11.144531 -14.367188 9.75 -8.671875 C 9.707031 -8.421875 9.6875 -8.039062 9.6875 -7.53125 C 9.6875 -5.375 10.191406 -3.695312 11.203125 -2.5 C 12.210938 -1.300781 13.519531 -0.703125 15.125 -0.703125 Z M 15.125 -0.703125 "/></g></g></g><g fill="#ff9e2c" fill-opacity="1"><g transform="translate(297.885284, 120.813239)"><g><path d="M 17.03125 -3.09375 C 18.71875 -3.09375 20.328125 -3.546875 21.859375 -4.453125 C 23.398438 -5.367188 24.742188 -6.773438 25.890625 -8.671875 L 26.578125 -8.671875 C 25.910156 -6.179688 24.550781 -3.992188 22.5 -2.109375 C 20.457031 -0.234375 17.957031 0.703125 15 0.703125 C 12.632812 0.703125 10.554688 0.15625 8.765625 -0.9375 C 6.972656 -2.039062 5.566406 -3.59375 4.546875 -5.59375 C 3.535156 -7.601562 3.03125 -9.914062 3.03125 -12.53125 C 3.03125 -16.15625 3.769531 -19.476562 5.25 -22.5 C 6.726562 -25.519531 8.765625 -27.914062 11.359375 -29.6875 C 13.953125 -31.457031 16.8125 -32.34375 19.9375 -32.34375 C 22.8125 -32.34375 24.953125 -31.75 26.359375 -30.5625 C 27.773438 -29.382812 28.484375 -27.929688 28.484375 -26.203125 C 28.484375 -22.023438 25.148438 -19.175781 18.484375 -17.65625 C 15.992188 -17.070312 12.765625 -16.753906 8.796875 -16.703125 C 8.753906 -16.242188 8.734375 -15.570312 8.734375 -14.6875 C 8.734375 -11.050781 9.425781 -8.207031 10.8125 -6.15625 C 12.207031 -4.113281 14.28125 -3.09375 17.03125 -3.09375 Z M 18.796875 -30.640625 C 16.222656 -30.640625 14.0625 -29.445312 12.3125 -27.0625 C 10.5625 -24.675781 9.453125 -21.710938 8.984375 -18.171875 C 12.484375 -18.210938 15.289062 -18.613281 17.40625 -19.375 C 19.132812 -19.957031 20.460938 -20.898438 21.390625 -22.203125 C 22.316406 -23.515625 22.78125 -24.929688 22.78125 -26.453125 C 22.78125 -27.765625 22.453125 -28.789062 21.796875 -29.53125 C 21.148438 -30.269531 20.148438 -30.640625 18.796875 -30.640625 Z M 18.796875 -30.640625 "/></g></g></g><g fill="#ff9e2c" fill-opacity="1"><g transform="translate(68.621247, 194.279205)"><g><path d="M 2.28125 -0.3125 C 3 -1.070312 3.640625 -2.019531 4.203125 -3.15625 C 4.773438 -4.300781 5.1875 -5.460938 5.4375 -6.640625 L 11.453125 -37.65625 C 11.578125 -38.414062 11.640625 -39.132812 11.640625 -39.8125 C 11.640625 -41.414062 11.347656 -42.804688 10.765625 -43.984375 L 10.828125 -44.3125 L 25.375 -44.3125 C 28.925781 -44.3125 32.09375 -43.675781 34.875 -42.40625 C 37.65625 -41.144531 39.847656 -39.222656 41.453125 -36.640625 C 43.054688 -34.066406 43.859375 -30.925781 43.859375 -27.21875 C 43.859375 -21.3125 42.613281 -16.300781 40.125 -12.1875 C 37.632812 -8.070312 34.425781 -5.007812 30.5 -3 C 26.582031 -1 22.515625 0 18.296875 0 L 2.21875 0 Z M 16.90625 -1.390625 C 20.363281 -1.390625 23.648438 -2.421875 26.765625 -4.484375 C 29.890625 -6.554688 32.421875 -9.628906 34.359375 -13.703125 C 36.304688 -17.773438 37.28125 -22.660156 37.28125 -28.359375 C 37.28125 -33.210938 36.128906 -36.851562 33.828125 -39.28125 C 31.523438 -41.707031 28.4375 -42.921875 24.5625 -42.921875 C 22.65625 -42.921875 20.546875 -42.601562 18.234375 -41.96875 L 10.578125 -2.34375 C 12.347656 -1.707031 14.457031 -1.390625 16.90625 -1.390625 Z M 16.90625 -1.390625 "/></g></g></g><g fill="#ff9e2c" fill-opacity="1"><g transform="translate(113.871509, 194.279205)"><g><path d="M 17.03125 -3.09375 C 18.71875 -3.09375 20.328125 -3.546875 21.859375 -4.453125 C 23.398438 -5.367188 24.742188 -6.773438 25.890625 -8.671875 L 26.578125 -8.671875 C 25.910156 -6.179688 24.550781 -3.992188 22.5 -2.109375 C 20.457031 -0.234375 17.957031 0.703125 15 0.703125 C 12.632812 0.703125 10.554688 0.15625 8.765625 -0.9375 C 6.972656 -2.039062 5.566406 -3.59375 4.546875 -5.59375 C 3.535156 -7.601562 3.03125 -9.914062 3.03125 -12.53125 C 3.03125 -16.15625 3.769531 -19.476562 5.25 -22.5 C 6.726562 -25.519531 8.765625 -27.914062 11.359375 -29.6875 C 13.953125 -31.457031 16.8125 -32.34375 19.9375 -32.34375 C 22.8125 -32.34375 24.953125 -31.75 26.359375 -30.5625 C 27.773438 -29.382812 28.484375 -27.929688 28.484375 -26.203125 C 28.484375 -22.023438 25.148438 -19.175781 18.484375 -17.65625 C 15.992188 -17.070312 12.765625 -16.753906 8.796875 -16.703125 C 8.753906 -16.242188 8.734375 -15.570312 8.734375 -14.6875 C 8.734375 -11.050781 9.425781 -8.207031 10.8125 -6.15625 C 12.207031 -4.113281 14.28125 -3.09375 17.03125 -3.09375 Z M 18.796875 -30.640625 C 16.222656 -30.640625 14.0625 -29.445312 12.3125 -27.0625 C 10.5625 -24.675781 9.453125 -21.710938 8.984375 -18.171875 C 12.484375 -18.210938 15.289062 -18.613281 17.40625 -19.375 C 19.132812 -19.957031 20.460938 -20.898438 21.390625 -22.203125 C 22.316406 -23.515625 22.78125 -24.929688 22.78125 -26.453125 C 22.78125 -27.765625 22.453125 -28.789062 21.796875 -29.53125 C 21.148438 -30.269531 20.148438 -30.640625 18.796875 -30.640625 Z M 18.796875 -30.640625 "/></g></g></g><g fill="#ff9e2c" fill-opacity="1"><g transform="translate(143.679721, 194.279205)"><g><path d="M 12.65625 0.703125 C 10.507812 0.703125 8.484375 0.351562 6.578125 -0.34375 C 4.679688 -1.039062 3.015625 -2.046875 1.578125 -3.359375 L 3.234375 -11.96875 L 3.859375 -11.96875 C 3.859375 -9.894531 4.269531 -8.015625 5.09375 -6.328125 C 5.914062 -4.640625 7.007812 -3.3125 8.375 -2.34375 C 9.75 -1.375 11.257812 -0.890625 12.90625 -0.890625 C 14.59375 -0.890625 15.953125 -1.375 16.984375 -2.34375 C 18.023438 -3.3125 18.546875 -4.535156 18.546875 -6.015625 C 18.546875 -7.148438 18.144531 -8.265625 17.34375 -9.359375 C 16.539062 -10.460938 15.128906 -11.898438 13.109375 -13.671875 C 10.398438 -15.992188 8.488281 -17.867188 7.375 -19.296875 C 6.257812 -20.734375 5.703125 -22.335938 5.703125 -24.109375 C 5.703125 -26.597656 6.660156 -28.59375 8.578125 -30.09375 C 10.492188 -31.59375 12.847656 -32.34375 15.640625 -32.34375 C 17.492188 -32.34375 19.234375 -32.054688 20.859375 -31.484375 C 22.484375 -30.921875 23.820312 -30.21875 24.875 -29.375 L 23.421875 -21.96875 L 22.78125 -21.96875 C 22.695312 -24.75 21.957031 -26.921875 20.5625 -28.484375 C 19.175781 -30.046875 17.40625 -30.828125 15.25 -30.828125 C 13.644531 -30.828125 12.335938 -30.40625 11.328125 -29.5625 C 10.316406 -28.71875 9.8125 -27.578125 9.8125 -26.140625 C 9.8125 -25.421875 9.96875 -24.785156 10.28125 -24.234375 C 10.601562 -23.691406 11.1875 -23.019531 12.03125 -22.21875 C 12.875 -21.414062 14.265625 -20.210938 16.203125 -18.609375 C 18.523438 -16.710938 20.210938 -15.046875 21.265625 -13.609375 C 22.316406 -12.171875 22.84375 -10.441406 22.84375 -8.421875 C 22.84375 -5.546875 21.925781 -3.304688 20.09375 -1.703125 C 18.257812 -0.0976562 15.78125 0.703125 12.65625 0.703125 Z M 12.65625 0.703125 "/></g></g></g><g fill="#ff9e2c" fill-opacity="1"><g transform="translate(170.576738, 194.279205)"><g><path d="M 8.546875 0.703125 C 7.148438 0.703125 6.03125 0.269531 5.1875 -0.59375 C 4.34375 -1.46875 3.921875 -2.875 3.921875 -4.8125 C 3.921875 -5.53125 4.023438 -6.519531 4.234375 -7.78125 L 6.90625 -21.640625 C 7.195312 -23.160156 7.34375 -24.425781 7.34375 -25.4375 C 7.34375 -26.332031 7.210938 -27.019531 6.953125 -27.5 C 6.703125 -27.988281 6.285156 -28.484375 5.703125 -28.984375 L 5.765625 -29.3125 L 14.109375 -32.34375 L 14.4375 -32.34375 L 9.375 -6.078125 C 9.195312 -5.234375 9.109375 -4.472656 9.109375 -3.796875 C 9.109375 -2.703125 9.507812 -2.15625 10.3125 -2.15625 C 11.070312 -2.15625 11.820312 -2.734375 12.5625 -3.890625 C 13.300781 -5.054688 14.070312 -6.753906 14.875 -8.984375 L 15.953125 -8.984375 C 14.859375 -5.234375 13.71875 -2.679688 12.53125 -1.328125 C 11.351562 0.0234375 10.023438 0.703125 8.546875 0.703125 Z M 12.84375 -36.578125 C 11.875 -36.578125 11.070312 -36.90625 10.4375 -37.5625 C 9.800781 -38.21875 9.484375 -39.007812 9.484375 -39.9375 C 9.484375 -41.039062 9.882812 -41.976562 10.6875 -42.75 C 11.488281 -43.53125 12.460938 -43.921875 13.609375 -43.921875 C 14.535156 -43.921875 15.300781 -43.59375 15.90625 -42.9375 C 16.519531 -42.289062 16.828125 -41.484375 16.828125 -40.515625 C 16.828125 -39.410156 16.4375 -38.476562 15.65625 -37.71875 C 14.875 -36.957031 13.9375 -36.578125 12.84375 -36.578125 Z M 12.84375 -36.578125 "/></g></g></g><g fill="#ff9e2c" fill-opacity="1"><g transform="translate(189.119856, 194.279205)"><g><path d="M 32.53125 -32.65625 L 31.84375 -28.671875 C 30.40625 -28.921875 29.179688 -29.046875 28.171875 -29.046875 C 27.109375 -29.046875 26.050781 -28.898438 25 -28.609375 C 26.144531 -27.046875 26.71875 -25.191406 26.71875 -23.046875 C 26.71875 -20.929688 26.1875 -18.957031 25.125 -17.125 C 24.070312 -15.289062 22.640625 -13.832031 20.828125 -12.75 C 19.015625 -11.675781 17.050781 -11.140625 14.9375 -11.140625 C 12.570312 -11.140625 10.609375 -11.644531 9.046875 -12.65625 C 7.953125 -11.726562 7.40625 -10.738281 7.40625 -9.6875 C 7.40625 -8.84375 7.878906 -8.101562 8.828125 -7.46875 C 9.773438 -6.832031 11.726562 -6.195312 14.6875 -5.5625 C 17.976562 -4.851562 20.5 -4.085938 22.25 -3.265625 C 24 -2.441406 25.179688 -1.550781 25.796875 -0.59375 C 26.410156 0.351562 26.71875 1.4375 26.71875 2.65625 C 26.71875 4.34375 26.019531 6.007812 24.625 7.65625 C 23.226562 9.300781 21.273438 10.648438 18.765625 11.703125 C 16.253906 12.765625 13.394531 13.296875 10.1875 13.296875 C 6.3125 13.296875 3.359375 12.691406 1.328125 11.484375 C -0.691406 10.285156 -1.703125 8.609375 -1.703125 6.453125 C -1.703125 4.304688 -0.828125 2.441406 0.921875 0.859375 C 2.671875 -0.722656 4.664062 -1.894531 6.90625 -2.65625 C 4.75 -3.84375 3.671875 -5.425781 3.671875 -7.40625 C 3.671875 -9.894531 5.125 -11.878906 8.03125 -13.359375 C 5.925781 -15.046875 4.875 -17.40625 4.875 -20.4375 C 4.875 -22.550781 5.398438 -24.523438 6.453125 -26.359375 C 7.503906 -28.191406 8.925781 -29.644531 10.71875 -30.71875 C 12.519531 -31.800781 14.472656 -32.34375 16.578125 -32.34375 C 18.179688 -32.34375 19.632812 -32.085938 20.9375 -31.578125 C 22.25 -31.078125 23.375 -30.363281 24.3125 -29.4375 C 25.28125 -30.40625 26.445312 -31.179688 27.8125 -31.765625 C 29.1875 -32.359375 30.632812 -32.65625 32.15625 -32.65625 Z M 15 -12.46875 C 16.1875 -12.46875 17.265625 -12.921875 18.234375 -13.828125 C 19.203125 -14.734375 19.976562 -16.050781 20.5625 -17.78125 C 21.15625 -19.507812 21.453125 -21.578125 21.453125 -23.984375 C 21.453125 -26.097656 21.03125 -27.796875 20.1875 -29.078125 C 19.34375 -30.367188 18.140625 -31.015625 16.578125 -31.015625 C 15.398438 -31.015625 14.328125 -30.5625 13.359375 -29.65625 C 12.390625 -28.75 11.609375 -27.429688 11.015625 -25.703125 C 10.421875 -23.972656 10.125 -21.90625 10.125 -19.5 C 10.125 -17.382812 10.546875 -15.679688 11.390625 -14.390625 C 12.234375 -13.109375 13.4375 -12.46875 15 -12.46875 Z M 22.21875 4.6875 C 22.21875 3.800781 22.003906 3.09375 21.578125 2.5625 C 21.160156 2.03125 20.296875 1.507812 18.984375 1 C 17.679688 0.5 15.722656 -0.0195312 13.109375 -0.5625 C 11.078125 -0.988281 9.382812 -1.5 8.03125 -2.09375 C 6.5625 -1.207031 5.367188 -0.195312 4.453125 0.9375 C 3.546875 2.082031 3.09375 3.457031 3.09375 5.0625 C 3.09375 6.914062 3.84375 8.429688 5.34375 9.609375 C 6.84375 10.796875 9.03125 11.390625 11.90625 11.390625 C 13.925781 11.390625 15.71875 11.070312 17.28125 10.4375 C 18.84375 9.8125 20.054688 8.976562 20.921875 7.9375 C 21.785156 6.90625 22.21875 5.820312 22.21875 4.6875 Z M 22.21875 4.6875 "/></g></g></g><g fill="#ff9e2c" fill-opacity="1"><g transform="translate(219.750803, 194.279205)"><g><path d="M 27.03125 0.703125 C 25.757812 0.703125 24.722656 0.269531 23.921875 -0.59375 C 23.117188 -1.46875 22.71875 -2.769531 22.71875 -4.5 C 22.71875 -5.59375 22.867188 -6.726562 23.171875 -7.90625 L 26.578125 -22.28125 C 26.753906 -22.957031 26.84375 -23.675781 26.84375 -24.4375 C 26.84375 -25.695312 26.523438 -26.664062 25.890625 -27.34375 C 25.253906 -28.019531 24.410156 -28.359375 23.359375 -28.359375 C 21.160156 -28.359375 18.992188 -27.035156 16.859375 -24.390625 C 14.734375 -21.753906 12.765625 -17.503906 10.953125 -11.640625 L 8.671875 0 L 3.234375 0 L 7.40625 -21.640625 C 7.738281 -23.460938 7.90625 -24.773438 7.90625 -25.578125 C 7.90625 -26.421875 7.78125 -27.070312 7.53125 -27.53125 C 7.28125 -28 6.835938 -28.484375 6.203125 -28.984375 L 6.265625 -29.3125 L 14.625 -32.34375 L 14.9375 -32.34375 L 12.65625 -20.515625 L 12.96875 -20.515625 C 14.445312 -24.265625 16.238281 -27.171875 18.34375 -29.234375 C 20.457031 -31.304688 22.78125 -32.34375 25.3125 -32.34375 C 27.382812 -32.34375 29.0625 -31.75 30.34375 -30.5625 C 31.632812 -29.382812 32.28125 -27.507812 32.28125 -24.9375 C 32.28125 -23.457031 32.066406 -21.875 31.640625 -20.1875 L 28.046875 -5.1875 C 27.910156 -4.644531 27.84375 -4.160156 27.84375 -3.734375 C 27.84375 -2.679688 28.242188 -2.15625 29.046875 -2.15625 C 29.847656 -2.15625 30.609375 -2.722656 31.328125 -3.859375 C 32.046875 -4.992188 32.828125 -6.703125 33.671875 -8.984375 L 34.75 -8.984375 C 33.988281 -6.367188 33.207031 -4.363281 32.40625 -2.96875 C 31.601562 -1.582031 30.78125 -0.625 29.9375 -0.09375 C 29.09375 0.4375 28.125 0.703125 27.03125 0.703125 Z M 27.03125 0.703125 "/></g></g></g><g fill="#ff9e2c" fill-opacity="1"><g transform="translate(257.280041, 194.279205)"><g><path d="M 12.65625 0.703125 C 10.507812 0.703125 8.484375 0.351562 6.578125 -0.34375 C 4.679688 -1.039062 3.015625 -2.046875 1.578125 -3.359375 L 3.234375 -11.96875 L 3.859375 -11.96875 C 3.859375 -9.894531 4.269531 -8.015625 5.09375 -6.328125 C 5.914062 -4.640625 7.007812 -3.3125 8.375 -2.34375 C 9.75 -1.375 11.257812 -0.890625 12.90625 -0.890625 C 14.59375 -0.890625 15.953125 -1.375 16.984375 -2.34375 C 18.023438 -3.3125 18.546875 -4.535156 18.546875 -6.015625 C 18.546875 -7.148438 18.144531 -8.265625 17.34375 -9.359375 C 16.539062 -10.460938 15.128906 -11.898438 13.109375 -13.671875 C 10.398438 -15.992188 8.488281 -17.867188 7.375 -19.296875 C 6.257812 -20.734375 5.703125 -22.335938 5.703125 -24.109375 C 5.703125 -26.597656 6.660156 -28.59375 8.578125 -30.09375 C 10.492188 -31.59375 12.847656 -32.34375 15.640625 -32.34375 C 17.492188 -32.34375 19.234375 -32.054688 20.859375 -31.484375 C 22.484375 -30.921875 23.820312 -30.21875 24.875 -29.375 L 23.421875 -21.96875 L 22.78125 -21.96875 C 22.695312 -24.75 21.957031 -26.921875 20.5625 -28.484375 C 19.175781 -30.046875 17.40625 -30.828125 15.25 -30.828125 C 13.644531 -30.828125 12.335938 -30.40625 11.328125 -29.5625 C 10.316406 -28.71875 9.8125 -27.578125 9.8125 -26.140625 C 9.8125 -25.421875 9.96875 -24.785156 10.28125 -24.234375 C 10.601562 -23.691406 11.1875 -23.019531 12.03125 -22.21875 C 12.875 -21.414062 14.265625 -20.210938 16.203125 -18.609375 C 18.523438 -16.710938 20.210938 -15.046875 21.265625 -13.609375 C 22.316406 -12.171875 22.84375 -10.441406 22.84375 -8.421875 C 22.84375 -5.546875 21.925781 -3.304688 20.09375 -1.703125 C 18.257812 -0.0976562 15.78125 0.703125 12.65625 0.703125 Z M 12.65625 0.703125 "/></g></g></g><g fill="#545454" fill-opacity="1"><g transform="translate(0.54341, 249.003853)"><g><path d="M 11.90625 0.34375 C 10.46875 0.34375 9.140625 0.078125 7.921875 -0.453125 C 6.710938 -0.984375 5.660156 -1.707031 4.765625 -2.625 C 3.878906 -3.539062 3.1875 -4.625 2.6875 -5.875 C 2.1875 -7.125 1.9375 -8.460938 1.9375 -9.890625 L 1.9375 -9.9375 C 1.9375 -11.34375 2.1875 -12.671875 2.6875 -13.921875 C 3.1875 -15.171875 3.878906 -16.265625 4.765625 -17.203125 C 5.660156 -18.140625 6.722656 -18.875 7.953125 -19.40625 C 9.179688 -19.945312 10.523438 -20.21875 11.984375 -20.21875 C 12.890625 -20.21875 13.707031 -20.140625 14.4375 -19.984375 C 15.164062 -19.835938 15.84375 -19.628906 16.46875 -19.359375 C 17.09375 -19.085938 17.671875 -18.753906 18.203125 -18.359375 C 18.734375 -17.972656 19.25 -17.546875 19.75 -17.078125 L 18.203125 -15.421875 C 17.359375 -16.222656 16.445312 -16.878906 15.46875 -17.390625 C 14.488281 -17.898438 13.316406 -18.15625 11.953125 -18.15625 C 10.859375 -18.15625 9.84375 -17.945312 8.90625 -17.53125 C 7.96875 -17.113281 7.148438 -16.535156 6.453125 -15.796875 C 5.765625 -15.054688 5.226562 -14.1875 4.84375 -13.1875 C 4.457031 -12.195312 4.265625 -11.132812 4.265625 -10 L 4.265625 -9.9375 C 4.265625 -8.78125 4.457031 -7.707031 4.84375 -6.71875 C 5.226562 -5.726562 5.765625 -4.863281 6.453125 -4.125 C 7.148438 -3.382812 7.96875 -2.800781 8.90625 -2.375 C 9.84375 -1.945312 10.859375 -1.734375 11.953125 -1.734375 C 13.316406 -1.734375 14.488281 -1.984375 15.46875 -2.484375 C 16.457031 -2.984375 17.425781 -3.691406 18.375 -4.609375 L 19.859375 -3.15625 C 19.347656 -2.625 18.8125 -2.144531 18.25 -1.71875 C 17.6875 -1.289062 17.082031 -0.925781 16.4375 -0.625 C 15.800781 -0.320312 15.113281 -0.0859375 14.375 0.078125 C 13.632812 0.253906 12.8125 0.34375 11.90625 0.34375 Z M 11.90625 0.34375 "/></g></g></g><g fill="#545454" fill-opacity="1"><g transform="translate(22.472285, 249.003853)"><g><path d="M 2.640625 -20.734375 L 4.828125 -20.734375 L 4.828125 0 L 2.640625 0 Z M 2.640625 -20.734375 "/></g></g></g><g fill="#545454" fill-opacity="1"><g transform="translate(30.79523, 249.003853)"><g><path d="M 8.859375 0.34375 C 7.859375 0.34375 6.910156 0.160156 6.015625 -0.203125 C 5.128906 -0.578125 4.351562 -1.097656 3.6875 -1.765625 C 3.03125 -2.441406 2.503906 -3.25 2.109375 -4.1875 C 1.722656 -5.125 1.53125 -6.160156 1.53125 -7.296875 L 1.53125 -7.359375 C 1.53125 -8.421875 1.703125 -9.414062 2.046875 -10.34375 C 2.398438 -11.269531 2.890625 -12.078125 3.515625 -12.765625 C 4.140625 -13.460938 4.882812 -14.007812 5.75 -14.40625 C 6.613281 -14.800781 7.554688 -15 8.578125 -15 C 9.660156 -15 10.625 -14.796875 11.46875 -14.390625 C 12.320312 -13.984375 13.039062 -13.425781 13.625 -12.71875 C 14.21875 -12.019531 14.664062 -11.203125 14.96875 -10.265625 C 15.269531 -9.328125 15.421875 -8.320312 15.421875 -7.25 C 15.421875 -7.09375 15.421875 -6.96875 15.421875 -6.875 C 15.421875 -6.78125 15.410156 -6.664062 15.390625 -6.53125 L 3.75 -6.53125 C 3.820312 -5.738281 4.007812 -5.035156 4.3125 -4.421875 C 4.613281 -3.804688 5 -3.285156 5.46875 -2.859375 C 5.9375 -2.429688 6.460938 -2.109375 7.046875 -1.890625 C 7.628906 -1.671875 8.253906 -1.5625 8.921875 -1.5625 C 9.941406 -1.5625 10.816406 -1.75 11.546875 -2.125 C 12.273438 -2.507812 12.941406 -3.015625 13.546875 -3.640625 L 14.90625 -2.421875 C 14.175781 -1.585938 13.335938 -0.914062 12.390625 -0.40625 C 11.441406 0.09375 10.265625 0.34375 8.859375 0.34375 Z M 13.203125 -8.15625 C 13.148438 -8.8125 13.015625 -9.441406 12.796875 -10.046875 C 12.578125 -10.660156 12.273438 -11.191406 11.890625 -11.640625 C 11.503906 -12.097656 11.03125 -12.460938 10.46875 -12.734375 C 9.90625 -13.015625 9.253906 -13.15625 8.515625 -13.15625 C 7.878906 -13.15625 7.285156 -13.023438 6.734375 -12.765625 C 6.179688 -12.515625 5.695312 -12.164062 5.28125 -11.71875 C 4.863281 -11.269531 4.519531 -10.742188 4.25 -10.140625 C 3.988281 -9.535156 3.820312 -8.875 3.75 -8.15625 Z M 13.203125 -8.15625 "/></g></g></g><g fill="#545454" fill-opacity="1"><g transform="translate(48.463372, 249.003853)"><g><path d="M 6.8125 0.3125 C 6.132812 0.3125 5.46875 0.21875 4.8125 0.03125 C 4.15625 -0.15625 3.566406 -0.441406 3.046875 -0.828125 C 2.523438 -1.222656 2.109375 -1.703125 1.796875 -2.265625 C 1.484375 -2.835938 1.328125 -3.503906 1.328125 -4.265625 L 1.328125 -4.3125 C 1.328125 -5.09375 1.476562 -5.773438 1.78125 -6.359375 C 2.09375 -6.953125 2.523438 -7.445312 3.078125 -7.84375 C 3.640625 -8.238281 4.300781 -8.539062 5.0625 -8.75 C 5.832031 -8.957031 6.679688 -9.0625 7.609375 -9.0625 C 8.554688 -9.0625 9.378906 -9.003906 10.078125 -8.890625 C 10.785156 -8.773438 11.46875 -8.625 12.125 -8.4375 L 12.125 -8.953125 C 12.125 -10.273438 11.738281 -11.269531 10.96875 -11.9375 C 10.207031 -12.613281 9.132812 -12.953125 7.75 -12.953125 C 6.882812 -12.953125 6.09375 -12.851562 5.375 -12.65625 C 4.664062 -12.457031 3.972656 -12.195312 3.296875 -11.875 L 2.640625 -13.65625 C 3.453125 -14.039062 4.273438 -14.34375 5.109375 -14.5625 C 5.941406 -14.78125 6.898438 -14.890625 7.984375 -14.890625 C 10.066406 -14.890625 11.644531 -14.347656 12.71875 -13.265625 C 13.726562 -12.265625 14.234375 -10.832031 14.234375 -8.96875 L 14.234375 0 L 12.125 0 L 12.125 -2.21875 C 11.613281 -1.550781 10.925781 -0.960938 10.0625 -0.453125 C 9.207031 0.0546875 8.125 0.3125 6.8125 0.3125 Z M 7.25 -1.421875 C 7.925781 -1.421875 8.5625 -1.519531 9.15625 -1.71875 C 9.757812 -1.914062 10.28125 -2.1875 10.71875 -2.53125 C 11.164062 -2.882812 11.515625 -3.300781 11.765625 -3.78125 C 12.023438 -4.269531 12.15625 -4.804688 12.15625 -5.390625 L 12.15625 -6.8125 C 11.601562 -6.96875 10.972656 -7.109375 10.265625 -7.234375 C 9.554688 -7.367188 8.75 -7.4375 7.84375 -7.4375 C 6.457031 -7.4375 5.394531 -7.160156 4.65625 -6.609375 C 3.914062 -6.066406 3.546875 -5.332031 3.546875 -4.40625 L 3.546875 -4.34375 C 3.546875 -3.894531 3.644531 -3.484375 3.84375 -3.109375 C 4.039062 -2.742188 4.3125 -2.4375 4.65625 -2.1875 C 5 -1.9375 5.390625 -1.742188 5.828125 -1.609375 C 6.273438 -1.484375 6.75 -1.421875 7.25 -1.421875 Z M 7.25 -1.421875 "/></g></g></g><g fill="#545454" fill-opacity="1"><g transform="translate(65.762258, 249.003853)"><g><path d="M 2.4375 -14.6875 L 4.625 -14.6875 L 4.625 -10.84375 C 4.894531 -11.457031 5.226562 -12.019531 5.625 -12.53125 C 6.019531 -13.039062 6.472656 -13.476562 6.984375 -13.84375 C 7.492188 -14.21875 8.050781 -14.5 8.65625 -14.6875 C 9.269531 -14.875 9.925781 -14.957031 10.625 -14.9375 L 10.625 -12.578125 L 10.453125 -12.578125 C 9.660156 -12.578125 8.90625 -12.4375 8.1875 -12.15625 C 7.476562 -11.875 6.859375 -11.445312 6.328125 -10.875 C 5.804688 -10.3125 5.390625 -9.609375 5.078125 -8.765625 C 4.773438 -7.921875 4.625 -6.953125 4.625 -5.859375 L 4.625 0 L 2.4375 0 Z M 2.4375 -14.6875 "/></g></g></g><g fill="#545454" fill-opacity="1"><g transform="translate(75.561632, 249.003853)"><g><path d="M 2.15625 -2.984375 L 4.765625 -2.984375 L 4.765625 0 L 2.15625 0 Z M 2.15625 -2.984375 "/></g></g></g><g fill="#545454" fill-opacity="1"><g transform="translate(82.208417, 249.003853)"><g><path d="M 11.90625 0.34375 C 10.46875 0.34375 9.140625 0.078125 7.921875 -0.453125 C 6.710938 -0.984375 5.660156 -1.707031 4.765625 -2.625 C 3.878906 -3.539062 3.1875 -4.625 2.6875 -5.875 C 2.1875 -7.125 1.9375 -8.460938 1.9375 -9.890625 L 1.9375 -9.9375 C 1.9375 -11.34375 2.1875 -12.671875 2.6875 -13.921875 C 3.1875 -15.171875 3.878906 -16.265625 4.765625 -17.203125 C 5.660156 -18.140625 6.722656 -18.875 7.953125 -19.40625 C 9.179688 -19.945312 10.523438 -20.21875 11.984375 -20.21875 C 12.890625 -20.21875 13.707031 -20.140625 14.4375 -19.984375 C 15.164062 -19.835938 15.84375 -19.628906 16.46875 -19.359375 C 17.09375 -19.085938 17.671875 -18.753906 18.203125 -18.359375 C 18.734375 -17.972656 19.25 -17.546875 19.75 -17.078125 L 18.203125 -15.421875 C 17.359375 -16.222656 16.445312 -16.878906 15.46875 -17.390625 C 14.488281 -17.898438 13.316406 -18.15625 11.953125 -18.15625 C 10.859375 -18.15625 9.84375 -17.945312 8.90625 -17.53125 C 7.96875 -17.113281 7.148438 -16.535156 6.453125 -15.796875 C 5.765625 -15.054688 5.226562 -14.1875 4.84375 -13.1875 C 4.457031 -12.195312 4.265625 -11.132812 4.265625 -10 L 4.265625 -9.9375 C 4.265625 -8.78125 4.457031 -7.707031 4.84375 -6.71875 C 5.226562 -5.726562 5.765625 -4.863281 6.453125 -4.125 C 7.148438 -3.382812 7.96875 -2.800781 8.90625 -2.375 C 9.84375 -1.945312 10.859375 -1.734375 11.953125 -1.734375 C 13.316406 -1.734375 14.488281 -1.984375 15.46875 -2.484375 C 16.457031 -2.984375 17.425781 -3.691406 18.375 -4.609375 L 19.859375 -3.15625 C 19.347656 -2.625 18.8125 -2.144531 18.25 -1.71875 C 17.6875 -1.289062 17.082031 -0.925781 16.4375 -0.625 C 15.800781 -0.320312 15.113281 -0.0859375 14.375 0.078125 C 13.632812 0.253906 12.8125 0.34375 11.90625 0.34375 Z M 11.90625 0.34375 "/></g></g></g><g fill="#545454" fill-opacity="1"><g transform="translate(104.137292, 249.003853)"><g><path d="M 2.4375 -14.6875 L 4.625 -14.6875 L 4.625 -10.84375 C 4.894531 -11.457031 5.226562 -12.019531 5.625 -12.53125 C 6.019531 -13.039062 6.472656 -13.476562 6.984375 -13.84375 C 7.492188 -14.21875 8.050781 -14.5 8.65625 -14.6875 C 9.269531 -14.875 9.925781 -14.957031 10.625 -14.9375 L 10.625 -12.578125 L 10.453125 -12.578125 C 9.660156 -12.578125 8.90625 -12.4375 8.1875 -12.15625 C 7.476562 -11.875 6.859375 -11.445312 6.328125 -10.875 C 5.804688 -10.3125 5.390625 -9.609375 5.078125 -8.765625 C 4.773438 -7.921875 4.625 -6.953125 4.625 -5.859375 L 4.625 0 L 2.4375 0 Z M 2.4375 -14.6875 "/></g></g></g><g fill="#545454" fill-opacity="1"><g transform="translate(115.868666, 249.003853)"><g><path d="M 8.859375 0.34375 C 7.859375 0.34375 6.910156 0.160156 6.015625 -0.203125 C 5.128906 -0.578125 4.351562 -1.097656 3.6875 -1.765625 C 3.03125 -2.441406 2.503906 -3.25 2.109375 -4.1875 C 1.722656 -5.125 1.53125 -6.160156 1.53125 -7.296875 L 1.53125 -7.359375 C 1.53125 -8.421875 1.703125 -9.414062 2.046875 -10.34375 C 2.398438 -11.269531 2.890625 -12.078125 3.515625 -12.765625 C 4.140625 -13.460938 4.882812 -14.007812 5.75 -14.40625 C 6.613281 -14.800781 7.554688 -15 8.578125 -15 C 9.660156 -15 10.625 -14.796875 11.46875 -14.390625 C 12.320312 -13.984375 13.039062 -13.425781 13.625 -12.71875 C 14.21875 -12.019531 14.664062 -11.203125 14.96875 -10.265625 C 15.269531 -9.328125 15.421875 -8.320312 15.421875 -7.25 C 15.421875 -7.09375 15.421875 -6.96875 15.421875 -6.875 C 15.421875 -6.78125 15.410156 -6.664062 15.390625 -6.53125 L 3.75 -6.53125 C 3.820312 -5.738281 4.007812 -5.035156 4.3125 -4.421875 C 4.613281 -3.804688 5 -3.285156 5.46875 -2.859375 C 5.9375 -2.429688 6.460938 -2.109375 7.046875 -1.890625 C 7.628906 -1.671875 8.253906 -1.5625 8.921875 -1.5625 C 9.941406 -1.5625 10.816406 -1.75 11.546875 -2.125 C 12.273438 -2.507812 12.941406 -3.015625 13.546875 -3.640625 L 14.90625 -2.421875 C 14.175781 -1.585938 13.335938 -0.914062 12.390625 -0.40625 C 11.441406 0.09375 10.265625 0.34375 8.859375 0.34375 Z M 13.203125 -8.15625 C 13.148438 -8.8125 13.015625 -9.441406 12.796875 -10.046875 C 12.578125 -10.660156 12.273438 -11.191406 11.890625 -11.640625 C 11.503906 -12.097656 11.03125 -12.460938 10.46875 -12.734375 C 9.90625 -13.015625 9.253906 -13.15625 8.515625 -13.15625 C 7.878906 -13.15625 7.285156 -13.023438 6.734375 -12.765625 C 6.179688 -12.515625 5.695312 -12.164062 5.28125 -11.71875 C 4.863281 -11.269531 4.519531 -10.742188 4.25 -10.140625 C 3.988281 -9.535156 3.820312 -8.875 3.75 -8.15625 Z M 13.203125 -8.15625 "/></g></g></g><g fill="#545454" fill-opacity="1"><g transform="translate(133.536808, 249.003853)"><g><path d="M 6.8125 0.3125 C 6.132812 0.3125 5.46875 0.21875 4.8125 0.03125 C 4.15625 -0.15625 3.566406 -0.441406 3.046875 -0.828125 C 2.523438 -1.222656 2.109375 -1.703125 1.796875 -2.265625 C 1.484375 -2.835938 1.328125 -3.503906 1.328125 -4.265625 L 1.328125 -4.3125 C 1.328125 -5.09375 1.476562 -5.773438 1.78125 -6.359375 C 2.09375 -6.953125 2.523438 -7.445312 3.078125 -7.84375 C 3.640625 -8.238281 4.300781 -8.539062 5.0625 -8.75 C 5.832031 -8.957031 6.679688 -9.0625 7.609375 -9.0625 C 8.554688 -9.0625 9.378906 -9.003906 10.078125 -8.890625 C 10.785156 -8.773438 11.46875 -8.625 12.125 -8.4375 L 12.125 -8.953125 C 12.125 -10.273438 11.738281 -11.269531 10.96875 -11.9375 C 10.207031 -12.613281 9.132812 -12.953125 7.75 -12.953125 C 6.882812 -12.953125 6.09375 -12.851562 5.375 -12.65625 C 4.664062 -12.457031 3.972656 -12.195312 3.296875 -11.875 L 2.640625 -13.65625 C 3.453125 -14.039062 4.273438 -14.34375 5.109375 -14.5625 C 5.941406 -14.78125 6.898438 -14.890625 7.984375 -14.890625 C 10.066406 -14.890625 11.644531 -14.347656 12.71875 -13.265625 C 13.726562 -12.265625 14.234375 -10.832031 14.234375 -8.96875 L 14.234375 0 L 12.125 0 L 12.125 -2.21875 C 11.613281 -1.550781 10.925781 -0.960938 10.0625 -0.453125 C 9.207031 0.0546875 8.125 0.3125 6.8125 0.3125 Z M 7.25 -1.421875 C 7.925781 -1.421875 8.5625 -1.519531 9.15625 -1.71875 C 9.757812 -1.914062 10.28125 -2.1875 10.71875 -2.53125 C 11.164062 -2.882812 11.515625 -3.300781 11.765625 -3.78125 C 12.023438 -4.269531 12.15625 -4.804688 12.15625 -5.390625 L 12.15625 -6.8125 C 11.601562 -6.96875 10.972656 -7.109375 10.265625 -7.234375 C 9.554688 -7.367188 8.75 -7.4375 7.84375 -7.4375 C 6.457031 -7.4375 5.394531 -7.160156 4.65625 -6.609375 C 3.914062 -6.066406 3.546875 -5.332031 3.546875 -4.40625 L 3.546875 -4.34375 C 3.546875 -3.894531 3.644531 -3.484375 3.84375 -3.109375 C 4.039062 -2.742188 4.3125 -2.4375 4.65625 -2.1875 C 5 -1.9375 5.390625 -1.742188 5.828125 -1.609375 C 6.273438 -1.484375 6.75 -1.421875 7.25 -1.421875 Z M 7.25 -1.421875 "/></g></g></g><g fill="#545454" fill-opacity="1"><g transform="translate(150.693636, 249.003853)"><g><path d="M 7.359375 0.25 C 6.773438 0.25 6.222656 0.171875 5.703125 0.015625 C 5.191406 -0.128906 4.75 -0.363281 4.375 -0.6875 C 4.007812 -1.019531 3.722656 -1.453125 3.515625 -1.984375 C 3.304688 -2.515625 3.203125 -3.148438 3.203125 -3.890625 L 3.203125 -12.75 L 1.171875 -12.75 L 1.171875 -14.6875 L 3.203125 -14.6875 L 3.203125 -19.125 L 5.390625 -19.125 L 5.390625 -14.6875 L 10.0625 -14.6875 L 10.0625 -12.75 L 5.390625 -12.75 L 5.390625 -4.171875 C 5.390625 -3.265625 5.617188 -2.628906 6.078125 -2.265625 C 6.535156 -1.910156 7.132812 -1.734375 7.875 -1.734375 C 8.25 -1.734375 8.601562 -1.769531 8.9375 -1.84375 C 9.269531 -1.914062 9.625 -2.050781 10 -2.25 L 10 -0.375 C 9.625 -0.164062 9.222656 -0.0078125 8.796875 0.09375 C 8.367188 0.195312 7.890625 0.25 7.359375 0.25 Z M 7.359375 0.25 "/></g></g></g><g fill="#545454" fill-opacity="1"><g transform="translate(163.021669, 249.003853)"><g><path d="M 2.5 -20.3125 L 5 -20.3125 L 5 -17.890625 L 2.5 -17.890625 Z M 2.640625 -14.6875 L 4.828125 -14.6875 L 4.828125 0 L 2.640625 0 Z M 2.640625 -14.6875 "/></g></g></g><g fill="#545454" fill-opacity="1"><g transform="translate(171.344614, 249.003853)"><g><path d="M 1 -14.6875 L 3.40625 -14.6875 L 8.34375 -2.5 L 13.328125 -14.6875 L 15.6875 -14.6875 L 9.28125 0.109375 L 7.359375 0.109375 Z M 1 -14.6875 "/></g></g></g><g fill="#545454" fill-opacity="1"><g transform="translate(188.018382, 249.003853)"><g><path d="M 8.859375 0.34375 C 7.859375 0.34375 6.910156 0.160156 6.015625 -0.203125 C 5.128906 -0.578125 4.351562 -1.097656 3.6875 -1.765625 C 3.03125 -2.441406 2.503906 -3.25 2.109375 -4.1875 C 1.722656 -5.125 1.53125 -6.160156 1.53125 -7.296875 L 1.53125 -7.359375 C 1.53125 -8.421875 1.703125 -9.414062 2.046875 -10.34375 C 2.398438 -11.269531 2.890625 -12.078125 3.515625 -12.765625 C 4.140625 -13.460938 4.882812 -14.007812 5.75 -14.40625 C 6.613281 -14.800781 7.554688 -15 8.578125 -15 C 9.660156 -15 10.625 -14.796875 11.46875 -14.390625 C 12.320312 -13.984375 13.039062 -13.425781 13.625 -12.71875 C 14.21875 -12.019531 14.664062 -11.203125 14.96875 -10.265625 C 15.269531 -9.328125 15.421875 -8.320312 15.421875 -7.25 C 15.421875 -7.09375 15.421875 -6.96875 15.421875 -6.875 C 15.421875 -6.78125 15.410156 -6.664062 15.390625 -6.53125 L 3.75 -6.53125 C 3.820312 -5.738281 4.007812 -5.035156 4.3125 -4.421875 C 4.613281 -3.804688 5 -3.285156 5.46875 -2.859375 C 5.9375 -2.429688 6.460938 -2.109375 7.046875 -1.890625 C 7.628906 -1.671875 8.253906 -1.5625 8.921875 -1.5625 C 9.941406 -1.5625 10.816406 -1.75 11.546875 -2.125 C 12.273438 -2.507812 12.941406 -3.015625 13.546875 -3.640625 L 14.90625 -2.421875 C 14.175781 -1.585938 13.335938 -0.914062 12.390625 -0.40625 C 11.441406 0.09375 10.265625 0.34375 8.859375 0.34375 Z M 13.203125 -8.15625 C 13.148438 -8.8125 13.015625 -9.441406 12.796875 -10.046875 C 12.578125 -10.660156 12.273438 -11.191406 11.890625 -11.640625 C 11.503906 -12.097656 11.03125 -12.460938 10.46875 -12.734375 C 9.90625 -13.015625 9.253906 -13.15625 8.515625 -13.15625 C 7.878906 -13.15625 7.285156 -13.023438 6.734375 -12.765625 C 6.179688 -12.515625 5.695312 -12.164062 5.28125 -11.71875 C 4.863281 -11.269531 4.519531 -10.742188 4.25 -10.140625 C 3.988281 -9.535156 3.820312 -8.875 3.75 -8.15625 Z M 13.203125 -8.15625 "/></g></g></g><g fill="#545454" fill-opacity="1"><g transform="translate(205.402396, 249.003853)"><g><path d="M 2.15625 -2.984375 L 4.765625 -2.984375 L 4.765625 0 L 2.15625 0 Z M 2.15625 -2.984375 "/></g></g></g><g fill="#ff9e2c" fill-opacity="1"><g transform="translate(213.187087, 249.003853)"><g><path d="M 2.8125 -19.890625 L 11.28125 -19.890625 C 12.414062 -19.890625 13.421875 -19.734375 14.296875 -19.421875 C 15.179688 -19.109375 15.90625 -18.675781 16.46875 -18.125 C 17.320312 -17.226562 17.75 -16.164062 17.75 -14.9375 L 17.75 -14.890625 C 17.75 -14.242188 17.660156 -13.664062 17.484375 -13.15625 C 17.304688 -12.65625 17.066406 -12.222656 16.765625 -11.859375 C 16.460938 -11.492188 16.125 -11.179688 15.75 -10.921875 C 15.382812 -10.660156 15 -10.445312 14.59375 -10.28125 C 15.1875 -10.113281 15.742188 -9.890625 16.265625 -9.609375 C 16.785156 -9.335938 17.234375 -9.007812 17.609375 -8.625 C 17.992188 -8.25 18.296875 -7.800781 18.515625 -7.28125 C 18.742188 -6.757812 18.859375 -6.160156 18.859375 -5.484375 L 18.859375 -5.421875 C 18.859375 -4.566406 18.6875 -3.800781 18.34375 -3.125 C 18.007812 -2.457031 17.523438 -1.890625 16.890625 -1.421875 C 16.253906 -0.960938 15.488281 -0.609375 14.59375 -0.359375 C 13.707031 -0.117188 12.722656 0 11.640625 0 L 2.8125 0 Z M 15.484375 -14.625 C 15.484375 -15.613281 15.101562 -16.398438 14.34375 -16.984375 C 13.582031 -17.578125 12.492188 -17.875 11.078125 -17.875 L 5.03125 -17.875 L 5.03125 -11.015625 L 10.90625 -11.015625 C 12.269531 -11.015625 13.375 -11.3125 14.21875 -11.90625 C 15.0625 -12.507812 15.484375 -13.398438 15.484375 -14.578125 Z M 16.59375 -5.625 C 16.59375 -6.707031 16.144531 -7.546875 15.25 -8.140625 C 14.363281 -8.734375 13.050781 -9.03125 11.3125 -9.03125 L 5.03125 -9.03125 L 5.03125 -2.015625 L 11.703125 -2.015625 C 13.210938 -2.015625 14.40625 -2.328125 15.28125 -2.953125 C 16.15625 -3.578125 16.59375 -4.445312 16.59375 -5.5625 Z M 16.59375 -5.625 "/></g></g></g><g fill="#ff9e2c" fill-opacity="1"><g transform="translate(234.547866, 249.003853)"><g><path d="M 7.84375 0.3125 C 6.945312 0.3125 6.15625 0.171875 5.46875 -0.109375 C 4.78125 -0.398438 4.191406 -0.804688 3.703125 -1.328125 C 3.222656 -1.847656 2.851562 -2.46875 2.59375 -3.1875 C 2.34375 -3.90625 2.21875 -4.695312 2.21875 -5.5625 L 2.21875 -14.6875 L 4.40625 -14.6875 L 4.40625 -6.109375 C 4.40625 -4.742188 4.753906 -3.660156 5.453125 -2.859375 C 6.148438 -2.066406 7.15625 -1.671875 8.46875 -1.671875 C 9.09375 -1.671875 9.671875 -1.78125 10.203125 -2 C 10.742188 -2.21875 11.207031 -2.53125 11.59375 -2.9375 C 11.988281 -3.34375 12.300781 -3.828125 12.53125 -4.390625 C 12.757812 -4.960938 12.875 -5.59375 12.875 -6.28125 L 12.875 -14.6875 L 15.03125 -14.6875 L 15.03125 0 L 12.875 0 L 12.875 -2.5625 C 12.375 -1.757812 11.726562 -1.078125 10.9375 -0.515625 C 10.144531 0.0351562 9.113281 0.3125 7.84375 0.3125 Z M 7.84375 0.3125 "/></g></g></g><g fill="#ff9e2c" fill-opacity="1"><g transform="translate(252.897725, 249.003853)"><g><path d="M 2.5 -20.3125 L 5 -20.3125 L 5 -17.890625 L 2.5 -17.890625 Z M 2.640625 -14.6875 L 4.828125 -14.6875 L 4.828125 0 L 2.640625 0 Z M 2.640625 -14.6875 "/></g></g></g><g fill="#ff9e2c" fill-opacity="1"><g transform="translate(261.220671, 249.003853)"><g><path d="M 2.640625 -20.734375 L 4.828125 -20.734375 L 4.828125 0 L 2.640625 0 Z M 2.640625 -20.734375 "/></g></g></g><g fill="#ff9e2c" fill-opacity="1"><g transform="translate(269.543616, 249.003853)"><g><path d="M 8.609375 0.3125 C 7.710938 0.3125 6.847656 0.144531 6.015625 -0.1875 C 5.179688 -0.53125 4.429688 -1.03125 3.765625 -1.6875 C 3.109375 -2.34375 2.582031 -3.140625 2.1875 -4.078125 C 1.789062 -5.015625 1.59375 -6.085938 1.59375 -7.296875 L 1.59375 -7.359375 C 1.59375 -8.546875 1.789062 -9.613281 2.1875 -10.5625 C 2.582031 -11.507812 3.109375 -12.3125 3.765625 -12.96875 C 4.429688 -13.625 5.179688 -14.125 6.015625 -14.46875 C 6.847656 -14.820312 7.710938 -15 8.609375 -15 C 9.285156 -15 9.90625 -14.910156 10.46875 -14.734375 C 11.039062 -14.566406 11.554688 -14.34375 12.015625 -14.0625 C 12.472656 -13.78125 12.882812 -13.445312 13.25 -13.0625 C 13.625 -12.6875 13.953125 -12.289062 14.234375 -11.875 L 14.234375 -20.734375 L 16.421875 -20.734375 L 16.421875 0 L 14.234375 0 L 14.234375 -2.953125 C 13.929688 -2.515625 13.59375 -2.097656 13.21875 -1.703125 C 12.851562 -1.304688 12.441406 -0.957031 11.984375 -0.65625 C 11.535156 -0.351562 11.03125 -0.117188 10.46875 0.046875 C 9.90625 0.222656 9.285156 0.3125 8.609375 0.3125 Z M 9 -1.640625 C 9.6875 -1.640625 10.347656 -1.773438 10.984375 -2.046875 C 11.617188 -2.328125 12.1875 -2.71875 12.6875 -3.21875 C 13.1875 -3.726562 13.582031 -4.328125 13.875 -5.015625 C 14.164062 -5.703125 14.3125 -6.472656 14.3125 -7.328125 L 14.3125 -7.390625 C 14.3125 -8.234375 14.164062 -9 13.875 -9.6875 C 13.582031 -10.382812 13.1875 -10.976562 12.6875 -11.46875 C 12.1875 -11.96875 11.617188 -12.351562 10.984375 -12.625 C 10.347656 -12.894531 9.6875 -13.03125 9 -13.03125 C 8.28125 -13.03125 7.609375 -12.898438 6.984375 -12.640625 C 6.359375 -12.390625 5.8125 -12.023438 5.34375 -11.546875 C 4.882812 -11.066406 4.515625 -10.472656 4.234375 -9.765625 C 3.960938 -9.066406 3.828125 -8.273438 3.828125 -7.390625 L 3.828125 -7.328125 C 3.828125 -6.453125 3.960938 -5.664062 4.234375 -4.96875 C 4.515625 -4.269531 4.890625 -3.671875 5.359375 -3.171875 C 5.835938 -2.679688 6.390625 -2.300781 7.015625 -2.03125 C 7.640625 -1.769531 8.300781 -1.640625 9 -1.640625 Z M 9 -1.640625 "/></g></g></g><g fill="#ff9e2c" fill-opacity="1"><g transform="translate(289.256911, 249.003853)"><g><path d="M 6.8125 0.3125 C 6.132812 0.3125 5.46875 0.21875 4.8125 0.03125 C 4.15625 -0.15625 3.566406 -0.441406 3.046875 -0.828125 C 2.523438 -1.222656 2.109375 -1.703125 1.796875 -2.265625 C 1.484375 -2.835938 1.328125 -3.503906 1.328125 -4.265625 L 1.328125 -4.3125 C 1.328125 -5.09375 1.476562 -5.773438 1.78125 -6.359375 C 2.09375 -6.953125 2.523438 -7.445312 3.078125 -7.84375 C 3.640625 -8.238281 4.300781 -8.539062 5.0625 -8.75 C 5.832031 -8.957031 6.679688 -9.0625 7.609375 -9.0625 C 8.554688 -9.0625 9.378906 -9.003906 10.078125 -8.890625 C 10.785156 -8.773438 11.46875 -8.625 12.125 -8.4375 L 12.125 -8.953125 C 12.125 -10.273438 11.738281 -11.269531 10.96875 -11.9375 C 10.207031 -12.613281 9.132812 -12.953125 7.75 -12.953125 C 6.882812 -12.953125 6.09375 -12.851562 5.375 -12.65625 C 4.664062 -12.457031 3.972656 -12.195312 3.296875 -11.875 L 2.640625 -13.65625 C 3.453125 -14.039062 4.273438 -14.34375 5.109375 -14.5625 C 5.941406 -14.78125 6.898438 -14.890625 7.984375 -14.890625 C 10.066406 -14.890625 11.644531 -14.347656 12.71875 -13.265625 C 13.726562 -12.265625 14.234375 -10.832031 14.234375 -8.96875 L 14.234375 0 L 12.125 0 L 12.125 -2.21875 C 11.613281 -1.550781 10.925781 -0.960938 10.0625 -0.453125 C 9.207031 0.0546875 8.125 0.3125 6.8125 0.3125 Z M 7.25 -1.421875 C 7.925781 -1.421875 8.5625 -1.519531 9.15625 -1.71875 C 9.757812 -1.914062 10.28125 -2.1875 10.71875 -2.53125 C 11.164062 -2.882812 11.515625 -3.300781 11.765625 -3.78125 C 12.023438 -4.269531 12.15625 -4.804688 12.15625 -5.390625 L 12.15625 -6.8125 C 11.601562 -6.96875 10.972656 -7.109375 10.265625 -7.234375 C 9.554688 -7.367188 8.75 -7.4375 7.84375 -7.4375 C 6.457031 -7.4375 5.394531 -7.160156 4.65625 -6.609375 C 3.914062 -6.066406 3.546875 -5.332031 3.546875 -4.40625 L 3.546875 -4.34375 C 3.546875 -3.894531 3.644531 -3.484375 3.84375 -3.109375 C 4.039062 -2.742188 4.3125 -2.4375 4.65625 -2.1875 C 5 -1.9375 5.390625 -1.742188 5.828125 -1.609375 C 6.273438 -1.484375 6.75 -1.421875 7.25 -1.421875 Z M 7.25 -1.421875 "/></g></g></g><g fill="#ff9e2c" fill-opacity="1"><g transform="translate(306.555798, 249.003853)"><g><path d="M 10.25 0.3125 C 9.570312 0.3125 8.945312 0.222656 8.375 0.046875 C 7.8125 -0.117188 7.300781 -0.34375 6.84375 -0.625 C 6.394531 -0.90625 5.984375 -1.234375 5.609375 -1.609375 C 5.242188 -1.992188 4.914062 -2.394531 4.625 -2.8125 L 4.625 0 L 2.4375 0 L 2.4375 -20.734375 L 4.625 -20.734375 L 4.625 -11.734375 C 4.925781 -12.171875 5.257812 -12.585938 5.625 -12.984375 C 6 -13.378906 6.414062 -13.722656 6.875 -14.015625 C 7.332031 -14.304688 7.835938 -14.539062 8.390625 -14.71875 C 8.953125 -14.90625 9.570312 -15 10.25 -15 C 11.125 -15 11.984375 -14.828125 12.828125 -14.484375 C 13.671875 -14.140625 14.421875 -13.640625 15.078125 -12.984375 C 15.742188 -12.335938 16.273438 -11.546875 16.671875 -10.609375 C 17.066406 -9.671875 17.265625 -8.597656 17.265625 -7.390625 L 17.265625 -7.328125 C 17.265625 -6.140625 17.066406 -5.070312 16.671875 -4.125 C 16.273438 -3.175781 15.75 -2.375 15.09375 -1.71875 C 14.445312 -1.0625 13.703125 -0.554688 12.859375 -0.203125 C 12.015625 0.140625 11.144531 0.3125 10.25 0.3125 Z M 9.859375 -1.640625 C 10.554688 -1.640625 11.222656 -1.769531 11.859375 -2.03125 C 12.492188 -2.289062 13.039062 -2.660156 13.5 -3.140625 C 13.96875 -3.617188 14.335938 -4.207031 14.609375 -4.90625 C 14.890625 -5.613281 15.03125 -6.410156 15.03125 -7.296875 L 15.03125 -7.359375 C 15.03125 -8.222656 14.890625 -9.003906 14.609375 -9.703125 C 14.335938 -10.410156 13.960938 -11.007812 13.484375 -11.5 C 13.015625 -12 12.46875 -12.378906 11.84375 -12.640625 C 11.21875 -12.898438 10.554688 -13.03125 9.859375 -13.03125 C 9.171875 -13.03125 8.507812 -12.894531 7.875 -12.625 C 7.25 -12.351562 6.679688 -11.960938 6.171875 -11.453125 C 5.671875 -10.953125 5.273438 -10.359375 4.984375 -9.671875 C 4.691406 -8.984375 4.546875 -8.222656 4.546875 -7.390625 L 4.546875 -7.328125 C 4.546875 -6.472656 4.691406 -5.695312 4.984375 -5 C 5.273438 -4.300781 5.671875 -3.703125 6.171875 -3.203125 C 6.679688 -2.710938 7.25 -2.328125 7.875 -2.046875 C 8.507812 -1.773438 9.171875 -1.640625 9.859375 -1.640625 Z M 9.859375 -1.640625 "/></g></g></g><g fill="#ff9e2c" fill-opacity="1"><g transform="translate(326.269093, 249.003853)"><g><path d="M 2.640625 -20.734375 L 4.828125 -20.734375 L 4.828125 0 L 2.640625 0 Z M 2.640625 -20.734375 "/></g></g></g><g fill="#ff9e2c" fill-opacity="1"><g transform="translate(334.592038, 249.003853)"><g><path d="M 8.859375 0.34375 C 7.859375 0.34375 6.910156 0.160156 6.015625 -0.203125 C 5.128906 -0.578125 4.351562 -1.097656 3.6875 -1.765625 C 3.03125 -2.441406 2.503906 -3.25 2.109375 -4.1875 C 1.722656 -5.125 1.53125 -6.160156 1.53125 -7.296875 L 1.53125 -7.359375 C 1.53125 -8.421875 1.703125 -9.414062 2.046875 -10.34375 C 2.398438 -11.269531 2.890625 -12.078125 3.515625 -12.765625 C 4.140625 -13.460938 4.882812 -14.007812 5.75 -14.40625 C 6.613281 -14.800781 7.554688 -15 8.578125 -15 C 9.660156 -15 10.625 -14.796875 11.46875 -14.390625 C 12.320312 -13.984375 13.039062 -13.425781 13.625 -12.71875 C 14.21875 -12.019531 14.664062 -11.203125 14.96875 -10.265625 C 15.269531 -9.328125 15.421875 -8.320312 15.421875 -7.25 C 15.421875 -7.09375 15.421875 -6.96875 15.421875 -6.875 C 15.421875 -6.78125 15.410156 -6.664062 15.390625 -6.53125 L 3.75 -6.53125 C 3.820312 -5.738281 4.007812 -5.035156 4.3125 -4.421875 C 4.613281 -3.804688 5 -3.285156 5.46875 -2.859375 C 5.9375 -2.429688 6.460938 -2.109375 7.046875 -1.890625 C 7.628906 -1.671875 8.253906 -1.5625 8.921875 -1.5625 C 9.941406 -1.5625 10.816406 -1.75 11.546875 -2.125 C 12.273438 -2.507812 12.941406 -3.015625 13.546875 -3.640625 L 14.90625 -2.421875 C 14.175781 -1.585938 13.335938 -0.914062 12.390625 -0.40625 C 11.441406 0.09375 10.265625 0.34375 8.859375 0.34375 Z M 13.203125 -8.15625 C 13.148438 -8.8125 13.015625 -9.441406 12.796875 -10.046875 C 12.578125 -10.660156 12.273438 -11.191406 11.890625 -11.640625 C 11.503906 -12.097656 11.03125 -12.460938 10.46875 -12.734375 C 9.90625 -13.015625 9.253906 -13.15625 8.515625 -13.15625 C 7.878906 -13.15625 7.285156 -13.023438 6.734375 -12.765625 C 6.179688 -12.515625 5.695312 -12.164062 5.28125 -11.71875 C 4.863281 -11.269531 4.519531 -10.742188 4.25 -10.140625 C 3.988281 -9.535156 3.820312 -8.875 3.75 -8.15625 Z M 13.203125 -8.15625 "/></g></g></g></g></g></svg>