<svg xmlns="http://www.w3.org/2000/svg" xmlns:xlink="http://www.w3.org/1999/xlink" width="500" zoomAndPan="magnify" viewBox="0 0 375 374.999991" height="500" preserveAspectRatio="xMidYMid meet" version="1.0"><defs><g/></defs><g fill="#545454" fill-opacity="1"><g transform="translate(27.088371, 186.844982)"><g><path d="M 2.515625 -0.15625 C 2.773438 -0.507812 2.992188 -0.957031 3.171875 -1.5 C 3.359375 -2.039062 3.453125 -2.59375 3.453125 -3.15625 L 3.453125 -17.84375 C 3.453125 -18.40625 3.359375 -18.957031 3.171875 -19.5 C 2.992188 -20.039062 2.773438 -20.488281 2.515625 -20.84375 L 2.515625 -21 L 16.046875 -21 L 16.6875 -16.046875 L 16.375 -16.046875 C 15.957031 -17.003906 15.519531 -17.785156 15.0625 -18.390625 C 14.601562 -19.003906 14.003906 -19.488281 13.265625 -19.84375 C 12.523438 -20.195312 11.601562 -20.375 10.5 -20.375 L 6.296875 -20.375 L 6.296875 -10.953125 L 10.296875 -10.953125 C 12.066406 -10.953125 13.164062 -11.820312 13.59375 -13.5625 L 13.890625 -13.5625 L 13.890625 -7.703125 L 13.59375 -7.703125 C 13.15625 -9.441406 12.054688 -10.3125 10.296875 -10.3125 L 6.296875 -10.3125 L 6.296875 -0.625 L 11.21875 -0.625 C 12.320312 -0.625 13.242188 -0.800781 13.984375 -1.15625 C 14.722656 -1.507812 15.320312 -1.988281 15.78125 -2.59375 C 16.238281 -3.207031 16.675781 -3.992188 17.09375 -4.953125 L 17.40625 -4.953125 L 16.765625 0 L 2.515625 0 Z M 2.515625 -0.15625 "/></g></g></g><g fill="#545454" fill-opacity="1"><g transform="translate(45.718356, 186.844982)"><g><path d="M 2.0625 5.84375 C 2.582031 5.125 2.84375 4.195312 2.84375 3.0625 L 2.84375 -11.0625 C 2.84375 -11.726562 2.769531 -12.273438 2.625 -12.703125 C 2.476562 -13.128906 2.242188 -13.503906 1.921875 -13.828125 L 1.921875 -13.984375 L 5.375 -15.328125 L 5.515625 -15.328125 L 5.515625 -12.359375 L 5.671875 -12.359375 C 6.066406 -13.242188 6.675781 -13.957031 7.5 -14.5 C 8.320312 -15.050781 9.253906 -15.328125 10.296875 -15.328125 C 11.585938 -15.328125 12.695312 -15.003906 13.625 -14.359375 C 14.5625 -13.722656 15.273438 -12.847656 15.765625 -11.734375 C 16.253906 -10.628906 16.5 -9.378906 16.5 -7.984375 C 16.5 -6.398438 16.171875 -4.972656 15.515625 -3.703125 C 14.867188 -2.429688 13.992188 -1.441406 12.890625 -0.734375 C 11.796875 -0.0234375 10.609375 0.328125 9.328125 0.328125 C 7.804688 0.328125 6.535156 -0.0976562 5.515625 -0.953125 L 5.515625 3.0625 C 5.515625 4.195312 5.773438 5.125 6.296875 5.84375 L 6.296875 6 L 2.0625 6 Z M 9.359375 -0.359375 C 10.722656 -0.359375 11.796875 -0.976562 12.578125 -2.21875 C 13.367188 -3.457031 13.765625 -5.117188 13.765625 -7.203125 C 13.765625 -8.503906 13.570312 -9.644531 13.1875 -10.625 C 12.8125 -11.601562 12.285156 -12.351562 11.609375 -12.875 C 10.929688 -13.394531 10.160156 -13.65625 9.296875 -13.65625 C 8.234375 -13.65625 7.351562 -13.316406 6.65625 -12.640625 C 5.957031 -11.972656 5.578125 -11.109375 5.515625 -10.046875 L 5.515625 -4.4375 C 5.554688 -3.800781 5.726562 -3.164062 6.03125 -2.53125 C 6.332031 -1.90625 6.765625 -1.382812 7.328125 -0.96875 C 7.898438 -0.5625 8.578125 -0.359375 9.359375 -0.359375 Z M 9.359375 -0.359375 "/></g></g></g><g fill="#545454" fill-opacity="1"><g transform="translate(63.628335, 186.844982)"><g><path d="M 2.25 -0.15625 C 2.769531 -0.875 3.03125 -1.800781 3.03125 -2.9375 L 3.03125 -11.0625 C 3.03125 -11.726562 2.945312 -12.28125 2.78125 -12.71875 C 2.625 -13.15625 2.382812 -13.523438 2.0625 -13.828125 L 2.0625 -13.984375 L 5.546875 -15.328125 L 5.703125 -15.328125 L 5.703125 -2.9375 C 5.703125 -1.800781 5.960938 -0.875 6.484375 -0.15625 L 6.484375 0 L 2.25 0 Z M 4.34375 -17.3125 C 3.863281 -17.3125 3.453125 -17.484375 3.109375 -17.828125 C 2.773438 -18.179688 2.609375 -18.597656 2.609375 -19.078125 C 2.609375 -19.554688 2.78125 -19.960938 3.125 -20.296875 C 3.476562 -20.640625 3.882812 -20.8125 4.34375 -20.8125 C 4.84375 -20.8125 5.257812 -20.640625 5.59375 -20.296875 C 5.9375 -19.960938 6.109375 -19.554688 6.109375 -19.078125 C 6.109375 -18.578125 5.9375 -18.15625 5.59375 -17.8125 C 5.257812 -17.476562 4.84375 -17.3125 4.34375 -17.3125 Z M 4.34375 -17.3125 "/></g></g></g><g fill="#545454" fill-opacity="1"><g transform="translate(72.208325, 186.844982)"><g><path d="M 8.25 0.328125 C 6.96875 0.328125 5.804688 0.0351562 4.765625 -0.546875 C 3.722656 -1.140625 2.898438 -2 2.296875 -3.125 C 1.703125 -4.257812 1.40625 -5.609375 1.40625 -7.171875 C 1.40625 -8.648438 1.753906 -10.015625 2.453125 -11.265625 C 3.160156 -12.515625 4.109375 -13.503906 5.296875 -14.234375 C 6.484375 -14.960938 7.78125 -15.328125 9.1875 -15.328125 C 9.90625 -15.328125 10.644531 -15.222656 11.40625 -15.015625 C 12.175781 -14.804688 12.84375 -14.519531 13.40625 -14.15625 L 13.40625 -10.203125 L 13.109375 -10.203125 C 12.804688 -11.460938 12.203125 -12.484375 11.296875 -13.265625 C 10.398438 -14.054688 9.375 -14.453125 8.21875 -14.453125 C 7.457031 -14.453125 6.726562 -14.257812 6.03125 -13.875 C 5.332031 -13.5 4.753906 -12.894531 4.296875 -12.0625 C 3.847656 -11.238281 3.625 -10.195312 3.625 -8.9375 C 3.625 -7.582031 3.878906 -6.363281 4.390625 -5.28125 C 4.898438 -4.195312 5.601562 -3.34375 6.5 -2.71875 C 7.40625 -2.101562 8.398438 -1.796875 9.484375 -1.796875 C 10.441406 -1.796875 11.320312 -2.046875 12.125 -2.546875 C 12.9375 -3.046875 13.535156 -3.785156 13.921875 -4.765625 L 14.21875 -4.765625 C 13.9375 -3.222656 13.238281 -1.988281 12.125 -1.0625 C 11.019531 -0.132812 9.726562 0.328125 8.25 0.328125 Z M 8.25 0.328125 "/></g></g></g><g fill="#ffffff" fill-opacity="1"><g transform="translate(87.275867, 186.844982)"><g/></g></g><g fill="#ff9e2c" fill-opacity="1"><g transform="translate(94.775867, 186.844982)"><g><path d="M 1.078125 -0.15625 C 1.421875 -0.507812 1.726562 -0.957031 2 -1.5 C 2.269531 -2.039062 2.460938 -2.59375 2.578125 -3.15625 L 5.4375 -17.84375 C 5.488281 -18.207031 5.515625 -18.550781 5.515625 -18.875 C 5.515625 -19.632812 5.375 -20.289062 5.09375 -20.84375 L 5.125 -21 L 9.78125 -21 L 9.75 -20.84375 C 9.40625 -20.488281 9.097656 -20.039062 8.828125 -19.5 C 8.566406 -18.957031 8.375 -18.40625 8.25 -17.84375 L 4.921875 -0.625 L 8.765625 -0.625 C 10.460938 -0.625 11.832031 -0.96875 12.875 -1.65625 C 13.914062 -2.351562 14.9375 -3.472656 15.9375 -5.015625 L 16.203125 -5.015625 L 14.484375 0 L 1.046875 0 Z M 1.078125 -0.15625 "/></g></g></g><g fill="#ff9e2c" fill-opacity="1"><g transform="translate(111.485854, 186.844982)"><g><path d="M 5.4375 0.328125 C 4.03125 0.328125 2.960938 -0.179688 2.234375 -1.203125 C 1.503906 -2.222656 1.140625 -3.539062 1.140625 -5.15625 C 1.140625 -6.78125 1.484375 -8.378906 2.171875 -9.953125 C 2.859375 -11.535156 3.832031 -12.828125 5.09375 -13.828125 C 6.351562 -14.828125 7.796875 -15.328125 9.421875 -15.328125 C 10.859375 -15.328125 12.03125 -14.835938 12.9375 -13.859375 L 15.421875 -15.328125 L 15.5625 -15.328125 L 13.171875 -2.875 C 13.066406 -2.375 13.015625 -2.003906 13.015625 -1.765625 C 13.015625 -1.265625 13.21875 -1.015625 13.625 -1.015625 C 14.28125 -1.015625 14.988281 -2.097656 15.75 -4.265625 L 16.265625 -4.265625 C 15.765625 -2.503906 15.238281 -1.296875 14.6875 -0.640625 C 14.132812 0.00390625 13.507812 0.328125 12.8125 0.328125 C 12.164062 0.328125 11.644531 0.113281 11.25 -0.3125 C 10.851562 -0.738281 10.65625 -1.40625 10.65625 -2.3125 C 10.65625 -2.726562 10.691406 -3.144531 10.765625 -3.5625 L 10.984375 -4.734375 L 10.828125 -4.734375 C 10.265625 -3.160156 9.535156 -1.921875 8.640625 -1.015625 C 7.742188 -0.117188 6.675781 0.328125 5.4375 0.328125 Z M 6.453125 -1.46875 C 7.628906 -1.46875 8.671875 -2.285156 9.578125 -3.921875 C 10.492188 -5.566406 11.332031 -7.800781 12.09375 -10.625 C 12.113281 -10.757812 12.125 -10.957031 12.125 -11.21875 C 12.125 -12.300781 11.867188 -13.144531 11.359375 -13.75 C 10.847656 -14.363281 10.25 -14.671875 9.5625 -14.671875 C 8.53125 -14.671875 7.582031 -14.175781 6.71875 -13.1875 C 5.863281 -12.195312 5.191406 -10.96875 4.703125 -9.5 C 4.222656 -8.039062 3.984375 -6.644531 3.984375 -5.3125 C 3.984375 -4.144531 4.1875 -3.210938 4.59375 -2.515625 C 5.007812 -1.816406 5.628906 -1.46875 6.453125 -1.46875 Z M 6.453125 -1.46875 "/></g></g></g><g fill="#ff9e2c" fill-opacity="1"><g transform="translate(128.555837, 186.844982)"><g><path d="M 12.8125 0.328125 C 12.207031 0.328125 11.710938 0.125 11.328125 -0.28125 C 10.953125 -0.695312 10.765625 -1.3125 10.765625 -2.125 C 10.765625 -2.644531 10.835938 -3.1875 10.984375 -3.75 L 12.59375 -10.5625 C 12.675781 -10.882812 12.71875 -11.222656 12.71875 -11.578125 C 12.71875 -12.179688 12.566406 -12.640625 12.265625 -12.953125 C 11.960938 -13.273438 11.5625 -13.4375 11.0625 -13.4375 C 10.03125 -13.4375 9.007812 -12.8125 8 -11.5625 C 6.988281 -10.3125 6.050781 -8.296875 5.1875 -5.515625 L 4.109375 0 L 1.53125 0 L 3.515625 -10.265625 C 3.671875 -11.117188 3.75 -11.738281 3.75 -12.125 C 3.75 -12.519531 3.6875 -12.828125 3.5625 -13.046875 C 3.445312 -13.265625 3.238281 -13.492188 2.9375 -13.734375 L 2.96875 -13.890625 L 6.9375 -15.328125 L 7.078125 -15.328125 L 6 -9.71875 L 6.15625 -9.71875 C 6.851562 -11.5 7.703125 -12.878906 8.703125 -13.859375 C 9.703125 -14.835938 10.800781 -15.328125 12 -15.328125 C 12.976562 -15.328125 13.769531 -15.046875 14.375 -14.484375 C 14.988281 -13.929688 15.296875 -13.039062 15.296875 -11.8125 C 15.296875 -11.113281 15.195312 -10.363281 15 -9.5625 L 13.296875 -2.453125 C 13.234375 -2.191406 13.203125 -1.960938 13.203125 -1.765625 C 13.203125 -1.265625 13.390625 -1.015625 13.765625 -1.015625 C 14.148438 -1.015625 14.507812 -1.285156 14.84375 -1.828125 C 15.1875 -2.367188 15.554688 -3.179688 15.953125 -4.265625 L 16.46875 -4.265625 C 16.113281 -3.023438 15.742188 -2.070312 15.359375 -1.40625 C 14.984375 -0.75 14.59375 -0.296875 14.1875 -0.046875 C 13.789062 0.203125 13.332031 0.328125 12.8125 0.328125 Z M 12.8125 0.328125 "/></g></g></g><g fill="#ff9e2c" fill-opacity="1"><g transform="translate(146.345814, 186.844982)"><g><path d="M 5.4375 0.328125 C 4.03125 0.328125 2.960938 -0.179688 2.234375 -1.203125 C 1.503906 -2.222656 1.140625 -3.539062 1.140625 -5.15625 C 1.140625 -6.78125 1.484375 -8.378906 2.171875 -9.953125 C 2.859375 -11.535156 3.828125 -12.828125 5.078125 -13.828125 C 6.328125 -14.828125 7.753906 -15.328125 9.359375 -15.328125 C 10.660156 -15.328125 11.738281 -14.890625 12.59375 -14.015625 L 13.203125 -17.28125 C 13.335938 -18.125 13.40625 -18.691406 13.40625 -18.984375 C 13.40625 -19.453125 13.335938 -19.804688 13.203125 -20.046875 C 13.078125 -20.285156 12.863281 -20.523438 12.5625 -20.765625 L 12.59375 -20.90625 L 16.5625 -22.34375 L 16.703125 -22.34375 L 13.203125 -2.875 C 13.117188 -2.5 13.078125 -2.148438 13.078125 -1.828125 C 13.078125 -1.546875 13.117188 -1.335938 13.203125 -1.203125 C 13.296875 -1.078125 13.457031 -1.015625 13.6875 -1.015625 C 14.34375 -1.015625 15.050781 -2.097656 15.8125 -4.265625 L 16.3125 -4.265625 C 15.8125 -2.503906 15.28125 -1.296875 14.71875 -0.640625 C 14.164062 0.00390625 13.550781 0.328125 12.875 0.328125 C 12.226562 0.328125 11.703125 0.113281 11.296875 -0.3125 C 10.890625 -0.738281 10.6875 -1.40625 10.6875 -2.3125 C 10.6875 -2.726562 10.722656 -3.144531 10.796875 -3.5625 L 11.015625 -4.734375 L 10.859375 -4.734375 C 10.316406 -3.160156 9.585938 -1.921875 8.671875 -1.015625 C 7.753906 -0.117188 6.675781 0.328125 5.4375 0.328125 Z M 6.453125 -1.46875 C 8.609375 -1.46875 10.507812 -4.519531 12.15625 -10.625 C 12.175781 -10.757812 12.1875 -10.945312 12.1875 -11.1875 C 12.1875 -12.289062 11.925781 -13.144531 11.40625 -13.75 C 10.882812 -14.363281 10.269531 -14.671875 9.5625 -14.671875 C 8.53125 -14.671875 7.582031 -14.175781 6.71875 -13.1875 C 5.863281 -12.195312 5.191406 -10.96875 4.703125 -9.5 C 4.222656 -8.039062 3.984375 -6.644531 3.984375 -5.3125 C 3.984375 -4.144531 4.1875 -3.210938 4.59375 -2.515625 C 5.007812 -1.816406 5.628906 -1.46875 6.453125 -1.46875 Z M 6.453125 -1.46875 "/></g></g></g><g fill="#ff9e2c" fill-opacity="1"><g transform="translate(163.595802, 186.844982)"><g><path d="M 6 0.328125 C 4.976562 0.328125 4.015625 0.164062 3.109375 -0.15625 C 2.210938 -0.488281 1.425781 -0.96875 0.75 -1.59375 L 1.53125 -5.671875 L 1.828125 -5.671875 C 1.828125 -4.691406 2.019531 -3.800781 2.40625 -3 C 2.800781 -2.195312 3.320312 -1.566406 3.96875 -1.109375 C 4.625 -0.648438 5.34375 -0.421875 6.125 -0.421875 C 6.914062 -0.421875 7.554688 -0.648438 8.046875 -1.109375 C 8.546875 -1.566406 8.796875 -2.144531 8.796875 -2.84375 C 8.796875 -3.382812 8.601562 -3.914062 8.21875 -4.4375 C 7.84375 -4.957031 7.171875 -5.640625 6.203125 -6.484375 C 4.929688 -7.578125 4.03125 -8.460938 3.5 -9.140625 C 2.96875 -9.828125 2.703125 -10.59375 2.703125 -11.4375 C 2.703125 -12.613281 3.15625 -13.554688 4.0625 -14.265625 C 4.976562 -14.972656 6.09375 -15.328125 7.40625 -15.328125 C 8.289062 -15.328125 9.117188 -15.191406 9.890625 -14.921875 C 10.660156 -14.648438 11.296875 -14.316406 11.796875 -13.921875 L 11.09375 -10.40625 L 10.796875 -10.40625 C 10.753906 -11.726562 10.40625 -12.757812 9.75 -13.5 C 9.09375 -14.238281 8.253906 -14.609375 7.234375 -14.609375 C 6.472656 -14.609375 5.851562 -14.40625 5.375 -14 C 4.894531 -13.601562 4.65625 -13.066406 4.65625 -12.390625 C 4.65625 -12.046875 4.726562 -11.742188 4.875 -11.484375 C 5.019531 -11.222656 5.289062 -10.898438 5.6875 -10.515625 C 6.09375 -10.140625 6.757812 -9.570312 7.6875 -8.8125 C 8.78125 -7.914062 9.578125 -7.128906 10.078125 -6.453125 C 10.578125 -5.773438 10.828125 -4.953125 10.828125 -3.984375 C 10.828125 -2.628906 10.390625 -1.570312 9.515625 -0.8125 C 8.648438 -0.0507812 7.476562 0.328125 6 0.328125 Z M 6 0.328125 "/></g></g></g><g fill="#ff9e2c" fill-opacity="1"><g transform="translate(176.345789, 186.844982)"><g><path d="M 7.109375 0.328125 C 5.992188 0.328125 5.007812 0.0664062 4.15625 -0.453125 C 3.300781 -0.972656 2.632812 -1.707031 2.15625 -2.65625 C 1.675781 -3.601562 1.4375 -4.695312 1.4375 -5.9375 C 1.4375 -7.65625 1.785156 -9.226562 2.484375 -10.65625 C 3.191406 -12.09375 4.148438 -13.226562 5.359375 -14.0625 C 6.566406 -14.90625 7.890625 -15.328125 9.328125 -15.328125 C 11.023438 -15.328125 12.445312 -14.914062 13.59375 -14.09375 L 12.875 -10.171875 L 12.5625 -10.171875 C 12.488281 -11.566406 12.140625 -12.640625 11.515625 -13.390625 C 10.898438 -14.140625 10.039062 -14.515625 8.9375 -14.515625 C 8.101562 -14.515625 7.316406 -14.195312 6.578125 -13.5625 C 5.847656 -12.9375 5.257812 -12.050781 4.8125 -10.90625 C 4.363281 -9.757812 4.140625 -8.4375 4.140625 -6.9375 C 4.140625 -5.207031 4.46875 -3.863281 5.125 -2.90625 C 5.789062 -1.945312 6.769531 -1.46875 8.0625 -1.46875 C 8.863281 -1.46875 9.628906 -1.679688 10.359375 -2.109375 C 11.085938 -2.546875 11.722656 -3.210938 12.265625 -4.109375 L 12.59375 -4.109375 C 12.28125 -2.929688 11.632812 -1.894531 10.65625 -1 C 9.6875 -0.113281 8.503906 0.328125 7.109375 0.328125 Z M 7.109375 0.328125 "/></g></g></g><g fill="#ff9e2c" fill-opacity="1"><g transform="translate(190.295771, 186.844982)"><g><path d="M 5.4375 0.328125 C 4.03125 0.328125 2.960938 -0.179688 2.234375 -1.203125 C 1.503906 -2.222656 1.140625 -3.539062 1.140625 -5.15625 C 1.140625 -6.78125 1.484375 -8.378906 2.171875 -9.953125 C 2.859375 -11.535156 3.832031 -12.828125 5.09375 -13.828125 C 6.351562 -14.828125 7.796875 -15.328125 9.421875 -15.328125 C 10.859375 -15.328125 12.03125 -14.835938 12.9375 -13.859375 L 15.421875 -15.328125 L 15.5625 -15.328125 L 13.171875 -2.875 C 13.066406 -2.375 13.015625 -2.003906 13.015625 -1.765625 C 13.015625 -1.265625 13.21875 -1.015625 13.625 -1.015625 C 14.28125 -1.015625 14.988281 -2.097656 15.75 -4.265625 L 16.265625 -4.265625 C 15.765625 -2.503906 15.238281 -1.296875 14.6875 -0.640625 C 14.132812 0.00390625 13.507812 0.328125 12.8125 0.328125 C 12.164062 0.328125 11.644531 0.113281 11.25 -0.3125 C 10.851562 -0.738281 10.65625 -1.40625 10.65625 -2.3125 C 10.65625 -2.726562 10.691406 -3.144531 10.765625 -3.5625 L 10.984375 -4.734375 L 10.828125 -4.734375 C 10.265625 -3.160156 9.535156 -1.921875 8.640625 -1.015625 C 7.742188 -0.117188 6.675781 0.328125 5.4375 0.328125 Z M 6.453125 -1.46875 C 7.628906 -1.46875 8.671875 -2.285156 9.578125 -3.921875 C 10.492188 -5.566406 11.332031 -7.800781 12.09375 -10.625 C 12.113281 -10.757812 12.125 -10.957031 12.125 -11.21875 C 12.125 -12.300781 11.867188 -13.144531 11.359375 -13.75 C 10.847656 -14.363281 10.25 -14.671875 9.5625 -14.671875 C 8.53125 -14.671875 7.582031 -14.175781 6.71875 -13.1875 C 5.863281 -12.195312 5.191406 -10.96875 4.703125 -9.5 C 4.222656 -8.039062 3.984375 -6.644531 3.984375 -5.3125 C 3.984375 -4.144531 4.1875 -3.210938 4.59375 -2.515625 C 5.007812 -1.816406 5.628906 -1.46875 6.453125 -1.46875 Z M 6.453125 -1.46875 "/></g></g></g><g fill="#ff9e2c" fill-opacity="1"><g transform="translate(207.365754, 186.844982)"><g><path d="M -0.484375 5.84375 C 0.203125 5.101562 0.644531 4.175781 0.84375 3.0625 L 3.1875 -10.265625 C 3.320312 -10.984375 3.390625 -11.582031 3.390625 -12.0625 C 3.390625 -12.476562 3.320312 -12.800781 3.1875 -13.03125 C 3.0625 -13.257812 2.859375 -13.492188 2.578125 -13.734375 L 2.609375 -13.890625 L 6.546875 -15.328125 L 6.6875 -15.328125 L 5.703125 -9.84375 L 5.84375 -9.84375 C 6.488281 -11.582031 7.316406 -12.929688 8.328125 -13.890625 C 9.335938 -14.847656 10.410156 -15.328125 11.546875 -15.328125 C 12.804688 -15.328125 13.800781 -14.84375 14.53125 -13.875 C 15.257812 -12.90625 15.625 -11.648438 15.625 -10.109375 C 15.625 -8.429688 15.269531 -6.785156 14.5625 -5.171875 C 13.851562 -3.566406 12.859375 -2.25 11.578125 -1.21875 C 10.296875 -0.1875 8.859375 0.328125 7.265625 0.328125 C 6.023438 0.328125 4.972656 -0.0625 4.109375 -0.84375 L 3.421875 3.0625 C 3.335938 3.4375 3.296875 3.835938 3.296875 4.265625 C 3.296875 4.898438 3.414062 5.425781 3.65625 5.84375 L 3.625 6 L -0.484375 6 Z M 7.171875 -0.328125 C 8.171875 -0.328125 9.097656 -0.847656 9.953125 -1.890625 C 10.816406 -2.929688 11.503906 -4.21875 12.015625 -5.75 C 12.523438 -7.289062 12.78125 -8.753906 12.78125 -10.140625 C 12.78125 -11.242188 12.582031 -12.082031 12.1875 -12.65625 C 11.800781 -13.238281 11.28125 -13.53125 10.625 -13.53125 C 9.414062 -13.53125 8.273438 -12.632812 7.203125 -10.84375 C 6.140625 -9.050781 5.28125 -6.804688 4.625 -4.109375 C 4.601562 -3.992188 4.59375 -3.8125 4.59375 -3.5625 C 4.59375 -2.550781 4.832031 -1.757812 5.3125 -1.1875 C 5.789062 -0.613281 6.410156 -0.328125 7.171875 -0.328125 Z M 7.171875 -0.328125 "/></g></g></g><g fill="#ff9e2c" fill-opacity="1"><g transform="translate(224.075741, 186.844982)"><g><path d="M 8.0625 -1.46875 C 8.863281 -1.46875 9.628906 -1.679688 10.359375 -2.109375 C 11.085938 -2.546875 11.722656 -3.210938 12.265625 -4.109375 L 12.59375 -4.109375 C 12.28125 -2.929688 11.632812 -1.894531 10.65625 -1 C 9.6875 -0.113281 8.503906 0.328125 7.109375 0.328125 C 5.992188 0.328125 5.007812 0.0664062 4.15625 -0.453125 C 3.300781 -0.972656 2.632812 -1.707031 2.15625 -2.65625 C 1.675781 -3.601562 1.4375 -4.695312 1.4375 -5.9375 C 1.4375 -7.65625 1.785156 -9.226562 2.484375 -10.65625 C 3.191406 -12.09375 4.160156 -13.226562 5.390625 -14.0625 C 6.617188 -14.90625 7.972656 -15.328125 9.453125 -15.328125 C 10.804688 -15.328125 11.816406 -15.046875 12.484375 -14.484375 C 13.160156 -13.929688 13.5 -13.242188 13.5 -12.421875 C 13.5 -10.441406 11.921875 -9.09375 8.765625 -8.375 C 7.578125 -8.09375 6.046875 -7.941406 4.171875 -7.921875 C 4.148438 -7.703125 4.140625 -7.378906 4.140625 -6.953125 C 4.140625 -5.234375 4.46875 -3.890625 5.125 -2.921875 C 5.789062 -1.953125 6.769531 -1.46875 8.0625 -1.46875 Z M 8.90625 -14.515625 C 7.6875 -14.515625 6.660156 -13.945312 5.828125 -12.8125 C 5.003906 -11.6875 4.484375 -10.285156 4.265625 -8.609375 C 5.921875 -8.628906 7.25 -8.820312 8.25 -9.1875 C 9.070312 -9.457031 9.703125 -9.898438 10.140625 -10.515625 C 10.578125 -11.140625 10.796875 -11.816406 10.796875 -12.546875 C 10.796875 -13.160156 10.640625 -13.640625 10.328125 -13.984375 C 10.023438 -14.335938 9.550781 -14.515625 8.90625 -14.515625 Z M 8.90625 -14.515625 "/></g></g></g><g fill="#ff9e2c" fill-opacity="1"><g transform="translate(238.205725, 186.844982)"><g/></g></g><g fill="#ff9e2c" fill-opacity="1"><g transform="translate(245.705713, 186.844982)"><g><path d="M 1.078125 -0.15625 C 1.421875 -0.507812 1.726562 -0.957031 2 -1.5 C 2.269531 -2.039062 2.460938 -2.59375 2.578125 -3.15625 L 5.4375 -17.84375 C 5.488281 -18.207031 5.515625 -18.550781 5.515625 -18.875 C 5.515625 -19.632812 5.375 -20.289062 5.09375 -20.84375 L 5.125 -21 L 12.03125 -21 C 13.707031 -21 15.207031 -20.695312 16.53125 -20.09375 C 17.851562 -19.5 18.894531 -18.59375 19.65625 -17.375 C 20.414062 -16.15625 20.796875 -14.664062 20.796875 -12.90625 C 20.796875 -10.101562 20.203125 -7.722656 19.015625 -5.765625 C 17.835938 -3.816406 16.316406 -2.367188 14.453125 -1.421875 C 12.597656 -0.472656 10.671875 0 8.671875 0 L 1.046875 0 Z M 8.015625 -0.65625 C 9.648438 -0.65625 11.207031 -1.144531 12.6875 -2.125 C 14.164062 -3.101562 15.363281 -4.554688 16.28125 -6.484375 C 17.207031 -8.421875 17.671875 -10.738281 17.671875 -13.4375 C 17.671875 -15.738281 17.125 -17.460938 16.03125 -18.609375 C 14.945312 -19.765625 13.484375 -20.34375 11.640625 -20.34375 C 10.742188 -20.34375 9.742188 -20.191406 8.640625 -19.890625 L 5.015625 -1.109375 C 5.847656 -0.804688 6.847656 -0.65625 8.015625 -0.65625 Z M 8.015625 -0.65625 "/></g></g></g><g fill="#ff9e2c" fill-opacity="1"><g transform="translate(267.155694, 186.844982)"><g><path d="M 8.0625 -1.46875 C 8.863281 -1.46875 9.628906 -1.679688 10.359375 -2.109375 C 11.085938 -2.546875 11.722656 -3.210938 12.265625 -4.109375 L 12.59375 -4.109375 C 12.28125 -2.929688 11.632812 -1.894531 10.65625 -1 C 9.6875 -0.113281 8.503906 0.328125 7.109375 0.328125 C 5.992188 0.328125 5.007812 0.0664062 4.15625 -0.453125 C 3.300781 -0.972656 2.632812 -1.707031 2.15625 -2.65625 C 1.675781 -3.601562 1.4375 -4.695312 1.4375 -5.9375 C 1.4375 -7.65625 1.785156 -9.226562 2.484375 -10.65625 C 3.191406 -12.09375 4.160156 -13.226562 5.390625 -14.0625 C 6.617188 -14.90625 7.972656 -15.328125 9.453125 -15.328125 C 10.804688 -15.328125 11.816406 -15.046875 12.484375 -14.484375 C 13.160156 -13.929688 13.5 -13.242188 13.5 -12.421875 C 13.5 -10.441406 11.921875 -9.09375 8.765625 -8.375 C 7.578125 -8.09375 6.046875 -7.941406 4.171875 -7.921875 C 4.148438 -7.703125 4.140625 -7.378906 4.140625 -6.953125 C 4.140625 -5.234375 4.46875 -3.890625 5.125 -2.921875 C 5.789062 -1.953125 6.769531 -1.46875 8.0625 -1.46875 Z M 8.90625 -14.515625 C 7.6875 -14.515625 6.660156 -13.945312 5.828125 -12.8125 C 5.003906 -11.6875 4.484375 -10.285156 4.265625 -8.609375 C 5.921875 -8.628906 7.25 -8.820312 8.25 -9.1875 C 9.070312 -9.457031 9.703125 -9.898438 10.140625 -10.515625 C 10.578125 -11.140625 10.796875 -11.816406 10.796875 -12.546875 C 10.796875 -13.160156 10.640625 -13.640625 10.328125 -13.984375 C 10.023438 -14.335938 9.550781 -14.515625 8.90625 -14.515625 Z M 8.90625 -14.515625 "/></g></g></g><g fill="#ff9e2c" fill-opacity="1"><g transform="translate(281.285679, 186.844982)"><g><path d="M 6 0.328125 C 4.976562 0.328125 4.015625 0.164062 3.109375 -0.15625 C 2.210938 -0.488281 1.425781 -0.96875 0.75 -1.59375 L 1.53125 -5.671875 L 1.828125 -5.671875 C 1.828125 -4.691406 2.019531 -3.800781 2.40625 -3 C 2.800781 -2.195312 3.320312 -1.566406 3.96875 -1.109375 C 4.625 -0.648438 5.34375 -0.421875 6.125 -0.421875 C 6.914062 -0.421875 7.554688 -0.648438 8.046875 -1.109375 C 8.546875 -1.566406 8.796875 -2.144531 8.796875 -2.84375 C 8.796875 -3.382812 8.601562 -3.914062 8.21875 -4.4375 C 7.84375 -4.957031 7.171875 -5.640625 6.203125 -6.484375 C 4.929688 -7.578125 4.03125 -8.460938 3.5 -9.140625 C 2.96875 -9.828125 2.703125 -10.59375 2.703125 -11.4375 C 2.703125 -12.613281 3.15625 -13.554688 4.0625 -14.265625 C 4.976562 -14.972656 6.09375 -15.328125 7.40625 -15.328125 C 8.289062 -15.328125 9.117188 -15.191406 9.890625 -14.921875 C 10.660156 -14.648438 11.296875 -14.316406 11.796875 -13.921875 L 11.09375 -10.40625 L 10.796875 -10.40625 C 10.753906 -11.726562 10.40625 -12.757812 9.75 -13.5 C 9.09375 -14.238281 8.253906 -14.609375 7.234375 -14.609375 C 6.472656 -14.609375 5.851562 -14.40625 5.375 -14 C 4.894531 -13.601562 4.65625 -13.066406 4.65625 -12.390625 C 4.65625 -12.046875 4.726562 -11.742188 4.875 -11.484375 C 5.019531 -11.222656 5.289062 -10.898438 5.6875 -10.515625 C 6.09375 -10.140625 6.757812 -9.570312 7.6875 -8.8125 C 8.78125 -7.914062 9.578125 -7.128906 10.078125 -6.453125 C 10.578125 -5.773438 10.828125 -4.953125 10.828125 -3.984375 C 10.828125 -2.628906 10.390625 -1.570312 9.515625 -0.8125 C 8.648438 -0.0507812 7.476562 0.328125 6 0.328125 Z M 6 0.328125 "/></g></g></g><g fill="#ff9e2c" fill-opacity="1"><g transform="translate(294.035667, 186.844982)"><g><path d="M 4.046875 0.328125 C 3.390625 0.328125 2.859375 0.125 2.453125 -0.28125 C 2.054688 -0.695312 1.859375 -1.363281 1.859375 -2.28125 C 1.859375 -2.625 1.910156 -3.09375 2.015625 -3.6875 L 3.265625 -10.265625 C 3.410156 -10.984375 3.484375 -11.582031 3.484375 -12.0625 C 3.484375 -12.476562 3.421875 -12.800781 3.296875 -13.03125 C 3.179688 -13.257812 2.984375 -13.492188 2.703125 -13.734375 L 2.734375 -13.890625 L 6.6875 -15.328125 L 6.84375 -15.328125 L 4.4375 -2.875 C 4.351562 -2.476562 4.3125 -2.117188 4.3125 -1.796875 C 4.3125 -1.273438 4.503906 -1.015625 4.890625 -1.015625 C 5.253906 -1.015625 5.609375 -1.289062 5.953125 -1.84375 C 6.304688 -2.394531 6.671875 -3.203125 7.046875 -4.265625 L 7.5625 -4.265625 C 7.039062 -2.484375 6.5 -1.269531 5.9375 -0.625 C 5.375 0.0078125 4.742188 0.328125 4.046875 0.328125 Z M 6.078125 -17.34375 C 5.617188 -17.34375 5.238281 -17.492188 4.9375 -17.796875 C 4.644531 -18.109375 4.5 -18.488281 4.5 -18.9375 C 4.5 -19.445312 4.6875 -19.882812 5.0625 -20.25 C 5.445312 -20.625 5.90625 -20.8125 6.4375 -20.8125 C 6.882812 -20.8125 7.25 -20.65625 7.53125 -20.34375 C 7.820312 -20.039062 7.96875 -19.660156 7.96875 -19.203125 C 7.96875 -18.679688 7.78125 -18.238281 7.40625 -17.875 C 7.039062 -17.519531 6.597656 -17.34375 6.078125 -17.34375 Z M 6.078125 -17.34375 "/></g></g></g><g fill="#ff9e2c" fill-opacity="1"><g transform="translate(302.825644, 186.844982)"><g><path d="M 15.421875 -15.484375 L 15.09375 -13.59375 C 14.40625 -13.707031 13.820312 -13.765625 13.34375 -13.765625 C 12.84375 -13.765625 12.34375 -13.695312 11.84375 -13.5625 C 12.382812 -12.820312 12.65625 -11.941406 12.65625 -10.921875 C 12.65625 -9.921875 12.40625 -8.984375 11.90625 -8.109375 C 11.40625 -7.242188 10.722656 -6.554688 9.859375 -6.046875 C 9.003906 -5.535156 8.078125 -5.28125 7.078125 -5.28125 C 5.960938 -5.28125 5.035156 -5.519531 4.296875 -6 C 3.773438 -5.5625 3.515625 -5.09375 3.515625 -4.59375 C 3.515625 -4.1875 3.738281 -3.832031 4.1875 -3.53125 C 4.632812 -3.238281 5.554688 -2.941406 6.953125 -2.640625 C 8.515625 -2.296875 9.710938 -1.925781 10.546875 -1.53125 C 11.378906 -1.144531 11.9375 -0.726562 12.21875 -0.28125 C 12.507812 0.164062 12.65625 0.679688 12.65625 1.265625 C 12.65625 2.054688 12.328125 2.84375 11.671875 3.625 C 11.015625 4.40625 10.085938 5.046875 8.890625 5.546875 C 7.703125 6.046875 6.347656 6.296875 4.828125 6.296875 C 2.984375 6.296875 1.582031 6.007812 0.625 5.4375 C -0.332031 4.875 -0.8125 4.082031 -0.8125 3.0625 C -0.8125 2.039062 -0.394531 1.15625 0.4375 0.40625 C 1.269531 -0.34375 2.210938 -0.898438 3.265625 -1.265625 C 2.242188 -1.816406 1.734375 -2.566406 1.734375 -3.515625 C 1.734375 -4.691406 2.425781 -5.628906 3.8125 -6.328125 C 2.8125 -7.128906 2.3125 -8.25 2.3125 -9.6875 C 2.3125 -10.6875 2.5625 -11.617188 3.0625 -12.484375 C 3.5625 -13.359375 4.234375 -14.050781 5.078125 -14.5625 C 5.929688 -15.070312 6.859375 -15.328125 7.859375 -15.328125 C 8.617188 -15.328125 9.304688 -15.207031 9.921875 -14.96875 C 10.546875 -14.726562 11.078125 -14.390625 11.515625 -13.953125 C 11.972656 -14.410156 12.523438 -14.78125 13.171875 -15.0625 C 13.828125 -15.34375 14.515625 -15.484375 15.234375 -15.484375 Z M 7.109375 -5.90625 C 7.671875 -5.90625 8.179688 -6.117188 8.640625 -6.546875 C 9.097656 -6.984375 9.46875 -7.609375 9.75 -8.421875 C 10.03125 -9.242188 10.171875 -10.226562 10.171875 -11.375 C 10.171875 -12.375 9.96875 -13.175781 9.5625 -13.78125 C 9.164062 -14.394531 8.597656 -14.703125 7.859375 -14.703125 C 7.296875 -14.703125 6.785156 -14.484375 6.328125 -14.046875 C 5.867188 -13.617188 5.5 -12.992188 5.21875 -12.171875 C 4.9375 -11.359375 4.796875 -10.378906 4.796875 -9.234375 C 4.796875 -8.234375 4.992188 -7.425781 5.390625 -6.8125 C 5.796875 -6.207031 6.367188 -5.90625 7.109375 -5.90625 Z M 10.53125 2.21875 C 10.53125 1.800781 10.429688 1.46875 10.234375 1.21875 C 10.035156 0.96875 9.625 0.722656 9 0.484375 C 8.375 0.242188 7.441406 -0.00390625 6.203125 -0.265625 C 5.242188 -0.460938 4.445312 -0.703125 3.8125 -0.984375 C 3.113281 -0.566406 2.546875 -0.0859375 2.109375 0.453125 C 1.679688 0.992188 1.46875 1.644531 1.46875 2.40625 C 1.46875 3.28125 1.820312 4 2.53125 4.5625 C 3.238281 5.125 4.273438 5.40625 5.640625 5.40625 C 6.597656 5.40625 7.445312 5.253906 8.1875 4.953125 C 8.925781 4.648438 9.5 4.253906 9.90625 3.765625 C 10.320312 3.273438 10.53125 2.757812 10.53125 2.21875 Z M 10.53125 2.21875 "/></g></g></g><g fill="#ff9e2c" fill-opacity="1"><g transform="translate(317.345632, 186.844982)"><g><path d="M 12.8125 0.328125 C 12.207031 0.328125 11.710938 0.125 11.328125 -0.28125 C 10.953125 -0.695312 10.765625 -1.3125 10.765625 -2.125 C 10.765625 -2.644531 10.835938 -3.1875 10.984375 -3.75 L 12.59375 -10.5625 C 12.675781 -10.882812 12.71875 -11.222656 12.71875 -11.578125 C 12.71875 -12.179688 12.566406 -12.640625 12.265625 -12.953125 C 11.960938 -13.273438 11.5625 -13.4375 11.0625 -13.4375 C 10.03125 -13.4375 9.007812 -12.8125 8 -11.5625 C 6.988281 -10.3125 6.050781 -8.296875 5.1875 -5.515625 L 4.109375 0 L 1.53125 0 L 3.515625 -10.265625 C 3.671875 -11.117188 3.75 -11.738281 3.75 -12.125 C 3.75 -12.519531 3.6875 -12.828125 3.5625 -13.046875 C 3.445312 -13.265625 3.238281 -13.492188 2.9375 -13.734375 L 2.96875 -13.890625 L 6.9375 -15.328125 L 7.078125 -15.328125 L 6 -9.71875 L 6.15625 -9.71875 C 6.851562 -11.5 7.703125 -12.878906 8.703125 -13.859375 C 9.703125 -14.835938 10.800781 -15.328125 12 -15.328125 C 12.976562 -15.328125 13.769531 -15.046875 14.375 -14.484375 C 14.988281 -13.929688 15.296875 -13.039062 15.296875 -11.8125 C 15.296875 -11.113281 15.195312 -10.363281 15 -9.5625 L 13.296875 -2.453125 C 13.234375 -2.191406 13.203125 -1.960938 13.203125 -1.765625 C 13.203125 -1.265625 13.390625 -1.015625 13.765625 -1.015625 C 14.148438 -1.015625 14.507812 -1.285156 14.84375 -1.828125 C 15.1875 -2.367188 15.554688 -3.179688 15.953125 -4.265625 L 16.46875 -4.265625 C 16.113281 -3.023438 15.742188 -2.070312 15.359375 -1.40625 C 14.984375 -0.75 14.59375 -0.296875 14.1875 -0.046875 C 13.789062 0.203125 13.332031 0.328125 12.8125 0.328125 Z M 12.8125 0.328125 "/></g></g></g><g fill="#ff9e2c" fill-opacity="1"><g transform="translate(335.135609, 186.844982)"><g><path d="M 6 0.328125 C 4.976562 0.328125 4.015625 0.164062 3.109375 -0.15625 C 2.210938 -0.488281 1.425781 -0.96875 0.75 -1.59375 L 1.53125 -5.671875 L 1.828125 -5.671875 C 1.828125 -4.691406 2.019531 -3.800781 2.40625 -3 C 2.800781 -2.195312 3.320312 -1.566406 3.96875 -1.109375 C 4.625 -0.648438 5.34375 -0.421875 6.125 -0.421875 C 6.914062 -0.421875 7.554688 -0.648438 8.046875 -1.109375 C 8.546875 -1.566406 8.796875 -2.144531 8.796875 -2.84375 C 8.796875 -3.382812 8.601562 -3.914062 8.21875 -4.4375 C 7.84375 -4.957031 7.171875 -5.640625 6.203125 -6.484375 C 4.929688 -7.578125 4.03125 -8.460938 3.5 -9.140625 C 2.96875 -9.828125 2.703125 -10.59375 2.703125 -11.4375 C 2.703125 -12.613281 3.15625 -13.554688 4.0625 -14.265625 C 4.976562 -14.972656 6.09375 -15.328125 7.40625 -15.328125 C 8.289062 -15.328125 9.117188 -15.191406 9.890625 -14.921875 C 10.660156 -14.648438 11.296875 -14.316406 11.796875 -13.921875 L 11.09375 -10.40625 L 10.796875 -10.40625 C 10.753906 -11.726562 10.40625 -12.757812 9.75 -13.5 C 9.09375 -14.238281 8.253906 -14.609375 7.234375 -14.609375 C 6.472656 -14.609375 5.851562 -14.40625 5.375 -14 C 4.894531 -13.601562 4.65625 -13.066406 4.65625 -12.390625 C 4.65625 -12.046875 4.726562 -11.742188 4.875 -11.484375 C 5.019531 -11.222656 5.289062 -10.898438 5.6875 -10.515625 C 6.09375 -10.140625 6.757812 -9.570312 7.6875 -8.8125 C 8.78125 -7.914062 9.578125 -7.128906 10.078125 -6.453125 C 10.578125 -5.773438 10.828125 -4.953125 10.828125 -3.984375 C 10.828125 -2.628906 10.390625 -1.570312 9.515625 -0.8125 C 8.648438 -0.0507812 7.476562 0.328125 6 0.328125 Z M 6 0.328125 "/></g></g></g><g fill="#ff9e2c" fill-opacity="1"><g transform="translate(70.025868, 211.594981)"><g><path d="M 6.703125 0.1875 C 5.890625 0.1875 5.140625 0.0390625 4.453125 -0.25 C 3.773438 -0.550781 3.1875 -0.957031 2.6875 -1.46875 C 2.1875 -1.988281 1.796875 -2.601562 1.515625 -3.3125 C 1.234375 -4.019531 1.09375 -4.769531 1.09375 -5.5625 L 1.09375 -5.59375 C 1.09375 -6.382812 1.234375 -7.128906 1.515625 -7.828125 C 1.796875 -8.535156 2.1875 -9.15625 2.6875 -9.6875 C 3.1875 -10.21875 3.78125 -10.632812 4.46875 -10.9375 C 5.164062 -11.238281 5.925781 -11.390625 6.75 -11.390625 C 7.257812 -11.390625 7.71875 -11.347656 8.125 -11.265625 C 8.539062 -11.179688 8.925781 -11.0625 9.28125 -10.90625 C 9.632812 -10.75 9.957031 -10.5625 10.25 -10.34375 C 10.550781 -10.125 10.84375 -9.878906 11.125 -9.609375 L 10.25 -8.6875 C 9.769531 -9.132812 9.253906 -9.5 8.703125 -9.78125 C 8.160156 -10.070312 7.503906 -10.21875 6.734375 -10.21875 C 6.117188 -10.21875 5.546875 -10.097656 5.015625 -9.859375 C 4.484375 -9.628906 4.023438 -9.304688 3.640625 -8.890625 C 3.253906 -8.472656 2.953125 -7.984375 2.734375 -7.421875 C 2.515625 -6.867188 2.40625 -6.269531 2.40625 -5.625 L 2.40625 -5.59375 C 2.40625 -4.945312 2.515625 -4.34375 2.734375 -3.78125 C 2.953125 -3.21875 3.253906 -2.726562 3.640625 -2.3125 C 4.023438 -1.90625 4.484375 -1.578125 5.015625 -1.328125 C 5.546875 -1.085938 6.117188 -0.96875 6.734375 -0.96875 C 7.503906 -0.96875 8.164062 -1.109375 8.71875 -1.390625 C 9.269531 -1.679688 9.816406 -2.082031 10.359375 -2.59375 L 11.1875 -1.78125 C 10.894531 -1.476562 10.59375 -1.207031 10.28125 -0.96875 C 9.96875 -0.726562 9.628906 -0.519531 9.265625 -0.34375 C 8.898438 -0.175781 8.507812 -0.046875 8.09375 0.046875 C 7.675781 0.140625 7.210938 0.1875 6.703125 0.1875 Z M 6.703125 0.1875 "/></g></g></g><g fill="#ff9e2c" fill-opacity="1"><g transform="translate(83.911007, 211.594981)"><g><path d="M 1.484375 -11.6875 L 2.71875 -11.6875 L 2.71875 0 L 1.484375 0 Z M 1.484375 -11.6875 "/></g></g></g><g fill="#ff9e2c" fill-opacity="1"><g transform="translate(90.133983, 211.594981)"><g><path d="M 4.984375 0.1875 C 4.421875 0.1875 3.890625 0.0820312 3.390625 -0.125 C 2.890625 -0.332031 2.453125 -0.625 2.078125 -1 C 1.703125 -1.375 1.40625 -1.828125 1.1875 -2.359375 C 0.96875 -2.890625 0.859375 -3.472656 0.859375 -4.109375 L 0.859375 -4.140625 C 0.859375 -4.742188 0.957031 -5.304688 1.15625 -5.828125 C 1.351562 -6.347656 1.628906 -6.800781 1.984375 -7.1875 C 2.335938 -7.582031 2.753906 -7.890625 3.234375 -8.109375 C 3.722656 -8.335938 4.253906 -8.453125 4.828125 -8.453125 C 5.441406 -8.453125 5.988281 -8.335938 6.46875 -8.109375 C 6.945312 -7.878906 7.347656 -7.566406 7.671875 -7.171875 C 8.003906 -6.773438 8.253906 -6.3125 8.421875 -5.78125 C 8.597656 -5.25 8.6875 -4.679688 8.6875 -4.078125 C 8.6875 -3.992188 8.6875 -3.925781 8.6875 -3.875 C 8.6875 -3.820312 8.679688 -3.757812 8.671875 -3.6875 L 2.109375 -3.6875 C 2.148438 -3.238281 2.253906 -2.835938 2.421875 -2.484375 C 2.597656 -2.140625 2.816406 -1.847656 3.078125 -1.609375 C 3.335938 -1.367188 3.632812 -1.1875 3.96875 -1.0625 C 4.300781 -0.9375 4.65625 -0.875 5.03125 -0.875 C 5.601562 -0.875 6.09375 -0.976562 6.5 -1.1875 C 6.914062 -1.40625 7.289062 -1.691406 7.625 -2.046875 L 8.40625 -1.359375 C 7.988281 -0.890625 7.507812 -0.515625 6.96875 -0.234375 C 6.4375 0.046875 5.773438 0.1875 4.984375 0.1875 Z M 7.4375 -4.59375 C 7.40625 -4.96875 7.328125 -5.320312 7.203125 -5.65625 C 7.085938 -6 6.921875 -6.296875 6.703125 -6.546875 C 6.484375 -6.804688 6.210938 -7.015625 5.890625 -7.171875 C 5.578125 -7.328125 5.210938 -7.40625 4.796875 -7.40625 C 4.429688 -7.40625 4.09375 -7.332031 3.78125 -7.1875 C 3.476562 -7.039062 3.207031 -6.84375 2.96875 -6.59375 C 2.738281 -6.34375 2.546875 -6.046875 2.390625 -5.703125 C 2.242188 -5.367188 2.148438 -5 2.109375 -4.59375 Z M 7.4375 -4.59375 "/></g></g></g><g fill="#ff9e2c" fill-opacity="1"><g transform="translate(101.619696, 211.594981)"><g><path d="M 3.84375 0.171875 C 3.457031 0.171875 3.078125 0.117188 2.703125 0.015625 C 2.335938 -0.0859375 2.007812 -0.25 1.71875 -0.46875 C 1.425781 -0.6875 1.191406 -0.957031 1.015625 -1.28125 C 0.835938 -1.601562 0.75 -1.976562 0.75 -2.40625 L 0.75 -2.4375 C 0.75 -2.875 0.832031 -3.253906 1 -3.578125 C 1.175781 -3.910156 1.421875 -4.1875 1.734375 -4.40625 C 2.046875 -4.632812 2.414062 -4.804688 2.84375 -4.921875 C 3.28125 -5.046875 3.757812 -5.109375 4.28125 -5.109375 C 4.820312 -5.109375 5.285156 -5.070312 5.671875 -5 C 6.066406 -4.9375 6.453125 -4.851562 6.828125 -4.75 L 6.828125 -5.046875 C 6.828125 -5.785156 6.609375 -6.34375 6.171875 -6.71875 C 5.742188 -7.101562 5.144531 -7.296875 4.375 -7.296875 C 3.875 -7.296875 3.425781 -7.238281 3.03125 -7.125 C 2.632812 -7.007812 2.242188 -6.863281 1.859375 -6.6875 L 1.484375 -7.703125 C 1.941406 -7.910156 2.40625 -8.078125 2.875 -8.203125 C 3.34375 -8.328125 3.882812 -8.390625 4.5 -8.390625 C 5.664062 -8.390625 6.554688 -8.082031 7.171875 -7.46875 C 7.734375 -6.90625 8.015625 -6.101562 8.015625 -5.0625 L 8.015625 0 L 6.828125 0 L 6.828125 -1.25 C 6.546875 -0.875 6.160156 -0.539062 5.671875 -0.25 C 5.179688 0.03125 4.570312 0.171875 3.84375 0.171875 Z M 4.078125 -0.796875 C 4.460938 -0.796875 4.820312 -0.851562 5.15625 -0.96875 C 5.488281 -1.082031 5.78125 -1.238281 6.03125 -1.4375 C 6.289062 -1.632812 6.488281 -1.867188 6.625 -2.140625 C 6.769531 -2.410156 6.84375 -2.710938 6.84375 -3.046875 L 6.84375 -3.84375 C 6.539062 -3.925781 6.1875 -4.003906 5.78125 -4.078125 C 5.382812 -4.148438 4.929688 -4.1875 4.421875 -4.1875 C 3.640625 -4.1875 3.039062 -4.03125 2.625 -3.71875 C 2.207031 -3.414062 2 -3.003906 2 -2.484375 L 2 -2.453125 C 2 -2.191406 2.054688 -1.957031 2.171875 -1.75 C 2.285156 -1.539062 2.4375 -1.367188 2.625 -1.234375 C 2.8125 -1.097656 3.03125 -0.988281 3.28125 -0.90625 C 3.53125 -0.832031 3.796875 -0.796875 4.078125 -0.796875 Z M 4.078125 -0.796875 "/></g></g></g><g fill="#ff9e2c" fill-opacity="1"><g transform="translate(112.897459, 211.594981)"><g><path d="M 1.375 -8.265625 L 2.609375 -8.265625 L 2.609375 -6.109375 C 2.753906 -6.453125 2.9375 -6.765625 3.15625 -7.046875 C 3.382812 -7.335938 3.644531 -7.585938 3.9375 -7.796875 C 4.226562 -8.003906 4.539062 -8.160156 4.875 -8.265625 C 5.21875 -8.378906 5.585938 -8.429688 5.984375 -8.421875 L 5.984375 -7.09375 L 5.890625 -7.09375 C 5.441406 -7.09375 5.015625 -7.007812 4.609375 -6.84375 C 4.210938 -6.6875 3.863281 -6.445312 3.5625 -6.125 C 3.269531 -5.800781 3.035156 -5.398438 2.859375 -4.921875 C 2.691406 -4.453125 2.609375 -3.910156 2.609375 -3.296875 L 2.609375 0 L 1.375 0 Z M 1.375 -8.265625 "/></g></g></g><g fill="#ff9e2c" fill-opacity="1"><g transform="translate(119.952123, 211.594981)"><g><path d="M 1.21875 -1.6875 L 2.6875 -1.6875 L 2.6875 0 L 1.21875 0 Z M 1.21875 -1.6875 "/></g></g></g><g fill="#ff9e2c" fill-opacity="1"><g transform="translate(125.231282, 211.594981)"><g><path d="M 6.703125 0.1875 C 5.890625 0.1875 5.140625 0.0390625 4.453125 -0.25 C 3.773438 -0.550781 3.1875 -0.957031 2.6875 -1.46875 C 2.1875 -1.988281 1.796875 -2.601562 1.515625 -3.3125 C 1.234375 -4.019531 1.09375 -4.769531 1.09375 -5.5625 L 1.09375 -5.59375 C 1.09375 -6.382812 1.234375 -7.128906 1.515625 -7.828125 C 1.796875 -8.535156 2.1875 -9.15625 2.6875 -9.6875 C 3.1875 -10.21875 3.78125 -10.632812 4.46875 -10.9375 C 5.164062 -11.238281 5.925781 -11.390625 6.75 -11.390625 C 7.257812 -11.390625 7.71875 -11.347656 8.125 -11.265625 C 8.539062 -11.179688 8.925781 -11.0625 9.28125 -10.90625 C 9.632812 -10.75 9.957031 -10.5625 10.25 -10.34375 C 10.550781 -10.125 10.84375 -9.878906 11.125 -9.609375 L 10.25 -8.6875 C 9.769531 -9.132812 9.253906 -9.5 8.703125 -9.78125 C 8.160156 -10.070312 7.503906 -10.21875 6.734375 -10.21875 C 6.117188 -10.21875 5.546875 -10.097656 5.015625 -9.859375 C 4.484375 -9.628906 4.023438 -9.304688 3.640625 -8.890625 C 3.253906 -8.472656 2.953125 -7.984375 2.734375 -7.421875 C 2.515625 -6.867188 2.40625 -6.269531 2.40625 -5.625 L 2.40625 -5.59375 C 2.40625 -4.945312 2.515625 -4.34375 2.734375 -3.78125 C 2.953125 -3.21875 3.253906 -2.726562 3.640625 -2.3125 C 4.023438 -1.90625 4.484375 -1.578125 5.015625 -1.328125 C 5.546875 -1.085938 6.117188 -0.96875 6.734375 -0.96875 C 7.503906 -0.96875 8.164062 -1.109375 8.71875 -1.390625 C 9.269531 -1.679688 9.816406 -2.082031 10.359375 -2.59375 L 11.1875 -1.78125 C 10.894531 -1.476562 10.59375 -1.207031 10.28125 -0.96875 C 9.96875 -0.726562 9.628906 -0.519531 9.265625 -0.34375 C 8.898438 -0.175781 8.507812 -0.046875 8.09375 0.046875 C 7.675781 0.140625 7.210938 0.1875 6.703125 0.1875 Z M 6.703125 0.1875 "/></g></g></g><g fill="#ff9e2c" fill-opacity="1"><g transform="translate(139.116421, 211.594981)"><g><path d="M 1.375 -8.265625 L 2.609375 -8.265625 L 2.609375 -6.109375 C 2.753906 -6.453125 2.9375 -6.765625 3.15625 -7.046875 C 3.382812 -7.335938 3.644531 -7.585938 3.9375 -7.796875 C 4.226562 -8.003906 4.539062 -8.160156 4.875 -8.265625 C 5.21875 -8.378906 5.585938 -8.429688 5.984375 -8.421875 L 5.984375 -7.09375 L 5.890625 -7.09375 C 5.441406 -7.09375 5.015625 -7.007812 4.609375 -6.84375 C 4.210938 -6.6875 3.863281 -6.445312 3.5625 -6.125 C 3.269531 -5.800781 3.035156 -5.398438 2.859375 -4.921875 C 2.691406 -4.453125 2.609375 -3.910156 2.609375 -3.296875 L 2.609375 0 L 1.375 0 Z M 1.375 -8.265625 "/></g></g></g><g fill="#ff9e2c" fill-opacity="1"><g transform="translate(147.258914, 211.594981)"><g><path d="M 4.984375 0.1875 C 4.421875 0.1875 3.890625 0.0820312 3.390625 -0.125 C 2.890625 -0.332031 2.453125 -0.625 2.078125 -1 C 1.703125 -1.375 1.40625 -1.828125 1.1875 -2.359375 C 0.96875 -2.890625 0.859375 -3.472656 0.859375 -4.109375 L 0.859375 -4.140625 C 0.859375 -4.742188 0.957031 -5.304688 1.15625 -5.828125 C 1.351562 -6.347656 1.628906 -6.800781 1.984375 -7.1875 C 2.335938 -7.582031 2.753906 -7.890625 3.234375 -8.109375 C 3.722656 -8.335938 4.253906 -8.453125 4.828125 -8.453125 C 5.441406 -8.453125 5.988281 -8.335938 6.46875 -8.109375 C 6.945312 -7.878906 7.347656 -7.566406 7.671875 -7.171875 C 8.003906 -6.773438 8.253906 -6.3125 8.421875 -5.78125 C 8.597656 -5.25 8.6875 -4.679688 8.6875 -4.078125 C 8.6875 -3.992188 8.6875 -3.925781 8.6875 -3.875 C 8.6875 -3.820312 8.679688 -3.757812 8.671875 -3.6875 L 2.109375 -3.6875 C 2.148438 -3.238281 2.253906 -2.835938 2.421875 -2.484375 C 2.597656 -2.140625 2.816406 -1.847656 3.078125 -1.609375 C 3.335938 -1.367188 3.632812 -1.1875 3.96875 -1.0625 C 4.300781 -0.9375 4.65625 -0.875 5.03125 -0.875 C 5.601562 -0.875 6.09375 -0.976562 6.5 -1.1875 C 6.914062 -1.40625 7.289062 -1.691406 7.625 -2.046875 L 8.40625 -1.359375 C 7.988281 -0.890625 7.507812 -0.515625 6.96875 -0.234375 C 6.4375 0.046875 5.773438 0.1875 4.984375 0.1875 Z M 7.4375 -4.59375 C 7.40625 -4.96875 7.328125 -5.320312 7.203125 -5.65625 C 7.085938 -6 6.921875 -6.296875 6.703125 -6.546875 C 6.484375 -6.804688 6.210938 -7.015625 5.890625 -7.171875 C 5.578125 -7.328125 5.210938 -7.40625 4.796875 -7.40625 C 4.429688 -7.40625 4.09375 -7.332031 3.78125 -7.1875 C 3.476562 -7.039062 3.207031 -6.84375 2.96875 -6.59375 C 2.738281 -6.34375 2.546875 -6.046875 2.390625 -5.703125 C 2.242188 -5.367188 2.148438 -5 2.109375 -4.59375 Z M 7.4375 -4.59375 "/></g></g></g><g fill="#ff9e2c" fill-opacity="1"><g transform="translate(158.744627, 211.594981)"><g><path d="M 3.84375 0.171875 C 3.457031 0.171875 3.078125 0.117188 2.703125 0.015625 C 2.335938 -0.0859375 2.007812 -0.25 1.71875 -0.46875 C 1.425781 -0.6875 1.191406 -0.957031 1.015625 -1.28125 C 0.835938 -1.601562 0.75 -1.976562 0.75 -2.40625 L 0.75 -2.4375 C 0.75 -2.875 0.832031 -3.253906 1 -3.578125 C 1.175781 -3.910156 1.421875 -4.1875 1.734375 -4.40625 C 2.046875 -4.632812 2.414062 -4.804688 2.84375 -4.921875 C 3.28125 -5.046875 3.757812 -5.109375 4.28125 -5.109375 C 4.820312 -5.109375 5.285156 -5.070312 5.671875 -5 C 6.066406 -4.9375 6.453125 -4.851562 6.828125 -4.75 L 6.828125 -5.046875 C 6.828125 -5.785156 6.609375 -6.34375 6.171875 -6.71875 C 5.742188 -7.101562 5.144531 -7.296875 4.375 -7.296875 C 3.875 -7.296875 3.425781 -7.238281 3.03125 -7.125 C 2.632812 -7.007812 2.242188 -6.863281 1.859375 -6.6875 L 1.484375 -7.703125 C 1.941406 -7.910156 2.40625 -8.078125 2.875 -8.203125 C 3.34375 -8.328125 3.882812 -8.390625 4.5 -8.390625 C 5.664062 -8.390625 6.554688 -8.082031 7.171875 -7.46875 C 7.734375 -6.90625 8.015625 -6.101562 8.015625 -5.0625 L 8.015625 0 L 6.828125 0 L 6.828125 -1.25 C 6.546875 -0.875 6.160156 -0.539062 5.671875 -0.25 C 5.179688 0.03125 4.570312 0.171875 3.84375 0.171875 Z M 4.078125 -0.796875 C 4.460938 -0.796875 4.820312 -0.851562 5.15625 -0.96875 C 5.488281 -1.082031 5.78125 -1.238281 6.03125 -1.4375 C 6.289062 -1.632812 6.488281 -1.867188 6.625 -2.140625 C 6.769531 -2.410156 6.84375 -2.710938 6.84375 -3.046875 L 6.84375 -3.84375 C 6.539062 -3.925781 6.1875 -4.003906 5.78125 -4.078125 C 5.382812 -4.148438 4.929688 -4.1875 4.421875 -4.1875 C 3.640625 -4.1875 3.039062 -4.03125 2.625 -3.71875 C 2.207031 -3.414062 2 -3.003906 2 -2.484375 L 2 -2.453125 C 2 -2.191406 2.054688 -1.957031 2.171875 -1.75 C 2.285156 -1.539062 2.4375 -1.367188 2.625 -1.234375 C 2.8125 -1.097656 3.03125 -0.988281 3.28125 -0.90625 C 3.53125 -0.832031 3.796875 -0.796875 4.078125 -0.796875 Z M 4.078125 -0.796875 "/></g></g></g><g fill="#ff9e2c" fill-opacity="1"><g transform="translate(169.942407, 211.594981)"><g><path d="M 4.140625 0.140625 C 3.804688 0.140625 3.492188 0.0976562 3.203125 0.015625 C 2.921875 -0.0664062 2.675781 -0.203125 2.46875 -0.390625 C 2.257812 -0.578125 2.097656 -0.816406 1.984375 -1.109375 C 1.867188 -1.410156 1.8125 -1.769531 1.8125 -2.1875 L 1.8125 -7.1875 L 0.65625 -7.1875 L 0.65625 -8.265625 L 1.8125 -8.265625 L 1.8125 -10.765625 L 3.046875 -10.765625 L 3.046875 -8.265625 L 5.65625 -8.265625 L 5.65625 -7.1875 L 3.046875 -7.1875 L 3.046875 -2.359375 C 3.046875 -1.835938 3.171875 -1.472656 3.421875 -1.265625 C 3.679688 -1.066406 4.019531 -0.96875 4.4375 -0.96875 C 4.644531 -0.96875 4.84375 -0.988281 5.03125 -1.03125 C 5.21875 -1.082031 5.414062 -1.160156 5.625 -1.265625 L 5.625 -0.203125 C 5.414062 -0.0859375 5.191406 -0.00390625 4.953125 0.046875 C 4.710938 0.109375 4.441406 0.140625 4.140625 0.140625 Z M 4.140625 0.140625 "/></g></g></g><g fill="#ff9e2c" fill-opacity="1"><g transform="translate(178.420842, 211.594981)"><g><path d="M 1.40625 -11.4375 L 2.8125 -11.4375 L 2.8125 -10.078125 L 1.40625 -10.078125 Z M 1.484375 -8.265625 L 2.71875 -8.265625 L 2.71875 0 L 1.484375 0 Z M 1.484375 -8.265625 "/></g></g></g><g fill="#ff9e2c" fill-opacity="1"><g transform="translate(184.643818, 211.594981)"><g><path d="M 0.5625 -8.265625 L 1.921875 -8.265625 L 4.703125 -1.40625 L 7.5 -8.265625 L 8.828125 -8.265625 L 5.234375 0.0625 L 4.140625 0.0625 Z M 0.5625 -8.265625 "/></g></g></g><g fill="#ff9e2c" fill-opacity="1"><g transform="translate(195.569629, 211.594981)"><g><path d="M 4.984375 0.1875 C 4.421875 0.1875 3.890625 0.0820312 3.390625 -0.125 C 2.890625 -0.332031 2.453125 -0.625 2.078125 -1 C 1.703125 -1.375 1.40625 -1.828125 1.1875 -2.359375 C 0.96875 -2.890625 0.859375 -3.472656 0.859375 -4.109375 L 0.859375 -4.140625 C 0.859375 -4.742188 0.957031 -5.304688 1.15625 -5.828125 C 1.351562 -6.347656 1.628906 -6.800781 1.984375 -7.1875 C 2.335938 -7.582031 2.753906 -7.890625 3.234375 -8.109375 C 3.722656 -8.335938 4.253906 -8.453125 4.828125 -8.453125 C 5.441406 -8.453125 5.988281 -8.335938 6.46875 -8.109375 C 6.945312 -7.878906 7.347656 -7.566406 7.671875 -7.171875 C 8.003906 -6.773438 8.253906 -6.3125 8.421875 -5.78125 C 8.597656 -5.25 8.6875 -4.679688 8.6875 -4.078125 C 8.6875 -3.992188 8.6875 -3.925781 8.6875 -3.875 C 8.6875 -3.820312 8.679688 -3.757812 8.671875 -3.6875 L 2.109375 -3.6875 C 2.148438 -3.238281 2.253906 -2.835938 2.421875 -2.484375 C 2.597656 -2.140625 2.816406 -1.847656 3.078125 -1.609375 C 3.335938 -1.367188 3.632812 -1.1875 3.96875 -1.0625 C 4.300781 -0.9375 4.65625 -0.875 5.03125 -0.875 C 5.601562 -0.875 6.09375 -0.976562 6.5 -1.1875 C 6.914062 -1.40625 7.289062 -1.691406 7.625 -2.046875 L 8.40625 -1.359375 C 7.988281 -0.890625 7.507812 -0.515625 6.96875 -0.234375 C 6.4375 0.046875 5.773438 0.1875 4.984375 0.1875 Z M 7.4375 -4.59375 C 7.40625 -4.96875 7.328125 -5.320312 7.203125 -5.65625 C 7.085938 -6 6.921875 -6.296875 6.703125 -6.546875 C 6.484375 -6.804688 6.210938 -7.015625 5.890625 -7.171875 C 5.578125 -7.328125 5.210938 -7.40625 4.796875 -7.40625 C 4.429688 -7.40625 4.09375 -7.332031 3.78125 -7.1875 C 3.476562 -7.039062 3.207031 -6.84375 2.96875 -6.59375 C 2.738281 -6.34375 2.546875 -6.046875 2.390625 -5.703125 C 2.242188 -5.367188 2.148438 -5 2.109375 -4.59375 Z M 7.4375 -4.59375 "/></g></g></g><g fill="#ff9e2c" fill-opacity="1"><g transform="translate(206.895366, 211.594981)"><g><path d="M 1.21875 -1.6875 L 2.6875 -1.6875 L 2.6875 0 L 1.21875 0 Z M 1.21875 -1.6875 "/></g></g></g><g fill="#545454" fill-opacity="1"><g transform="translate(212.818832, 211.594981)"><g><path d="M 1.578125 -11.203125 L 6.359375 -11.203125 C 6.992188 -11.203125 7.554688 -11.113281 8.046875 -10.9375 C 8.546875 -10.757812 8.957031 -10.515625 9.28125 -10.203125 C 9.757812 -9.703125 10 -9.109375 10 -8.421875 L 10 -8.390625 C 10 -8.023438 9.945312 -7.695312 9.84375 -7.40625 C 9.75 -7.125 9.613281 -6.878906 9.4375 -6.671875 C 9.269531 -6.472656 9.082031 -6.300781 8.875 -6.15625 C 8.664062 -6.007812 8.445312 -5.890625 8.21875 -5.796875 C 8.550781 -5.691406 8.863281 -5.5625 9.15625 -5.40625 C 9.445312 -5.257812 9.695312 -5.078125 9.90625 -4.859375 C 10.125 -4.648438 10.296875 -4.394531 10.421875 -4.09375 C 10.554688 -3.800781 10.625 -3.46875 10.625 -3.09375 L 10.625 -3.0625 C 10.625 -2.582031 10.523438 -2.148438 10.328125 -1.765625 C 10.140625 -1.390625 9.863281 -1.070312 9.5 -0.8125 C 9.144531 -0.550781 8.71875 -0.347656 8.21875 -0.203125 C 7.71875 -0.0664062 7.164062 0 6.5625 0 L 1.578125 0 Z M 8.71875 -8.234375 C 8.71875 -8.796875 8.503906 -9.238281 8.078125 -9.5625 C 7.648438 -9.894531 7.035156 -10.0625 6.234375 -10.0625 L 2.828125 -10.0625 L 2.828125 -6.203125 L 6.140625 -6.203125 C 6.910156 -6.203125 7.53125 -6.367188 8 -6.703125 C 8.476562 -7.046875 8.71875 -7.546875 8.71875 -8.203125 Z M 9.34375 -3.171875 C 9.34375 -3.773438 9.09375 -4.242188 8.59375 -4.578125 C 8.09375 -4.921875 7.351562 -5.09375 6.375 -5.09375 L 2.828125 -5.09375 L 2.828125 -1.140625 L 6.59375 -1.140625 C 7.445312 -1.140625 8.117188 -1.3125 8.609375 -1.65625 C 9.097656 -2.007812 9.34375 -2.503906 9.34375 -3.140625 Z M 9.34375 -3.171875 "/></g></g></g><g fill="#545454" fill-opacity="1"><g transform="translate(226.384051, 211.594981)"><g><path d="M 4.421875 0.171875 C 3.910156 0.171875 3.460938 0.09375 3.078125 -0.0625 C 2.691406 -0.21875 2.363281 -0.441406 2.09375 -0.734375 C 1.820312 -1.035156 1.613281 -1.390625 1.46875 -1.796875 C 1.320312 -2.203125 1.25 -2.648438 1.25 -3.140625 L 1.25 -8.265625 L 2.484375 -8.265625 L 2.484375 -3.4375 C 2.484375 -2.664062 2.675781 -2.054688 3.0625 -1.609375 C 3.457031 -1.160156 4.023438 -0.9375 4.765625 -0.9375 C 5.117188 -0.9375 5.445312 -1 5.75 -1.125 C 6.050781 -1.25 6.3125 -1.425781 6.53125 -1.65625 C 6.75 -1.882812 6.921875 -2.15625 7.046875 -2.46875 C 7.179688 -2.789062 7.25 -3.144531 7.25 -3.53125 L 7.25 -8.265625 L 8.46875 -8.265625 L 8.46875 0 L 7.25 0 L 7.25 -1.4375 C 6.96875 -0.988281 6.601562 -0.609375 6.15625 -0.296875 C 5.707031 0.015625 5.128906 0.171875 4.421875 0.171875 Z M 4.421875 0.171875 "/></g></g></g><g fill="#545454" fill-opacity="1"><g transform="translate(238.253679, 211.594981)"><g><path d="M 1.40625 -11.4375 L 2.8125 -11.4375 L 2.8125 -10.078125 L 1.40625 -10.078125 Z M 1.484375 -8.265625 L 2.71875 -8.265625 L 2.71875 0 L 1.484375 0 Z M 1.484375 -8.265625 "/></g></g></g><g fill="#545454" fill-opacity="1"><g transform="translate(244.476655, 211.594981)"><g><path d="M 1.484375 -11.6875 L 2.71875 -11.6875 L 2.71875 0 L 1.484375 0 Z M 1.484375 -11.6875 "/></g></g></g><g fill="#545454" fill-opacity="1"><g transform="translate(250.699631, 211.594981)"><g><path d="M 4.84375 0.171875 C 4.34375 0.171875 3.859375 0.078125 3.390625 -0.109375 C 2.921875 -0.304688 2.5 -0.585938 2.125 -0.953125 C 1.75 -1.316406 1.445312 -1.765625 1.21875 -2.296875 C 1 -2.828125 0.890625 -3.429688 0.890625 -4.109375 L 0.890625 -4.140625 C 0.890625 -4.816406 1 -5.421875 1.21875 -5.953125 C 1.445312 -6.484375 1.75 -6.929688 2.125 -7.296875 C 2.5 -7.671875 2.921875 -7.957031 3.390625 -8.15625 C 3.859375 -8.351562 4.34375 -8.453125 4.84375 -8.453125 C 5.226562 -8.453125 5.582031 -8.398438 5.90625 -8.296875 C 6.226562 -8.203125 6.515625 -8.078125 6.765625 -7.921875 C 7.023438 -7.765625 7.257812 -7.578125 7.46875 -7.359375 C 7.675781 -7.148438 7.859375 -6.925781 8.015625 -6.6875 L 8.015625 -11.6875 L 9.25 -11.6875 L 9.25 0 L 8.015625 0 L 8.015625 -1.65625 C 7.847656 -1.414062 7.660156 -1.179688 7.453125 -0.953125 C 7.242188 -0.734375 7.007812 -0.535156 6.75 -0.359375 C 6.5 -0.191406 6.210938 -0.0625 5.890625 0.03125 C 5.578125 0.125 5.226562 0.171875 4.84375 0.171875 Z M 5.078125 -0.921875 C 5.453125 -0.921875 5.816406 -1 6.171875 -1.15625 C 6.535156 -1.3125 6.859375 -1.53125 7.140625 -1.8125 C 7.421875 -2.09375 7.644531 -2.425781 7.8125 -2.8125 C 7.976562 -3.207031 8.0625 -3.644531 8.0625 -4.125 L 8.0625 -4.15625 C 8.0625 -4.632812 7.976562 -5.066406 7.8125 -5.453125 C 7.644531 -5.847656 7.421875 -6.179688 7.140625 -6.453125 C 6.859375 -6.734375 6.535156 -6.953125 6.171875 -7.109375 C 5.816406 -7.265625 5.453125 -7.34375 5.078125 -7.34375 C 4.671875 -7.34375 4.289062 -7.269531 3.9375 -7.125 C 3.582031 -6.976562 3.273438 -6.769531 3.015625 -6.5 C 2.753906 -6.226562 2.546875 -5.894531 2.390625 -5.5 C 2.234375 -5.101562 2.15625 -4.65625 2.15625 -4.15625 L 2.15625 -4.125 C 2.15625 -3.632812 2.234375 -3.191406 2.390625 -2.796875 C 2.546875 -2.398438 2.753906 -2.0625 3.015625 -1.78125 C 3.285156 -1.507812 3.597656 -1.296875 3.953125 -1.140625 C 4.304688 -0.992188 4.679688 -0.921875 5.078125 -0.921875 Z M 5.078125 -0.921875 "/></g></g></g><g fill="#545454" fill-opacity="1"><g transform="translate(263.337067, 211.594981)"><g><path d="M 3.84375 0.171875 C 3.457031 0.171875 3.078125 0.117188 2.703125 0.015625 C 2.335938 -0.0859375 2.007812 -0.25 1.71875 -0.46875 C 1.425781 -0.6875 1.191406 -0.957031 1.015625 -1.28125 C 0.835938 -1.601562 0.75 -1.976562 0.75 -2.40625 L 0.75 -2.4375 C 0.75 -2.875 0.832031 -3.253906 1 -3.578125 C 1.175781 -3.910156 1.421875 -4.1875 1.734375 -4.40625 C 2.046875 -4.632812 2.414062 -4.804688 2.84375 -4.921875 C 3.28125 -5.046875 3.757812 -5.109375 4.28125 -5.109375 C 4.820312 -5.109375 5.285156 -5.070312 5.671875 -5 C 6.066406 -4.9375 6.453125 -4.851562 6.828125 -4.75 L 6.828125 -5.046875 C 6.828125 -5.785156 6.609375 -6.34375 6.171875 -6.71875 C 5.742188 -7.101562 5.144531 -7.296875 4.375 -7.296875 C 3.875 -7.296875 3.425781 -7.238281 3.03125 -7.125 C 2.632812 -7.007812 2.242188 -6.863281 1.859375 -6.6875 L 1.484375 -7.703125 C 1.941406 -7.910156 2.40625 -8.078125 2.875 -8.203125 C 3.34375 -8.328125 3.882812 -8.390625 4.5 -8.390625 C 5.664062 -8.390625 6.554688 -8.082031 7.171875 -7.46875 C 7.734375 -6.90625 8.015625 -6.101562 8.015625 -5.0625 L 8.015625 0 L 6.828125 0 L 6.828125 -1.25 C 6.546875 -0.875 6.160156 -0.539062 5.671875 -0.25 C 5.179688 0.03125 4.570312 0.171875 3.84375 0.171875 Z M 4.078125 -0.796875 C 4.460938 -0.796875 4.820312 -0.851562 5.15625 -0.96875 C 5.488281 -1.082031 5.78125 -1.238281 6.03125 -1.4375 C 6.289062 -1.632812 6.488281 -1.867188 6.625 -2.140625 C 6.769531 -2.410156 6.84375 -2.710938 6.84375 -3.046875 L 6.84375 -3.84375 C 6.539062 -3.925781 6.1875 -4.003906 5.78125 -4.078125 C 5.382812 -4.148438 4.929688 -4.1875 4.421875 -4.1875 C 3.640625 -4.1875 3.039062 -4.03125 2.625 -3.71875 C 2.207031 -3.414062 2 -3.003906 2 -2.484375 L 2 -2.453125 C 2 -2.191406 2.054688 -1.957031 2.171875 -1.75 C 2.285156 -1.539062 2.4375 -1.367188 2.625 -1.234375 C 2.8125 -1.097656 3.03125 -0.988281 3.28125 -0.90625 C 3.53125 -0.832031 3.796875 -0.796875 4.078125 -0.796875 Z M 4.078125 -0.796875 "/></g></g></g><g fill="#545454" fill-opacity="1"><g transform="translate(274.614829, 211.594981)"><g><path d="M 5.78125 0.171875 C 5.394531 0.171875 5.039062 0.125 4.71875 0.03125 C 4.394531 -0.0625 4.101562 -0.1875 3.84375 -0.34375 C 3.59375 -0.507812 3.363281 -0.695312 3.15625 -0.90625 C 2.945312 -1.125 2.765625 -1.347656 2.609375 -1.578125 L 2.609375 0 L 1.375 0 L 1.375 -11.6875 L 2.609375 -11.6875 L 2.609375 -6.609375 C 2.773438 -6.847656 2.960938 -7.078125 3.171875 -7.296875 C 3.378906 -7.523438 3.609375 -7.722656 3.859375 -7.890625 C 4.117188 -8.054688 4.40625 -8.191406 4.71875 -8.296875 C 5.039062 -8.398438 5.394531 -8.453125 5.78125 -8.453125 C 6.269531 -8.453125 6.75 -8.351562 7.21875 -8.15625 C 7.695312 -7.96875 8.125 -7.6875 8.5 -7.3125 C 8.875 -6.945312 9.171875 -6.5 9.390625 -5.96875 C 9.617188 -5.445312 9.734375 -4.84375 9.734375 -4.15625 L 9.734375 -4.125 C 9.734375 -3.457031 9.617188 -2.851562 9.390625 -2.3125 C 9.171875 -1.78125 8.875 -1.332031 8.5 -0.96875 C 8.132812 -0.601562 7.710938 -0.320312 7.234375 -0.125 C 6.765625 0.0703125 6.28125 0.171875 5.78125 0.171875 Z M 5.546875 -0.921875 C 5.941406 -0.921875 6.316406 -0.992188 6.671875 -1.140625 C 7.035156 -1.285156 7.347656 -1.492188 7.609375 -1.765625 C 7.867188 -2.035156 8.078125 -2.367188 8.234375 -2.765625 C 8.390625 -3.160156 8.46875 -3.609375 8.46875 -4.109375 L 8.46875 -4.140625 C 8.46875 -4.628906 8.390625 -5.070312 8.234375 -5.46875 C 8.078125 -5.863281 7.863281 -6.195312 7.59375 -6.46875 C 7.332031 -6.75 7.023438 -6.960938 6.671875 -7.109375 C 6.316406 -7.265625 5.941406 -7.34375 5.546875 -7.34375 C 5.160156 -7.34375 4.789062 -7.265625 4.4375 -7.109375 C 4.082031 -6.953125 3.765625 -6.734375 3.484375 -6.453125 C 3.203125 -6.171875 2.976562 -5.832031 2.8125 -5.4375 C 2.644531 -5.050781 2.5625 -4.625 2.5625 -4.15625 L 2.5625 -4.125 C 2.5625 -3.644531 2.644531 -3.207031 2.8125 -2.8125 C 2.976562 -2.414062 3.203125 -2.078125 3.484375 -1.796875 C 3.765625 -1.523438 4.082031 -1.3125 4.4375 -1.15625 C 4.789062 -1 5.160156 -0.921875 5.546875 -0.921875 Z M 5.546875 -0.921875 "/></g></g></g><g fill="#545454" fill-opacity="1"><g transform="translate(287.252265, 211.594981)"><g><path d="M 1.484375 -11.6875 L 2.71875 -11.6875 L 2.71875 0 L 1.484375 0 Z M 1.484375 -11.6875 "/></g></g></g><g fill="#545454" fill-opacity="1"><g transform="translate(293.475241, 211.594981)"><g><path d="M 4.984375 0.1875 C 4.421875 0.1875 3.890625 0.0820312 3.390625 -0.125 C 2.890625 -0.332031 2.453125 -0.625 2.078125 -1 C 1.703125 -1.375 1.40625 -1.828125 1.1875 -2.359375 C 0.96875 -2.890625 0.859375 -3.472656 0.859375 -4.109375 L 0.859375 -4.140625 C 0.859375 -4.742188 0.957031 -5.304688 1.15625 -5.828125 C 1.351562 -6.347656 1.628906 -6.800781 1.984375 -7.1875 C 2.335938 -7.582031 2.753906 -7.890625 3.234375 -8.109375 C 3.722656 -8.335938 4.253906 -8.453125 4.828125 -8.453125 C 5.441406 -8.453125 5.988281 -8.335938 6.46875 -8.109375 C 6.945312 -7.878906 7.347656 -7.566406 7.671875 -7.171875 C 8.003906 -6.773438 8.253906 -6.3125 8.421875 -5.78125 C 8.597656 -5.25 8.6875 -4.679688 8.6875 -4.078125 C 8.6875 -3.992188 8.6875 -3.925781 8.6875 -3.875 C 8.6875 -3.820312 8.679688 -3.757812 8.671875 -3.6875 L 2.109375 -3.6875 C 2.148438 -3.238281 2.253906 -2.835938 2.421875 -2.484375 C 2.597656 -2.140625 2.816406 -1.847656 3.078125 -1.609375 C 3.335938 -1.367188 3.632812 -1.1875 3.96875 -1.0625 C 4.300781 -0.9375 4.65625 -0.875 5.03125 -0.875 C 5.601562 -0.875 6.09375 -0.976562 6.5 -1.1875 C 6.914062 -1.40625 7.289062 -1.691406 7.625 -2.046875 L 8.40625 -1.359375 C 7.988281 -0.890625 7.507812 -0.515625 6.96875 -0.234375 C 6.4375 0.046875 5.773438 0.1875 4.984375 0.1875 Z M 7.4375 -4.59375 C 7.40625 -4.96875 7.328125 -5.320312 7.203125 -5.65625 C 7.085938 -6 6.921875 -6.296875 6.703125 -6.546875 C 6.484375 -6.804688 6.210938 -7.015625 5.890625 -7.171875 C 5.578125 -7.328125 5.210938 -7.40625 4.796875 -7.40625 C 4.429688 -7.40625 4.09375 -7.332031 3.78125 -7.1875 C 3.476562 -7.039062 3.207031 -6.84375 2.96875 -6.59375 C 2.738281 -6.34375 2.546875 -6.046875 2.390625 -5.703125 C 2.242188 -5.367188 2.148438 -5 2.109375 -4.59375 Z M 7.4375 -4.59375 "/></g></g></g></svg>