<svg xmlns="http://www.w3.org/2000/svg" xmlns:xlink="http://www.w3.org/1999/xlink" width="454" zoomAndPan="magnify" viewBox="0 0 340.5 56.999997" height="76" preserveAspectRatio="xMidYMid meet" version="1.0"><defs><g/><clipPath id="908e0475fc"><path d="M 18 0.0429688 L 322 0.0429688 L 322 56 L 18 56 Z M 18 0.0429688 " clip-rule="nonzero"/></clipPath><clipPath id="d92f9c50ac"><path d="M 0.933594 0.0429688 L 303.128906 0.0429688 L 303.128906 55.402344 L 0.933594 55.402344 Z M 0.933594 0.0429688 " clip-rule="nonzero"/></clipPath><clipPath id="e5efc3f55f"><rect x="0" width="304" y="0" height="56"/></clipPath><clipPath id="ec8d364762"><rect x="0" width="304" y="0" height="56"/></clipPath></defs><g clip-path="url(#908e0475fc)"><g transform="matrix(1, 0, 0, 1, 18, -0.000000000000012386)"><g clip-path="url(#ec8d364762)"><g clip-path="url(#d92f9c50ac)"><g transform="matrix(1, 0, 0, 1, -0.000000000000003553, -0.000000000000012386)"><g clip-path="url(#e5efc3f55f)"><g fill="#545454" fill-opacity="1"><g transform="translate(1.465111, 27.760503)"><g><path d="M 2.359375 -0.140625 C 2.609375 -0.472656 2.816406 -0.894531 2.984375 -1.40625 C 3.148438 -1.914062 3.234375 -2.429688 3.234375 -2.953125 L 3.234375 -16.75 C 3.234375 -17.28125 3.148438 -17.796875 2.984375 -18.296875 C 2.816406 -18.804688 2.609375 -19.226562 2.359375 -19.5625 L 2.359375 -19.703125 L 15.0625 -19.703125 L 15.65625 -15.0625 L 15.375 -15.0625 C 14.976562 -15.96875 14.5625 -16.703125 14.125 -17.265625 C 13.695312 -17.835938 13.132812 -18.289062 12.4375 -18.625 C 11.75 -18.957031 10.890625 -19.125 9.859375 -19.125 L 5.90625 -19.125 L 5.90625 -10.28125 L 9.65625 -10.28125 C 11.320312 -10.28125 12.351562 -11.097656 12.75 -12.734375 L 13.03125 -12.734375 L 13.03125 -7.234375 L 12.75 -7.234375 C 12.34375 -8.867188 11.3125 -9.6875 9.65625 -9.6875 L 5.90625 -9.6875 L 5.90625 -0.59375 L 10.53125 -0.59375 C 11.5625 -0.59375 12.421875 -0.753906 13.109375 -1.078125 C 13.804688 -1.410156 14.367188 -1.863281 14.796875 -2.4375 C 15.234375 -3.007812 15.648438 -3.742188 16.046875 -4.640625 L 16.328125 -4.640625 L 15.734375 0 L 2.359375 0 Z M 2.359375 -0.140625 "/></g></g></g><g fill="#545454" fill-opacity="1"><g transform="translate(18.948067, 27.760503)"><g><path d="M 1.9375 5.484375 C 2.425781 4.816406 2.671875 3.945312 2.671875 2.875 L 2.671875 -10.390625 C 2.671875 -11.003906 2.597656 -11.515625 2.453125 -11.921875 C 2.316406 -12.328125 2.097656 -12.679688 1.796875 -12.984375 L 1.796875 -13.125 L 5.046875 -14.390625 L 5.1875 -14.390625 L 5.1875 -11.59375 L 5.328125 -11.59375 C 5.703125 -12.425781 6.269531 -13.097656 7.03125 -13.609375 C 7.800781 -14.128906 8.675781 -14.390625 9.65625 -14.390625 C 10.875 -14.390625 11.921875 -14.085938 12.796875 -13.484375 C 13.671875 -12.878906 14.335938 -12.054688 14.796875 -11.015625 C 15.253906 -9.972656 15.484375 -8.796875 15.484375 -7.484375 C 15.484375 -6.003906 15.175781 -4.664062 14.5625 -3.46875 C 13.957031 -2.28125 13.140625 -1.351562 12.109375 -0.6875 C 11.078125 -0.0195312 9.957031 0.3125 8.75 0.3125 C 7.320312 0.3125 6.132812 -0.09375 5.1875 -0.90625 L 5.1875 2.875 C 5.1875 3.945312 5.425781 4.816406 5.90625 5.484375 L 5.90625 5.625 L 1.9375 5.625 Z M 8.78125 -0.34375 C 10.0625 -0.34375 11.070312 -0.921875 11.8125 -2.078125 C 12.550781 -3.242188 12.921875 -4.800781 12.921875 -6.75 C 12.921875 -7.976562 12.742188 -9.050781 12.390625 -9.96875 C 12.035156 -10.882812 11.535156 -11.585938 10.890625 -12.078125 C 10.253906 -12.566406 9.535156 -12.8125 8.734375 -12.8125 C 7.734375 -12.8125 6.90625 -12.492188 6.25 -11.859375 C 5.59375 -11.234375 5.238281 -10.425781 5.1875 -9.4375 L 5.1875 -4.171875 C 5.21875 -3.566406 5.375 -2.96875 5.65625 -2.375 C 5.9375 -1.789062 6.34375 -1.304688 6.875 -0.921875 C 7.414062 -0.535156 8.050781 -0.34375 8.78125 -0.34375 Z M 8.78125 -0.34375 "/></g></g></g><g fill="#545454" fill-opacity="1"><g transform="translate(35.755347, 27.760503)"><g><path d="M 2.109375 -0.140625 C 2.597656 -0.816406 2.84375 -1.691406 2.84375 -2.765625 L 2.84375 -10.390625 C 2.84375 -11.003906 2.765625 -11.519531 2.609375 -11.9375 C 2.460938 -12.351562 2.238281 -12.703125 1.9375 -12.984375 L 1.9375 -13.125 L 5.203125 -14.390625 L 5.34375 -14.390625 L 5.34375 -2.765625 C 5.34375 -1.691406 5.585938 -0.816406 6.078125 -0.140625 L 6.078125 0 L 2.109375 0 Z M 4.09375 -16.25 C 3.632812 -16.25 3.242188 -16.410156 2.921875 -16.734375 C 2.609375 -17.066406 2.453125 -17.457031 2.453125 -17.90625 C 2.453125 -18.351562 2.613281 -18.738281 2.9375 -19.0625 C 3.269531 -19.382812 3.65625 -19.546875 4.09375 -19.546875 C 4.5625 -19.546875 4.953125 -19.382812 5.265625 -19.0625 C 5.585938 -18.738281 5.75 -18.351562 5.75 -17.90625 C 5.75 -17.4375 5.585938 -17.039062 5.265625 -16.71875 C 4.953125 -16.40625 4.5625 -16.25 4.09375 -16.25 Z M 4.09375 -16.25 "/></g></g></g><g fill="#545454" fill-opacity="1"><g transform="translate(43.807076, 27.760503)"><g><path d="M 7.75 0.3125 C 6.539062 0.3125 5.445312 0.0351562 4.46875 -0.515625 C 3.5 -1.066406 2.734375 -1.875 2.171875 -2.9375 C 1.609375 -4 1.328125 -5.265625 1.328125 -6.734375 C 1.328125 -8.117188 1.65625 -9.394531 2.3125 -10.5625 C 2.96875 -11.738281 3.851562 -12.671875 4.96875 -13.359375 C 6.082031 -14.046875 7.296875 -14.390625 8.609375 -14.390625 C 9.285156 -14.390625 9.984375 -14.289062 10.703125 -14.09375 C 11.429688 -13.894531 12.054688 -13.628906 12.578125 -13.296875 L 12.578125 -9.578125 L 12.296875 -9.578125 C 12.015625 -10.753906 11.453125 -11.710938 10.609375 -12.453125 C 9.765625 -13.203125 8.800781 -13.578125 7.71875 -13.578125 C 7 -13.578125 6.3125 -13.394531 5.65625 -13.03125 C 5 -12.675781 4.457031 -12.109375 4.03125 -11.328125 C 3.613281 -10.554688 3.40625 -9.578125 3.40625 -8.390625 C 3.40625 -7.109375 3.644531 -5.960938 4.125 -4.953125 C 4.601562 -3.941406 5.265625 -3.144531 6.109375 -2.5625 C 6.953125 -1.976562 7.878906 -1.6875 8.890625 -1.6875 C 9.796875 -1.6875 10.628906 -1.921875 11.390625 -2.390625 C 12.148438 -2.859375 12.707031 -3.554688 13.0625 -4.484375 L 13.34375 -4.484375 C 13.082031 -3.035156 12.429688 -1.875 11.390625 -1 C 10.347656 -0.125 9.132812 0.3125 7.75 0.3125 Z M 7.75 0.3125 "/></g></g></g><g fill="#ffffff" fill-opacity="1"><g transform="translate(57.946925, 27.760503)"><g/></g></g><g fill="#ff9e2c" fill-opacity="1"><g transform="translate(64.985157, 27.760503)"><g><path d="M 1.015625 -0.140625 C 1.335938 -0.472656 1.625 -0.894531 1.875 -1.40625 C 2.125 -1.914062 2.304688 -2.429688 2.421875 -2.953125 L 5.09375 -16.75 C 5.15625 -17.09375 5.1875 -17.410156 5.1875 -17.703125 C 5.1875 -18.421875 5.050781 -19.039062 4.78125 -19.5625 L 4.8125 -19.703125 L 9.171875 -19.703125 L 9.15625 -19.5625 C 8.832031 -19.226562 8.539062 -18.804688 8.28125 -18.296875 C 8.03125 -17.796875 7.851562 -17.28125 7.75 -16.75 L 4.625 -0.59375 L 8.21875 -0.59375 C 9.8125 -0.59375 11.097656 -0.914062 12.078125 -1.5625 C 13.054688 -2.207031 14.015625 -3.253906 14.953125 -4.703125 L 15.203125 -4.703125 L 13.59375 0 L 0.984375 0 Z M 1.015625 -0.140625 "/></g></g></g><g fill="#ff9e2c" fill-opacity="1"><g transform="translate(80.666327, 27.760503)"><g><path d="M 5.09375 0.3125 C 3.78125 0.3125 2.78125 -0.164062 2.09375 -1.125 C 1.40625 -2.082031 1.0625 -3.320312 1.0625 -4.84375 C 1.0625 -6.363281 1.382812 -7.863281 2.03125 -9.34375 C 2.6875 -10.832031 3.601562 -12.046875 4.78125 -12.984375 C 5.96875 -13.921875 7.320312 -14.390625 8.84375 -14.390625 C 10.195312 -14.390625 11.296875 -13.929688 12.140625 -13.015625 L 14.46875 -14.390625 L 14.609375 -14.390625 L 12.359375 -2.703125 C 12.265625 -2.234375 12.21875 -1.882812 12.21875 -1.65625 C 12.21875 -1.1875 12.40625 -0.953125 12.78125 -0.953125 C 13.40625 -0.953125 14.070312 -1.96875 14.78125 -4 L 15.265625 -4 C 14.796875 -2.34375 14.300781 -1.207031 13.78125 -0.59375 C 13.269531 0.0078125 12.679688 0.3125 12.015625 0.3125 C 11.421875 0.3125 10.9375 0.109375 10.5625 -0.296875 C 10.1875 -0.703125 10 -1.328125 10 -2.171875 C 10 -2.566406 10.035156 -2.957031 10.109375 -3.34375 L 10.3125 -4.453125 L 10.171875 -4.453125 C 9.640625 -2.960938 8.953125 -1.796875 8.109375 -0.953125 C 7.265625 -0.109375 6.257812 0.3125 5.09375 0.3125 Z M 6.046875 -1.375 C 7.160156 -1.375 8.144531 -2.144531 9 -3.6875 C 9.851562 -5.226562 10.632812 -7.320312 11.34375 -9.96875 C 11.363281 -10.101562 11.375 -10.289062 11.375 -10.53125 C 11.375 -11.539062 11.132812 -12.332031 10.65625 -12.90625 C 10.175781 -13.476562 9.617188 -13.765625 8.984375 -13.765625 C 8.003906 -13.765625 7.109375 -13.300781 6.296875 -12.375 C 5.492188 -11.445312 4.867188 -10.296875 4.421875 -8.921875 C 3.972656 -7.554688 3.75 -6.242188 3.75 -4.984375 C 3.75 -3.890625 3.941406 -3.015625 4.328125 -2.359375 C 4.710938 -1.703125 5.285156 -1.375 6.046875 -1.375 Z M 6.046875 -1.375 "/></g></g></g><g fill="#ff9e2c" fill-opacity="1"><g transform="translate(96.685329, 27.760503)"><g><path d="M 12.015625 0.3125 C 11.453125 0.3125 10.992188 0.117188 10.640625 -0.265625 C 10.285156 -0.648438 10.109375 -1.226562 10.109375 -2 C 10.109375 -2.488281 10.175781 -2.992188 10.3125 -3.515625 L 11.828125 -9.90625 C 11.898438 -10.207031 11.9375 -10.53125 11.9375 -10.875 C 11.9375 -11.4375 11.796875 -11.863281 11.515625 -12.15625 C 11.234375 -12.457031 10.859375 -12.609375 10.390625 -12.609375 C 9.410156 -12.609375 8.445312 -12.019531 7.5 -10.84375 C 6.550781 -9.675781 5.675781 -7.789062 4.875 -5.1875 L 3.859375 0 L 1.4375 0 L 3.296875 -9.625 C 3.441406 -10.4375 3.515625 -11.019531 3.515625 -11.375 C 3.515625 -11.75 3.457031 -12.039062 3.34375 -12.25 C 3.238281 -12.457031 3.046875 -12.671875 2.765625 -12.890625 L 2.78125 -13.03125 L 6.5 -14.390625 L 6.640625 -14.390625 L 5.625 -9.125 L 5.765625 -9.125 C 6.421875 -10.789062 7.21875 -12.082031 8.15625 -13 C 9.101562 -13.925781 10.140625 -14.390625 11.265625 -14.390625 C 12.179688 -14.390625 12.925781 -14.125 13.5 -13.59375 C 14.070312 -13.070312 14.359375 -12.238281 14.359375 -11.09375 C 14.359375 -10.4375 14.265625 -9.734375 14.078125 -8.984375 L 12.46875 -2.3125 C 12.414062 -2.0625 12.390625 -1.84375 12.390625 -1.65625 C 12.390625 -1.1875 12.566406 -0.953125 12.921875 -0.953125 C 13.273438 -0.953125 13.613281 -1.207031 13.9375 -1.71875 C 14.257812 -2.226562 14.609375 -2.988281 14.984375 -4 L 15.453125 -4 C 15.117188 -2.832031 14.769531 -1.9375 14.40625 -1.3125 C 14.050781 -0.695312 13.6875 -0.269531 13.3125 -0.03125 C 12.9375 0.195312 12.503906 0.3125 12.015625 0.3125 Z M 12.015625 0.3125 "/></g></g></g><g fill="#ff9e2c" fill-opacity="1"><g transform="translate(113.379996, 27.760503)"><g><path d="M 5.09375 0.3125 C 3.78125 0.3125 2.78125 -0.164062 2.09375 -1.125 C 1.40625 -2.082031 1.0625 -3.320312 1.0625 -4.84375 C 1.0625 -6.363281 1.382812 -7.863281 2.03125 -9.34375 C 2.6875 -10.832031 3.597656 -12.046875 4.765625 -12.984375 C 5.941406 -13.921875 7.28125 -14.390625 8.78125 -14.390625 C 10 -14.390625 11.015625 -13.976562 11.828125 -13.15625 L 12.390625 -16.21875 C 12.515625 -17.007812 12.578125 -17.546875 12.578125 -17.828125 C 12.578125 -18.253906 12.515625 -18.578125 12.390625 -18.796875 C 12.273438 -19.023438 12.078125 -19.253906 11.796875 -19.484375 L 11.828125 -19.625 L 15.546875 -20.96875 L 15.6875 -20.96875 L 12.390625 -2.703125 C 12.316406 -2.347656 12.28125 -2.019531 12.28125 -1.71875 C 12.28125 -1.457031 12.320312 -1.265625 12.40625 -1.140625 C 12.488281 -1.015625 12.632812 -0.953125 12.84375 -0.953125 C 13.457031 -0.953125 14.125 -1.96875 14.84375 -4 L 15.3125 -4 C 14.84375 -2.34375 14.34375 -1.207031 13.8125 -0.59375 C 13.289062 0.0078125 12.710938 0.3125 12.078125 0.3125 C 11.472656 0.3125 10.976562 0.109375 10.59375 -0.296875 C 10.21875 -0.703125 10.03125 -1.328125 10.03125 -2.171875 C 10.03125 -2.566406 10.066406 -2.957031 10.140625 -3.34375 L 10.328125 -4.453125 L 10.1875 -4.453125 C 9.6875 -2.960938 9.003906 -1.796875 8.140625 -0.953125 C 7.273438 -0.109375 6.257812 0.3125 5.09375 0.3125 Z M 6.046875 -1.375 C 8.078125 -1.375 9.863281 -4.238281 11.40625 -9.96875 C 11.425781 -10.101562 11.4375 -10.28125 11.4375 -10.5 C 11.4375 -11.53125 11.191406 -12.332031 10.703125 -12.90625 C 10.210938 -13.476562 9.640625 -13.765625 8.984375 -13.765625 C 8.003906 -13.765625 7.109375 -13.300781 6.296875 -12.375 C 5.492188 -11.445312 4.867188 -10.296875 4.421875 -8.921875 C 3.972656 -7.554688 3.75 -6.242188 3.75 -4.984375 C 3.75 -3.890625 3.941406 -3.015625 4.328125 -2.359375 C 4.710938 -1.703125 5.285156 -1.375 6.046875 -1.375 Z M 6.046875 -1.375 "/></g></g></g><g fill="#ff9e2c" fill-opacity="1"><g transform="translate(129.567919, 27.760503)"><g><path d="M 5.625 0.3125 C 4.664062 0.3125 3.765625 0.15625 2.921875 -0.15625 C 2.078125 -0.46875 1.335938 -0.914062 0.703125 -1.5 L 1.4375 -5.328125 L 1.71875 -5.328125 C 1.71875 -4.398438 1.898438 -3.5625 2.265625 -2.8125 C 2.628906 -2.0625 3.113281 -1.46875 3.71875 -1.03125 C 4.332031 -0.601562 5.007812 -0.390625 5.75 -0.390625 C 6.5 -0.390625 7.101562 -0.601562 7.5625 -1.03125 C 8.019531 -1.46875 8.25 -2.015625 8.25 -2.671875 C 8.25 -3.179688 8.070312 -3.679688 7.71875 -4.171875 C 7.363281 -4.660156 6.734375 -5.296875 5.828125 -6.078125 C 4.628906 -7.109375 3.78125 -7.941406 3.28125 -8.578125 C 2.78125 -9.222656 2.53125 -9.941406 2.53125 -10.734375 C 2.53125 -11.835938 2.957031 -12.722656 3.8125 -13.390625 C 4.664062 -14.054688 5.710938 -14.390625 6.953125 -14.390625 C 7.773438 -14.390625 8.546875 -14.257812 9.265625 -14 C 9.992188 -13.75 10.59375 -13.4375 11.0625 -13.0625 L 10.421875 -9.765625 L 10.140625 -9.765625 C 10.097656 -11.003906 9.765625 -11.972656 9.140625 -12.671875 C 8.523438 -13.367188 7.738281 -13.71875 6.78125 -13.71875 C 6.070312 -13.71875 5.488281 -13.523438 5.03125 -13.140625 C 4.582031 -12.765625 4.359375 -12.257812 4.359375 -11.625 C 4.359375 -11.3125 4.425781 -11.03125 4.5625 -10.78125 C 4.707031 -10.539062 4.96875 -10.238281 5.34375 -9.875 C 5.71875 -9.519531 6.335938 -8.988281 7.203125 -8.28125 C 8.234375 -7.4375 8.984375 -6.691406 9.453125 -6.046875 C 9.929688 -5.410156 10.171875 -4.644531 10.171875 -3.75 C 10.171875 -2.46875 9.757812 -1.46875 8.9375 -0.75 C 8.125 -0.0390625 7.019531 0.3125 5.625 0.3125 Z M 5.625 0.3125 "/></g></g></g><g fill="#ff9e2c" fill-opacity="1"><g transform="translate(141.532903, 27.760503)"><g><path d="M 6.671875 0.3125 C 5.617188 0.3125 4.691406 0.0664062 3.890625 -0.421875 C 3.097656 -0.910156 2.472656 -1.597656 2.015625 -2.484375 C 1.566406 -3.378906 1.34375 -4.410156 1.34375 -5.578125 C 1.34375 -7.191406 1.671875 -8.664062 2.328125 -10 C 2.992188 -11.34375 3.894531 -12.410156 5.03125 -13.203125 C 6.164062 -13.992188 7.40625 -14.390625 8.75 -14.390625 C 10.351562 -14.390625 11.6875 -14.003906 12.75 -13.234375 L 12.078125 -9.546875 L 11.796875 -9.546875 C 11.722656 -10.859375 11.394531 -11.863281 10.8125 -12.5625 C 10.226562 -13.269531 9.421875 -13.625 8.390625 -13.625 C 7.597656 -13.625 6.859375 -13.328125 6.171875 -12.734375 C 5.492188 -12.148438 4.941406 -11.316406 4.515625 -10.234375 C 4.097656 -9.148438 3.890625 -7.90625 3.890625 -6.5 C 3.890625 -4.882812 4.195312 -3.625 4.8125 -2.71875 C 5.4375 -1.820312 6.359375 -1.375 7.578125 -1.375 C 8.328125 -1.375 9.039062 -1.578125 9.71875 -1.984375 C 10.40625 -2.390625 11.003906 -3.015625 11.515625 -3.859375 L 11.828125 -3.859375 C 11.523438 -2.753906 10.914062 -1.78125 10 -0.9375 C 9.09375 -0.101562 7.984375 0.3125 6.671875 0.3125 Z M 6.671875 0.3125 "/></g></g></g><g fill="#ff9e2c" fill-opacity="1"><g transform="translate(154.623998, 27.760503)"><g><path d="M 5.09375 0.3125 C 3.78125 0.3125 2.78125 -0.164062 2.09375 -1.125 C 1.40625 -2.082031 1.0625 -3.320312 1.0625 -4.84375 C 1.0625 -6.363281 1.382812 -7.863281 2.03125 -9.34375 C 2.6875 -10.832031 3.601562 -12.046875 4.78125 -12.984375 C 5.96875 -13.921875 7.320312 -14.390625 8.84375 -14.390625 C 10.195312 -14.390625 11.296875 -13.929688 12.140625 -13.015625 L 14.46875 -14.390625 L 14.609375 -14.390625 L 12.359375 -2.703125 C 12.265625 -2.234375 12.21875 -1.882812 12.21875 -1.65625 C 12.21875 -1.1875 12.40625 -0.953125 12.78125 -0.953125 C 13.40625 -0.953125 14.070312 -1.96875 14.78125 -4 L 15.265625 -4 C 14.796875 -2.34375 14.300781 -1.207031 13.78125 -0.59375 C 13.269531 0.0078125 12.679688 0.3125 12.015625 0.3125 C 11.421875 0.3125 10.9375 0.109375 10.5625 -0.296875 C 10.1875 -0.703125 10 -1.328125 10 -2.171875 C 10 -2.566406 10.035156 -2.957031 10.109375 -3.34375 L 10.3125 -4.453125 L 10.171875 -4.453125 C 9.640625 -2.960938 8.953125 -1.796875 8.109375 -0.953125 C 7.265625 -0.109375 6.257812 0.3125 5.09375 0.3125 Z M 6.046875 -1.375 C 7.160156 -1.375 8.144531 -2.144531 9 -3.6875 C 9.851562 -5.226562 10.632812 -7.320312 11.34375 -9.96875 C 11.363281 -10.101562 11.375 -10.289062 11.375 -10.53125 C 11.375 -11.539062 11.132812 -12.332031 10.65625 -12.90625 C 10.175781 -13.476562 9.617188 -13.765625 8.984375 -13.765625 C 8.003906 -13.765625 7.109375 -13.300781 6.296875 -12.375 C 5.492188 -11.445312 4.867188 -10.296875 4.421875 -8.921875 C 3.972656 -7.554688 3.75 -6.242188 3.75 -4.984375 C 3.75 -3.890625 3.941406 -3.015625 4.328125 -2.359375 C 4.710938 -1.703125 5.285156 -1.375 6.046875 -1.375 Z M 6.046875 -1.375 "/></g></g></g><g fill="#ff9e2c" fill-opacity="1"><g transform="translate(170.643, 27.760503)"><g><path d="M -0.453125 5.484375 C 0.179688 4.796875 0.59375 3.925781 0.78125 2.875 L 2.984375 -9.625 C 3.117188 -10.300781 3.1875 -10.863281 3.1875 -11.3125 C 3.1875 -11.707031 3.125 -12.015625 3 -12.234375 C 2.875 -12.453125 2.679688 -12.671875 2.421875 -12.890625 L 2.453125 -13.03125 L 6.140625 -14.390625 L 6.28125 -14.390625 L 5.34375 -9.234375 L 5.484375 -9.234375 C 6.085938 -10.867188 6.863281 -12.132812 7.8125 -13.03125 C 8.757812 -13.9375 9.769531 -14.390625 10.84375 -14.390625 C 12.019531 -14.390625 12.953125 -13.929688 13.640625 -13.015625 C 14.328125 -12.109375 14.671875 -10.929688 14.671875 -9.484375 C 14.671875 -7.910156 14.335938 -6.367188 13.671875 -4.859375 C 13.003906 -3.347656 12.066406 -2.109375 10.859375 -1.140625 C 9.660156 -0.171875 8.3125 0.3125 6.8125 0.3125 C 5.644531 0.3125 4.660156 -0.0507812 3.859375 -0.78125 L 3.203125 2.875 C 3.128906 3.226562 3.09375 3.601562 3.09375 4 C 3.09375 4.601562 3.207031 5.097656 3.4375 5.484375 L 3.40625 5.625 L -0.453125 5.625 Z M 6.734375 -0.3125 C 7.671875 -0.3125 8.539062 -0.796875 9.34375 -1.765625 C 10.15625 -2.742188 10.800781 -3.957031 11.28125 -5.40625 C 11.757812 -6.851562 12 -8.222656 12 -9.515625 C 12 -10.546875 11.8125 -11.332031 11.4375 -11.875 C 11.070312 -12.425781 10.582031 -12.703125 9.96875 -12.703125 C 8.84375 -12.703125 7.773438 -11.859375 6.765625 -10.171875 C 5.765625 -8.492188 4.957031 -6.390625 4.34375 -3.859375 C 4.320312 -3.742188 4.3125 -3.570312 4.3125 -3.34375 C 4.3125 -2.394531 4.535156 -1.648438 4.984375 -1.109375 C 5.429688 -0.578125 6.015625 -0.3125 6.734375 -0.3125 Z M 6.734375 -0.3125 "/></g></g></g><g fill="#ff9e2c" fill-opacity="1"><g transform="translate(186.32417, 27.760503)"><g><path d="M 7.578125 -1.375 C 8.328125 -1.375 9.039062 -1.578125 9.71875 -1.984375 C 10.40625 -2.390625 11.003906 -3.015625 11.515625 -3.859375 L 11.828125 -3.859375 C 11.523438 -2.753906 10.914062 -1.78125 10 -0.9375 C 9.09375 -0.101562 7.984375 0.3125 6.671875 0.3125 C 5.617188 0.3125 4.691406 0.0664062 3.890625 -0.421875 C 3.097656 -0.910156 2.472656 -1.597656 2.015625 -2.484375 C 1.566406 -3.378906 1.34375 -4.410156 1.34375 -5.578125 C 1.34375 -7.191406 1.671875 -8.664062 2.328125 -10 C 2.992188 -11.34375 3.898438 -12.410156 5.046875 -13.203125 C 6.203125 -13.992188 7.476562 -14.390625 8.875 -14.390625 C 10.144531 -14.390625 11.09375 -14.125 11.71875 -13.59375 C 12.351562 -13.070312 12.671875 -12.425781 12.671875 -11.65625 C 12.671875 -9.800781 11.1875 -8.535156 8.21875 -7.859375 C 7.113281 -7.597656 5.675781 -7.457031 3.90625 -7.4375 C 3.894531 -7.226562 3.890625 -6.925781 3.890625 -6.53125 C 3.890625 -4.914062 4.195312 -3.648438 4.8125 -2.734375 C 5.4375 -1.828125 6.359375 -1.375 7.578125 -1.375 Z M 8.359375 -13.625 C 7.210938 -13.625 6.25 -13.09375 5.46875 -12.03125 C 4.695312 -10.976562 4.207031 -9.660156 4 -8.078125 C 5.550781 -8.097656 6.800781 -8.273438 7.75 -8.609375 C 8.507812 -8.878906 9.097656 -9.300781 9.515625 -9.875 C 9.929688 -10.457031 10.140625 -11.085938 10.140625 -11.765625 C 10.140625 -12.347656 9.992188 -12.800781 9.703125 -13.125 C 9.410156 -13.457031 8.960938 -13.625 8.359375 -13.625 Z M 8.359375 -13.625 "/></g></g></g><g fill="#ff9e2c" fill-opacity="1"><g transform="translate(199.584187, 27.760503)"><g/></g></g><g fill="#ff9e2c" fill-opacity="1"><g transform="translate(206.622408, 27.760503)"><g><path d="M 1.015625 -0.140625 C 1.335938 -0.472656 1.625 -0.894531 1.875 -1.40625 C 2.125 -1.914062 2.304688 -2.429688 2.421875 -2.953125 L 5.09375 -16.75 C 5.15625 -17.09375 5.1875 -17.410156 5.1875 -17.703125 C 5.1875 -18.421875 5.050781 -19.039062 4.78125 -19.5625 L 4.8125 -19.703125 L 11.296875 -19.703125 C 12.867188 -19.703125 14.273438 -19.421875 15.515625 -18.859375 C 16.753906 -18.296875 17.726562 -17.441406 18.4375 -16.296875 C 19.15625 -15.148438 19.515625 -13.753906 19.515625 -12.109375 C 19.515625 -9.484375 18.957031 -7.253906 17.84375 -5.421875 C 16.738281 -3.585938 15.3125 -2.222656 13.5625 -1.328125 C 11.820312 -0.441406 10.015625 0 8.140625 0 L 0.984375 0 Z M 7.515625 -0.625 C 9.054688 -0.625 10.519531 -1.082031 11.90625 -2 C 13.300781 -2.914062 14.425781 -4.28125 15.28125 -6.09375 C 16.144531 -7.90625 16.578125 -10.078125 16.578125 -12.609375 C 16.578125 -14.773438 16.066406 -16.394531 15.046875 -17.46875 C 14.023438 -18.550781 12.648438 -19.09375 10.921875 -19.09375 C 10.078125 -19.09375 9.140625 -18.953125 8.109375 -18.671875 L 4.703125 -1.046875 C 5.492188 -0.765625 6.429688 -0.625 7.515625 -0.625 Z M 7.515625 -0.625 "/></g></g></g><g fill="#ff9e2c" fill-opacity="1"><g transform="translate(226.751735, 27.760503)"><g><path d="M 7.578125 -1.375 C 8.328125 -1.375 9.039062 -1.578125 9.71875 -1.984375 C 10.40625 -2.390625 11.003906 -3.015625 11.515625 -3.859375 L 11.828125 -3.859375 C 11.523438 -2.753906 10.914062 -1.78125 10 -0.9375 C 9.09375 -0.101562 7.984375 0.3125 6.671875 0.3125 C 5.617188 0.3125 4.691406 0.0664062 3.890625 -0.421875 C 3.097656 -0.910156 2.472656 -1.597656 2.015625 -2.484375 C 1.566406 -3.378906 1.34375 -4.410156 1.34375 -5.578125 C 1.34375 -7.191406 1.671875 -8.664062 2.328125 -10 C 2.992188 -11.34375 3.898438 -12.410156 5.046875 -13.203125 C 6.203125 -13.992188 7.476562 -14.390625 8.875 -14.390625 C 10.144531 -14.390625 11.09375 -14.125 11.71875 -13.59375 C 12.351562 -13.070312 12.671875 -12.425781 12.671875 -11.65625 C 12.671875 -9.800781 11.1875 -8.535156 8.21875 -7.859375 C 7.113281 -7.597656 5.675781 -7.457031 3.90625 -7.4375 C 3.894531 -7.226562 3.890625 -6.925781 3.890625 -6.53125 C 3.890625 -4.914062 4.195312 -3.648438 4.8125 -2.734375 C 5.4375 -1.828125 6.359375 -1.375 7.578125 -1.375 Z M 8.359375 -13.625 C 7.210938 -13.625 6.25 -13.09375 5.46875 -12.03125 C 4.695312 -10.976562 4.207031 -9.660156 4 -8.078125 C 5.550781 -8.097656 6.800781 -8.273438 7.75 -8.609375 C 8.507812 -8.878906 9.097656 -9.300781 9.515625 -9.875 C 9.929688 -10.457031 10.140625 -11.085938 10.140625 -11.765625 C 10.140625 -12.347656 9.992188 -12.800781 9.703125 -13.125 C 9.410156 -13.457031 8.960938 -13.625 8.359375 -13.625 Z M 8.359375 -13.625 "/></g></g></g><g fill="#ff9e2c" fill-opacity="1"><g transform="translate(240.011752, 27.760503)"><g><path d="M 5.625 0.3125 C 4.664062 0.3125 3.765625 0.15625 2.921875 -0.15625 C 2.078125 -0.46875 1.335938 -0.914062 0.703125 -1.5 L 1.4375 -5.328125 L 1.71875 -5.328125 C 1.71875 -4.398438 1.898438 -3.5625 2.265625 -2.8125 C 2.628906 -2.0625 3.113281 -1.46875 3.71875 -1.03125 C 4.332031 -0.601562 5.007812 -0.390625 5.75 -0.390625 C 6.5 -0.390625 7.101562 -0.601562 7.5625 -1.03125 C 8.019531 -1.46875 8.25 -2.015625 8.25 -2.671875 C 8.25 -3.179688 8.070312 -3.679688 7.71875 -4.171875 C 7.363281 -4.660156 6.734375 -5.296875 5.828125 -6.078125 C 4.628906 -7.109375 3.78125 -7.941406 3.28125 -8.578125 C 2.78125 -9.222656 2.53125 -9.941406 2.53125 -10.734375 C 2.53125 -11.835938 2.957031 -12.722656 3.8125 -13.390625 C 4.664062 -14.054688 5.710938 -14.390625 6.953125 -14.390625 C 7.773438 -14.390625 8.546875 -14.257812 9.265625 -14 C 9.992188 -13.75 10.59375 -13.4375 11.0625 -13.0625 L 10.421875 -9.765625 L 10.140625 -9.765625 C 10.097656 -11.003906 9.765625 -11.972656 9.140625 -12.671875 C 8.523438 -13.367188 7.738281 -13.71875 6.78125 -13.71875 C 6.070312 -13.71875 5.488281 -13.523438 5.03125 -13.140625 C 4.582031 -12.765625 4.359375 -12.257812 4.359375 -11.625 C 4.359375 -11.3125 4.425781 -11.03125 4.5625 -10.78125 C 4.707031 -10.539062 4.96875 -10.238281 5.34375 -9.875 C 5.71875 -9.519531 6.335938 -8.988281 7.203125 -8.28125 C 8.234375 -7.4375 8.984375 -6.691406 9.453125 -6.046875 C 9.929688 -5.410156 10.171875 -4.644531 10.171875 -3.75 C 10.171875 -2.46875 9.757812 -1.46875 8.9375 -0.75 C 8.125 -0.0390625 7.019531 0.3125 5.625 0.3125 Z M 5.625 0.3125 "/></g></g></g><g fill="#ff9e2c" fill-opacity="1"><g transform="translate(251.976736, 27.760503)"><g><path d="M 3.796875 0.3125 C 3.179688 0.3125 2.6875 0.117188 2.3125 -0.265625 C 1.9375 -0.648438 1.75 -1.273438 1.75 -2.140625 C 1.75 -2.460938 1.796875 -2.90625 1.890625 -3.46875 L 3.0625 -9.625 C 3.195312 -10.300781 3.265625 -10.863281 3.265625 -11.3125 C 3.265625 -11.707031 3.207031 -12.015625 3.09375 -12.234375 C 2.976562 -12.453125 2.789062 -12.671875 2.53125 -12.890625 L 2.5625 -13.03125 L 6.28125 -14.390625 L 6.421875 -14.390625 L 4.171875 -2.703125 C 4.085938 -2.328125 4.046875 -1.988281 4.046875 -1.6875 C 4.046875 -1.195312 4.226562 -0.953125 4.59375 -0.953125 C 4.925781 -0.953125 5.253906 -1.207031 5.578125 -1.71875 C 5.910156 -2.238281 6.253906 -3 6.609375 -4 L 7.09375 -4 C 6.601562 -2.332031 6.09375 -1.195312 5.5625 -0.59375 C 5.039062 0.0078125 4.453125 0.3125 3.796875 0.3125 Z M 5.71875 -16.28125 C 5.28125 -16.28125 4.921875 -16.421875 4.640625 -16.703125 C 4.359375 -16.992188 4.21875 -17.347656 4.21875 -17.765625 C 4.21875 -18.253906 4.394531 -18.671875 4.75 -19.015625 C 5.113281 -19.367188 5.546875 -19.546875 6.046875 -19.546875 C 6.460938 -19.546875 6.804688 -19.398438 7.078125 -19.109375 C 7.347656 -18.816406 7.484375 -18.453125 7.484375 -18.015625 C 7.484375 -17.523438 7.304688 -17.113281 6.953125 -16.78125 C 6.609375 -16.445312 6.195312 -16.28125 5.71875 -16.28125 Z M 5.71875 -16.28125 "/></g></g></g><g fill="#ff9e2c" fill-opacity="1"><g transform="translate(260.225523, 27.760503)"><g><path d="M 14.46875 -14.53125 L 14.15625 -12.75 C 13.519531 -12.863281 12.976562 -12.921875 12.53125 -12.921875 C 12.0625 -12.921875 11.59375 -12.859375 11.125 -12.734375 C 11.625 -12.035156 11.875 -11.207031 11.875 -10.25 C 11.875 -9.3125 11.640625 -8.429688 11.171875 -7.609375 C 10.703125 -6.796875 10.0625 -6.148438 9.25 -5.671875 C 8.445312 -5.191406 7.578125 -4.953125 6.640625 -4.953125 C 5.585938 -4.953125 4.71875 -5.175781 4.03125 -5.625 C 3.539062 -5.21875 3.296875 -4.78125 3.296875 -4.3125 C 3.296875 -3.9375 3.503906 -3.609375 3.921875 -3.328125 C 4.347656 -3.046875 5.21875 -2.765625 6.53125 -2.484375 C 8 -2.160156 9.117188 -1.816406 9.890625 -1.453125 C 10.671875 -1.085938 11.195312 -0.691406 11.46875 -0.265625 C 11.738281 0.148438 11.875 0.632812 11.875 1.1875 C 11.875 1.9375 11.566406 2.675781 10.953125 3.40625 C 10.335938 4.132812 9.46875 4.734375 8.34375 5.203125 C 7.226562 5.671875 5.957031 5.90625 4.53125 5.90625 C 2.800781 5.90625 1.484375 5.640625 0.578125 5.109375 C -0.316406 4.578125 -0.765625 3.832031 -0.765625 2.875 C -0.765625 1.914062 -0.375 1.082031 0.40625 0.375 C 1.1875 -0.320312 2.070312 -0.84375 3.0625 -1.1875 C 2.113281 -1.707031 1.640625 -2.410156 1.640625 -3.296875 C 1.640625 -4.398438 2.285156 -5.28125 3.578125 -5.9375 C 2.640625 -6.6875 2.171875 -7.738281 2.171875 -9.09375 C 2.171875 -10.03125 2.40625 -10.90625 2.875 -11.71875 C 3.34375 -12.539062 3.972656 -13.191406 4.765625 -13.671875 C 5.566406 -14.148438 6.4375 -14.390625 7.375 -14.390625 C 8.09375 -14.390625 8.738281 -14.273438 9.3125 -14.046875 C 9.894531 -13.828125 10.394531 -13.507812 10.8125 -13.09375 C 11.238281 -13.519531 11.757812 -13.863281 12.375 -14.125 C 12.988281 -14.394531 13.628906 -14.53125 14.296875 -14.53125 Z M 6.671875 -5.546875 C 7.203125 -5.546875 7.679688 -5.742188 8.109375 -6.140625 C 8.535156 -6.546875 8.878906 -7.132812 9.140625 -7.90625 C 9.410156 -8.675781 9.546875 -9.597656 9.546875 -10.671875 C 9.546875 -11.609375 9.359375 -12.363281 8.984375 -12.9375 C 8.609375 -13.507812 8.070312 -13.796875 7.375 -13.796875 C 6.851562 -13.796875 6.375 -13.59375 5.9375 -13.1875 C 5.507812 -12.78125 5.160156 -12.191406 4.890625 -11.421875 C 4.628906 -10.660156 4.5 -9.742188 4.5 -8.671875 C 4.5 -7.734375 4.6875 -6.976562 5.0625 -6.40625 C 5.4375 -5.832031 5.972656 -5.546875 6.671875 -5.546875 Z M 9.890625 2.078125 C 9.890625 1.691406 9.789062 1.378906 9.59375 1.140625 C 9.40625 0.898438 9.019531 0.664062 8.4375 0.4375 C 7.863281 0.21875 6.992188 -0.0078125 5.828125 -0.25 C 4.929688 -0.4375 4.179688 -0.660156 3.578125 -0.921875 C 2.921875 -0.535156 2.390625 -0.0859375 1.984375 0.421875 C 1.578125 0.929688 1.375 1.539062 1.375 2.25 C 1.375 3.070312 1.707031 3.742188 2.375 4.265625 C 3.039062 4.796875 4.015625 5.0625 5.296875 5.0625 C 6.191406 5.0625 6.988281 4.921875 7.6875 4.640625 C 8.382812 4.359375 8.925781 3.988281 9.3125 3.53125 C 9.695312 3.070312 9.890625 2.585938 9.890625 2.078125 Z M 9.890625 2.078125 "/></g></g></g><g fill="#ff9e2c" fill-opacity="1"><g transform="translate(273.85153, 27.760503)"><g><path d="M 12.015625 0.3125 C 11.453125 0.3125 10.992188 0.117188 10.640625 -0.265625 C 10.285156 -0.648438 10.109375 -1.226562 10.109375 -2 C 10.109375 -2.488281 10.175781 -2.992188 10.3125 -3.515625 L 11.828125 -9.90625 C 11.898438 -10.207031 11.9375 -10.53125 11.9375 -10.875 C 11.9375 -11.4375 11.796875 -11.863281 11.515625 -12.15625 C 11.234375 -12.457031 10.859375 -12.609375 10.390625 -12.609375 C 9.410156 -12.609375 8.445312 -12.019531 7.5 -10.84375 C 6.550781 -9.675781 5.675781 -7.789062 4.875 -5.1875 L 3.859375 0 L 1.4375 0 L 3.296875 -9.625 C 3.441406 -10.4375 3.515625 -11.019531 3.515625 -11.375 C 3.515625 -11.75 3.457031 -12.039062 3.34375 -12.25 C 3.238281 -12.457031 3.046875 -12.671875 2.765625 -12.890625 L 2.78125 -13.03125 L 6.5 -14.390625 L 6.640625 -14.390625 L 5.625 -9.125 L 5.765625 -9.125 C 6.421875 -10.789062 7.21875 -12.082031 8.15625 -13 C 9.101562 -13.925781 10.140625 -14.390625 11.265625 -14.390625 C 12.179688 -14.390625 12.925781 -14.125 13.5 -13.59375 C 14.070312 -13.070312 14.359375 -12.238281 14.359375 -11.09375 C 14.359375 -10.4375 14.265625 -9.734375 14.078125 -8.984375 L 12.46875 -2.3125 C 12.414062 -2.0625 12.390625 -1.84375 12.390625 -1.65625 C 12.390625 -1.1875 12.566406 -0.953125 12.921875 -0.953125 C 13.273438 -0.953125 13.613281 -1.207031 13.9375 -1.71875 C 14.257812 -2.226562 14.609375 -2.988281 14.984375 -4 L 15.453125 -4 C 15.117188 -2.832031 14.769531 -1.9375 14.40625 -1.3125 C 14.050781 -0.695312 13.6875 -0.269531 13.3125 -0.03125 C 12.9375 0.195312 12.503906 0.3125 12.015625 0.3125 Z M 12.015625 0.3125 "/></g></g></g><g fill="#ff9e2c" fill-opacity="1"><g transform="translate(290.546197, 27.760503)"><g><path d="M 5.625 0.3125 C 4.664062 0.3125 3.765625 0.15625 2.921875 -0.15625 C 2.078125 -0.46875 1.335938 -0.914062 0.703125 -1.5 L 1.4375 -5.328125 L 1.71875 -5.328125 C 1.71875 -4.398438 1.898438 -3.5625 2.265625 -2.8125 C 2.628906 -2.0625 3.113281 -1.46875 3.71875 -1.03125 C 4.332031 -0.601562 5.007812 -0.390625 5.75 -0.390625 C 6.5 -0.390625 7.101562 -0.601562 7.5625 -1.03125 C 8.019531 -1.46875 8.25 -2.015625 8.25 -2.671875 C 8.25 -3.179688 8.070312 -3.679688 7.71875 -4.171875 C 7.363281 -4.660156 6.734375 -5.296875 5.828125 -6.078125 C 4.628906 -7.109375 3.78125 -7.941406 3.28125 -8.578125 C 2.78125 -9.222656 2.53125 -9.941406 2.53125 -10.734375 C 2.53125 -11.835938 2.957031 -12.722656 3.8125 -13.390625 C 4.664062 -14.054688 5.710938 -14.390625 6.953125 -14.390625 C 7.773438 -14.390625 8.546875 -14.257812 9.265625 -14 C 9.992188 -13.75 10.59375 -13.4375 11.0625 -13.0625 L 10.421875 -9.765625 L 10.140625 -9.765625 C 10.097656 -11.003906 9.765625 -11.972656 9.140625 -12.671875 C 8.523438 -13.367188 7.738281 -13.71875 6.78125 -13.71875 C 6.070312 -13.71875 5.488281 -13.523438 5.03125 -13.140625 C 4.582031 -12.765625 4.359375 -12.257812 4.359375 -11.625 C 4.359375 -11.3125 4.425781 -11.03125 4.5625 -10.78125 C 4.707031 -10.539062 4.96875 -10.238281 5.34375 -9.875 C 5.71875 -9.519531 6.335938 -8.988281 7.203125 -8.28125 C 8.234375 -7.4375 8.984375 -6.691406 9.453125 -6.046875 C 9.929688 -5.410156 10.171875 -4.644531 10.171875 -3.75 C 10.171875 -2.46875 9.757812 -1.46875 8.9375 -0.75 C 8.125 -0.0390625 7.019531 0.3125 5.625 0.3125 Z M 5.625 0.3125 "/></g></g></g><g fill="#ff9e2c" fill-opacity="1"><g transform="translate(41.758991, 50.98667)"><g><path d="M 6.296875 0.1875 C 5.535156 0.1875 4.832031 0.046875 4.1875 -0.234375 C 3.550781 -0.515625 2.992188 -0.898438 2.515625 -1.390625 C 2.046875 -1.878906 1.675781 -2.453125 1.40625 -3.109375 C 1.144531 -3.765625 1.015625 -4.46875 1.015625 -5.21875 L 1.015625 -5.25 C 1.015625 -5.988281 1.144531 -6.6875 1.40625 -7.34375 C 1.675781 -8.007812 2.046875 -8.585938 2.515625 -9.078125 C 2.992188 -9.578125 3.554688 -9.96875 4.203125 -10.25 C 4.859375 -10.539062 5.570312 -10.6875 6.34375 -10.6875 C 6.820312 -10.6875 7.253906 -10.644531 7.640625 -10.5625 C 8.023438 -10.488281 8.378906 -10.378906 8.703125 -10.234375 C 9.035156 -10.085938 9.34375 -9.910156 9.625 -9.703125 C 9.90625 -9.503906 10.175781 -9.28125 10.4375 -9.03125 L 9.625 -8.15625 C 9.175781 -8.570312 8.691406 -8.914062 8.171875 -9.1875 C 7.660156 -9.457031 7.046875 -9.59375 6.328125 -9.59375 C 5.742188 -9.59375 5.203125 -9.484375 4.703125 -9.265625 C 4.210938 -9.046875 3.785156 -8.738281 3.421875 -8.34375 C 3.054688 -7.957031 2.769531 -7.5 2.5625 -6.96875 C 2.351562 -6.445312 2.25 -5.882812 2.25 -5.28125 L 2.25 -5.25 C 2.25 -4.644531 2.351562 -4.078125 2.5625 -3.546875 C 2.769531 -3.023438 3.054688 -2.566406 3.421875 -2.171875 C 3.785156 -1.785156 4.210938 -1.476562 4.703125 -1.25 C 5.203125 -1.03125 5.742188 -0.921875 6.328125 -0.921875 C 7.046875 -0.921875 7.664062 -1.050781 8.1875 -1.3125 C 8.707031 -1.582031 9.21875 -1.957031 9.71875 -2.4375 L 10.5 -1.671875 C 10.226562 -1.390625 9.941406 -1.132812 9.640625 -0.90625 C 9.347656 -0.6875 9.03125 -0.492188 8.6875 -0.328125 C 8.351562 -0.171875 7.988281 -0.046875 7.59375 0.046875 C 7.207031 0.140625 6.773438 0.1875 6.296875 0.1875 Z M 6.296875 0.1875 "/></g></g></g><g fill="#ff9e2c" fill-opacity="1"><g transform="translate(54.789235, 50.98667)"><g><path d="M 1.390625 -10.96875 L 2.546875 -10.96875 L 2.546875 0 L 1.390625 0 Z M 1.390625 -10.96875 "/></g></g></g><g fill="#ff9e2c" fill-opacity="1"><g transform="translate(60.629069, 50.98667)"><g><path d="M 4.6875 0.1875 C 4.15625 0.1875 3.65625 0.0859375 3.1875 -0.109375 C 2.71875 -0.304688 2.304688 -0.582031 1.953125 -0.9375 C 1.597656 -1.289062 1.316406 -1.710938 1.109375 -2.203125 C 0.910156 -2.703125 0.8125 -3.253906 0.8125 -3.859375 L 0.8125 -3.890625 C 0.8125 -4.453125 0.898438 -4.976562 1.078125 -5.46875 C 1.265625 -5.957031 1.523438 -6.382812 1.859375 -6.75 C 2.191406 -7.113281 2.582031 -7.398438 3.03125 -7.609375 C 3.488281 -7.816406 3.988281 -7.921875 4.53125 -7.921875 C 5.101562 -7.921875 5.613281 -7.8125 6.0625 -7.59375 C 6.507812 -7.382812 6.890625 -7.09375 7.203125 -6.71875 C 7.515625 -6.351562 7.75 -5.921875 7.90625 -5.421875 C 8.070312 -4.929688 8.15625 -4.398438 8.15625 -3.828125 C 8.15625 -3.742188 8.15625 -3.675781 8.15625 -3.625 C 8.15625 -3.582031 8.148438 -3.523438 8.140625 -3.453125 L 1.984375 -3.453125 C 2.023438 -3.035156 2.125 -2.660156 2.28125 -2.328125 C 2.4375 -2.003906 2.640625 -1.726562 2.890625 -1.5 C 3.140625 -1.28125 3.414062 -1.113281 3.71875 -1 C 4.03125 -0.882812 4.363281 -0.828125 4.71875 -0.828125 C 5.257812 -0.828125 5.722656 -0.925781 6.109375 -1.125 C 6.492188 -1.320312 6.84375 -1.585938 7.15625 -1.921875 L 7.890625 -1.28125 C 7.492188 -0.832031 7.046875 -0.472656 6.546875 -0.203125 C 6.046875 0.0546875 5.425781 0.1875 4.6875 0.1875 Z M 6.984375 -4.3125 C 6.953125 -4.65625 6.878906 -4.988281 6.765625 -5.3125 C 6.648438 -5.632812 6.488281 -5.914062 6.28125 -6.15625 C 6.070312 -6.394531 5.820312 -6.585938 5.53125 -6.734375 C 5.238281 -6.878906 4.894531 -6.953125 4.5 -6.953125 C 4.164062 -6.953125 3.851562 -6.882812 3.5625 -6.75 C 3.269531 -6.613281 3.015625 -6.425781 2.796875 -6.1875 C 2.578125 -5.957031 2.394531 -5.679688 2.25 -5.359375 C 2.113281 -5.035156 2.023438 -4.6875 1.984375 -4.3125 Z M 6.984375 -4.3125 "/></g></g></g><g fill="#ff9e2c" fill-opacity="1"><g transform="translate(71.407619, 50.98667)"><g><path d="M 3.609375 0.171875 C 3.242188 0.171875 2.890625 0.117188 2.546875 0.015625 C 2.203125 -0.0859375 1.890625 -0.238281 1.609375 -0.4375 C 1.335938 -0.644531 1.117188 -0.898438 0.953125 -1.203125 C 0.785156 -1.503906 0.703125 -1.851562 0.703125 -2.25 L 0.703125 -2.28125 C 0.703125 -2.6875 0.78125 -3.046875 0.9375 -3.359375 C 1.101562 -3.671875 1.332031 -3.929688 1.625 -4.140625 C 1.925781 -4.347656 2.273438 -4.507812 2.671875 -4.625 C 3.078125 -4.738281 3.53125 -4.796875 4.03125 -4.796875 C 4.53125 -4.796875 4.960938 -4.765625 5.328125 -4.703125 C 5.703125 -4.640625 6.0625 -4.554688 6.40625 -4.453125 L 6.40625 -4.734375 C 6.40625 -5.429688 6.203125 -5.957031 5.796875 -6.3125 C 5.398438 -6.664062 4.832031 -6.84375 4.09375 -6.84375 C 3.632812 -6.84375 3.21875 -6.789062 2.84375 -6.6875 C 2.46875 -6.582031 2.097656 -6.445312 1.734375 -6.28125 L 1.390625 -7.21875 C 1.828125 -7.414062 2.265625 -7.570312 2.703125 -7.6875 C 3.140625 -7.8125 3.644531 -7.875 4.21875 -7.875 C 5.320312 -7.875 6.160156 -7.585938 6.734375 -7.015625 C 7.253906 -6.484375 7.515625 -5.726562 7.515625 -4.75 L 7.515625 0 L 6.40625 0 L 6.40625 -1.171875 C 6.132812 -0.816406 5.769531 -0.503906 5.3125 -0.234375 C 4.863281 0.0351562 4.296875 0.171875 3.609375 0.171875 Z M 3.828125 -0.75 C 4.191406 -0.75 4.53125 -0.800781 4.84375 -0.90625 C 5.15625 -1.007812 5.425781 -1.15625 5.65625 -1.34375 C 5.894531 -1.53125 6.082031 -1.75 6.21875 -2 C 6.351562 -2.257812 6.421875 -2.546875 6.421875 -2.859375 L 6.421875 -3.609375 C 6.128906 -3.679688 5.796875 -3.753906 5.421875 -3.828125 C 5.046875 -3.898438 4.617188 -3.9375 4.140625 -3.9375 C 3.410156 -3.9375 2.847656 -3.789062 2.453125 -3.5 C 2.066406 -3.207031 1.875 -2.816406 1.875 -2.328125 L 1.875 -2.296875 C 1.875 -2.054688 1.925781 -1.835938 2.03125 -1.640625 C 2.132812 -1.441406 2.273438 -1.28125 2.453125 -1.15625 C 2.640625 -1.03125 2.847656 -0.929688 3.078125 -0.859375 C 3.316406 -0.785156 3.566406 -0.75 3.828125 -0.75 Z M 3.828125 -0.75 "/></g></g></g><g fill="#ff9e2c" fill-opacity="1"><g transform="translate(81.991021, 50.98667)"><g><path d="M 1.296875 -7.765625 L 2.453125 -7.765625 L 2.453125 -5.734375 C 2.585938 -6.054688 2.757812 -6.351562 2.96875 -6.625 C 3.175781 -6.894531 3.414062 -7.125 3.6875 -7.3125 C 3.957031 -7.507812 4.253906 -7.65625 4.578125 -7.75 C 4.898438 -7.851562 5.242188 -7.898438 5.609375 -7.890625 L 5.609375 -6.65625 L 5.53125 -6.65625 C 5.101562 -6.65625 4.703125 -6.578125 4.328125 -6.421875 C 3.953125 -6.273438 3.625 -6.050781 3.34375 -5.75 C 3.0625 -5.445312 2.84375 -5.070312 2.6875 -4.625 C 2.53125 -4.1875 2.453125 -3.675781 2.453125 -3.09375 L 2.453125 0 L 1.296875 0 Z M 1.296875 -7.765625 "/></g></g></g><g fill="#ff9e2c" fill-opacity="1"><g transform="translate(88.611337, 50.98667)"><g><path d="M 1.140625 -1.578125 L 2.515625 -1.578125 L 2.515625 0 L 1.140625 0 Z M 1.140625 -1.578125 "/></g></g></g><g fill="#ff9e2c" fill-opacity="1"><g transform="translate(93.565464, 50.98667)"><g><path d="M 6.296875 0.1875 C 5.535156 0.1875 4.832031 0.046875 4.1875 -0.234375 C 3.550781 -0.515625 2.992188 -0.898438 2.515625 -1.390625 C 2.046875 -1.878906 1.675781 -2.453125 1.40625 -3.109375 C 1.144531 -3.765625 1.015625 -4.46875 1.015625 -5.21875 L 1.015625 -5.25 C 1.015625 -5.988281 1.144531 -6.6875 1.40625 -7.34375 C 1.675781 -8.007812 2.046875 -8.585938 2.515625 -9.078125 C 2.992188 -9.578125 3.554688 -9.96875 4.203125 -10.25 C 4.859375 -10.539062 5.570312 -10.6875 6.34375 -10.6875 C 6.820312 -10.6875 7.253906 -10.644531 7.640625 -10.5625 C 8.023438 -10.488281 8.378906 -10.378906 8.703125 -10.234375 C 9.035156 -10.085938 9.34375 -9.910156 9.625 -9.703125 C 9.90625 -9.503906 10.175781 -9.28125 10.4375 -9.03125 L 9.625 -8.15625 C 9.175781 -8.570312 8.691406 -8.914062 8.171875 -9.1875 C 7.660156 -9.457031 7.046875 -9.59375 6.328125 -9.59375 C 5.742188 -9.59375 5.203125 -9.484375 4.703125 -9.265625 C 4.210938 -9.046875 3.785156 -8.738281 3.421875 -8.34375 C 3.054688 -7.957031 2.769531 -7.5 2.5625 -6.96875 C 2.351562 -6.445312 2.25 -5.882812 2.25 -5.28125 L 2.25 -5.25 C 2.25 -4.644531 2.351562 -4.078125 2.5625 -3.546875 C 2.769531 -3.023438 3.054688 -2.566406 3.421875 -2.171875 C 3.785156 -1.785156 4.210938 -1.476562 4.703125 -1.25 C 5.203125 -1.03125 5.742188 -0.921875 6.328125 -0.921875 C 7.046875 -0.921875 7.664062 -1.050781 8.1875 -1.3125 C 8.707031 -1.582031 9.21875 -1.957031 9.71875 -2.4375 L 10.5 -1.671875 C 10.226562 -1.390625 9.941406 -1.132812 9.640625 -0.90625 C 9.347656 -0.6875 9.03125 -0.492188 8.6875 -0.328125 C 8.351562 -0.171875 7.988281 -0.046875 7.59375 0.046875 C 7.207031 0.140625 6.773438 0.1875 6.296875 0.1875 Z M 6.296875 0.1875 "/></g></g></g><g fill="#ff9e2c" fill-opacity="1"><g transform="translate(106.595708, 50.98667)"><g><path d="M 1.296875 -7.765625 L 2.453125 -7.765625 L 2.453125 -5.734375 C 2.585938 -6.054688 2.757812 -6.351562 2.96875 -6.625 C 3.175781 -6.894531 3.414062 -7.125 3.6875 -7.3125 C 3.957031 -7.507812 4.253906 -7.65625 4.578125 -7.75 C 4.898438 -7.851562 5.242188 -7.898438 5.609375 -7.890625 L 5.609375 -6.65625 L 5.53125 -6.65625 C 5.101562 -6.65625 4.703125 -6.578125 4.328125 -6.421875 C 3.953125 -6.273438 3.625 -6.050781 3.34375 -5.75 C 3.0625 -5.445312 2.84375 -5.070312 2.6875 -4.625 C 2.53125 -4.1875 2.453125 -3.675781 2.453125 -3.09375 L 2.453125 0 L 1.296875 0 Z M 1.296875 -7.765625 "/></g></g></g><g fill="#ff9e2c" fill-opacity="1"><g transform="translate(114.236877, 50.98667)"><g><path d="M 4.6875 0.1875 C 4.15625 0.1875 3.65625 0.0859375 3.1875 -0.109375 C 2.71875 -0.304688 2.304688 -0.582031 1.953125 -0.9375 C 1.597656 -1.289062 1.316406 -1.710938 1.109375 -2.203125 C 0.910156 -2.703125 0.8125 -3.253906 0.8125 -3.859375 L 0.8125 -3.890625 C 0.8125 -4.453125 0.898438 -4.976562 1.078125 -5.46875 C 1.265625 -5.957031 1.523438 -6.382812 1.859375 -6.75 C 2.191406 -7.113281 2.582031 -7.398438 3.03125 -7.609375 C 3.488281 -7.816406 3.988281 -7.921875 4.53125 -7.921875 C 5.101562 -7.921875 5.613281 -7.8125 6.0625 -7.59375 C 6.507812 -7.382812 6.890625 -7.09375 7.203125 -6.71875 C 7.515625 -6.351562 7.75 -5.921875 7.90625 -5.421875 C 8.070312 -4.929688 8.15625 -4.398438 8.15625 -3.828125 C 8.15625 -3.742188 8.15625 -3.675781 8.15625 -3.625 C 8.15625 -3.582031 8.148438 -3.523438 8.140625 -3.453125 L 1.984375 -3.453125 C 2.023438 -3.035156 2.125 -2.660156 2.28125 -2.328125 C 2.4375 -2.003906 2.640625 -1.726562 2.890625 -1.5 C 3.140625 -1.28125 3.414062 -1.113281 3.71875 -1 C 4.03125 -0.882812 4.363281 -0.828125 4.71875 -0.828125 C 5.257812 -0.828125 5.722656 -0.925781 6.109375 -1.125 C 6.492188 -1.320312 6.84375 -1.585938 7.15625 -1.921875 L 7.890625 -1.28125 C 7.492188 -0.832031 7.046875 -0.472656 6.546875 -0.203125 C 6.046875 0.0546875 5.425781 0.1875 4.6875 0.1875 Z M 6.984375 -4.3125 C 6.953125 -4.65625 6.878906 -4.988281 6.765625 -5.3125 C 6.648438 -5.632812 6.488281 -5.914062 6.28125 -6.15625 C 6.070312 -6.394531 5.820312 -6.585938 5.53125 -6.734375 C 5.238281 -6.878906 4.894531 -6.953125 4.5 -6.953125 C 4.164062 -6.953125 3.851562 -6.882812 3.5625 -6.75 C 3.269531 -6.613281 3.015625 -6.425781 2.796875 -6.1875 C 2.578125 -5.957031 2.394531 -5.679688 2.25 -5.359375 C 2.113281 -5.035156 2.023438 -4.6875 1.984375 -4.3125 Z M 6.984375 -4.3125 "/></g></g></g><g fill="#ff9e2c" fill-opacity="1"><g transform="translate(125.015427, 50.98667)"><g><path d="M 3.609375 0.171875 C 3.242188 0.171875 2.890625 0.117188 2.546875 0.015625 C 2.203125 -0.0859375 1.890625 -0.238281 1.609375 -0.4375 C 1.335938 -0.644531 1.117188 -0.898438 0.953125 -1.203125 C 0.785156 -1.503906 0.703125 -1.851562 0.703125 -2.25 L 0.703125 -2.28125 C 0.703125 -2.6875 0.78125 -3.046875 0.9375 -3.359375 C 1.101562 -3.671875 1.332031 -3.929688 1.625 -4.140625 C 1.925781 -4.347656 2.273438 -4.507812 2.671875 -4.625 C 3.078125 -4.738281 3.53125 -4.796875 4.03125 -4.796875 C 4.53125 -4.796875 4.960938 -4.765625 5.328125 -4.703125 C 5.703125 -4.640625 6.0625 -4.554688 6.40625 -4.453125 L 6.40625 -4.734375 C 6.40625 -5.429688 6.203125 -5.957031 5.796875 -6.3125 C 5.398438 -6.664062 4.832031 -6.84375 4.09375 -6.84375 C 3.632812 -6.84375 3.21875 -6.789062 2.84375 -6.6875 C 2.46875 -6.582031 2.097656 -6.445312 1.734375 -6.28125 L 1.390625 -7.21875 C 1.828125 -7.414062 2.265625 -7.570312 2.703125 -7.6875 C 3.140625 -7.8125 3.644531 -7.875 4.21875 -7.875 C 5.320312 -7.875 6.160156 -7.585938 6.734375 -7.015625 C 7.253906 -6.484375 7.515625 -5.726562 7.515625 -4.75 L 7.515625 0 L 6.40625 0 L 6.40625 -1.171875 C 6.132812 -0.816406 5.769531 -0.503906 5.3125 -0.234375 C 4.863281 0.0351562 4.296875 0.171875 3.609375 0.171875 Z M 3.828125 -0.75 C 4.191406 -0.75 4.53125 -0.800781 4.84375 -0.90625 C 5.15625 -1.007812 5.425781 -1.15625 5.65625 -1.34375 C 5.894531 -1.53125 6.082031 -1.75 6.21875 -2 C 6.351562 -2.257812 6.421875 -2.546875 6.421875 -2.859375 L 6.421875 -3.609375 C 6.128906 -3.679688 5.796875 -3.753906 5.421875 -3.828125 C 5.046875 -3.898438 4.617188 -3.9375 4.140625 -3.9375 C 3.410156 -3.9375 2.847656 -3.789062 2.453125 -3.5 C 2.066406 -3.207031 1.875 -2.816406 1.875 -2.328125 L 1.875 -2.296875 C 1.875 -2.054688 1.925781 -1.835938 2.03125 -1.640625 C 2.132812 -1.441406 2.273438 -1.28125 2.453125 -1.15625 C 2.640625 -1.03125 2.847656 -0.929688 3.078125 -0.859375 C 3.316406 -0.785156 3.566406 -0.75 3.828125 -0.75 Z M 3.828125 -0.75 "/></g></g></g><g fill="#ff9e2c" fill-opacity="1"><g transform="translate(135.523771, 50.98667)"><g><path d="M 3.890625 0.140625 C 3.578125 0.140625 3.285156 0.0976562 3.015625 0.015625 C 2.742188 -0.0664062 2.507812 -0.191406 2.3125 -0.359375 C 2.125 -0.535156 1.972656 -0.765625 1.859375 -1.046875 C 1.753906 -1.328125 1.703125 -1.664062 1.703125 -2.0625 L 1.703125 -6.734375 L 0.609375 -6.734375 L 0.609375 -7.765625 L 1.703125 -7.765625 L 1.703125 -10.109375 L 2.859375 -10.109375 L 2.859375 -7.765625 L 5.3125 -7.765625 L 5.3125 -6.734375 L 2.859375 -6.734375 L 2.859375 -2.203125 C 2.859375 -1.722656 2.976562 -1.390625 3.21875 -1.203125 C 3.457031 -1.015625 3.769531 -0.921875 4.15625 -0.921875 C 4.351562 -0.921875 4.539062 -0.9375 4.71875 -0.96875 C 4.894531 -1.007812 5.082031 -1.082031 5.28125 -1.1875 L 5.28125 -0.1875 C 5.082031 -0.0820312 4.867188 -0.00390625 4.640625 0.046875 C 4.421875 0.109375 4.171875 0.140625 3.890625 0.140625 Z M 3.890625 0.140625 "/></g></g></g><g fill="#ff9e2c" fill-opacity="1"><g transform="translate(143.480197, 50.98667)"><g><path d="M 1.328125 -10.734375 L 2.640625 -10.734375 L 2.640625 -9.453125 L 1.328125 -9.453125 Z M 1.390625 -7.765625 L 2.546875 -7.765625 L 2.546875 0 L 1.390625 0 Z M 1.390625 -7.765625 "/></g></g></g><g fill="#ff9e2c" fill-opacity="1"><g transform="translate(149.320031, 50.98667)"><g><path d="M 0.53125 -7.765625 L 1.796875 -7.765625 L 4.421875 -1.328125 L 7.046875 -7.765625 L 8.28125 -7.765625 L 4.90625 0.0625 L 3.890625 0.0625 Z M 0.53125 -7.765625 "/></g></g></g><g fill="#ff9e2c" fill-opacity="1"><g transform="translate(159.573151, 50.98667)"><g><path d="M 4.6875 0.1875 C 4.15625 0.1875 3.65625 0.0859375 3.1875 -0.109375 C 2.71875 -0.304688 2.304688 -0.582031 1.953125 -0.9375 C 1.597656 -1.289062 1.316406 -1.710938 1.109375 -2.203125 C 0.910156 -2.703125 0.8125 -3.253906 0.8125 -3.859375 L 0.8125 -3.890625 C 0.8125 -4.453125 0.898438 -4.976562 1.078125 -5.46875 C 1.265625 -5.957031 1.523438 -6.382812 1.859375 -6.75 C 2.191406 -7.113281 2.582031 -7.398438 3.03125 -7.609375 C 3.488281 -7.816406 3.988281 -7.921875 4.53125 -7.921875 C 5.101562 -7.921875 5.613281 -7.8125 6.0625 -7.59375 C 6.507812 -7.382812 6.890625 -7.09375 7.203125 -6.71875 C 7.515625 -6.351562 7.75 -5.921875 7.90625 -5.421875 C 8.070312 -4.929688 8.15625 -4.398438 8.15625 -3.828125 C 8.15625 -3.742188 8.15625 -3.675781 8.15625 -3.625 C 8.15625 -3.582031 8.148438 -3.523438 8.140625 -3.453125 L 1.984375 -3.453125 C 2.023438 -3.035156 2.125 -2.660156 2.28125 -2.328125 C 2.4375 -2.003906 2.640625 -1.726562 2.890625 -1.5 C 3.140625 -1.28125 3.414062 -1.113281 3.71875 -1 C 4.03125 -0.882812 4.363281 -0.828125 4.71875 -0.828125 C 5.257812 -0.828125 5.722656 -0.925781 6.109375 -1.125 C 6.492188 -1.320312 6.84375 -1.585938 7.15625 -1.921875 L 7.890625 -1.28125 C 7.492188 -0.832031 7.046875 -0.472656 6.546875 -0.203125 C 6.046875 0.0546875 5.425781 0.1875 4.6875 0.1875 Z M 6.984375 -4.3125 C 6.953125 -4.65625 6.878906 -4.988281 6.765625 -5.3125 C 6.648438 -5.632812 6.488281 -5.914062 6.28125 -6.15625 C 6.070312 -6.394531 5.820312 -6.585938 5.53125 -6.734375 C 5.238281 -6.878906 4.894531 -6.953125 4.5 -6.953125 C 4.164062 -6.953125 3.851562 -6.882812 3.5625 -6.75 C 3.269531 -6.613281 3.015625 -6.425781 2.796875 -6.1875 C 2.578125 -5.957031 2.394531 -5.679688 2.25 -5.359375 C 2.113281 -5.035156 2.023438 -4.6875 1.984375 -4.3125 Z M 6.984375 -4.3125 "/></g></g></g><g fill="#ff9e2c" fill-opacity="1"><g transform="translate(170.201574, 50.98667)"><g><path d="M 1.140625 -1.578125 L 2.515625 -1.578125 L 2.515625 0 L 1.140625 0 Z M 1.140625 -1.578125 "/></g></g></g><g fill="#545454" fill-opacity="1"><g transform="translate(175.760338, 50.98667)"><g><path d="M 1.484375 -10.515625 L 5.96875 -10.515625 C 6.5625 -10.515625 7.09375 -10.429688 7.5625 -10.265625 C 8.03125 -10.097656 8.410156 -9.867188 8.703125 -9.578125 C 9.160156 -9.109375 9.390625 -8.546875 9.390625 -7.890625 L 9.390625 -7.875 C 9.390625 -7.53125 9.335938 -7.222656 9.234375 -6.953125 C 9.140625 -6.691406 9.015625 -6.460938 8.859375 -6.265625 C 8.703125 -6.066406 8.523438 -5.898438 8.328125 -5.765625 C 8.128906 -5.640625 7.925781 -5.53125 7.71875 -5.4375 C 8.03125 -5.34375 8.320312 -5.222656 8.59375 -5.078125 C 8.875 -4.929688 9.113281 -4.757812 9.3125 -4.5625 C 9.507812 -4.363281 9.664062 -4.125 9.78125 -3.84375 C 9.90625 -3.570312 9.96875 -3.253906 9.96875 -2.890625 L 9.96875 -2.875 C 9.96875 -2.414062 9.878906 -2.007812 9.703125 -1.65625 C 9.523438 -1.300781 9.265625 -1 8.921875 -0.75 C 8.585938 -0.507812 8.1875 -0.320312 7.71875 -0.1875 C 7.25 -0.0625 6.726562 0 6.15625 0 L 1.484375 0 Z M 8.1875 -7.734375 C 8.1875 -8.253906 7.984375 -8.664062 7.578125 -8.96875 C 7.179688 -9.28125 6.609375 -9.4375 5.859375 -9.4375 L 2.65625 -9.4375 L 2.65625 -5.828125 L 5.765625 -5.828125 C 6.484375 -5.828125 7.066406 -5.984375 7.515625 -6.296875 C 7.960938 -6.609375 8.1875 -7.078125 8.1875 -7.703125 Z M 8.765625 -2.96875 C 8.765625 -3.539062 8.53125 -3.984375 8.0625 -4.296875 C 7.59375 -4.617188 6.894531 -4.78125 5.96875 -4.78125 L 2.65625 -4.78125 L 2.65625 -1.0625 L 6.1875 -1.0625 C 6.988281 -1.0625 7.617188 -1.226562 8.078125 -1.5625 C 8.535156 -1.894531 8.765625 -2.351562 8.765625 -2.9375 Z M 8.765625 -2.96875 "/></g></g></g><g fill="#545454" fill-opacity="1"><g transform="translate(188.49036, 50.98667)"><g><path d="M 4.140625 0.171875 C 3.671875 0.171875 3.253906 0.0976562 2.890625 -0.046875 C 2.523438 -0.203125 2.210938 -0.414062 1.953125 -0.6875 C 1.703125 -0.96875 1.507812 -1.296875 1.375 -1.671875 C 1.238281 -2.054688 1.171875 -2.476562 1.171875 -2.9375 L 1.171875 -7.765625 L 2.328125 -7.765625 L 2.328125 -3.234375 C 2.328125 -2.503906 2.507812 -1.929688 2.875 -1.515625 C 3.25 -1.097656 3.78125 -0.890625 4.46875 -0.890625 C 4.800781 -0.890625 5.109375 -0.945312 5.390625 -1.0625 C 5.679688 -1.175781 5.925781 -1.335938 6.125 -1.546875 C 6.332031 -1.765625 6.492188 -2.023438 6.609375 -2.328125 C 6.734375 -2.628906 6.796875 -2.957031 6.796875 -3.3125 L 6.796875 -7.765625 L 7.9375 -7.765625 L 7.9375 0 L 6.796875 0 L 6.796875 -1.34375 C 6.535156 -0.925781 6.195312 -0.566406 5.78125 -0.265625 C 5.363281 0.0234375 4.816406 0.171875 4.140625 0.171875 Z M 4.140625 0.171875 "/></g></g></g><g fill="#545454" fill-opacity="1"><g transform="translate(199.629188, 50.98667)"><g><path d="M 1.328125 -10.734375 L 2.640625 -10.734375 L 2.640625 -9.453125 L 1.328125 -9.453125 Z M 1.390625 -7.765625 L 2.546875 -7.765625 L 2.546875 0 L 1.390625 0 Z M 1.390625 -7.765625 "/></g></g></g><g fill="#545454" fill-opacity="1"><g transform="translate(205.469022, 50.98667)"><g><path d="M 1.390625 -10.96875 L 2.546875 -10.96875 L 2.546875 0 L 1.390625 0 Z M 1.390625 -10.96875 "/></g></g></g><g fill="#545454" fill-opacity="1"><g transform="translate(211.308856, 50.98667)"><g><path d="M 4.546875 0.171875 C 4.078125 0.171875 3.617188 0.0820312 3.171875 -0.09375 C 2.734375 -0.28125 2.335938 -0.546875 1.984375 -0.890625 C 1.640625 -1.234375 1.363281 -1.648438 1.15625 -2.140625 C 0.945312 -2.640625 0.84375 -3.210938 0.84375 -3.859375 L 0.84375 -3.890625 C 0.84375 -4.515625 0.945312 -5.078125 1.15625 -5.578125 C 1.363281 -6.085938 1.640625 -6.515625 1.984375 -6.859375 C 2.335938 -7.203125 2.734375 -7.460938 3.171875 -7.640625 C 3.617188 -7.828125 4.078125 -7.921875 4.546875 -7.921875 C 4.910156 -7.921875 5.238281 -7.875 5.53125 -7.78125 C 5.832031 -7.695312 6.101562 -7.578125 6.34375 -7.421875 C 6.59375 -7.273438 6.8125 -7.101562 7 -6.90625 C 7.195312 -6.707031 7.367188 -6.5 7.515625 -6.28125 L 7.515625 -10.96875 L 8.671875 -10.96875 L 8.671875 0 L 7.515625 0 L 7.515625 -1.5625 C 7.359375 -1.332031 7.179688 -1.109375 6.984375 -0.890625 C 6.796875 -0.679688 6.578125 -0.5 6.328125 -0.34375 C 6.085938 -0.1875 5.820312 -0.0625 5.53125 0.03125 C 5.238281 0.125 4.910156 0.171875 4.546875 0.171875 Z M 4.765625 -0.875 C 5.117188 -0.875 5.460938 -0.945312 5.796875 -1.09375 C 6.140625 -1.238281 6.441406 -1.441406 6.703125 -1.703125 C 6.972656 -1.972656 7.179688 -2.289062 7.328125 -2.65625 C 7.484375 -3.019531 7.5625 -3.425781 7.5625 -3.875 L 7.5625 -3.90625 C 7.5625 -4.351562 7.484375 -4.757812 7.328125 -5.125 C 7.179688 -5.488281 6.972656 -5.800781 6.703125 -6.0625 C 6.441406 -6.320312 6.140625 -6.523438 5.796875 -6.671875 C 5.460938 -6.816406 5.117188 -6.890625 4.765625 -6.890625 C 4.378906 -6.890625 4.019531 -6.820312 3.6875 -6.6875 C 3.363281 -6.550781 3.078125 -6.351562 2.828125 -6.09375 C 2.585938 -5.84375 2.394531 -5.53125 2.25 -5.15625 C 2.101562 -4.789062 2.03125 -4.375 2.03125 -3.90625 L 2.03125 -3.875 C 2.03125 -3.414062 2.101562 -3 2.25 -2.625 C 2.394531 -2.257812 2.59375 -1.945312 2.84375 -1.6875 C 3.09375 -1.425781 3.378906 -1.222656 3.703125 -1.078125 C 4.035156 -0.941406 4.390625 -0.875 4.765625 -0.875 Z M 4.765625 -0.875 "/></g></g></g><g fill="#545454" fill-opacity="1"><g transform="translate(223.168217, 50.98667)"><g><path d="M 3.609375 0.171875 C 3.242188 0.171875 2.890625 0.117188 2.546875 0.015625 C 2.203125 -0.0859375 1.890625 -0.238281 1.609375 -0.4375 C 1.335938 -0.644531 1.117188 -0.898438 0.953125 -1.203125 C 0.785156 -1.503906 0.703125 -1.851562 0.703125 -2.25 L 0.703125 -2.28125 C 0.703125 -2.6875 0.78125 -3.046875 0.9375 -3.359375 C 1.101562 -3.671875 1.332031 -3.929688 1.625 -4.140625 C 1.925781 -4.347656 2.273438 -4.507812 2.671875 -4.625 C 3.078125 -4.738281 3.53125 -4.796875 4.03125 -4.796875 C 4.53125 -4.796875 4.960938 -4.765625 5.328125 -4.703125 C 5.703125 -4.640625 6.0625 -4.554688 6.40625 -4.453125 L 6.40625 -4.734375 C 6.40625 -5.429688 6.203125 -5.957031 5.796875 -6.3125 C 5.398438 -6.664062 4.832031 -6.84375 4.09375 -6.84375 C 3.632812 -6.84375 3.21875 -6.789062 2.84375 -6.6875 C 2.46875 -6.582031 2.097656 -6.445312 1.734375 -6.28125 L 1.390625 -7.21875 C 1.828125 -7.414062 2.265625 -7.570312 2.703125 -7.6875 C 3.140625 -7.8125 3.644531 -7.875 4.21875 -7.875 C 5.320312 -7.875 6.160156 -7.585938 6.734375 -7.015625 C 7.253906 -6.484375 7.515625 -5.726562 7.515625 -4.75 L 7.515625 0 L 6.40625 0 L 6.40625 -1.171875 C 6.132812 -0.816406 5.769531 -0.503906 5.3125 -0.234375 C 4.863281 0.0351562 4.296875 0.171875 3.609375 0.171875 Z M 3.828125 -0.75 C 4.191406 -0.75 4.53125 -0.800781 4.84375 -0.90625 C 5.15625 -1.007812 5.425781 -1.15625 5.65625 -1.34375 C 5.894531 -1.53125 6.082031 -1.75 6.21875 -2 C 6.351562 -2.257812 6.421875 -2.546875 6.421875 -2.859375 L 6.421875 -3.609375 C 6.128906 -3.679688 5.796875 -3.753906 5.421875 -3.828125 C 5.046875 -3.898438 4.617188 -3.9375 4.140625 -3.9375 C 3.410156 -3.9375 2.847656 -3.789062 2.453125 -3.5 C 2.066406 -3.207031 1.875 -2.816406 1.875 -2.328125 L 1.875 -2.296875 C 1.875 -2.054688 1.925781 -1.835938 2.03125 -1.640625 C 2.132812 -1.441406 2.273438 -1.28125 2.453125 -1.15625 C 2.640625 -1.03125 2.847656 -0.929688 3.078125 -0.859375 C 3.316406 -0.785156 3.566406 -0.75 3.828125 -0.75 Z M 3.828125 -0.75 "/></g></g></g><g fill="#545454" fill-opacity="1"><g transform="translate(233.751619, 50.98667)"><g><path d="M 5.421875 0.171875 C 5.054688 0.171875 4.722656 0.125 4.421875 0.03125 C 4.128906 -0.0625 3.863281 -0.179688 3.625 -0.328125 C 3.382812 -0.484375 3.164062 -0.660156 2.96875 -0.859375 C 2.769531 -1.054688 2.597656 -1.265625 2.453125 -1.484375 L 2.453125 0 L 1.296875 0 L 1.296875 -10.96875 L 2.453125 -10.96875 L 2.453125 -6.203125 C 2.609375 -6.429688 2.78125 -6.648438 2.96875 -6.859375 C 3.164062 -7.066406 3.382812 -7.25 3.625 -7.40625 C 3.875 -7.5625 4.144531 -7.6875 4.4375 -7.78125 C 4.726562 -7.875 5.054688 -7.921875 5.421875 -7.921875 C 5.878906 -7.921875 6.332031 -7.832031 6.78125 -7.65625 C 7.226562 -7.476562 7.625 -7.21875 7.96875 -6.875 C 8.320312 -6.53125 8.601562 -6.109375 8.8125 -5.609375 C 9.019531 -5.109375 9.125 -4.539062 9.125 -3.90625 L 9.125 -3.875 C 9.125 -3.238281 9.019531 -2.671875 8.8125 -2.171875 C 8.601562 -1.671875 8.328125 -1.25 7.984375 -0.90625 C 7.640625 -0.5625 7.242188 -0.296875 6.796875 -0.109375 C 6.347656 0.078125 5.890625 0.171875 5.421875 0.171875 Z M 5.203125 -0.875 C 5.578125 -0.875 5.929688 -0.941406 6.265625 -1.078125 C 6.597656 -1.210938 6.882812 -1.40625 7.125 -1.65625 C 7.375 -1.914062 7.570312 -2.226562 7.71875 -2.59375 C 7.863281 -2.96875 7.9375 -3.390625 7.9375 -3.859375 L 7.9375 -3.890625 C 7.9375 -4.347656 7.863281 -4.757812 7.71875 -5.125 C 7.570312 -5.5 7.375 -5.816406 7.125 -6.078125 C 6.875 -6.335938 6.582031 -6.535156 6.25 -6.671875 C 5.925781 -6.816406 5.578125 -6.890625 5.203125 -6.890625 C 4.847656 -6.890625 4.5 -6.816406 4.15625 -6.671875 C 3.820312 -6.523438 3.523438 -6.316406 3.265625 -6.046875 C 3.003906 -5.785156 2.796875 -5.472656 2.640625 -5.109375 C 2.484375 -4.742188 2.40625 -4.34375 2.40625 -3.90625 L 2.40625 -3.875 C 2.40625 -3.425781 2.484375 -3.015625 2.640625 -2.640625 C 2.796875 -2.273438 3.003906 -1.960938 3.265625 -1.703125 C 3.523438 -1.441406 3.820312 -1.238281 4.15625 -1.09375 C 4.5 -0.945312 4.847656 -0.875 5.203125 -0.875 Z M 5.203125 -0.875 "/></g></g></g><g fill="#545454" fill-opacity="1"><g transform="translate(245.610981, 50.98667)"><g><path d="M 1.390625 -10.96875 L 2.546875 -10.96875 L 2.546875 0 L 1.390625 0 Z M 1.390625 -10.96875 "/></g></g></g><g fill="#545454" fill-opacity="1"><g transform="translate(251.450815, 50.98667)"><g><path d="M 4.6875 0.1875 C 4.15625 0.1875 3.65625 0.0859375 3.1875 -0.109375 C 2.71875 -0.304688 2.304688 -0.582031 1.953125 -0.9375 C 1.597656 -1.289062 1.316406 -1.710938 1.109375 -2.203125 C 0.910156 -2.703125 0.8125 -3.253906 0.8125 -3.859375 L 0.8125 -3.890625 C 0.8125 -4.453125 0.898438 -4.976562 1.078125 -5.46875 C 1.265625 -5.957031 1.523438 -6.382812 1.859375 -6.75 C 2.191406 -7.113281 2.582031 -7.398438 3.03125 -7.609375 C 3.488281 -7.816406 3.988281 -7.921875 4.53125 -7.921875 C 5.101562 -7.921875 5.613281 -7.8125 6.0625 -7.59375 C 6.507812 -7.382812 6.890625 -7.09375 7.203125 -6.71875 C 7.515625 -6.351562 7.75 -5.921875 7.90625 -5.421875 C 8.070312 -4.929688 8.15625 -4.398438 8.15625 -3.828125 C 8.15625 -3.742188 8.15625 -3.675781 8.15625 -3.625 C 8.15625 -3.582031 8.148438 -3.523438 8.140625 -3.453125 L 1.984375 -3.453125 C 2.023438 -3.035156 2.125 -2.660156 2.28125 -2.328125 C 2.4375 -2.003906 2.640625 -1.726562 2.890625 -1.5 C 3.140625 -1.28125 3.414062 -1.113281 3.71875 -1 C 4.03125 -0.882812 4.363281 -0.828125 4.71875 -0.828125 C 5.257812 -0.828125 5.722656 -0.925781 6.109375 -1.125 C 6.492188 -1.320312 6.84375 -1.585938 7.15625 -1.921875 L 7.890625 -1.28125 C 7.492188 -0.832031 7.046875 -0.472656 6.546875 -0.203125 C 6.046875 0.0546875 5.425781 0.1875 4.6875 0.1875 Z M 6.984375 -4.3125 C 6.953125 -4.65625 6.878906 -4.988281 6.765625 -5.3125 C 6.648438 -5.632812 6.488281 -5.914062 6.28125 -6.15625 C 6.070312 -6.394531 5.820312 -6.585938 5.53125 -6.734375 C 5.238281 -6.878906 4.894531 -6.953125 4.5 -6.953125 C 4.164062 -6.953125 3.851562 -6.882812 3.5625 -6.75 C 3.269531 -6.613281 3.015625 -6.425781 2.796875 -6.1875 C 2.578125 -5.957031 2.394531 -5.679688 2.25 -5.359375 C 2.113281 -5.035156 2.023438 -4.6875 1.984375 -4.3125 Z M 6.984375 -4.3125 "/></g></g></g></g></g></g></g></g></g></svg>