<svg xmlns="http://www.w3.org/2000/svg" xmlns:xlink="http://www.w3.org/1999/xlink" zoomAndPan="magnify" preserveAspectRatio="xMidYMid meet" version="1.2" viewBox="144.09 149.86 92.57 60.16"><defs/><g id="044e552bd5"><g style="fill:#545454;fill-opacity:1;"><g transform="translate(136.872813, 210.014205)"><path style="stroke:none" d="M 7.21875 -0.4375 C 7.96875 -1.46875 8.597656 -2.753906 9.109375 -4.296875 C 9.628906 -5.847656 9.890625 -7.425781 9.890625 -9.03125 L 9.890625 -51.140625 C 9.890625 -52.742188 9.628906 -54.316406 9.109375 -55.859375 C 8.597656 -57.410156 7.96875 -58.703125 7.21875 -59.734375 L 7.21875 -60.15625 L 45.984375 -60.15625 L 47.78125 -45.984375 L 46.921875 -45.984375 C 45.722656 -48.734375 44.460938 -50.976562 43.140625 -52.71875 C 41.828125 -54.46875 40.109375 -55.84375 37.984375 -56.84375 C 35.867188 -57.851562 33.234375 -58.359375 30.078125 -58.359375 L 18.046875 -58.359375 L 18.046875 -31.375 L 29.484375 -31.375 C 34.578125 -31.375 37.726562 -33.863281 38.9375 -38.84375 L 39.796875 -38.84375 L 39.796875 -22.09375 L 38.9375 -22.09375 C 37.675781 -27.070312 34.523438 -29.5625 29.484375 -29.5625 L 18.046875 -29.5625 L 18.046875 -1.8125 L 32.140625 -1.8125 C 35.296875 -1.8125 37.929688 -2.3125 40.046875 -3.3125 C 42.171875 -4.3125 43.890625 -5.6875 45.203125 -7.4375 C 46.523438 -9.1875 47.785156 -11.4375 48.984375 -14.1875 L 49.84375 -14.1875 L 48.046875 0 L 7.21875 0 Z M 7.21875 -0.4375 "/></g></g><g style="fill:#545454;fill-opacity:1;"><g transform="translate(190.253666, 210.014205)"><path style="stroke:none" d=""/></g></g><g style="fill:#ff9e2c;fill-opacity:1;"><g transform="translate(190.253666, 210.014205)"><path style="stroke:none" d="M 3.09375 -0.4375 C 4.070312 -1.46875 4.945312 -2.753906 5.71875 -4.296875 C 6.488281 -5.847656 7.046875 -7.425781 7.390625 -9.03125 L 15.5625 -51.140625 C 15.726562 -52.171875 15.8125 -53.144531 15.8125 -54.0625 C 15.8125 -56.238281 15.410156 -58.128906 14.609375 -59.734375 L 14.703125 -60.15625 L 28.015625 -60.15625 L 27.9375 -59.734375 C 26.957031 -58.703125 26.082031 -57.410156 25.3125 -55.859375 C 24.539062 -54.316406 23.984375 -52.742188 23.640625 -51.140625 L 14.09375 -1.8125 L 25.09375 -1.8125 C 29.96875 -1.8125 33.894531 -2.796875 36.875 -4.765625 C 39.851562 -6.742188 42.773438 -9.941406 45.640625 -14.359375 L 46.40625 -14.359375 L 41.515625 0 L 3.015625 0 Z M 3.09375 -0.4375 "/></g></g><g style="fill:#ff9e2c;fill-opacity:1;"><g transform="translate(238.121711, 210.014205)"><path style="stroke:none" d=""/></g></g></g></svg>